<svg width="78" height="76" viewBox="0 0 78 76" fill="none" xmlns="http://www.w3.org/2000/svg">
<g clip-path="url(#clip0_1822_2505)">
<mask id="mask0_1822_2505" style="mask-type:luminance" maskUnits="userSpaceOnUse" x="0" y="0" width="78" height="76">
<path d="M78 0H0V76H78V0Z" fill="white"/>
</mask>
<g mask="url(#mask0_1822_2505)">
<path fill-rule="evenodd" clip-rule="evenodd" d="M38 0H40C60.9868 0 78 17.0132 78 38C78 58.9868 60.9868 76 40 76H38C17.0132 76 0 58.9868 0 38C0 17.0132 17.0132 0 38 0ZM13.2891 21.7432V52.2574C13.2891 53.362 14.1845 54.2574 15.2891 54.2574H62.7109C63.8155 54.2574 64.7109 53.362 64.7109 52.2574V21.7432H13.2891Z" fill="white"/>
<path d="M13.2891 21.7432V52.2574C13.2891 53.362 14.1845 54.2574 15.2891 54.2574H62.7109C63.8155 54.2574 64.7109 53.362 64.7109 52.2574V21.7432M13.2891 21.7432H64.7109M13.2891 21.7432L38.1333 36.4239C38.7642 36.7967 39.5485 36.7946 40.1774 36.4184L64.7109 21.7432" stroke="white" stroke-width="3" stroke-linejoin="round"/>
</g>
</g>
<defs>
<clipPath id="clip0_1822_2505">
<rect width="78" height="76" fill="white"/>
</clipPath>
</defs>
</svg>
