<?xml version="1.0" encoding="utf-8"?>
<!-- Generator: Adobe Illustrator 16.0.0, SVG Export Plug-In . SVG Version: 6.00 Build 0)  -->
<!DOCTYPE svg PUBLIC "-//W3C//DTD SVG 1.1//EN" "http://www.w3.org/Graphics/SVG/1.1/DTD/svg11.dtd">
<svg version="1.1" id="Warstwa_1" xmlns="http://www.w3.org/2000/svg" xmlns:xlink="http://www.w3.org/1999/xlink" x="0px" y="0px"
	 width="510.9px" height="228.417px" viewBox="0 0 510.9 228.417" enable-background="new 0 0 510.9 228.417" xml:space="preserve">
<rect x="0" fill="none" width="510.896" height="228.417"/>
<g>
	<g>
		<path d="M197.466,70.099v7.165h0.135c1.355-2.759,3.023-4.797,4.992-6.109c1.973-1.315,4.467-1.928,7.49-1.84v5.911
			c-2.236,0-4.141,0.31-5.717,0.923c-1.578,0.607-2.848,1.509-3.809,2.691c-0.963,1.179-1.666,2.615-2.104,4.298
			c-0.438,1.692-0.658,3.626-0.658,5.813v15.111h-5.582V70.099H197.466z"/>
		<path d="M242.723,103.93c-0.963,0.567-2.295,0.855-4.008,0.855c-1.441,0-2.596-0.404-3.447-1.215
			c-0.848-0.812-1.277-2.136-1.277-3.975c-1.537,1.839-3.324,3.163-5.355,3.975c-2.037,0.811-4.238,1.215-6.6,1.215
			c-1.536,0-2.991-0.182-4.37-0.527c-1.377-0.353-2.576-0.895-3.578-1.641c-1.006-0.745-1.807-1.717-2.398-2.922
			s-0.887-2.664-0.887-4.37c0-1.932,0.33-3.505,0.986-4.732c0.654-1.223,1.52-2.221,2.592-2.986c1.074-0.768,2.303-1.35,3.678-1.74
			c1.383-0.395,2.793-0.726,4.241-0.984c1.529-0.308,2.984-0.534,4.365-0.695c1.383-0.149,2.592-0.368,3.645-0.653
			c1.053-0.285,1.883-0.698,2.498-1.251c0.613-0.544,0.916-1.341,0.916-2.397c0-1.224-0.229-2.205-0.686-2.952
			c-0.461-0.742-1.051-1.319-1.777-1.71c-0.717-0.392-1.529-0.654-2.426-0.786c-0.896-0.132-1.787-0.198-2.666-0.198
			c-2.361,0-4.328,0.447-5.907,1.345c-1.572,0.902-2.432,2.597-2.564,5.089h-5.58c0.09-2.1,0.527-3.868,1.314-5.314
			c0.787-1.448,1.84-2.62,3.152-3.52c1.314-0.894,2.812-1.541,4.5-1.929c1.685-0.403,3.489-0.599,5.415-0.599
			c1.537,0,3.057,0.109,4.566,0.328c1.512,0.22,2.881,0.668,4.107,1.341c1.225,0.682,2.205,1.631,2.953,2.855
			c0.746,1.223,1.119,2.82,1.119,4.782v17.438c0,1.307,0.074,2.27,0.229,2.88c0.154,0.616,0.668,0.921,1.541,0.921
			c0.48,0,1.053-0.089,1.709-0.264V103.93z M233.659,86.524c-0.701,0.52-1.619,0.906-2.758,1.146
			c-1.141,0.237-2.334,0.435-3.58,0.588c-1.246,0.15-2.508,0.327-3.775,0.52c-1.27,0.197-2.409,0.516-3.415,0.951
			c-1.004,0.436-1.826,1.055-2.465,1.865c-0.635,0.804-0.951,1.902-0.951,3.3c0,0.917,0.186,1.686,0.557,2.32
			c0.371,0.629,0.852,1.138,1.447,1.539c0.588,0.384,1.279,0.67,2.07,0.844c0.786,0.175,1.618,0.264,2.491,0.264
			c1.844,0,3.418-0.25,4.732-0.755c1.311-0.497,2.389-1.132,3.219-1.892c0.83-0.765,1.441-1.591,1.836-2.481
			c0.398-0.899,0.592-1.741,0.592-2.521V86.524z"/>
		<path d="M271.03,104.062v-4.602h-0.131c-0.922,1.885-2.363,3.244-4.336,4.076c-1.965,0.833-4.139,1.249-6.502,1.249
			c-2.625,0-4.914-0.483-6.861-1.452c-1.953-0.957-3.572-2.25-4.863-3.873c-1.291-1.619-2.262-3.502-2.922-5.647
			c-0.656-2.146-0.982-4.422-0.982-6.832c0-2.406,0.312-4.684,0.951-6.833c0.635-2.141,1.598-4.013,2.891-5.611
			c1.287-1.598,2.91-2.867,4.861-3.809c1.943-0.942,4.211-1.416,6.795-1.416c0.875,0,1.818,0.088,2.826,0.263
			c1.01,0.178,2.012,0.471,3.021,0.888c1.006,0.414,1.955,0.963,2.857,1.641c0.896,0.683,1.652,1.521,2.264,2.53h0.131V57.179h5.586
			v46.883H271.03z M250.967,92.009c0.414,1.511,1.045,2.854,1.902,4.041c0.855,1.18,1.947,2.123,3.285,2.82
			c1.334,0.708,2.902,1.053,4.695,1.053c1.881,0,3.48-0.368,4.797-1.115c1.312-0.748,2.385-1.719,3.219-2.923
			c0.83-1.201,1.43-2.575,1.805-4.105c0.371-1.537,0.557-3.089,0.557-4.668c0-1.659-0.197-3.269-0.588-4.827
			c-0.395-1.552-1.02-2.917-1.873-4.101c-0.855-1.182-1.963-2.133-3.318-2.861c-1.357-0.72-2.998-1.081-4.92-1.081
			c-1.887,0-3.484,0.374-4.803,1.12c-1.312,0.738-2.361,1.728-3.148,2.947c-0.789,1.23-1.361,2.635-1.709,4.212
			c-0.35,1.574-0.529,3.192-0.529,4.856C250.338,88.951,250.551,90.5,250.967,92.009z"/>
	</g>
	<g>
		<path d="M201.597,111.541v17.183h0.133c1.143-1.76,2.699-3.047,4.658-3.862c1.961-0.819,4-1.225,6.113-1.225
			c1.719,0,3.412,0.35,5.09,1.057c1.676,0.709,3.184,1.783,4.526,3.239c1.344,1.452,2.432,3.314,3.27,5.583
			c0.838,2.268,1.258,4.967,1.258,8.1c0,3.123-0.42,5.818-1.258,8.092c-0.838,2.269-1.926,4.129-3.27,5.587
			c-1.343,1.452-2.851,2.535-4.526,3.236c-1.678,0.703-3.371,1.054-5.09,1.054c-2.51,0-4.758-0.397-6.742-1.188
			c-1.98-0.793-3.479-2.137-4.494-4.032h-0.133v4.364h-8.918v-47.188H201.597z M216.796,137.511
			c-0.309-1.32-0.791-2.485-1.455-3.499c-0.662-1.012-1.488-1.818-2.475-2.408c-0.994-0.599-2.191-0.896-3.602-0.896
			c-1.363,0-2.557,0.296-3.57,0.896c-1.01,0.59-1.848,1.396-2.51,2.408c-0.666,1.014-1.146,2.179-1.455,3.499
			c-0.305,1.324-0.465,2.71-0.465,4.167c0,1.411,0.16,2.777,0.465,4.094c0.309,1.327,0.789,2.491,1.455,3.509
			c0.662,1.013,1.5,1.816,2.51,2.409c1.014,0.595,2.207,0.894,3.57,0.894c1.41,0,2.607-0.299,3.602-0.894
			c0.986-0.593,1.812-1.396,2.475-2.409c0.664-1.018,1.146-2.182,1.455-3.509c0.311-1.317,0.465-2.683,0.465-4.094
			C217.261,140.222,217.107,138.835,216.796,137.511z"/>
		<path d="M239.862,124.562v6.344h0.129c0.441-1.06,1.033-2.039,1.785-2.941c0.75-0.903,1.609-1.673,2.578-2.315
			c0.969-0.636,2.004-1.132,3.107-1.486c1.098-0.351,2.246-0.528,3.438-0.528c0.615,0,1.295,0.116,2.047,0.33v8.723
			c-0.439-0.087-0.971-0.164-1.586-0.231c-0.617-0.069-1.211-0.098-1.783-0.098c-1.723,0-3.172,0.285-4.361,0.861
			c-1.191,0.57-2.152,1.349-2.873,2.342c-0.73,0.992-1.248,2.148-1.557,3.472c-0.311,1.32-0.463,2.748-0.463,4.292v15.402h-9.379
			v-34.167H239.862z"/>
		<path d="M256.172,135.066c0.129-2.198,0.682-4.028,1.652-5.482c0.967-1.453,2.197-2.621,3.697-3.5
			c1.5-0.882,3.188-1.513,5.057-1.883c1.869-0.379,3.758-0.564,5.65-0.564c1.719,0,3.459,0.122,5.219,0.363
			c1.766,0.245,3.371,0.717,4.826,1.421c1.455,0.708,2.643,1.684,3.568,2.941c0.926,1.25,1.387,2.915,1.387,4.99v17.778
			c0,1.542,0.09,3.013,0.264,4.426c0.178,1.412,0.482,2.463,0.924,3.172h-9.512c-0.178-0.53-0.32-1.068-0.428-1.623
			c-0.119-0.548-0.193-1.112-0.234-1.684c-1.5,1.546-3.258,2.622-5.285,3.239c-2.027,0.616-4.1,0.923-6.213,0.923
			c-1.633,0-3.15-0.195-4.561-0.594c-1.412-0.39-2.641-1.014-3.701-1.851c-1.053-0.838-1.883-1.892-2.48-3.175
			c-0.592-1.269-0.887-2.791-0.887-4.556c0-1.939,0.338-3.54,1.021-4.796c0.678-1.25,1.568-2.25,2.645-2.998
			c1.08-0.75,2.311-1.316,3.703-1.689c1.387-0.374,2.781-0.671,4.195-0.891c1.406-0.22,2.797-0.4,4.162-0.532
			c1.363-0.131,2.576-0.324,3.633-0.593c1.059-0.265,1.895-0.651,2.51-1.156c0.617-0.509,0.904-1.241,0.861-2.215
			c0-1.011-0.164-1.818-0.492-2.414c-0.334-0.591-0.773-1.059-1.326-1.387c-0.553-0.328-1.188-0.547-1.916-0.66
			c-0.727-0.104-1.508-0.165-2.344-0.165c-1.852,0-3.305,0.397-4.363,1.192c-1.057,0.793-1.674,2.116-1.85,3.96H256.172z
			 M277.846,142.006c-0.398,0.357-0.895,0.627-1.488,0.829c-0.592,0.199-1.236,0.364-1.916,0.493
			c-0.684,0.136-1.396,0.249-2.146,0.331c-0.75,0.093-1.5,0.201-2.248,0.331c-0.707,0.132-1.398,0.311-2.08,0.533
			c-0.684,0.216-1.275,0.511-1.789,0.889c-0.504,0.372-0.912,0.849-1.221,1.418c-0.307,0.573-0.459,1.302-0.459,2.18
			c0,0.834,0.152,1.545,0.459,2.121c0.309,0.569,0.727,1.022,1.262,1.357c0.525,0.322,1.145,0.555,1.846,0.687
			c0.705,0.136,1.432,0.2,2.182,0.2c1.854,0,3.279-0.31,4.297-0.924c1.012-0.618,1.76-1.354,2.244-2.216
			c0.484-0.857,0.783-1.728,0.895-2.608c0.107-0.887,0.164-1.588,0.164-2.116V142.006z"/>
		<path d="M307.6,130.708c-1.502,0-2.758,0.34-3.773,1.026c-1.012,0.679-1.836,1.563-2.477,2.639
			c-0.639,1.081-1.088,2.271-1.354,3.572c-0.264,1.3-0.396,2.587-0.396,3.86c0,1.24,0.133,2.496,0.396,3.771
			c0.266,1.281,0.693,2.439,1.287,3.464c0.596,1.042,1.398,1.891,2.414,2.551c1.01,0.659,2.244,0.993,3.699,0.993
			c2.248,0,3.979-0.628,5.188-1.885c1.211-1.25,1.973-2.938,2.281-5.051h9.056c-0.621,4.535-2.381,7.991-5.29,10.369
			c-2.908,2.381-6.633,3.569-11.168,3.569c-2.557,0-4.902-0.426-7.037-1.286c-2.141-0.856-3.961-2.057-5.453-3.602
			c-1.496-1.542-2.666-3.379-3.504-5.52c-0.834-2.13-1.254-4.481-1.254-7.036c0-2.641,0.387-5.098,1.16-7.368
			c0.766-2.269,1.898-4.231,3.398-5.883c1.498-1.653,3.326-2.938,5.488-3.864c2.156-0.924,4.627-1.389,7.4-1.389
			c2.027,0,3.971,0.262,5.844,0.792c1.879,0.53,3.549,1.331,5.029,2.414c1.47,1.076,2.675,2.425,3.597,4.03
			c0.93,1.61,1.457,3.515,1.584,5.714h-9.183C313.918,132.669,311.604,130.708,307.6,130.708z"/>
		<path d="M337.792,111.541v25.313l11.83-12.292h11.104l-12.885,12.56l14.334,21.607h-11.363l-9.383-15.266l-3.637,3.5v11.766
			h-9.379v-47.188H337.792z"/>
		<path d="M373.876,150.536c1.41,1.367,3.434,2.048,6.08,2.048c1.896,0,3.523-0.47,4.889-1.424c1.365-0.946,2.203-1.947,2.512-3.002
			h8.262c-1.326,4.092-3.352,7.025-6.08,8.787c-2.734,1.754-6.037,2.64-9.914,2.64c-2.688,0-5.109-0.426-7.27-1.286
			c-2.158-0.856-3.984-2.084-5.482-3.672c-1.5-1.584-2.658-3.476-3.471-5.675c-0.816-2.211-1.227-4.632-1.227-7.274
			c0-2.556,0.42-4.932,1.26-7.138c0.834-2.2,2.023-4.11,3.568-5.72c1.545-1.602,3.381-2.868,5.52-3.794
			c2.137-0.924,4.502-1.389,7.102-1.389c2.908,0,5.443,0.564,7.604,1.685c2.156,1.123,3.93,2.633,5.318,4.524
			c1.387,1.896,2.389,4.056,3.006,6.479c0.619,2.427,0.836,4.953,0.658,7.6h-24.65C371.695,146.963,372.462,149.167,373.876,150.536
			z M384.484,132.558c-1.125-1.235-2.832-1.849-5.125-1.849c-1.498,0-2.738,0.251-3.732,0.761c-0.994,0.501-1.783,1.133-2.383,1.883
			c-0.592,0.75-1.01,1.542-1.252,2.379c-0.238,0.838-0.387,1.588-0.432,2.244h15.27
			C386.392,135.599,385.607,133.792,384.484,132.558z"/>
		<path d="M418.878,124.562v6.279h-6.871v16.918c0,1.584,0.268,2.642,0.793,3.171c0.527,0.524,1.586,0.791,3.174,0.791
			c0.523,0,1.033-0.021,1.518-0.065c0.484-0.046,0.945-0.111,1.387-0.202v7.275c-0.791,0.132-1.672,0.217-2.645,0.262
			c-0.969,0.045-1.912,0.068-2.84,0.068c-1.455,0-2.832-0.103-4.129-0.299c-1.301-0.193-2.449-0.581-3.439-1.156
			c-0.988-0.573-1.771-1.39-2.34-2.444c-0.574-1.059-0.863-2.445-0.863-4.166v-20.153h-5.686v-6.279h5.686v-10.242h9.385v10.242
			H418.878z"/>
		<path d="M431.615,150.235c0.42,0.726,0.961,1.322,1.617,1.787c0.666,0.466,1.422,0.804,2.283,1.021
			c0.857,0.223,1.754,0.333,2.676,0.333c0.662,0,1.354-0.074,2.084-0.232c0.729-0.157,1.383-0.395,1.982-0.724
			c0.592-0.333,1.088-0.771,1.484-1.322c0.396-0.551,0.6-1.252,0.6-2.087c0-1.401-0.939-2.463-2.811-3.167
			c-1.875-0.702-4.484-1.411-7.834-2.118c-1.365-0.304-2.697-0.665-3.996-1.091c-1.297-0.413-2.459-0.963-3.473-1.65
			c-1.01-0.683-1.824-1.545-2.443-2.578c-0.615-1.032-0.926-2.3-0.926-3.797c0-2.2,0.432-4.009,1.291-5.418
			c0.859-1.409,1.994-2.523,3.4-3.337c1.412-0.817,2.996-1.39,4.762-1.717c1.762-0.335,3.566-0.498,5.422-0.498
			c1.846,0,3.639,0.177,5.383,0.528c1.736,0.354,3.293,0.954,4.656,1.787c1.365,0.836,2.504,1.943,3.404,3.334
			c0.902,1.392,1.445,3.143,1.619,5.254h-8.918c-0.137-1.804-0.816-3.028-2.051-3.666c-1.232-0.639-2.689-0.96-4.363-0.96
			c-0.525,0-1.098,0.033-1.715,0.103c-0.623,0.062-1.18,0.212-1.686,0.426c-0.512,0.223-0.938,0.542-1.289,0.959
			c-0.355,0.422-0.531,0.98-0.531,1.684c0,0.835,0.309,1.522,0.926,2.051c0.617,0.525,1.422,0.957,2.41,1.287
			c0.996,0.332,2.129,0.63,3.406,0.896c1.277,0.262,2.574,0.551,3.898,0.86c1.363,0.303,2.701,0.679,3.996,1.122
			c1.303,0.439,2.459,1.022,3.473,1.746c1.012,0.731,1.826,1.631,2.443,2.716c0.619,1.076,0.926,2.408,0.926,3.996
			c0,2.246-0.453,4.127-1.354,5.649c-0.906,1.519-2.082,2.739-3.535,3.666c-1.455,0.926-3.121,1.579-4.988,1.952
			c-1.875,0.377-3.781,0.559-5.721,0.559c-1.98,0-3.918-0.195-5.812-0.594c-1.896-0.39-3.58-1.057-5.057-1.982
			c-1.475-0.923-2.689-2.151-3.633-3.669c-0.951-1.518-1.467-3.424-1.555-5.713h8.92
			C430.988,148.644,431.197,149.511,431.615,150.235z"/>
	</g>
</g>
<g>
	<g>
		<polygon fill="#ECC100" points="57.178,171.357 86.056,171.357 86.056,158.724 69.811,158.724 69.811,69.996 86.056,69.996 
			86.056,57.359 57.178,57.359 		"/>
		<path fill="#ECC100" d="M114.334,90.145c0.592,10.561-1.613,18.867-6.674,24.218c5.061,5.341,7.266,13.647,6.674,24.208
			c-0.471,8.367,1.082,14.168,4.6,17.245c2.596,2.304,6.023,2.775,8.447,2.775c0.57,0,1.062-0.02,1.412-0.06l3.97-0.341v12.736
			l-3.388,0.24c-0.582,0.04-1.252,0.07-2.004,0.07c-4.561,0-11.162-1.022-16.734-5.882c-6.623-5.762-9.649-15.01-8.937-27.485
			c0.891-15.912-6.725-17.064-9.229-17.435l-2.455-0.371v-11.403l2.455-0.381c2.504-0.371,10.119-1.523,9.229-17.425
			c-0.713-12.485,2.313-21.733,8.937-27.495c5.572-4.86,12.174-5.882,16.734-5.882c0.752,0,1.422,0.03,2.004,0.07l3.388,0.25v12.726
			l-3.97-0.361c-0.35-0.02-0.842-0.04-1.412-0.04c-2.424,0-5.852,0.471-8.447,2.755C115.417,75.976,113.864,81.777,114.334,90.145z"
			/>
		<path fill="#ECC100" d="M173.816,71.106l1.756-1.038V56.036l-5.236,2.759c-20.66,10.836-33.5,32.128-33.5,55.565
			c0,23.342,12.836,44.628,33.49,55.537l5.246,2.783v-13.986l-1.744-1.044c-15.385-9.164-24.57-25.348-24.57-43.29
			C149.257,96.408,158.439,80.233,173.816,71.106z"/>
	</g>
</g>
</svg>
