<svg width="375" height="144" viewBox="0 0 375 144" fill="none" xmlns="http://www.w3.org/2000/svg">
<g clip-path="url(#clip0_45_4153)">
<path d="M160.076 34.6413V40.6295H160.193C161.112 38.5869 162.555 36.8238 164.375 35.5194C166.251 34.3651 168.442 33.8297 170.639 33.9889V38.9317C169.011 38.8927 167.389 39.1535 165.855 39.7011C164.614 40.158 163.515 40.934 162.669 41.9509C161.832 43.0095 161.233 44.2362 160.913 45.5472C160.524 47.137 160.338 48.7698 160.361 50.4063V63.0435H155.694V34.6078L160.076 34.6413Z" fill="black"/>
<path d="M197.929 62.935C196.897 63.4651 195.743 63.7132 194.584 63.6542C193.525 63.7057 192.489 63.3393 191.698 62.6339C191.304 62.1772 191.007 61.6452 190.824 61.0701C190.642 60.4951 190.578 59.889 190.636 59.2885C189.447 60.7633 187.905 61.914 186.153 62.6339C184.395 63.3231 182.522 63.6695 180.634 63.6542C179.402 63.6547 178.175 63.5058 176.979 63.211C175.9 62.9553 174.883 62.4892 173.985 61.8394C173.124 61.1993 172.43 60.3617 171.961 59.3972C171.434 58.2527 171.179 57.0018 171.216 55.7424C171.167 54.3752 171.455 53.0169 172.053 51.7865C172.571 50.7915 173.316 49.9321 174.227 49.2775C175.158 48.6178 176.197 48.1253 177.297 47.8223C178.466 47.4825 179.653 47.2034 180.851 46.9859C182.131 46.7266 183.36 46.5343 184.497 46.4005C185.527 46.2956 186.547 46.1138 187.55 45.8568C188.316 45.6746 189.029 45.3166 189.633 44.8114C189.902 44.5547 190.11 44.2415 190.243 43.8944C190.376 43.5472 190.43 43.1749 190.402 42.8042C190.449 41.9303 190.249 41.0609 189.825 40.2952C189.466 39.6967 188.955 39.2034 188.345 38.865C187.71 38.5297 187.023 38.3062 186.312 38.2043C185.575 38.0982 184.832 38.0451 184.088 38.0454C182.37 37.9811 180.666 38.3675 179.145 39.1661C177.835 39.9188 177.118 41.3378 176.995 43.4231H172.329C172.351 41.875 172.729 40.3528 173.433 38.9737C174.064 37.7992 174.967 36.7927 176.067 36.0382C177.208 35.2666 178.485 34.7188 179.831 34.424C181.316 34.0764 182.838 33.9079 184.364 33.9222C185.64 33.922 186.914 34.0142 188.177 34.1982C189.386 34.3841 190.551 34.7894 191.615 35.3942C192.63 35.9608 193.481 36.7823 194.082 37.7778C194.756 38.9989 195.08 40.3821 195.019 41.7755V56.353C194.99 57.1606 195.054 57.9688 195.211 58.7616C195.336 59.2802 195.771 59.5311 196.499 59.5311C196.983 59.518 197.463 59.4449 197.929 59.3136V62.935ZM190.36 48.3742C189.671 48.8562 188.887 49.1843 188.06 49.336C187.098 49.5368 186.103 49.6957 185.066 49.8295C184.029 49.9633 182.967 50.0971 181.905 50.2644C180.921 50.415 179.962 50.6963 179.053 51.1007C178.245 51.4218 177.531 51.9427 176.979 52.6145C176.395 53.4132 176.1 54.3863 176.142 55.3744C176.121 56.0516 176.283 56.7219 176.611 57.3147C176.91 57.8294 177.322 58.2697 177.815 58.6027C178.344 58.9424 178.931 59.1833 179.546 59.3136C180.234 59.4601 180.934 59.533 181.637 59.5311C182.983 59.5623 184.323 59.3498 185.593 58.9038C186.583 58.5481 187.496 58.009 188.286 57.3147C188.936 56.7383 189.457 56.0316 189.817 55.2406C190.127 54.5805 190.295 53.8624 190.31 53.133V48.3742H190.36Z" fill="black"/>
<path d="M221.606 63.0435V59.1963H221.489C220.75 60.7455 219.458 61.9625 217.868 62.6086C216.144 63.3187 214.295 63.6742 212.432 63.654C210.45 63.7004 208.485 63.2822 206.694 62.4329C205.109 61.6761 203.717 60.5694 202.621 59.1963C201.516 57.7896 200.687 56.1862 200.179 54.471C199.615 52.6196 199.334 50.694 199.343 48.7587C199.329 46.8262 199.597 44.902 200.137 43.0465C200.628 41.3395 201.45 39.7455 202.554 38.3546C203.653 37.0009 205.042 35.9118 206.619 35.1681C208.4 34.3454 210.345 33.9393 212.306 33.9805C213.097 33.9865 213.887 34.0621 214.665 34.2064C215.525 34.3596 216.367 34.6064 217.174 34.9423C218.05 35.2936 218.876 35.7575 219.632 36.3223C220.393 36.8996 221.034 37.618 221.523 38.4382H221.64V23.8357H226.307V63.0435H221.606ZM204.821 52.9572C205.151 54.1565 205.689 55.2887 206.41 56.3025C207.13 57.2929 208.073 58.1007 209.161 58.661C210.38 59.2593 211.727 59.5467 213.084 59.4974C214.48 59.5444 215.864 59.2243 217.098 58.569C218.169 57.9685 219.089 57.1336 219.791 56.1269C220.49 55.107 221.002 53.9716 221.305 52.7732C221.612 51.4941 221.767 50.183 221.765 48.8675C221.772 47.5083 221.606 46.1538 221.272 44.8363C220.977 43.6005 220.445 42.4333 219.708 41.3989C218.979 40.3986 218.028 39.5801 216.931 39.007C215.655 38.3713 214.241 38.061 212.816 38.1037C211.42 38.0643 210.037 38.387 208.802 39.0404C207.73 39.6468 206.825 40.5087 206.167 41.5494C205.485 42.6288 205.001 43.8211 204.737 45.0705C204.441 46.405 204.293 47.7681 204.294 49.1351C204.306 50.4264 204.483 51.7109 204.821 52.9572Z" fill="black"/>
<path d="M163.53 69.2996V83.6679H163.639C164.577 82.2177 165.937 81.0908 167.537 80.4397C169.157 79.7603 170.898 79.4133 172.655 79.4193C174.171 79.4215 175.67 79.742 177.054 80.36C178.439 80.9781 179.678 81.8799 180.692 83.0072C181.905 84.3686 182.835 85.9579 183.427 87.6824C184.832 92.0865 184.832 96.8187 183.427 101.223C182.837 102.946 181.907 104.533 180.692 105.89C179.678 107.017 178.439 107.919 177.054 108.537C175.67 109.155 174.171 109.475 172.655 109.478C170.728 109.51 168.812 109.175 167.01 108.491C165.395 107.866 164.061 106.677 163.254 105.145H163.146V108.8H155.686V69.2996H163.53ZM176.243 91.0445C176.011 90.006 175.601 89.0155 175.03 88.1173C174.503 87.295 173.793 86.6053 172.956 86.1017C172.032 85.6132 171.003 85.3579 169.958 85.3579C168.913 85.3579 167.883 85.6132 166.959 86.1017C166.111 86.5997 165.392 87.2901 164.86 88.1173C164.287 89.015 163.874 90.0054 163.639 91.0445C163.381 92.189 163.252 93.3588 163.254 94.532C163.254 95.6831 163.383 96.8305 163.639 97.9527C163.869 98.996 164.282 99.99 164.86 100.888C165.392 101.715 166.111 102.406 166.959 102.904C167.871 103.414 168.901 103.671 169.945 103.648C170.998 103.683 172.04 103.425 172.956 102.904C173.791 102.398 174.501 101.709 175.03 100.888C175.602 99.9874 176.012 98.9941 176.243 97.9527C176.506 96.8316 176.638 95.6836 176.636 94.532C176.641 93.3499 176.509 92.1711 176.243 91.0194V91.0445Z" fill="black"/>
<path d="M195.537 80.1886V85.491H195.646C196.404 83.701 197.672 82.1738 199.292 81.1002C200.097 80.568 200.973 80.1514 201.893 79.8624C202.82 79.5623 203.788 79.4126 204.762 79.4192C205.33 79.4331 205.893 79.526 206.435 79.6951V86.9881C206.067 86.9128 205.598 86.8543 205.105 86.7957C204.611 86.7396 204.114 86.7117 203.616 86.7121C202.362 86.6753 201.116 86.9211 199.97 87.4313C199.018 87.8716 198.192 88.5446 197.569 89.3884C196.941 90.2598 196.497 91.2501 196.265 92.2988C195.998 93.4759 195.869 94.6799 195.88 95.8868V108.766H188.035V80.1886H195.537Z" fill="black"/>
<path d="M209.178 88.9786C209.221 87.3525 209.697 85.7674 210.558 84.3871C211.35 83.1882 212.409 82.1891 213.652 81.4683C214.947 80.708 216.361 80.1735 217.834 79.8876C219.392 79.5733 220.978 79.4164 222.568 79.4192C224.025 79.421 225.481 79.5216 226.925 79.7203C228.325 79.9054 229.688 80.306 230.965 80.9079C232.144 81.4743 233.169 82.318 233.95 83.3668C234.778 84.5991 235.186 86.0658 235.113 87.5485V102.419C235.112 103.657 235.184 104.894 235.33 106.124C235.402 107.051 235.664 107.953 236.1 108.775H228.146C227.997 108.332 227.877 107.879 227.787 107.42C227.689 106.954 227.624 106.482 227.594 106.007C226.378 107.276 224.854 108.21 223.17 108.716C221.487 109.23 219.736 109.49 217.976 109.486C216.688 109.498 215.405 109.332 214.163 108.992C213.037 108.691 211.984 108.165 211.068 107.445C210.178 106.733 209.468 105.822 208.994 104.786C208.472 103.586 208.218 102.288 208.25 100.98C208.191 99.5933 208.478 98.2137 209.086 96.9657C209.617 95.9663 210.376 95.1066 211.302 94.4567C212.244 93.8113 213.291 93.3357 214.397 93.0516C215.568 92.7218 216.758 92.4593 217.96 92.2655C219.139 92.0815 220.301 91.9309 221.447 91.8222C222.47 91.7351 223.485 91.5701 224.483 91.3288C225.246 91.1648 225.963 90.8335 226.582 90.3586C226.843 90.1323 227.046 89.8456 227.171 89.5235C227.296 89.2014 227.341 88.8536 227.302 88.5103C227.336 87.812 227.195 87.1161 226.892 86.4863C226.632 86.0082 226.248 85.6093 225.779 85.3322C225.289 85.0445 224.746 84.8569 224.182 84.7802C223.531 84.6837 222.874 84.6362 222.217 84.638C220.925 84.5662 219.646 84.9154 218.57 85.6333C218.089 86.0483 217.701 86.5616 217.435 87.1385C217.168 87.7155 217.027 88.3429 217.023 88.9786H209.178ZM227.302 94.7745C226.935 95.0841 226.512 95.3198 226.055 95.4687C225.532 95.6378 224.998 95.7746 224.458 95.8785C223.881 95.9872 223.287 96.0875 222.66 96.1545C222.033 96.2214 221.405 96.3217 220.778 96.4305C220.19 96.5417 219.609 96.6898 219.038 96.8737C218.505 97.0381 218.002 97.2896 217.55 97.6181C217.122 97.9316 216.77 98.3375 216.521 98.8057C216.251 99.3742 216.121 99.9997 216.145 100.629C216.125 101.242 216.254 101.85 216.521 102.402C216.77 102.867 217.136 103.26 217.583 103.539C218.058 103.821 218.579 104.016 219.122 104.116C219.724 104.225 220.334 104.278 220.945 104.275C222.192 104.348 223.434 104.082 224.542 103.506C225.316 103.06 225.964 102.424 226.423 101.658C226.81 100.985 227.063 100.244 227.168 99.4747C227.249 98.887 227.297 98.295 227.31 97.7017V94.7745H227.302Z" fill="black"/>
<path d="M252.191 85.3319C251.077 85.2871 249.976 85.5785 249.03 86.1683C248.184 86.7397 247.478 87.4943 246.964 88.3762C246.422 89.3014 246.037 90.3105 245.827 91.362C245.612 92.4247 245.502 93.506 245.5 94.5902C245.502 95.6496 245.612 96.7059 245.827 97.7433C246.028 98.7622 246.393 99.7421 246.905 100.645C247.398 101.507 248.089 102.238 248.921 102.778C249.848 103.355 250.924 103.646 252.015 103.614C252.808 103.666 253.603 103.552 254.35 103.282C255.097 103.011 255.78 102.589 256.356 102.042C257.416 100.884 258.084 99.4203 258.263 97.8603H265.84C265.322 101.646 263.847 104.534 261.416 106.525C258.755 108.597 255.444 109.655 252.074 109.511C250.072 109.532 248.084 109.169 246.22 108.44C244.502 107.771 242.948 106.741 241.662 105.421C240.382 104.097 239.386 102.526 238.734 100.804C238.018 98.9365 237.66 96.9503 237.681 94.9499C237.664 92.8559 237.991 90.7735 238.651 88.786C239.247 86.9672 240.215 85.2925 241.494 83.8683C242.771 82.4682 244.338 81.3636 246.086 80.6317C248.048 79.8279 250.154 79.4323 252.275 79.4692C253.926 79.4651 255.57 79.6902 257.159 80.1382C258.662 80.5552 260.078 81.2379 261.341 82.1538C262.568 83.0449 263.594 84.1848 264.352 85.4992C265.161 86.9652 265.614 88.6012 265.673 90.2747H257.995C257.471 86.9795 255.536 85.3319 252.191 85.3319Z" fill="black"/>
<path d="M277.441 69.2996V90.4674L287.376 80.1887H296.66L285.888 90.6932L297.872 108.767H288.33L280.485 95.9956L277.441 98.9228V108.767H269.596V69.2996H277.441Z" fill="black"/>
<path d="M307.616 101.917C308.913 102.933 310.489 103.527 312.134 103.62C313.779 103.712 315.413 103.299 316.815 102.435C317.78 101.861 318.52 100.977 318.915 99.9262H325.823C324.708 103.35 323.013 105.8 320.738 107.278C318.248 108.802 315.368 109.569 312.45 109.486C310.373 109.517 308.309 109.151 306.37 108.407C304.634 107.735 303.069 106.686 301.786 105.337C300.505 103.968 299.518 102.352 298.884 100.587C298.181 98.6379 297.833 96.5786 297.856 94.5067C297.838 92.4685 298.195 90.4444 298.909 88.5352C299.562 86.758 300.573 85.1344 301.881 83.7659C303.189 82.3974 304.766 81.3134 306.512 80.5816C308.389 79.7871 310.411 79.3912 312.45 79.4191C314.651 79.367 316.832 79.8491 318.806 80.8242C320.561 81.7269 322.084 83.0236 323.255 84.6128C324.435 86.2398 325.287 88.0804 325.764 90.0323C326.283 92.1086 326.469 94.2539 326.316 96.3885H305.684C305.776 98.9561 306.436 100.771 307.616 101.917ZM316.489 86.8626C315.926 86.3129 315.252 85.8905 314.512 85.6235C313.772 85.3566 312.983 85.2515 312.199 85.3153C311.123 85.278 310.054 85.4958 309.079 85.9509C308.31 86.3249 307.631 86.8613 307.089 87.5233C306.613 88.1119 306.258 88.7882 306.043 89.5138C305.858 90.1272 305.735 90.7576 305.675 91.3955H318.446C318.226 89.7376 317.548 88.1738 316.489 86.8793V86.8626Z" fill="black"/>
<path d="M345.251 80.1884V85.4407H339.505V99.5916C339.505 100.921 339.731 101.8 340.174 102.243C340.618 102.686 341.496 102.904 342.826 102.904C343.26 102.904 343.662 102.904 344.097 102.853C344.532 102.803 344.883 102.761 345.259 102.686V108.766C344.526 108.883 343.785 108.956 343.043 108.984C342.207 108.984 341.446 109.042 340.668 109.042C339.512 109.047 338.357 108.963 337.214 108.791C336.201 108.657 335.224 108.327 334.337 107.821C333.505 107.339 332.827 106.631 332.38 105.781C331.873 104.694 331.64 103.499 331.702 102.301V85.4407H326.943V80.1884H331.702V71.6243H339.547V80.1884H345.251Z" fill="black"/>
<path d="M355.906 101.666C356.243 102.255 356.706 102.763 357.261 103.154C357.838 103.552 358.485 103.836 359.168 103.991C359.9 104.177 360.653 104.269 361.409 104.267C361.994 104.266 362.578 104.201 363.149 104.074C363.734 103.96 364.298 103.757 364.822 103.472C365.311 103.197 365.735 102.821 366.068 102.368C366.413 101.852 366.589 101.241 366.569 100.62C366.569 99.4494 365.783 98.5629 364.219 97.9691C362.078 97.2252 359.887 96.6327 357.662 96.196C356.532 95.9507 355.416 95.6464 354.317 95.2844C353.285 94.9679 352.305 94.503 351.407 93.9045C350.576 93.3476 349.879 92.6135 349.366 91.7551C348.823 90.786 348.554 89.6873 348.588 88.5769C348.528 86.9959 348.901 85.4284 349.667 84.044C350.366 82.8869 351.348 81.9259 352.519 81.2506C353.755 80.5491 355.101 80.0626 356.5 79.8121C357.995 79.5351 359.512 79.3979 361.033 79.4023C362.544 79.3964 364.052 79.5449 365.532 79.8455C366.909 80.1302 368.225 80.6538 369.421 81.3928C370.567 82.0989 371.539 83.0536 372.265 84.1861C373.071 85.516 373.536 87.0242 373.62 88.5769H366.16C366.176 87.9585 366.025 87.3472 365.723 86.8071C365.422 86.2671 364.98 85.8182 364.445 85.5076C363.315 84.9379 362.064 84.6509 360.799 84.6712C360.318 84.6751 359.838 84.7058 359.36 84.7632C358.877 84.8087 358.403 84.9271 357.955 85.1145C357.534 85.3027 357.164 85.5895 356.876 85.9508C356.561 86.3521 356.403 86.8548 356.433 87.3643C356.431 87.6824 356.499 87.997 356.632 88.286C356.765 88.5751 356.96 88.8314 357.202 89.0369C357.801 89.5171 358.485 89.8803 359.218 90.1075C360.153 90.4146 361.105 90.6659 362.07 90.8602C363.14 91.0776 364.219 91.3202 365.332 91.5794C366.463 91.8292 367.58 92.1419 368.677 92.5161C369.712 92.8558 370.691 93.3492 371.579 93.9797C372.419 94.5772 373.118 95.3507 373.628 96.2462C374.174 97.2744 374.44 98.4282 374.398 99.5916C374.454 101.24 374.064 102.872 373.269 104.317C372.54 105.559 371.525 106.608 370.308 107.378C369.03 108.191 367.612 108.758 366.126 109.051C364.55 109.359 362.948 109.513 361.342 109.511C359.707 109.516 358.076 109.35 356.475 109.017C354.979 108.715 353.549 108.149 352.251 107.344C351.013 106.57 349.971 105.52 349.207 104.275C348.364 102.824 347.917 101.177 347.911 99.4996H355.371C355.356 100.256 355.54 101.003 355.906 101.666Z" fill="black"/>
<path d="M0 0V143.09H143.09V0H0ZM48.2319 34.5577H34.6413V108.758H48.2319V119.329H24.0783V23.9863H48.2319V34.5577ZM87.2892 35.001L83.9438 34.6999C83.6511 34.6999 83.2413 34.6999 82.7645 34.6999C80.2088 34.6011 77.7021 35.4199 75.6974 37.0082C72.7619 39.6009 71.4572 44.4517 71.8503 51.4435C72.3521 60.2836 70.5038 67.2253 66.2719 71.6997C70.5038 76.1742 72.3521 83.1158 71.8503 91.9476C71.4572 98.9478 72.7619 103.799 75.6974 106.375C77.6973 107.973 80.2067 108.795 82.7645 108.691C83.1582 108.695 83.5519 108.679 83.9438 108.641L87.2892 108.357V119.012L84.454 119.212C83.9689 119.212 83.4085 119.271 82.7813 119.271C77.6738 119.383 72.7003 117.632 68.7893 114.345C63.2443 109.528 60.7185 101.8 61.3123 91.3622C62.0567 78.0559 55.6838 77.0941 53.5929 76.7763L51.5271 76.4251V66.8908L53.5845 66.5729C55.6754 66.2635 62.0483 65.3017 61.304 51.9955C60.7269 41.5579 63.2359 33.8217 68.7893 29.0044C72.703 25.7234 77.6754 23.9758 82.7813 24.0867C83.4085 24.0867 83.9689 24.0867 84.454 24.1452L87.2892 24.3543V35.001ZM123.093 34.6163L121.629 35.4526C115.366 39.1908 110.18 44.4907 106.578 50.834C102.977 57.1774 101.083 64.3468 101.083 71.6412C101.083 78.9355 102.977 86.105 106.578 92.4483C110.18 98.7916 115.366 104.092 121.629 107.83L123.085 108.666V120.375L118.694 118.05C110.239 113.587 103.162 106.901 98.226 98.714C93.2898 90.5265 90.6811 81.1473 90.6811 71.5868C90.6811 62.0264 93.2898 52.6472 98.226 44.4597C103.162 36.2722 110.239 29.5868 118.694 25.1238L123.093 22.8489V34.5577V34.6163Z" fill="#ECC100"/>
</g>
<defs>
<clipPath id="clip0_45_4153">
<rect width="374.389" height="143.09" fill="white"/>
</clipPath>
</defs>
</svg>
