<svg id="Layer_1" data-name="Layer 1" xmlns="http://www.w3.org/2000/svg" viewBox="0 0 1098.71 901.02"><defs><style>.cls-1{fill:#efeded;}.cls-2{fill:#565656;}.cls-22,.cls-3{fill:#fff;}.cls-4{fill:#d8d6d6;}.cls-5{fill:#6d6c6c;}.cls-6{fill:#f2c32d;}.cls-7{fill:#b5b5b5;}.cls-8{fill:#fff929;}.cls-9{fill:#e2b22b;}.cls-10{fill:#f98f7d;}.cls-11{fill:#fea996;}.cls-12{fill:#cac9ca;}.cls-13{fill:#6b6c6c;}.cls-14{fill:#ffc9c0;}.cls-15{fill:#e9f1fb;}.cls-16{fill:#b2871b;}.cls-17{fill:#fead00;}.cls-18{fill:#c49a26;}.cls-19{fill:#cc9e29;}.cls-20{fill:#6b6359;}.cls-20,.cls-22{fill-rule:evenodd;}.cls-21{fill:#e6e1da;}.cls-23{fill:#beadaa;}.cls-24{fill:#161616;}</style></defs><ellipse class="cls-1" cx="549.35" cy="831.74" rx="549.35" ry="69.28"/><path class="cls-2" d="M449.75,557.55v224.2c0,4.44-4.7,8-10.5,8H60.9c-5.79,0-10.49-3.6-10.49-8V557.55c0-4.43,4.7-8,10.49-8H439.25C445.05,549.52,449.75,553.12,449.75,557.55Z"/><path d="M449.75,557.55v36.38c0,4.44-4.7,8-10.5,8H60.9c-5.79,0-10.49-3.59-10.49-8V557.55c0-4.43,4.7-8,10.49-8H439.25C445.05,549.52,449.75,553.12,449.75,557.55Z"/><rect class="cls-3" x="79.18" y="567.41" width="116.12" height="9.43" rx="4.4"/><rect class="cls-3" x="206.81" y="567.41" width="21.59" height="9.43" rx="4.4"/><rect class="cls-3" x="79.18" y="625.81" width="169.88" height="9.43" rx="4.4"/><rect class="cls-3" x="265.91" y="625.81" width="31.59" height="9.43" rx="4.4"/><rect class="cls-3" x="234.64" y="658.81" width="99.8" height="9.43" rx="4.4" transform="translate(569.09 1327.05) rotate(180)"/><rect class="cls-3" x="79.18" y="658.81" width="142.03" height="9.43" rx="4.4" transform="translate(300.39 1327.05) rotate(-180)"/><rect class="cls-3" x="79.18" y="691.81" width="99.8" height="9.43" rx="4.4"/><rect class="cls-3" x="192.42" y="691.81" width="142.03" height="9.43" rx="4.4"/><path class="cls-4" d="M910.06,337.39V677.08c0,5.44-6.1,9.86-13.43,9.86H255.09c-7.34,0-13.27-4.42-13.27-9.86V337.39Z"/><path d="M910,303.81V337.4H435.66l27.77-43.48H896.64C904,293.92,910,298.36,910,303.81Z"/><path d="M463.43,293.92,435.66,337.4H241.79V303.81c0-5.45,6-9.89,13.35-9.89Z"/><circle class="cls-5" cx="280.83" cy="371.78" r="6.04"/><circle class="cls-5" cx="280.83" cy="410.94" r="6.04"/><circle class="cls-5" cx="280.83" cy="450.09" r="6.04"/><circle class="cls-5" cx="280.83" cy="489.24" r="6.04"/><circle class="cls-5" cx="280.83" cy="528.4" r="6.04"/><circle class="cls-5" cx="280.83" cy="567.55" r="6.04"/><circle class="cls-5" cx="280.83" cy="606.7" r="6.04"/><circle class="cls-5" cx="280.83" cy="645.86" r="6.04"/><path class="cls-6" d="M306.85,668.89A.85.85,0,0,1,306,668V353.43a.85.85,0,0,1,1.7,0V668A.85.85,0,0,1,306.85,668.89Z"/><path d="M332.21,368.48a2.91,2.91,0,0,0-2-5,3,3,0,0,0-1.88.73c-.24.2-.81.73-3,3a10.51,10.51,0,0,1-2.75,2.22,2.9,2.9,0,0,0-1.92,2.64,2.82,2.82,0,0,0,2.14,2.68,7.42,7.42,0,0,1,2.47,1.84,24.7,24.7,0,0,0,2.87,2.77,2.91,2.91,0,0,0,1.76.62,2.8,2.8,0,0,0,2.05-.89,2.91,2.91,0,0,0,.84-2.05,2.86,2.86,0,0,0-1.08-2.2c-.23-.2-.76-.7-2-2-.36-.37-.69-.71-1-1C330.22,370.51,331.4,369.35,332.21,368.48Z"/><path d="M347.36,361.5c-1.5-.06-2.35,1.51-3.48,4.62a56.76,56.76,0,0,1-2.94,6.17,54,54,0,0,0-3.1,6.53,2.45,2.45,0,0,0-.17.87,2.33,2.33,0,0,0,.79,1.75,2.47,2.47,0,0,0,1.66.63,2.35,2.35,0,0,0,2.18-1.48l1.84-4.07,2.22-4.22a40.7,40.7,0,0,0,2-4.52l1.13-2.76,0-.08a3.28,3.28,0,0,0,.2-1.05,2.32,2.32,0,0,0-.78-1.73A2.49,2.49,0,0,0,347.36,361.5Z"/><path d="M366.87,368.7a22.88,22.88,0,0,1-6-5.14,2.84,2.84,0,0,0-2.17-1,2.88,2.88,0,0,0-2,.84,2.77,2.77,0,0,0-.89,2.06c0,.93.5,2,3,4.35.72.67,1.38,1.25,2,1.75L356.21,375a2.8,2.8,0,0,0-1.19,2.27,2.93,2.93,0,0,0,.81,2,2.79,2.79,0,0,0,2.07.92,3,3,0,0,0,1.63-.51,57,57,0,0,0,8-6.24,3,3,0,0,0,1-2.19A2.79,2.79,0,0,0,366.87,368.7Z"/><path d="M417,413.49h-94a2.56,2.56,0,1,1,0-5.11h94a2.56,2.56,0,0,1,0,5.11Z"/><path class="cls-7" d="M639.09,413.49H449.91a2.56,2.56,0,1,1,0-5.11H639.09a2.56,2.56,0,0,1,0,5.11Z"/><path class="cls-5" d="M417,531h-94a2.55,2.55,0,1,1,0-5.1h94a2.55,2.55,0,1,1,0,5.1Z"/><path d="M763.32,531h-94a2.55,2.55,0,1,1,0-5.1h94a2.55,2.55,0,1,1,0,5.1Z"/><path d="M639.09,531H449.91a2.55,2.55,0,1,1,0-5.1H639.09a2.55,2.55,0,0,1,0,5.1Z"/><path class="cls-7" d="M530.6,452.64H322.92a2.55,2.55,0,1,1,0-5.1H530.6a2.55,2.55,0,1,1,0,5.1Z"/><path d="M646.1,452.64H560.31a2.55,2.55,0,1,1,0-5.1H646.1a2.55,2.55,0,1,1,0,5.1Z"/><path class="cls-5" d="M530.6,570.1H322.92a2.55,2.55,0,1,1,0-5.1H530.6a2.55,2.55,0,0,1,0,5.1Z"/><path class="cls-5" d="M646.1,570.1H560.31a2.55,2.55,0,1,1,0-5.1H646.1a2.55,2.55,0,1,1,0,5.1Z"/><path class="cls-7" d="M755.09,452.64h-85.8a2.55,2.55,0,1,1,0-5.1h85.8a2.55,2.55,0,0,1,0,5.1Z"/><path class="cls-5" d="M868.24,452.64h-85.8a2.55,2.55,0,0,1,0-5.1h85.8a2.55,2.55,0,0,1,0,5.1Z"/><path class="cls-7" d="M381,491.8H322.92a2.56,2.56,0,1,1,0-5.11H381a2.56,2.56,0,0,1,0,5.11Z"/><path class="cls-7" d="M495,491.8h-85.8a2.56,2.56,0,0,1,0-5.11H495a2.56,2.56,0,0,1,0,5.11Z"/><path class="cls-7" d="M658.1,491.8H518.16a2.56,2.56,0,0,1,0-5.11H658.1a2.56,2.56,0,0,1,0,5.11Z"/><path d="M381,609.26H322.92a2.56,2.56,0,1,1,0-5.11H381a2.56,2.56,0,0,1,0,5.11Z"/><path class="cls-5" d="M495,609.26h-85.8a2.56,2.56,0,0,1,0-5.11H495a2.56,2.56,0,0,1,0,5.11Z"/><path class="cls-5" d="M658.1,609.26H518.16a2.56,2.56,0,0,1,0-5.11H658.1a2.56,2.56,0,0,1,0,5.11Z"/><path d="M835.84,609.26H695.9a2.56,2.56,0,0,1,0-5.11H835.84a2.56,2.56,0,1,1,0,5.11Z"/><path d="M509.68,467.08a1.08,1.08,0,0,1-.88-.44c-.89-1.21-1.83-2.38-2.79-3.5a1.09,1.09,0,0,1,1.66-1.42c1,1.15,2,2.37,2.88,3.61a1.1,1.1,0,0,1-.22,1.53A1.08,1.08,0,0,1,509.68,467.08Z"/><path d="M500.39,457a1.07,1.07,0,0,1-.71-.27,61.32,61.32,0,0,0-7.21-5.37,1.09,1.09,0,1,1,1.17-1.85,64.13,64.13,0,0,1,7.47,5.57,1.09,1.09,0,0,1-.72,1.92Zm-206-4a1.1,1.1,0,0,1,0-2.19c2.94,0,6-.08,9.12-.2a1.1,1.1,0,0,1,1.14,1.05,1.11,1.11,0,0,1-1.05,1.14c-3.14.12-6.24.18-9.2.2Zm-9.16-.14h0c-3.14-.11-6.23-.29-9.2-.54a1.09,1.09,0,1,1,.18-2.17c2.93.24,6,.42,9.1.53a1.09,1.09,0,0,1,0,2.18Zm27.48-.55a1.09,1.09,0,0,1-.07-2.18c2.92-.19,6-.43,9.11-.71a1.09,1.09,0,1,1,.2,2.17c-3.15.28-6.23.52-9.17.72Zm-45.74-1h-.15c-3.11-.43-6.17-.95-9.11-1.55a1.09,1.09,0,0,1,.44-2.14c2.89.59,5.91,1.1,9,1.52a1.1,1.1,0,0,1,.93,1.24A1.09,1.09,0,0,1,267,451.37Zm64-.64a1.09,1.09,0,0,1-.12-2.18c2.88-.31,5.94-.67,9.1-1.05a1.09,1.09,0,0,1,.26,2.17c-3.16.38-6.23.74-9.12,1.05Zm18.2-2.22a1.09,1.09,0,0,1-.14-2.18c2.75-.36,5.72-.77,9.08-1.24a1.1,1.1,0,0,1,.3,2.17c-3.36.47-6.34.87-9.09,1.24Zm-100.15-.83a1,1,0,0,1-.3-.05c-3-.84-6-1.81-8.8-2.86a1.09,1.09,0,0,1,.76-2c2.78,1,5.68,2,8.63,2.81a1.1,1.1,0,0,1-.29,2.15Zm236-.5a1.09,1.09,0,0,1-.46-.1,74.31,74.31,0,0,0-8.42-3.25,1.09,1.09,0,0,1-.71-1.37,1.11,1.11,0,0,1,1.38-.71,78.6,78.6,0,0,1,8.66,3.34,1.09,1.09,0,0,1-.45,2.09ZM367.36,446a1.09,1.09,0,0,1-.15-2.17l1.84-.26,7.24-1a1.09,1.09,0,1,1,.3,2.16l-7.23,1-1.84.26Zm18.16-2.55a1.09,1.09,0,0,1-.15-2.17c3.31-.45,6.28-.84,9.1-1.2a1.09,1.09,0,0,1,.28,2.17c-2.82.35-5.79.74-9.08,1.19Zm82.09-1.88a.9.9,0,0,1-.23,0c-2.84-.6-5.85-1.11-8.95-1.5a1.09,1.09,0,0,1,.28-2.17c3.15.4,6.22.92,9.12,1.53a1.09,1.09,0,0,1-.22,2.16Zm-235.71-.28a1.12,1.12,0,0,1-.47-.11c-2.8-1.34-5.54-2.82-8.15-4.39a1.1,1.1,0,0,1,1.13-1.88c2.55,1.54,5.23,3,8,4.3a1.09,1.09,0,0,1-.47,2.08Zm171.81-.13a1.09,1.09,0,0,1-.12-2.17c3.18-.36,6.25-.68,9.14-.94a1.09,1.09,0,1,1,.2,2.17c-2.87.27-5.93.58-9.1.94ZM422,439.47a1.09,1.09,0,0,1-.08-2.18c3.17-.21,6.27-.37,9.2-.47a1.08,1.08,0,0,1,1.12,1.06,1.09,1.09,0,0,1-1,1.13c-2.91.09-6,.25-9.12.46Zm27.48-.28h-.07c-2.9-.18-6-.28-9.1-.31a1.09,1.09,0,0,1-1.09-1.1,1.11,1.11,0,0,1,1.11-1.08c3.17,0,6.27.13,9.21.31a1.09,1.09,0,0,1-.06,2.18Zm-233.2-7.39a1,1,0,0,1-.65-.22,91.31,91.31,0,0,1-7.13-5.92,1.1,1.1,0,0,1-.06-1.55,1.09,1.09,0,0,1,1.54-.06c2.22,2,4.56,4,7,5.79a1.09,1.09,0,0,1-.66,2Zm-13.47-12.38a1.09,1.09,0,0,1-.81-.36l-.9-1c-1.74-2-3.4-4.09-4.93-6.2a1.09,1.09,0,0,1,1.77-1.28c1.49,2.05,3.11,4.09,4.81,6,.29.34.58.67.88,1a1.09,1.09,0,0,1-.09,1.54A1.08,1.08,0,0,1,202.78,419.42Zm-10.71-14.83a1.08,1.08,0,0,1-.95-.56A80.43,80.43,0,0,1,187,395.7a1.1,1.1,0,0,1,2-.85,77.1,77.1,0,0,0,4,8.11,1.1,1.1,0,0,1-.41,1.49A1.17,1.17,0,0,1,192.07,404.59ZM185,387.74a1.08,1.08,0,0,1-1-.79,80.3,80.3,0,0,1-2.08-9.05,1.09,1.09,0,1,1,2.15-.36,80.28,80.28,0,0,0,2,8.8,1.1,1.1,0,0,1-.74,1.36A1.06,1.06,0,0,1,185,387.74Zm-3.09-18a1.1,1.1,0,0,1-1.09-1c-.11-1.83-.17-3.7-.17-5.57,0-1.22,0-2.46.08-3.7a1.09,1.09,0,0,1,1.13-1.05,1.11,1.11,0,0,1,1.05,1.14c-.05,1.2-.07,2.42-.07,3.61,0,1.82.05,3.65.16,5.44a1.08,1.08,0,0,1-1,1.15Zm.68-18.28h-.14a1.08,1.08,0,0,1-.94-1.22c.39-3,.92-6.06,1.57-9.11a1.11,1.11,0,0,1,1.3-.84,1.09,1.09,0,0,1,.84,1.3c-.64,3-1.16,6-1.54,8.93A1.09,1.09,0,0,1,182.54,351.44Zm3.82-17.89a1.12,1.12,0,0,1-.31-.05,1.08,1.08,0,0,1-.74-1.35c.84-2.89,1.82-5.84,2.89-8.77a1.09,1.09,0,0,1,2.05.75c-1.05,2.89-2,5.79-2.84,8.63A1.1,1.1,0,0,1,186.36,333.55Zm6.27-17.21a1,1,0,0,1-.44-.09,1.09,1.09,0,0,1-.56-1.43c1.2-2.77,2.51-5.58,3.9-8.36A1.09,1.09,0,0,1,197,306a1.1,1.1,0,0,1,.49,1.47c-1.37,2.75-2.67,5.52-3.85,8.25A1.09,1.09,0,0,1,192.63,316.34ZM200.8,300a1.13,1.13,0,0,1-.53-.14,1.09,1.09,0,0,1-.42-1.49c1.47-2.62,3.05-5.29,4.69-7.93a1.09,1.09,0,0,1,1.86,1.15c-1.62,2.62-3.19,5.25-4.64,7.85A1.11,1.11,0,0,1,200.8,300Zm9.67-15.57a1.1,1.1,0,0,1-.62-.19,1.11,1.11,0,0,1-.29-1.52c1.7-2.5,3.49-5,5.32-7.51a1.09,1.09,0,1,1,1.76,1.29c-1.81,2.47-3.59,5-5.27,7.45A1.09,1.09,0,0,1,210.47,284.38Zm10.86-14.77a1.1,1.1,0,0,1-.86-1.77c1.88-2.37,3.84-4.77,5.83-7.12a1.09,1.09,0,1,1,1.67,1.41c-2,2.34-3.93,4.72-5.79,7.07A1.07,1.07,0,0,1,221.33,269.61Zm11.83-14a1.08,1.08,0,0,1-.73-.28,1.09,1.09,0,0,1-.08-1.54c2-2.25,4.13-4.52,6.25-6.75a1.09,1.09,0,1,1,1.58,1.51c-2.11,2.21-4.2,4.47-6.21,6.7A1.07,1.07,0,0,1,233.16,255.61Zm12.65-13.27A1.05,1.05,0,0,1,245,242a1.1,1.1,0,0,1,0-1.55c2.16-2.13,4.38-4.28,6.62-6.38a1.08,1.08,0,0,1,1.54,0,1.09,1.09,0,0,1,0,1.55c-2.23,2.09-4.44,4.22-6.58,6.35A1.08,1.08,0,0,1,245.81,242.34Zm13.35-12.57a1.07,1.07,0,0,1-.81-.36,1.09,1.09,0,0,1,.08-1.54c2.26-2,4.59-4.06,6.93-6.05a1.09,1.09,0,1,1,1.42,1.66c-2.33,2-4.64,4-6.89,6A1.12,1.12,0,0,1,259.16,229.77Zm14-11.89a1.09,1.09,0,0,1-.69-1.94c2.35-1.91,4.77-3.84,7.2-5.71A1.09,1.09,0,1,1,281,212c-2.4,1.87-4.81,3.78-7.16,5.69A1.09,1.09,0,0,1,273.12,217.88Zm14.48-11.24a1.09,1.09,0,0,1-.65-2c2.44-1.81,4.95-3.62,7.44-5.39a1.09,1.09,0,1,1,1.27,1.78c-2.49,1.76-5,3.57-7.41,5.37A1.1,1.1,0,0,1,287.6,206.64Zm15-10.6a1.09,1.09,0,0,1-.61-2c2.52-1.71,5.1-3.42,7.66-5.08a1.09,1.09,0,1,1,1.19,1.83c-2.55,1.66-5.12,3.36-7.63,5A1.07,1.07,0,0,1,302.56,196Zm15.39-10a1.08,1.08,0,0,1-.93-.51,1.1,1.1,0,0,1,.35-1.51c2.59-1.6,5.23-3.2,7.86-4.76a1.09,1.09,0,0,1,1.5.38,1.1,1.1,0,0,1-.39,1.5c-2.61,1.55-5.24,3.14-7.82,4.74A1.1,1.1,0,0,1,318,186.07Zm15.77-9.34a1.08,1.08,0,0,1-1-.56,1.1,1.1,0,0,1,.41-1.49c2.65-1.49,5.36-3,8-4.44a1.09,1.09,0,1,1,1,1.92c-2.67,1.44-5.36,2.93-8,4.43A1.17,1.17,0,0,1,333.72,176.73ZM349.85,168a1.1,1.1,0,0,1-.5-2.07c2.7-1.39,5.46-2.78,8.2-4.13a1.09,1.09,0,0,1,1,2c-2.73,1.34-5.48,2.72-8.17,4.12A1.11,1.11,0,0,1,349.85,168Zm16.45-8.1a1.09,1.09,0,0,1-.47-2.08c2.76-1.29,5.58-2.58,8.36-3.82a1.09,1.09,0,0,1,.89,2c-2.77,1.23-5.57,2.51-8.32,3.8A1.09,1.09,0,0,1,366.3,159.91ZM383,152.45a1.09,1.09,0,0,1-.42-2.1c2.8-1.18,5.66-2.36,8.49-3.5a1.1,1.1,0,0,1,1.42.61,1.08,1.08,0,0,1-.6,1.42c-2.82,1.13-5.67,2.3-8.46,3.49A1.26,1.26,0,0,1,383,152.45Zm17-6.82a1.09,1.09,0,0,1-.39-2.11c2.86-1.08,5.76-2.15,8.63-3.17a1.09,1.09,0,0,1,.73,2.05c-2.86,1-5.74,2.09-8.58,3.16A1.07,1.07,0,0,1,400.06,145.63Z"/><path class="cls-8" d="M468.69,427.28C462,434,444.2,468.19,439.75,470.14s-13.64-4.45-51.76-4.73-43.7,12-50.65,8.63,3.34-42,3.34-42a6.68,6.68,0,0,1,.42-1.14h0l.07-.14h0l0-.09c3.59-7.57,22.67-34.09,27.85-35.65C391.19,388.36,475.37,420.61,468.69,427.28Z"/><path class="cls-5" d="M341.1,430.88l.07-.14C341.14,430.83,341.12,430.88,341.1,430.88Z"/><path class="cls-6" d="M377.41,424.78c-.55,2.21-34.29,2.76-36.2,5.87,3.59-7.57,22.67-34.09,27.85-35.65C375.45,394.13,378,422.55,377.41,424.78Z"/><path class="cls-6" d="M400.24,409.63a92.08,92.08,0,0,0-9.57,20.57,207.56,207.56,0,0,0-5.37,22.58c-.1.52.7.75.81.22a210,210,0,0,1,5.24-22.17A90.7,90.7,0,0,1,401,410.06c.29-.46-.43-.88-.72-.43Z"/><path class="cls-6" d="M409.48,420.22a77.35,77.35,0,0,0-10.13,25.49c-.11.53.7.75.8.22a76.88,76.88,0,0,1,10.05-25.29c.29-.45-.44-.87-.72-.42Z"/><path class="cls-6" d="M423.73,417.74a167.08,167.08,0,0,0-9.4,17.68c-2.74,5.86-5.6,12-6.9,18.36-.1.52.7.75.81.22,1.31-6.43,4.2-12.62,7-18.52a165.85,165.85,0,0,1,9.23-17.31c.29-.46-.44-.88-.72-.43Z"/><path class="cls-6" d="M431,424.46a98.47,98.47,0,0,0-13,32.64c-.11.52.7.74.8.22a97.78,97.78,0,0,1,12.89-32.44c.28-.46-.44-.87-.72-.42Z"/><path class="cls-8" d="M330.61,167.85c-.54,4.77,3.19,24,2,26.19s-6.83,2.54-22.08,14.49S297,227.1,293.15,228s-12-17.77-12-17.77a4.94,4.94,0,0,1-.19-.58h0s0,0,0-.07h0a.09.09,0,0,0,0,0c-1-4.15-1.76-20.73-.19-23C287.48,176.87,331.16,163.08,330.61,167.85Z"/><path class="cls-5" d="M281,209.61s0,0,0-.07S281,209.61,281,209.61Z"/><path class="cls-6" d="M293.51,195.71c.48,1-12.76,11.94-12.54,13.78-1-4.15-1.76-20.73-.19-23C283,184.14,293,194.65,293.51,195.71Z"/><path class="cls-6" d="M297.81,182.47a46.34,46.34,0,0,0,2.69,11.2,107,107,0,0,0,5,10.68c.13.24.52.08.39-.17A107.25,107.25,0,0,1,301,193.71a46,46,0,0,1-2.74-11.3.21.21,0,0,0-.42.06Z"/><path class="cls-6" d="M304.83,183.76a39.06,39.06,0,0,0,4,13.34c.12.24.51.08.39-.17a38.65,38.65,0,0,1-4-13.23c0-.27-.45-.21-.42.06Z"/><path class="cls-6" d="M309.71,178.27a87.08,87.08,0,0,0,1.85,10,42.85,42.85,0,0,0,3.06,9.48c.13.24.52.08.39-.16a43.37,43.37,0,0,1-3.08-9.58,85.72,85.72,0,0,1-1.8-9.8c0-.27-.45-.21-.42.06Z"/><path class="cls-6" d="M314.72,178.64a49.88,49.88,0,0,0,5.16,17.08c.13.25.52.08.39-.16a49.88,49.88,0,0,1-5.13-17c0-.27-.45-.21-.42.06Z"/><path class="cls-9" d="M799.1,331c51.14-7.21,79.55-9,99.94,7S922,373.28,910,383.48s-59.72,29.5-67.37,29.13-21.84-57.41-21.84-57.41Z"/><path class="cls-10" d="M500.66,728.31c-1.17,4.28-40.64,92.46-46.74,91.77-3.19-.36-23-5.16-40.92-9.9l-5.7-1.52c-13.75-3.73-24.95-7.11-24.2-7.86,1.8-1.79,30.08-3.31,32.95-9,1.41-2.81,8.28-17.47,15.82-33,.51-1.07,1-2.14,1.55-3.21,7.44-15.27,15.21-30.67,18.84-36C452.26,719.56,501.83,724,500.66,728.31Z"/><path class="cls-11" d="M448.78,789.35c-4.42,10.6-14.55,17.86-35.78,20.83l-5.7-1.52c-13.75-3.73-24.95-7.11-24.2-7.86,1.8-1.79,30.08-3.31,32.95-9,1.41-2.81,8.28-17.47,15.82-33,.51-1.07,1-2.14,1.55-3.21,4.19,3,7.09,7.06,11.72,10.53C453.88,772.6,454.24,776.24,448.78,789.35Z"/><path class="cls-10" d="M535,812.7c-2.94,1-21.78,5.08-39.47,8.5-2.54.5-5.05,1-7.5,1.43-14,2.6-25.57,4.42-25.21,3.41.84-2.39,25.66-16,25.77-22.44,0-1.84,0-8.13-.05-16.5,0-5.94-.05-12.94,0-20.12,0-18.08.35-37.36,1.39-44.13,0,0,46.62-17.47,47.42-13.11S540.75,810.68,535,812.7Z"/><path class="cls-11" d="M495.49,821.2c-2.54.5-5.05,1-7.5,1.43-14,2.6-25.57,4.42-25.21,3.41.84-2.39,25.66-16,25.77-22.44,0-1.84,0-8.13-.05-16.5,4.88,2.26,14.59,1.48,15.63,7.71C505.41,802.46,500.88,816.28,495.49,821.2Z"/><path d="M496.86,772.52c21.85,6.55,52.43,4.37,66.09,4.37s43.75-65.67,91.09-93,72.6,51.38,122.49,35.41S734.49,576.77,679,575,541.65,664.3,514.88,706.12,496.86,772.52,496.86,772.52Z"/><path class="cls-12" d="M687.48,611.38C605.55,624,517.48,694.41,512,778c0,4.62-10.78,5.21-25.44,3.17a240,240,0,0,1-40.5-9.68c-14.18-4.72-27-10.54-33.84-16.55-4.37-4.13,55.67-92.74,113.57-128.79a490.83,490.83,0,0,1,45.88-25.56q6.34-3.06,12.4-5.69c29.79-12.92,54.52-18.1,76.14-17.39C694.58,578.61,687.48,611.38,687.48,611.38Z"/><path class="cls-3" d="M571.69,600.57c-11.89,10.17-35.57,26.78-66,51.75-42.73,35.1-50.4,71.15-59.64,119.15-14.18-4.72-27-10.54-33.84-16.55-4.37-4.13,55.67-92.74,113.57-128.79A490.83,490.83,0,0,1,571.69,600.57Z"/><path class="cls-13" d="M687.48,611.38C605.55,624,517.48,694.41,512,778c0,4.62-10.78,5.21-25.44,3.17-4-45.5,16.11-92,45.23-110.88,32-20.76,80.37-58.36,83.52-69.7,2-7.11-17.57-5.68-31.24-5.69,29.79-12.92,54.52-18.1,76.14-17.39C694.58,578.61,687.48,611.38,687.48,611.38Z"/><path class="cls-11" d="M739.31,509.1c-2.12,3-4.31,6-6.54,9q-2,2.67-4.07,5.32c-20.71,26.66-44,50.21-52.08,52.65-9.74,2.91-31.13,5.16-45.07,4-4.83-.4-8.76-1.21-11-2.54a4.27,4.27,0,0,1-1.62-1.51c-3-5.39,17.79-14.22,41.31-26.81,10.19-5.45,26.83-23.85,43.65-44.87,3.55-4.44,7.11-9,10.62-13.56,1.21-1.57,2.4-3.15,3.59-4.72C722.8,491.74,735,504.54,739.31,509.1Z"/><path class="cls-10" d="M732.77,518.07q-2,2.67-4.07,5.32c-20.71,26.66-44,50.21-52.08,52.65-9.74,2.91-31.13,5.16-45.07,4-.08-1.62-.11-2.6-.11-2.6,15.92-16.89,34.86-15.11,49.67-30.81S713.28,504,713.28,504,725.85,509.56,732.77,518.07Z"/><path class="cls-14" d="M704.05,511.38c-1.87,4.16-22.33,20.87-23.42,24.51s-16.27,18.94-24.65,20.4c-7.88,1.37-19.33,11.46-37.06,19.69-3-5.39,17.79-14.22,41.31-26.81,10.19-5.45,26.83-23.85,43.65-44.87,3.55-4.44,7.11-9,10.62-13.56C719.82,497.84,705.86,507.35,704.05,511.38Z"/><path class="cls-6" d="M759.9,474.88c-4.78,10.38-12.14,22.3-20.59,34.22C735,504.55,722.8,491.74,718.09,486c20.63-27.21,38.71-53.9,41.81-59.57C759.9,426.45,777.49,436.65,759.9,474.88Z"/><path class="cls-3" d="M740.89,510.75s-1.38,13.37-12.19,12.64a15.67,15.67,0,0,1-3.1-.54c-5.68-1.56-11.26-6-15.84-11a63.44,63.44,0,0,1-5.88-7.56c-3.13-4.73-5-9.09-5-11.39,0-6,8.46-9.39,12.2-13.48,2-2.18,3.46.73,5.28,4.19a8.4,8.4,0,0,0,.68,1c.3.39.67.86,1.1,1.39,4.71,5.71,16.87,18.52,21.22,23.07Z"/><path class="cls-15" d="M740.89,510.75s-1.38,13.37-12.19,12.64a15.67,15.67,0,0,1-3.1-.54c-5.68-1.56-11.26-6-15.84-11a77.74,77.74,0,0,0,7-19.69,25.65,25.65,0,0,0,.19-7.53c.3.39.67.86,1.1,1.39,4.71,5.71,16.87,18.52,21.22,23.07Z"/><path class="cls-16" d="M791.2,332.57c31.8-10.44,88.37-9,82,11.9s-21.85,29.62-21.85,43.7,83.87,169.24,83.32,212.06-60.65,79.56-95.33,42.37-71.5-279.08-71.5-279.08Z"/><path class="cls-17" d="M851.17,565.07c-7.36,49.29-40,63.36-63.12,70.4s-54.14,2.43-54.38-2.67c-.16-3.5-2.28-10.22-15.9-14.08a89.32,89.32,0,0,0-20.89-2.81c-1.81-.07-3.7-.1-5.69-.1-18.48,0-32.5-5.89-41.35-13.67a40,40,0,0,1-4.79-5c-3.7-4.64-5.77-9.61-6.07-14.23a15.72,15.72,0,0,1,1-6.86s5.19,4.62,18.41,6.16a80.35,80.35,0,0,0,12.06.45,27.72,27.72,0,0,0,10.83-3.18c1-.46,1.93-1,2.92-1.52,19.84-11,45.74-38.26,67.66-46.28a37.17,37.17,0,0,1,8-2c15.6-2,43.44-5.91,64.39-1.13C841.82,532.5,854.53,542.61,851.17,565.07Z"/><path class="cls-6" d="M838.31,468.09a485.86,485.86,0,0,1-14,60.41c-9,29.35-22.48,58.75-40.23,60.73-23.33,2.59-68.3-5-97.15-10.74l-2.72-.54c-14.26-2.86-23.95-5.11-23.95-5.11a101,101,0,0,0,14.43-8.44c.68-.47,1.35-.95,2-1.43C711.1,537.84,735.36,491.2,749.11,457c.21-.52.41-1,.62-1.54,4.66-11.73,8-21.88,10.16-29.05a50.9,50.9,0,0,0,6.72-.65c8.33-1.29,22.51-5.14,31.46-16.65C798.07,409.15,821.56,450,838.31,468.09Z"/><path class="cls-6" d="M851.17,565.07c-7.36,49.29-40,63.36-63.12,70.4s-54.14,2.43-54.38-2.67c-.16-3.5-2.28-10.22-15.9-14.08-.47-5.31-2.53-10.92-14.08-16.18-12.76-5.82-39.55-4.35-58.64-5.41-3.7-4.64-5.77-9.61-6.07-14.23,5,0,11.43-.12,19.39-.7,6.54-.47,14.13-1.29,22.89-2.73,1.83-.3,3.71-.62,5.64-1q5.67-1.05,11.93-2.45c32.31-7.3,45.74-24.82,53-44.37,5.88-15.79,7.74-32.92,12.3-47,10.2-31.59,2.18-43.06,1.88-58.19l.59-.65c8.33-1.29,22.51-5.14,31.46-16.65,0,0,23.49,40.85,40.24,58.94a485.86,485.86,0,0,1-14,60.41C841.82,532.5,854.53,542.61,851.17,565.07Z"/><path class="cls-9" d="M882.48,805.84c-21.57,11.24-221.4,15.43-297.19,14-15-.29-25.21-.81-28.11-1.53-17.48-4.37-20.4-21.49-17.85-59s24-86.67,93.23-96.5S716,695.56,720,691.92s-4.37-9.47,0-33.5,41.63-46,80-49.41,56.8,17.24,54.62,12.63-10.2-52.93-1.7-85.46,34-26.46,31.56-32.6-27.34,3.16-53.41-45.09,3.43-104.92,49.53-108.18c21.77-1.53,37.63,9.15,49.29,27.42,21.69,34,28.83,94.25,32.39,150.93C967.69,615.8,908.34,792.36,882.48,805.84Z"/><path class="cls-3" d="M708.68,581.24v4.24a3.75,3.75,0,0,1-3.75,3.75H597.73v0L553.5,531.88l-42.56-55.16a3.76,3.76,0,0,1-.75-2.77,3.69,3.69,0,0,1,1.42-2.49l3.36-2.59a3.74,3.74,0,0,1,5.26.68L602.39,576h0a3.74,3.74,0,0,0,3,1.46h99.56a3.75,3.75,0,0,1,3.75,3.75Z"/><path class="cls-15" d="M708.68,581.24v4.24a3.75,3.75,0,0,1-3.75,3.75H597.73v0L553.5,531.88,602.39,576h0a3.74,3.74,0,0,0,3,1.46h99.56a3.75,3.75,0,0,1,3.75,3.75Z"/><path class="cls-11" d="M759.89,426.45a58.3,58.3,0,0,0-.21-8.67,59.86,59.86,0,0,0-3.13-14.64,7.72,7.72,0,0,1-.42-2.86c.41-12.13,24.48-31.37,24.48-31.37,4.71,16.57,15.08,40.24,15.08,40.24Z"/><path class="cls-10" d="M775.91,393c-.23,5.24-6.38,17.76-16.23,24.75a59.86,59.86,0,0,0-3.13-14.64,7.72,7.72,0,0,1-.42-2.86C761.19,393.35,776.15,387.62,775.91,393Z"/><path class="cls-6" d="M775.94,382.93c14-2.37,14.64-22.73,12.93-28.68s-16.29,3.83-17.11,7.11S775.94,382.93,775.94,382.93Z"/><path class="cls-11" d="M755.64,411.16a55.61,55.61,0,0,1-10.45,3.57c-15.66,3.49-22.17-5-24.07-14.52a34.23,34.23,0,0,1-.62-7.63c.22-8.07-3.1-11.24-7.08-12.48a26.94,26.94,0,0,0-8-.81c-5.83,0,3.6-12.86,3.83-21.44v0c0-.26,0-.51,0-.75-.36-8.56-2.91-32.78-.91-35s49.71-7.47,56.26-2.73,14.57,32.41,16.57,45.7C783,378.22,784.23,398.41,755.64,411.16Z"/><path class="cls-10" d="M708.19,332.82c9.22,10.08,32.94,8.74,38.47,6.32,0,0,19.35,9.32,26.7,4.86s-9-20.4-24.39-20.28S708.19,332.82,708.19,332.82Z"/><path class="cls-6" d="M792.42,332.86c-3.64,5.28,0,19.67,0,19.67a35.35,35.35,0,0,0-4.36-3.61c-3.87-2.73-9.83-5.84-15.85-4.77-10.2,1.82-23.49-9.1-23.49-11.83,0-.82-3,.55-7.71,2.16-11,3.78-31,8.86-41.45-10.18s-10.78-37.53-1.76-47.88c3.77-4.33,9.18-7.25,16.15-8.2,17.74-2.42,21.46,7.66,26.09,16.67a43.86,43.86,0,0,0,3,5.18c6.71,9.65,11.85,1.64,33.34,5.83S796.06,327.58,792.42,332.86Z"/><path class="cls-14" d="M713.42,380.1a26.94,26.94,0,0,0-8-.81c-5.83,0,3.6-12.86,3.83-21.44a93.65,93.65,0,0,1-.18,15.76C708.65,376.65,711,378.48,713.42,380.1Z"/><path class="cls-14" d="M745.19,414.73c-15.66,3.49-22.17-5-24.07-14.52a20.16,20.16,0,0,0,6.36,7.51C733.24,411.8,740.39,413.79,745.19,414.73Z"/><path class="cls-18" d="M792.42,332.86c-3.64,5.28,0,19.67,0,19.67a35.35,35.35,0,0,0-4.36-3.61c-.47-5.67-4.44-14.47-4.13-16.95.36-2.91,4.13-20.15-14.57-21.78-17.92-1.57-29.38-12.92-29.32-25.3a43.86,43.86,0,0,0,3,5.18c6.71,9.65,11.85,1.64,33.34,5.83S796.06,327.58,792.42,332.86Z"/><path class="cls-8" d="M741,334.48c-11,3.78-31,8.86-41.45-10.18s-10.78-37.53-1.76-47.88c4,2.09,5.18,9.23,1.34,16.65C693.8,303.4,714.79,334.15,741,334.48Z"/><path class="cls-11" d="M770.71,346.24c12.28-11.25,26.08-11.91,24.91,3.63s-22.82,14.47-22.82,14.47Z"/><path class="cls-10" d="M781.59,341.59s8.26-2.58,10.3,5.14-5,13.47-10.58,14.84c0,0,10.18-2.25,8.81-12S781.59,341.59,781.59,341.59Z"/><path class="cls-10" d="M787.93,353.64c-1.84,4.13-7.44,6.38-9.32,3.52a5.06,5.06,0,0,1,0-5.56s-1.39,4.48,1,5.44S785.17,356.6,787.93,353.64Z"/><path class="cls-10" d="M784.16,348.78c1.37,2.46.68,6.5-1.75,5.13s-2.23-4-3.1-4-1.46-3.27.85-3.45S784.16,348.78,784.16,348.78Z"/><path class="cls-3" d="M801,411.34c-.55,1.85-14.77,15.64-30.27,19.12l-1.62.37c-14,3.34-15.47,6.43-15.82,3.45s.91-10.74,2.92-12.2,17.15-1.82,24.42-8.19c.73-.64,1.48-1.34,2.23-2.07,6.7-6.48,13.79-15.61,13.95-14.14a5.83,5.83,0,0,0,.77,2.11A14.79,14.79,0,0,1,799,403.2C800.52,408.79,801.47,409.67,801,411.34Z"/><path class="cls-15" d="M801,411.34c-.55,1.85-14.77,15.64-30.27,19.12l-1.62.37c8.94-5.16,13.79-9.32,15.08-14.33.72-2.78-.35-3.78-1.33-4.68,6.7-6.48,13.79-15.61,13.95-14.14a5.83,5.83,0,0,0,.77,2.11A14.79,14.79,0,0,1,799,403.2C800.52,408.79,801.47,409.67,801,411.34Z"/><path class="cls-11" d="M831.39,587.77c-32,33.87-132.56,10.56-154.4,0-17.31-8.36-38-7.59-45.55-10.34-2-.73-3-1.69-2.89-3.13a9.44,9.44,0,0,1,.52-2.2c2.46-6.77,13.75-15,46.82-5.45,28.63,8.22,49.1,6.73,72.08-6.19a168.88,168.88,0,0,0,20.48-13.84L782,555.5Z"/><path class="cls-14" d="M736.46,574.07c-16.75,9.66-44.91,6.86-69.29-.67-22.12-6.83-27.2,5.13-38.1-1.3,2.46-6.77,13.75-15,46.82-5.45,28.63,8.22,49.1,6.73,72.08-6.19C749.14,564,745.47,568.88,736.46,574.07Z"/><path class="cls-10" d="M831.39,587.77c-32,33.87-132.56,10.56-154.4,0-17.31-8.36-38-7.59-45.55-10.34,12,.34,15-8,30-1.39s26.6,17.65,71.32,9.09,35.25-33.58,41.08-31.88c1.11.33,4.07,1.11,8.18,2.25Z"/><path class="cls-9" d="M838.55,580.37s-39.69-19-57.17-30.11a42.1,42.1,0,0,1-7.17-5.34c-8-8.5-5.34-14.56-5.34-14.56,6.56-13.36,1.46-23.8,7.77-51.47,3.3-14.45,18.56-27.7,35.24-28.06,15.27-.34,31.72,10.15,41.23,40.44C873,554.63,838.55,580.37,838.55,580.37Z"/><path class="cls-19" d="M838.55,580.37s-39.69-19-57.17-30.11a127.2,127.2,0,0,1-8.5-18.13c15.78,7.53,52.92,11.9,53.65-14.32s-2-62.15-12.65-66a10.34,10.34,0,0,1-2-.94c15.27-.34,31.72,10.15,41.23,40.44C873,554.63,838.55,580.37,838.55,580.37Z"/><path class="cls-3" d="M846.68,590.44c-3.16,9.35-22.46,7.53-47.46-6.8A103.09,103.09,0,0,1,770,558.29c-6.22-7.88-9.58-14.56-10-16.95-.91-4.92,3.67-17.29,6.38-18.39,4.18-1.7,12.07,17.84,24.58,26.83a133.81,133.81,0,0,0,17.18,9.9c14.5,7.22,31.81,13.79,37.08,12.07C853,569.2,849.84,581.09,846.68,590.44Z"/><path class="cls-15" d="M846.68,590.44c-3.16,9.35-22.46,7.53-47.46-6.8A103.09,103.09,0,0,1,770,558.29c2.1-8.33,9.74-5.51,22.87,4.37,11.51,8.67,17.92,4.22,15.24-3,14.5,7.22,31.81,13.79,37.08,12.07C853,569.2,849.84,581.09,846.68,590.44Z"/><path class="cls-8" d="M733.17,525.31c-17.06,19.62-30.44,27.28-38.64,33.91-5.64,4.57-13.65,7.11-17.86,3.75C711.1,537.84,735.36,491.2,749.11,457c.21-.52.41-1,.62-1.54C752.52,480.34,748.56,507.62,733.17,525.31Z"/><path class="cls-8" d="M696.88,615.91c-1.81-.07-3.7-.1-5.69-.1-18.48,0-32.5-5.89-41.35-13.67,18.36-1.07,38.35,2,45.35,10.59A9,9,0,0,1,696.88,615.91Z"/><path class="cls-6" d="M882.48,805.84c-21.57,11.24-221.4,15.43-297.19,14-3.67-50.74-.46-122.23,57.89-121.28,66.45,1.1,93.16,46.75,96.13,10.7s21.19-88.85,59.42-81.93,79.75,27.31,73.93-5.1,5.82-94.13,25.12-106.61,18.21-51.43-17.84-74.38c-31.42-20,16-73.45,49.9-63.48,21.69,34,28.83,94.25,32.39,150.93C967.69,615.8,908.34,792.36,882.48,805.84Z"/><path class="cls-3" d="M1049.21,477.24a1.5,1.5,0,0,0,0-3,1.5,1.5,0,0,0,0,3Z"/><path class="cls-20" d="M557.55,162.71l-28,95.55a1.87,1.87,0,0,1-.9,1.13,1.84,1.84,0,0,1-1.44.16,1.89,1.89,0,0,1-1.14-.9,1.93,1.93,0,0,1-.16-1.44l28-95.78,3.62,1.1Z"/><circle class="cls-6" cx="560.18" cy="158.78" r="158.78" transform="translate(51.8 442.62) rotate(-45)"/><circle class="cls-21" cx="560.18" cy="158.78" r="151.94" transform="translate(51.8 442.62) rotate(-45)"/><path class="cls-22" d="M473.37,283.35,684.75,72A152,152,0,0,0,560.18,6.84c-83.68,0-151.94,68.25-151.94,151.94A152,152,0,0,0,473.37,283.35Z"/><path class="cls-22" d="M695.8,90.39l-204,204q5.46,2.76,11.15,5.09l198-197.95Q698.57,95.84,695.8,90.39Z"/><path class="cls-22" d="M562.83,310.69c81.59-1.41,147.86-67.67,149.26-149.27Z"/><path class="cls-23" d="M560.18,292.08c-1.47,0-3,0-4.46-.07h-.28l0-1.45h.28c3.64.12,7.3.09,10.89-.08l.07,1.44C564.57,292,562.36,292.08,560.18,292.08Zm-15.72-.92c-3.63-.43-7.29-1-10.87-1.75l.29-1.42c3.54.73,7.16,1.31,10.75,1.73Zm33.24-.23-.19-1.43c3.58-.48,7.19-1.11,10.72-1.88l.31,1.42C585,289.82,581.32,290.45,577.7,290.93Zm-54.8-4.16c-3.51-1-7-2.21-10.42-3.53l.52-1.35c3.37,1.3,6.84,2.47,10.31,3.49Zm76.29-.52-.42-1.39c3.46-1.06,6.91-2.28,10.27-3.63l.54,1.34C606.18,283.94,602.69,285.17,599.19,286.25Zm-96.81-7.39c-3.29-1.59-6.55-3.34-9.7-5.2l.73-1.25c3.12,1.84,6.35,3.57,9.6,5.15Zm117.25-.81-.65-1.3c3.23-1.62,6.43-3.39,9.53-5.28l.75,1.24C626.13,274.62,622.89,276.41,619.63,278.05ZM483.44,267.68c-3-2.12-5.92-4.38-8.72-6.73l.93-1.11c2.77,2.33,5.67,4.56,8.62,6.65Zm155-1.08-.85-1.17c2.92-2.13,5.79-4.41,8.54-6.77l.94,1.1C644.28,262.15,641.38,264.45,638.42,266.6ZM466.57,253.54c-2.6-2.57-5.12-5.28-7.51-8l1.1-1c2.36,2.75,4.86,5.43,7.43,8Zm188.52-1.31-1-1c2.54-2.58,5-5.29,7.32-8.07l1.11.93C660.15,246.89,657.66,249.63,655.09,252.23ZM452.23,236.85c-2.15-3-4.2-6-6.09-9.17l1.24-.76c1.87,3.09,3.9,6.15,6,9.08Zm217-1.5-1.18-.84c2.08-2.95,4.07-6,5.9-9.15l1.25.74C673.32,229.25,671.31,232.36,669.2,235.35ZM440.81,218c-1.63-3.27-3.15-6.66-4.5-10.05l1.34-.54c1.34,3.36,2.84,6.71,4.46,9.95Zm239.54-1.64-1.3-.63c1.57-3.26,3-6.62,4.31-10l1.36.52C683.41,209.7,681.94,213.1,680.35,216.39Zm-247.7-18.8c-1.07-3.5-2-7.08-2.77-10.66l1.41-.3c.77,3.53,1.69,7.08,2.75,10.53Zm255.58-1.74-1.39-.4c1-3.47,1.88-7,2.6-10.58l1.42.29C690.14,188.74,689.25,192.34,688.23,195.85ZM428,176.08c-.47-3.62-.8-7.31-1-11l1.45-.07c.17,3.62.49,7.27,1,10.85Zm264.59-1.79-1.44-.17c.42-3.58.69-7.24.81-10.86l1.45.05C693.29,167,693,170.66,692.59,174.29ZM428.41,154.16l-1.45,0c.13-3.66.41-7.36.84-11l1.44.17C428.81,146.88,428.54,150.54,428.41,154.16Zm263.47-1.79c-.17-3.62-.5-7.27-1-10.85l1.44-.19c.48,3.62.81,7.31,1,11ZM431,132.55l-1.42-.29c.73-3.58,1.61-7.18,2.64-10.69l1.39.41C432.56,125.45,431.68,129,431,132.55ZM689,130.79c-.76-3.53-1.69-7.07-2.75-10.53l1.38-.43c1.08,3.5,2,7.08,2.79,10.66Zm-252-19.13-1.35-.52c1.31-3.41,2.78-6.81,4.37-10.1l1.31.63C439.81,104.93,438.35,108.29,437.05,111.66ZM682.66,110c-1.34-3.35-2.85-6.7-4.47-9.93l1.3-.65c1.64,3.27,3.16,6.65,4.52,10ZM446.52,92.07l-1.25-.73c1.85-3.15,3.87-6.26,6-9.25l1.18.84C450.34,85.89,448.35,89,446.52,92.07Zm226.4-1.55c-1.88-3.09-3.91-6.14-6-9.07l1.17-.85c2.15,3,4.21,6,6.11,9.16ZM459.08,74.3,458,73.37c2.34-2.8,4.83-5.54,7.4-8.15l1,1C463.86,68.82,461.4,71.53,459.08,74.3Zm201-1.39c-2.36-2.74-4.86-5.42-7.43-8l1-1c2.61,2.57,5.14,5.27,7.52,8ZM474.37,58.81l-.95-1.1c2.78-2.39,5.68-4.69,8.64-6.83l.85,1.17C480,54.17,477.11,56.45,474.37,58.81Zm170.24-1.18c-2.77-2.33-5.68-4.56-8.63-6.64l.84-1.19c3,2.11,5.92,4.37,8.72,6.71ZM492,46l-.75-1.24c3.13-1.9,6.37-3.69,9.64-5.33l.65,1.3C498.28,42.36,495.08,44.13,492,46Zm134.85-.93c-3.12-1.84-6.35-3.57-9.6-5.14l.63-1.3c3.29,1.58,6.56,3.33,9.71,5.19Zm-115.37-8.8-.54-1.35c3.4-1.36,6.9-2.59,10.39-3.66l.43,1.39C518.28,33.72,514.82,34.93,511.46,36.28Zm95.78-.66c-3.38-1.3-6.85-2.47-10.31-3.48l.4-1.39c3.51,1,7,2.2,10.43,3.52Zm-75-5.71-.3-1.42c3.56-.77,7.21-1.41,10.84-1.88L543,28C539.41,28.51,535.8,29.14,532.27,29.91Zm54.08-.37c-3.54-.72-7.16-1.3-10.75-1.72l.17-1.44c3.63.43,7.29,1,10.87,1.74Zm-32.5-2.46-.07-1.45c3.59-.17,7.24-.2,10.87-.08h.14l0,1.45,0-.72-.09.72c-1.54-.05-3-.08-4.49-.08C558.08,26.92,555.94,27,553.85,27.08Z"/><path class="cls-18" d="M590.7,96.48l-1.62-.78a2,2,0,0,0-2.58.87L560.86,141,522.05,60.45a2,2,0,0,0-2.57-.94l-1.68.67a2,2,0,0,0-1.09,2.54l31.49,84.83a2,2,0,0,0,.88,1l6.4,3.56a8.21,8.21,0,1,0,10,.48l6.77-3.36a2.11,2.11,0,0,0,1-1.06L591.77,99A2,2,0,0,0,590.7,96.48Zm-30.49,66.85a4.53,4.53,0,1,1,4.53-4.52A4.52,4.52,0,0,1,560.21,163.33Zm0-12.72a8.27,8.27,0,0,0-.87.09l1.25-4.52,1.12,4.58A8.2,8.2,0,0,0,560.21,150.61Z"/><circle class="cls-18" cx="560.21" cy="158.81" r="2.25"/><path class="cls-8" d="M956.93,126.05a11.58,11.58,0,0,0-6.39-1.91H720.11a11.66,11.66,0,0,0-11.65,11.66v99.9a11.64,11.64,0,0,0,11.65,11.65h4.6l3.8,6.58,8.6,14.9a8.83,8.83,0,0,0,15.29,0l8.6-14.9,3.8-6.58H950.54A11.66,11.66,0,0,0,962.2,235.7V135.8A11.65,11.65,0,0,0,956.93,126.05Z"/><path d="M741.56,150.92h-3.81c-1.21,0-1.81-.38-1.81-1.14s.67-1.29,2-1.29h.43V140a3,3,0,0,1-1.09.58,1.27,1.27,0,0,1-.93-.39,1.17,1.17,0,0,1-.4-.89,1.5,1.5,0,0,1,.64-1.08l1.09-.79,1.17-.94a2.36,2.36,0,0,1,1.39-.52c.57,0,.86.34.86,1s0,1.83-.09,3.21-.1,3.36-.1,5.92v2.33h.63a1.33,1.33,0,0,1,.94.35,1.22,1.22,0,0,1,0,1.77A1.33,1.33,0,0,1,741.56,150.92Z"/><path d="M816.06,151.29a4.84,4.84,0,0,1-4.61-2.75,11.4,11.4,0,0,1-1.05-5.25,8.45,8.45,0,0,1,1.39-4.82,5.24,5.24,0,0,1,4.57-2.48,4.88,4.88,0,0,1,4.26,2.21,7.87,7.87,0,0,1,1.28,4.53q0,4.28-1.46,6.42A5,5,0,0,1,816.06,151.29Zm.29-12.81a2.84,2.84,0,0,0-2.5,1.55,5.81,5.81,0,0,0-.82,3.12,11.64,11.64,0,0,0,.44,3.61,2.62,2.62,0,0,0,2.59,2,2.54,2.54,0,0,0,2.36-1.43,9.16,9.16,0,0,0,.79-4.31,6.51,6.51,0,0,0-.72-3.43A2.34,2.34,0,0,0,816.35,138.48Z"/><path d="M854.32,151.29a4.82,4.82,0,0,1-4.6-2.75,11.26,11.26,0,0,1-1.06-5.25,8.45,8.45,0,0,1,1.39-4.82,5.24,5.24,0,0,1,4.57-2.48,4.88,4.88,0,0,1,4.26,2.21,7.87,7.87,0,0,1,1.28,4.53q0,4.28-1.46,6.42A5,5,0,0,1,854.32,151.29Zm.29-12.81a2.84,2.84,0,0,0-2.5,1.55,5.81,5.81,0,0,0-.82,3.12,11.64,11.64,0,0,0,.44,3.61,2.62,2.62,0,0,0,2.59,2,2.54,2.54,0,0,0,2.36-1.43,9.16,9.16,0,0,0,.79-4.31,6.62,6.62,0,0,0-.71-3.43A2.37,2.37,0,0,0,854.61,138.48Z"/><path d="M892.58,151.29a4.83,4.83,0,0,1-4.6-2.75,11.26,11.26,0,0,1-1.06-5.25,8.45,8.45,0,0,1,1.39-4.82,5.25,5.25,0,0,1,4.57-2.48,4.88,4.88,0,0,1,4.26,2.21,7.87,7.87,0,0,1,1.28,4.53q0,4.28-1.46,6.42A5,5,0,0,1,892.58,151.29Zm.29-12.81a2.82,2.82,0,0,0-2.49,1.55,5.82,5.82,0,0,0-.83,3.12,11.64,11.64,0,0,0,.44,3.61,2.63,2.63,0,0,0,2.59,2,2.54,2.54,0,0,0,2.36-1.43,9.16,9.16,0,0,0,.79-4.31,6.62,6.62,0,0,0-.71-3.43A2.37,2.37,0,0,0,892.87,138.48Z"/><path d="M932.87,150.92h-3.81c-1.21,0-1.81-.38-1.81-1.14s.67-1.29,2-1.29h.42V140a3,3,0,0,1-1.08.58,1.31,1.31,0,0,1-.94-.39,1.21,1.21,0,0,1-.4-.89,1.52,1.52,0,0,1,.65-1.08l1.08-.79,1.17-.94a2.38,2.38,0,0,1,1.39-.52c.58,0,.87.34.87,1s0,1.83-.1,3.21-.09,3.36-.09,5.92v2.33h.63a1.37,1.37,0,0,1,.94.35,1.22,1.22,0,0,1,0,1.77A1.37,1.37,0,0,1,932.87,150.92Z"/><path d="M777.8,151.29a4.84,4.84,0,0,1-4.61-2.75,11.4,11.4,0,0,1-1.05-5.25,8.45,8.45,0,0,1,1.39-4.82A5.23,5.23,0,0,1,778.1,136a4.88,4.88,0,0,1,4.26,2.21,7.87,7.87,0,0,1,1.28,4.53q0,4.28-1.46,6.42A5,5,0,0,1,777.8,151.29Zm.29-12.81a2.84,2.84,0,0,0-2.5,1.55,5.81,5.81,0,0,0-.82,3.12,11.35,11.35,0,0,0,.44,3.61,2.62,2.62,0,0,0,2.59,2,2.54,2.54,0,0,0,2.36-1.43,9.16,9.16,0,0,0,.79-4.31,6.51,6.51,0,0,0-.72-3.43A2.34,2.34,0,0,0,778.09,138.48Z"/><path d="M739.54,178.59a4.83,4.83,0,0,1-4.61-2.74,11.46,11.46,0,0,1-1-5.25,8.42,8.42,0,0,1,1.39-4.82,5.21,5.21,0,0,1,4.57-2.49,4.86,4.86,0,0,1,4.26,2.22,7.83,7.83,0,0,1,1.27,4.52q0,4.28-1.45,6.42A5,5,0,0,1,739.54,178.59Zm.29-12.8a2.83,2.83,0,0,0-2.5,1.54,5.86,5.86,0,0,0-.82,3.12,11.3,11.3,0,0,0,.44,3.61,2.62,2.62,0,0,0,2.59,2.05,2.53,2.53,0,0,0,2.36-1.44,9.27,9.27,0,0,0,.79-4.3,6.55,6.55,0,0,0-.72-3.44A2.35,2.35,0,0,0,739.83,165.79Z"/><path d="M816.06,178.59a4.83,4.83,0,0,1-4.61-2.74,11.46,11.46,0,0,1-1.05-5.25,8.42,8.42,0,0,1,1.39-4.82,5.23,5.23,0,0,1,4.57-2.49,4.86,4.86,0,0,1,4.26,2.22A7.83,7.83,0,0,1,821.9,170q0,4.28-1.46,6.42A4.93,4.93,0,0,1,816.06,178.59Zm.29-12.8a2.83,2.83,0,0,0-2.5,1.54,5.86,5.86,0,0,0-.82,3.12,11.6,11.6,0,0,0,.44,3.61,2.63,2.63,0,0,0,2.59,2.05,2.53,2.53,0,0,0,2.36-1.44,9.14,9.14,0,0,0,.79-4.3,6.55,6.55,0,0,0-.72-3.44A2.35,2.35,0,0,0,816.35,165.79Z"/><path d="M854.32,178.59a4.81,4.81,0,0,1-4.6-2.74,11.32,11.32,0,0,1-1.06-5.25,8.42,8.42,0,0,1,1.39-4.82,5.23,5.23,0,0,1,4.57-2.49,4.86,4.86,0,0,1,4.26,2.22,7.83,7.83,0,0,1,1.28,4.52q0,4.28-1.46,6.42A4.93,4.93,0,0,1,854.32,178.59Zm.29-12.8a2.83,2.83,0,0,0-2.5,1.54,5.86,5.86,0,0,0-.82,3.12,11.6,11.6,0,0,0,.44,3.61,2.63,2.63,0,0,0,2.59,2.05,2.53,2.53,0,0,0,2.36-1.44,9.14,9.14,0,0,0,.79-4.3,6.66,6.66,0,0,0-.71-3.44A2.38,2.38,0,0,0,854.61,165.79Z"/><path d="M892.58,178.59a4.82,4.82,0,0,1-4.6-2.74,11.32,11.32,0,0,1-1.06-5.25,8.42,8.42,0,0,1,1.39-4.82,5.24,5.24,0,0,1,4.57-2.49,4.86,4.86,0,0,1,4.26,2.22,7.83,7.83,0,0,1,1.28,4.52q0,4.28-1.46,6.42A4.93,4.93,0,0,1,892.58,178.59Zm.29-12.8a2.81,2.81,0,0,0-2.49,1.54,5.87,5.87,0,0,0-.83,3.12,11.6,11.6,0,0,0,.44,3.61,2.64,2.64,0,0,0,2.59,2.05,2.53,2.53,0,0,0,2.36-1.44,9.14,9.14,0,0,0,.79-4.3,6.66,6.66,0,0,0-.71-3.44A2.38,2.38,0,0,0,892.87,165.79Z"/><path d="M930.84,178.59a4.82,4.82,0,0,1-4.6-2.74,11.32,11.32,0,0,1-1.06-5.25,8.5,8.5,0,0,1,1.39-4.82,5.24,5.24,0,0,1,4.57-2.49,4.86,4.86,0,0,1,4.26,2.22,7.83,7.83,0,0,1,1.28,4.52q0,4.28-1.46,6.42A4.93,4.93,0,0,1,930.84,178.59Zm.29-12.8a2.82,2.82,0,0,0-2.49,1.54,5.87,5.87,0,0,0-.83,3.12,11.6,11.6,0,0,0,.44,3.61,2.64,2.64,0,0,0,2.59,2.05,2.55,2.55,0,0,0,2.37-1.44,9.28,9.28,0,0,0,.78-4.3,6.66,6.66,0,0,0-.71-3.44A2.37,2.37,0,0,0,931.13,165.79Z"/><path d="M779.83,178.23H776c-1.2,0-1.81-.38-1.81-1.14s.68-1.29,2-1.29h.42v-8.52a2.87,2.87,0,0,1-1.09.58,1.32,1.32,0,0,1-.93-.38,1.21,1.21,0,0,1-.4-.9,1.5,1.5,0,0,1,.64-1.08l1.09-.79,1.17-.94a2.43,2.43,0,0,1,1.39-.52c.58,0,.86.35.86,1s0,1.83-.09,3.22-.1,3.35-.1,5.92v2.32h.64a1.29,1.29,0,0,1,.93.36,1.21,1.21,0,0,1,0,1.76A1.29,1.29,0,0,1,779.83,178.23Z"/><path d="M741.56,205.53h-3.81c-1.21,0-1.81-.38-1.81-1.14s.67-1.29,2-1.29h.43v-8.51a2.94,2.94,0,0,1-1.09.57,1.26,1.26,0,0,1-.93-.38,1.19,1.19,0,0,1-.4-.89,1.52,1.52,0,0,1,.64-1.09l1.09-.78,1.17-.94a2.36,2.36,0,0,1,1.39-.52c.57,0,.86.34.86,1s0,1.84-.09,3.22-.1,3.36-.1,5.92v2.32h.63a1.3,1.3,0,0,1,.94.36,1.17,1.17,0,0,1,.38.88,1.19,1.19,0,0,1-.38.89A1.33,1.33,0,0,1,741.56,205.53Z"/><path d="M818.09,205.53h-3.81c-1.21,0-1.82-.38-1.82-1.14s.68-1.29,2-1.29h.42v-8.51a2.94,2.94,0,0,1-1.09.57,1.28,1.28,0,0,1-.93-.38,1.19,1.19,0,0,1-.4-.89,1.55,1.55,0,0,1,.64-1.09l1.09-.78,1.17-.94a2.36,2.36,0,0,1,1.39-.52c.58,0,.87.34.87,1s0,1.84-.1,3.22-.1,3.36-.1,5.92v2.32h.64a1.29,1.29,0,0,1,.93.36,1.14,1.14,0,0,1,.38.88,1.16,1.16,0,0,1-.38.89A1.33,1.33,0,0,1,818.09,205.53Z"/><path d="M856.35,205.53h-3.81c-1.21,0-1.82-.38-1.82-1.14s.68-1.29,2-1.29h.42v-8.51a3,3,0,0,1-1.08.57,1.3,1.3,0,0,1-.94-.38,1.19,1.19,0,0,1-.4-.89,1.55,1.55,0,0,1,.64-1.09l1.09-.78,1.17-.94a2.36,2.36,0,0,1,1.39-.52c.58,0,.87.34.87,1s0,1.84-.1,3.22-.1,3.36-.1,5.92v2.32h.64a1.29,1.29,0,0,1,.93.36,1.14,1.14,0,0,1,.38.88,1.16,1.16,0,0,1-.38.89A1.33,1.33,0,0,1,856.35,205.53Z"/><path d="M894.61,205.53H890.8c-1.21,0-1.82-.38-1.82-1.14s.68-1.29,2-1.29h.42v-8.51a2.93,2.93,0,0,1-1.08.57,1.3,1.3,0,0,1-.94-.38,1.23,1.23,0,0,1-.4-.89,1.54,1.54,0,0,1,.65-1.09l1.08-.78,1.17-.94a2.38,2.38,0,0,1,1.39-.52c.58,0,.87.34.87,1s0,1.84-.1,3.22-.09,3.36-.09,5.92v2.32h.63a1.29,1.29,0,0,1,.93.36,1.14,1.14,0,0,1,.38.88,1.16,1.16,0,0,1-.38.89A1.33,1.33,0,0,1,894.61,205.53Z"/><path d="M930.84,205.9a4.83,4.83,0,0,1-4.6-2.75,11.32,11.32,0,0,1-1.06-5.25,8.5,8.5,0,0,1,1.39-4.82,5.23,5.23,0,0,1,4.57-2.48,4.86,4.86,0,0,1,4.26,2.21,7.86,7.86,0,0,1,1.28,4.52q0,4.29-1.46,6.43A5,5,0,0,1,930.84,205.9Zm.29-12.81a2.83,2.83,0,0,0-2.49,1.55,5.82,5.82,0,0,0-.83,3.12,11.64,11.64,0,0,0,.44,3.61,2.63,2.63,0,0,0,2.59,2,2.55,2.55,0,0,0,2.37-1.44,9.26,9.26,0,0,0,.78-4.3,6.66,6.66,0,0,0-.71-3.44A2.37,2.37,0,0,0,931.13,193.09Z"/><path d="M777.8,205.9a4.84,4.84,0,0,1-4.61-2.75,11.46,11.46,0,0,1-1.05-5.25,8.42,8.42,0,0,1,1.39-4.82,5.21,5.21,0,0,1,4.57-2.48,4.86,4.86,0,0,1,4.26,2.21,7.86,7.86,0,0,1,1.28,4.52q0,4.29-1.46,6.43A5,5,0,0,1,777.8,205.9Zm.29-12.81a2.84,2.84,0,0,0-2.5,1.55,5.81,5.81,0,0,0-.82,3.12,11.35,11.35,0,0,0,.44,3.61,2.62,2.62,0,0,0,2.59,2,2.53,2.53,0,0,0,2.36-1.44,9.11,9.11,0,0,0,.79-4.3,6.55,6.55,0,0,0-.72-3.44A2.35,2.35,0,0,0,778.09,193.09Z"/><path d="M739.54,233.2a4.84,4.84,0,0,1-4.61-2.75,11.4,11.4,0,0,1-1-5.25,8.39,8.39,0,0,1,1.39-4.81,5.21,5.21,0,0,1,4.57-2.49,4.86,4.86,0,0,1,4.26,2.22,7.81,7.81,0,0,1,1.27,4.52q0,4.28-1.45,6.42A5,5,0,0,1,739.54,233.2Zm.29-12.8a2.83,2.83,0,0,0-2.5,1.54,5.86,5.86,0,0,0-.82,3.12,11.35,11.35,0,0,0,.44,3.61,2.61,2.61,0,0,0,2.59,2,2.52,2.52,0,0,0,2.36-1.43,9.28,9.28,0,0,0,.79-4.31,6.51,6.51,0,0,0-.72-3.43A2.35,2.35,0,0,0,739.83,220.4Z"/><path d="M816.06,233.2a4.84,4.84,0,0,1-4.61-2.75,11.4,11.4,0,0,1-1.05-5.25,8.39,8.39,0,0,1,1.39-4.81,5.23,5.23,0,0,1,4.57-2.49,4.86,4.86,0,0,1,4.26,2.22,7.81,7.81,0,0,1,1.28,4.52q0,4.28-1.46,6.42A4.93,4.93,0,0,1,816.06,233.2Zm.29-12.8a2.83,2.83,0,0,0-2.5,1.54,5.86,5.86,0,0,0-.82,3.12,11.64,11.64,0,0,0,.44,3.61,2.62,2.62,0,0,0,2.59,2,2.52,2.52,0,0,0,2.36-1.43,9.16,9.16,0,0,0,.79-4.31,6.51,6.51,0,0,0-.72-3.43A2.35,2.35,0,0,0,816.35,220.4Z"/><path d="M856.35,232.83h-3.81c-1.21,0-1.82-.39-1.82-1.15s.68-1.28,2-1.28h.42v-8.52a2.93,2.93,0,0,1-1.08.58,1.31,1.31,0,0,1-.94-.39,1.17,1.17,0,0,1-.4-.89,1.54,1.54,0,0,1,.64-1.08l1.09-.79,1.17-.94a2.36,2.36,0,0,1,1.39-.52c.58,0,.87.35.87,1s0,1.83-.1,3.21-.1,3.36-.1,5.93v2.32h.64a1.33,1.33,0,0,1,.93.35,1.22,1.22,0,0,1,0,1.77A1.28,1.28,0,0,1,856.35,232.83Z"/><path d="M892.58,233.2a4.83,4.83,0,0,1-4.6-2.75,11.26,11.26,0,0,1-1.06-5.25,8.39,8.39,0,0,1,1.39-4.81,5.24,5.24,0,0,1,4.57-2.49,4.86,4.86,0,0,1,4.26,2.22,7.81,7.81,0,0,1,1.28,4.52q0,4.28-1.46,6.42A4.93,4.93,0,0,1,892.58,233.2Zm.29-12.8a2.81,2.81,0,0,0-2.49,1.54,5.87,5.87,0,0,0-.83,3.12,11.64,11.64,0,0,0,.44,3.61,2.63,2.63,0,0,0,2.59,2,2.52,2.52,0,0,0,2.36-1.43,9.16,9.16,0,0,0,.79-4.31,6.62,6.62,0,0,0-.71-3.43A2.38,2.38,0,0,0,892.87,220.4Z"/><path d="M930.84,233.2a4.83,4.83,0,0,1-4.6-2.75,11.26,11.26,0,0,1-1.06-5.25,8.47,8.47,0,0,1,1.39-4.81,5.24,5.24,0,0,1,4.57-2.49,4.86,4.86,0,0,1,4.26,2.22,7.81,7.81,0,0,1,1.28,4.52q0,4.28-1.46,6.42A4.93,4.93,0,0,1,930.84,233.2Zm.29-12.8a2.82,2.82,0,0,0-2.49,1.54,5.87,5.87,0,0,0-.83,3.12,11.64,11.64,0,0,0,.44,3.61,2.63,2.63,0,0,0,2.59,2,2.55,2.55,0,0,0,2.37-1.43A9.3,9.3,0,0,0,934,225a6.62,6.62,0,0,0-.71-3.43A2.37,2.37,0,0,0,931.13,220.4Z"/><path d="M777.8,233.2a4.84,4.84,0,0,1-4.61-2.75,11.4,11.4,0,0,1-1.05-5.25,8.39,8.39,0,0,1,1.39-4.81,5.21,5.21,0,0,1,4.57-2.49,4.86,4.86,0,0,1,4.26,2.22,7.81,7.81,0,0,1,1.28,4.52q0,4.28-1.46,6.42A5,5,0,0,1,777.8,233.2Zm.29-12.8a2.83,2.83,0,0,0-2.5,1.54,5.86,5.86,0,0,0-.82,3.12,11.35,11.35,0,0,0,.44,3.61,2.62,2.62,0,0,0,2.59,2,2.52,2.52,0,0,0,2.36-1.43A9.16,9.16,0,0,0,781,225a6.51,6.51,0,0,0-.72-3.43A2.35,2.35,0,0,0,778.09,220.4Z"/><path d="M587.69,268.93c0-1.71,0-3.41,0-5.12-.33-.19-.66-.38-1-.58a19.68,19.68,0,0,1,1-34v-5.33a1,1,0,0,0-1,.14,27.73,27.73,0,0,0-6.3,4.21,24.09,24.09,0,0,0-5.93,8.29,19.12,19.12,0,0,0-1.84,7.66h-.07v4.33l.07.1A13.93,13.93,0,0,0,573,252a24.55,24.55,0,0,0,8.36,13.58,22.23,22.23,0,0,0,6.18,3.72C587.87,269.28,587.69,269,587.69,268.93Z"/><path d="M567.5,263.72c-.47-.39-1-.21-1.52-.16-2.64.21-4.43-1-5.06-3.29a10.66,10.66,0,0,1-.25-1.12,45,45,0,0,1-.13-5.32,11.5,11.5,0,0,0-2.13-6.76.72.72,0,0,1,0-1,11.33,11.33,0,0,0,2.11-6.68c0-1.3,0-2.59,0-3.89a9.13,9.13,0,0,1,.35-2.49c.68-2.54,2.46-3.6,5.16-3.43.5,0,1,.23,1.45-.15v-4.9c0-.12,0-.17-.14-.14H563.9a.08.08,0,0,1,0,.07h0a7.7,7.7,0,0,0-6,2.9c-2.36,2.69-2.88,6-2.74,9.42a14.81,14.81,0,0,1-.31,4.36,3.56,3.56,0,0,1-3.07,2.84,1.51,1.51,0,0,0-.94.3v4.61a1.51,1.51,0,0,0,.94.3A3.57,3.57,0,0,1,554.8,252a12,12,0,0,1,.34,4,14.19,14.19,0,0,0,1.17,7.37c1.51,3.16,3.89,5.18,7.57,5.31h0a.09.09,0,0,1,0,.07h3.46c.12,0,.17,0,.14-.14Z"/><path class="cls-24" d="M543.81,263.93a1.4,1.4,0,0,0-1.08-.27h-4.1c-.8,0-.85-.07-.87-.87V239.29c0-3,0-6,0-8.94,0-.8.06-.86.86-.87h4.1a1.44,1.44,0,0,0,1.08-.27c0-1.49,0-3,0-4.47,0-.36-.08-.45-.44-.44-3.45,0-6.91,0-10.36,0-.49,0-.59.1-.59.59q0,12,0,24,0,9.74,0,19.46c0,.23-.16.52.36.52,3.54,0,7.09,0,10.64,0,.31,0,.38-.06.37-.37C543.8,267,543.81,265.45,543.81,263.93Z"/></svg>