<svg id="Layer_1" data-name="Layer 1" xmlns="http://www.w3.org/2000/svg" viewBox="0 0 1152.11 751.4"><defs><style>.cls-1{fill:#e5e5e5;}.cls-2{fill:#c6c6c6;}.cls-3{fill:#565656;}.cls-4{fill:#fff;}.cls-5{fill:#f7c121;}.cls-6{fill:#f2c32d;}.cls-7{fill:#fcd45b;}.cls-8{fill:#fea996;}.cls-9{fill:#f98f7d;}.cls-10{fill:#c49a26;}.cls-11{fill:#ffc9c0;}.cls-12{fill:#f27203;}.cls-13{fill:#fff929;}.cls-14{fill:#0054db;}.cls-15{fill:#012610;}.cls-16{fill:#0f1e55;}.cls-17{fill:#707070;}</style></defs><path class="cls-1" d="M1051.3,128.1V620.31c0,7.88-6.88,14.29-15.17,14.29H311.79c-8.28,0-15-6.41-15-14.29V128.1Z"/><path class="cls-1" d="M1051.22,92.36v35.75h-560l31.37-46.29h513.57C1044.46,81.82,1051.22,86.55,1051.22,92.36Z"/><path class="cls-1" d="M525.16,81.82,496.54,128.1H296.78V92.35c0-5.8,6.17-10.53,13.75-10.53Z"/><circle class="cls-1" cx="356.48" cy="104.96" r="9.05"/><circle class="cls-1" cx="403.5" cy="104.96" r="9.05"/><circle class="cls-1" cx="454.1" cy="104.96" r="9.05"/><path class="cls-2" d="M1051.22,92.36v35.75H860.62c-26.39-8.5-30.43-17.9-46.72-10.81-5.1,2.23-6.23,6-5.36,10.81H771.2c-5.73-14.82-9.41-31.11-9.27-46.29h274.22C1044.46,81.82,1051.22,86.55,1051.22,92.36Z"/><path class="cls-2" d="M819,182.29s.32,8.83-22-12.43c-9.54-9.09-19.07-24.4-25.78-41.76h37.34C811,141.71,829.44,163.64,819,182.29Z"/><path class="cls-2" d="M1051.3,128.1V161c-14.49-12.87-29-29.08-39.6-24.76-21.76,8.86-23.34,56.76-46.05,65.91s-24.3-12-17.79-42.24-24.17-18-68.34-27a171.47,171.47,0,0,1-18.91-4.88Z"/><path class="cls-2" d="M1051.3,260.3v360c0,7.88-6.88,14.29-15.17,14.29H694.74c-49.79-11-85-19.38-85-19.38,6.31-31.65,139.71-36.55,194.68-25.53s75.39,16.42,84.84,8.93,35.23-53.7,60.2-54.85-9.82-79.66-53-71.35-60.84-40.29-68.41-45.65S686.47,370.5,686.47,370.5s27.23-60.1,97.36-60.74,186.31,45.87,200.75,21.89-1.51-71.82,1.86-83.66,31.57-14.32,37.25-11.93,3.79,21.08,22.09,23.72C1047.66,260.05,1049.5,260.2,1051.3,260.3Z"/><ellipse class="cls-1" cx="946.62" cy="704.7" rx="205.49" ry="46.7"/><path d="M471.59,205.92a55.47,55.47,0,1,1-55.47-55.47A55.26,55.26,0,0,1,471.59,205.92Z"/><path class="cls-3" d="M468,203.34a55.47,55.47,0,1,1-55.46-55.47A55.57,55.57,0,0,1,468,203.34Z"/><path class="cls-4" d="M465.44,220.09a55.49,55.49,0,0,1-102.25,8.58l16.32-18.3,29.1,18.44L442,180.91Z"/><circle class="cls-4" cx="403.97" cy="197.34" r="8.57"/><path class="cls-5" d="M981.79,81.55c-.62.09-1.24.21-1.86.34-22.38,4.61-35.07,27.85-35.07,27.85a14.3,14.3,0,0,0-5-2.54c-9.84-3.48-30.7-7-47.11-13.67a79.57,79.57,0,0,1-7.31-3.38,44,44,0,0,1-8.58-5.78s-6.49-35.24,29-36.66S995,75.63,995,75.63,1005.33,77.89,981.79,81.55Z"/><path class="cls-6" d="M981.79,81.55c-.62.09-1.24.21-1.86.34-2.22-2.09-3.94-3.32-4.63-3.18-2.83.53-33.83,5.38-41.72-2.38s-24.39-16.21-27.49-10.84c-2.58,4.45-9,22.59-20.6,24.66a44,44,0,0,1-8.58-5.78s-6.49-35.24,29-36.66S995,75.63,995,75.63,1005.33,77.89,981.79,81.55Z"/><path class="cls-7" d="M939.91,107.2c-9.84-3.48-30.7-7-47.11-13.67,12.35-1.19,29-3.35,39.83,4C938.23,101.42,939.83,104.73,939.91,107.2Z"/><path class="cls-5" d="M864.26,94s-4.23-.75-11-1.22l-2.1-.13h-.09c-1.71-.09-3.55-.17-5.5-.21-11-.24-25.39.59-39.3,4.84q-1.49.45-3,1s-20.54-13.53-34-19.5c-3.82-1.69-7.07-2.78-9.13-2.78a27.33,27.33,0,0,1-15.51-4.79c9.5-7.69,22.22-14.05,36.51-19.21,19.24-6.94,41.31-11.72,62.18-14.62.29,0,.58-.08.87-.11l.58-.06c10.28-1,16.15,3.68,19.34,10.68C871.68,64.33,864.26,94,864.26,94Z"/><path class="cls-6" d="M864.26,94s-4.23-.75-11-1.22c-.67-.07-1.37-.12-2.1-.13h-.09c-14.92-9.39-22.7-28.13-28.14-33.18-4.85-4.5-51.39,1.37-68.41,10.43-3.82-1.69,7.7,6.06,5.64,6.06a27.33,27.33,0,0,1-15.51-4.79C767,53.07,807,42.36,843.36,37.29c.29,0,.58-.08.87-.11l.58-.06c9.71-.87,15.72,3.68,19.34,10.68C871.68,64.33,864.26,94,864.26,94Z"/><path class="cls-8" d="M892.34,67.45c-1.85,18-12.1,26-22.82,27.44-8.84,1.16-18-2.18-23.06-8.2a36.08,36.08,0,0,1-6.35-11.23,72.33,72.33,0,0,1-3.52-17.94C836,50.81,835.77,44,835,37.43a92.32,92.32,0,0,1,12.09-7c7.73-3.78,18-7.49,27.24-6.5C892.13,25.79,895.73,34.68,892.34,67.45Z"/><path class="cls-9" d="M881.79,50.89s-.7-1.49-1.28-7.35-8.8-13.91-14.5-4.86-25.1,10.17-26.48,9c-1.18-1-1.55,1-2.94,9.85C836,50.81,835.77,44,835,37.43a92.32,92.32,0,0,1,12.09-7,144.74,144.74,0,0,0,17.13-2.69c16.37-3.77,18.76,1.11,19.4,6.91S881.79,50.89,881.79,50.89Z"/><path class="cls-6" d="M1127.27,83.1c-4,9.3-20.51-.63-46.09-3.6a122.54,122.54,0,0,0-19.25-.74c-15.9.71-28,4.84-35.45,10-10.29,7.05-21-3.67-28.62-11.56S959.94,75.91,946,74.5,927.8,58.85,915.82,57.86s-23.64,5.51-30,1.56c-5.29-3.29-4.23-14.93-4.64-20.74a8.55,8.55,0,0,0-.48-2.66c-1.55-3.53-9-2.26-15.36,3.94S840,49,828.27,38.13,825.66,4.75,841.1,2.18c17.76-3,20.58,4.93,32.42,7.76S900.31,1.19,918.35.07s27.35,12.12,35.95,8.6l1-.39c26.47-10.46,41.18-.08,47,8.45a20.71,20.71,0,0,1,2.36,4.41c3.17,8.46,20.72,22.21,47.37,20.09s38.9,9.73,44,22S1131.29,73.8,1127.27,83.1Z"/><path class="cls-10" d="M1061.93,78.76c-15.9.71-28,4.84-35.45,10-10.29,7.05-21-3.67-28.62-11.56S959.94,75.91,946,74.5,927.8,58.85,915.82,57.86s-23.64,5.51-30,1.56c-5.29-3.29-4.23-14.93-4.64-20.74.75,3.17.2,7.93,1.78,6.84,2.11-1.47,12.33-.74,12.25,3.94s9.6,2.77,24.69-.9S932.51,68,956.2,72.32s35.88-11.21,49-6.7,25.24,16,35.81,10.5C1045.24,73.92,1053.51,75.66,1061.93,78.76Z"/><path class="cls-8" d="M880.51,54.82c3.51-10.77,11.46-15.77,16-6.18s-8.67,16.2-8.67,16.2Z"/><path class="cls-9" d="M885.39,48.43s4-4.29,7.82-.4,1.56,9.64-1.3,12.33c0,0,5.28-4.74,1.19-10.08S885.39,48.43,885.39,48.43Z"/><path class="cls-9" d="M893.18,53.44c.29,3.07-2.27,6.27-4.35,5.2a3.42,3.42,0,0,1-1.82-3.3s.67,3.11,2.4,2.88S892.53,56.12,893.18,53.44Z"/><path class="cls-9" d="M889.32,51.82c1.63,1,2.58,3.63.68,3.63s-2.65-1.6-3.17-1.34-2-1.45-.66-2.32S889.32,51.82,889.32,51.82Z"/><path class="cls-8" d="M822.62,196.48c-3.57.43-8.8-1-13.8-3.42-10.79-5.22-29.68-21.13-46.53-38.25-3-3-5.88-6.08-8.66-9.12a59.15,59.15,0,0,1-5.45-6.93c-13.89-20.58-16.33-49.87-8-61.58,0,0,16.84-2.54,17.48-3s28.86,18.1,37.1,23.5L797,99.17c-.12.36-.23.71-.33,1.07a52.88,52.88,0,0,0-2.09,11.18c-1.19,15,3.78,29.86,10.8,43.2,2.15,4.08,4.49,8,6.9,11.78,2.69,4.19,5.48,8.17,8.19,11.86C829.67,190.81,828.11,195.84,822.62,196.48Z"/><path class="cls-9" d="M797,99.17c-.12.36-.23.71-.33,1.07a28,28,0,0,0-2.63-2c-9.59-6.49-28.48-12.13-39.76-11.56-9.8.49-13.9,25.45-6.08,52.13-13.89-20.58-16.33-49.87-8-61.58,0,0,16.84-2.54,17.48-3S797,99.17,797,99.17Z"/><path class="cls-5" d="M799.41,106.68c-4.85-.44-16.18-12.69-24.64-19-7.31-5.49-16.44-5.44-27-3.69-1.65.28-3.34.59-5,.94-3.7.74-6.26.13-7.89-1.31-4-3.49-2.56-11.89,1-17.72,1.76-2.86,12.34-.11,22.21,3s27.77,7.47,30.73,14.24a7.06,7.06,0,0,0,.52,1A15.28,15.28,0,0,0,795.09,89c4.6,2.61,10.32,4.64,13.31,8.6C813.19,104,805.3,107.21,799.41,106.68Z"/><path class="cls-6" d="M789.32,84.08c-2.15-1.31-5.91-4.27-11.69-5.42-7.93-1.59-32.88-8.88-35.16-8.88s-6.6,7.54-7.62,13.81c-4-3.49-2.56-11.89,1-17.72,1.76-2.86,12.34-.11,22.21,3s27.77,7.47,30.73,14.24A7.06,7.06,0,0,0,789.32,84.08Z"/><path class="cls-7" d="M799.41,106.68c-4.85-.44-16.18-12.69-24.64-19-7.31-5.49-16.44-5.44-27-3.69,6.45-3.53,18.42-5.35,26.49-1.57C783.58,86.77,795.85,97.62,796,93a11.07,11.07,0,0,0-.9-4c4.6,2.61,10.32,4.64,13.31,8.6C813.19,104,805.3,107.21,799.41,106.68Z"/><path class="cls-9" d="M822.62,196.48c-3.57.43-8.8-1-13.8-3.42-10.79-5.22-29.68-21.13-46.53-38.25a148.26,148.26,0,0,0,50,11.59c2.69,4.19,5.48,8.17,8.19,11.86C829.67,190.81,828.11,195.84,822.62,196.48Z"/><path class="cls-11" d="M805.36,154.62c-19.07-10-21.86-29.49-20.91-37.55.53-4.42,5-6.1,10.11-5.65C793.37,126.42,798.34,141.28,805.36,154.62Z"/><path class="cls-2" d="M815.45,159.93v0Z"/><path d="M972.57,187.6a26.92,26.92,0,0,0-18.74-7.55H777.91l-.68,0-.29,0-.54,0-.28,0-.7.07-.52.07-.26,0-.39.06-.44.08h0l-.64.13-.27.06-.65.15c-.22.06-.45.11-.67.18s-.63.18-.94.28-.43.13-.64.21a1.27,1.27,0,0,0-.18.06q-.28.09-.57.21l-.14.05-.46.18-.34.14q-.68.28-1.32.6l-.61.31-.26.14c-.14.06-.26.14-.39.21a23.69,23.69,0,0,0-2,1.25l-.45.31-.14.09-.47.35-.5.38-.52.42c-.33.28-.66.56-1,.85-.16.15-.32.29-.48.45l-.46.45-.42.43-.11.12a4.49,4.49,0,0,0-.36.39c-.15.16-.3.32-.43.48s-.29.33-.42.5l-.3.36-.24.31c-.05.07-.11.13-.15.2s-.22.28-.32.43a.44.44,0,0,0-.08.11,1.33,1.33,0,0,0-.14.19q-.36.51-.69,1l-.31.5,0,.06-.34.56-.33.6-.29.55a26.58,26.58,0,0,0-1.57,3.72c-.06.18-.12.36-.17.54l0,.11c-.06.17-.11.35-.16.53L752,203l-.06.46-.15,1.39c0,.1,0,.21,0,.31l0,.49c0,.19,0,.37,0,.55v.2c0,.21,0,.43,0,.64s0,.41,0,.62,0,.19,0,.29,0,.32,0,.48,0,.3,0,.45,0,.3,0,.45l0,.34c0,.16,0,.33,0,.49l.06.49c0,.17,0,.34.07.51s.06.37.1.56.11.63.18.94.07.32.1.48.13.51.19.77l.15.53h0c.06.21.12.42.19.63s.13.43.2.63c.15.42.3.84.46,1.24.08.21.16.41.25.62l.24.55.33.71c.08.15.16.31.23.47l0,.07c.09.16.17.32.25.48.24.45.5.89.77,1.32l.27.44.36.55.31.45.12.16c.09.14.19.26.29.39s.29.39.43.58l.41.5,0,.05c.12.15.25.3.38.44s.25.29.38.43a26.7,26.7,0,0,0,4.14,3.73l.35.26.45.31.41.26a5.54,5.54,0,0,0,.51.33l.39.24.29.17c.17.1.34.2.52.29l.65.35.66.32.67.31.54.24c.12.05.25.11.38.15l.36.15.2.07.39.15.35.12q1,.34,2,.6l.71.17h0l.74.16.59.11c.19,0,.38.07.58.09l.09,0,.43.06.51.06h.1l.67.07h.07l.56,0,.35,0,.61,0,.79,0H953.83a27,27,0,0,0,18.74-46.52Z"/><path class="cls-3" d="M978.19,200.58a26.91,26.91,0,0,1-2.87,12.14,27.19,27.19,0,0,1-7.69,9.3,26.91,26.91,0,0,1-16.47,5.6H807.71a26.94,26.94,0,0,0,16.07-5.29,27.28,27.28,0,0,0,8-9.38,27,27,0,0,0-24-39.4H951.16a27,27,0,0,1,27,27Z"/><path class="cls-4" d="M831.3,222.47a32.16,32.16,0,0,0,0-43.77H951.16a21.89,21.89,0,0,1,19.56,31.7,22,22,0,0,1-6.23,7.54,21.69,21.69,0,0,1-13.33,4.53Z"/><path class="cls-3" d="M834.75,200.58a26.93,26.93,0,0,1-3,12.37,27.28,27.28,0,0,1-8,9.38,26.94,26.94,0,0,1-16.07,5.29H775.3l-.62,0-.35,0-.55,0h-.07c-.23,0-.46,0-.68-.07h-.09l-.51-.06-.43-.06-.1,0c-.19,0-.38-.06-.57-.09l-.6-.11-.74-.16h0l-.71-.18a20.68,20.68,0,0,1-2-.6l-.36-.12-.39-.15-.2-.07-.35-.15c-.13,0-.26-.1-.39-.15s-.36-.16-.54-.24l-.67-.31-.66-.32-.64-.35c-.18-.09-.35-.19-.52-.29l-.3-.17-.39-.24-.51-.32L761,223l-.45-.31-.36-.26A27.65,27.65,0,0,1,756,218.7c-.13-.14-.26-.28-.38-.43s-.25-.29-.38-.44l0-.05-.4-.5c-.15-.19-.3-.38-.44-.58l-.29-.39-.11-.16-.31-.45a6.49,6.49,0,0,1-.36-.55l-.28-.44c-.26-.43-.52-.87-.76-1.32-.09-.16-.17-.32-.25-.48a.43.43,0,0,1,0-.07l-.24-.47-.33-.71-.24-.55c-.08-.21-.17-.41-.25-.61-.16-.41-.31-.83-.45-1.25-.07-.2-.14-.42-.2-.63s-.13-.42-.2-.63h0c-.05-.17-.1-.35-.14-.53s-.13-.52-.19-.77-.07-.32-.11-.48l-.18-.94-.09-.56c0-.17-.05-.34-.07-.51a4.1,4.1,0,0,1-.06-.49c0-.16,0-.33-.05-.49s0-.23,0-.34l0-.45,0-.45c0-.16,0-.32,0-.48v-.29c0-.21,0-.41,0-.62s0-.43,0-.64v-.2c0-.18,0-.36,0-.55l0-.49,0-.31.14-1.39c0-.15,0-.3.07-.46l.72-3.36c.06-.18.11-.36.16-.53a.49.49,0,0,1,0-.11c.05-.18.11-.36.17-.54a25.44,25.44,0,0,1,1.57-3.72c.09-.19.19-.37.28-.55s.22-.4.34-.6l.33-.56,0-.06.32-.5.68-1,.14-.19.09-.11c.1-.15.21-.29.31-.43l.15-.2.25-.31.29-.36.42-.5.43-.48a4.59,4.59,0,0,1,.37-.39l.1-.12c.14-.15.28-.29.43-.43s.31-.31.46-.45l.47-.45c.32-.29.65-.57,1-.85l.51-.41.51-.39.47-.35.14-.09.45-.31a23.53,23.53,0,0,1,2-1.25l.39-.21.27-.14.6-.31q.66-.31,1.32-.6l.35-.14.46-.18.14-.05.56-.21.18-.06.64-.21c.32-.1.63-.2.94-.28l.68-.18c.21,0,.43-.11.65-.15l.27-.06.64-.13h0l.45-.08.39-.06.25,0,.52-.06.7-.08.29,0,.53,0,.3,0,.68,0h32.47a27,27,0,0,1,27,27Z"/><path class="cls-4" d="M750.44,192c-.06.18-.12.36-.17.54l.12-.39C750.41,192.1,750.42,192.05,750.44,192Z"/><polygon class="cls-4" points="786.75 199.96 789.43 201.93 794.07 205.34 808.49 215.94 806.78 217.93 792.51 207.46 787.86 204.04 785.19 202.09 785.51 201.65 786.54 200.26 786.75 199.96"/><path class="cls-4" d="M770.18,188.4a11.74,11.74,0,0,0,18,15.06,10.83,10.83,0,0,0,1-1.16,9.86,9.86,0,0,0,.73-1.13,11.74,11.74,0,0,0-19.65-12.77Zm14.26.42a8.11,8.11,0,0,1,2.26,10.53,7,7,0,0,1-.52.81,5.61,5.61,0,0,1-.59.7,8.11,8.11,0,1,1-1.15-12Z"/><path class="cls-4" d="M812,218l-1.8,2.51a1.1,1.1,0,0,1-.66.44,1.32,1.32,0,0,1-1.12-.22l-17.23-12.39a1.34,1.34,0,0,1-.54-.83,1.16,1.16,0,0,1,.18-.92l1.81-2.51a1.16,1.16,0,0,1,.81-.47,1.4,1.4,0,0,1,1,.25l17.22,12.39a1.31,1.31,0,0,1,.55.83A1.13,1.13,0,0,1,812,218Z"/><path class="cls-12" d="M1005.19,87.19c-.28,5.21-4.37,10-14.24,21s-44.4,18.89-47.64,17.34S964.17,93.67,977,88,1005.19,87.19,1005.19,87.19Z"/><path class="cls-8" d="M988.27,142.45a136.66,136.66,0,0,1-24.73,37.31c-12.63,13.61-26.11,22.49-35.32,24.43-2.44.52-4,.23-5-.72-5.26-5.29,10.42-31.14,18.8-51.72,2.52-6.19,4.41-11.26,5.82-15.49,2.89-8.72,3.68-13.81,3.51-17.68a23.35,23.35,0,0,0-.59-4.32c-1.41-6.21,20-28.76,28.47-31A47.29,47.29,0,0,1,995,81.83C1001.9,88.58,1003.22,108.61,988.27,142.45Z"/><path class="cls-11" d="M947.86,136.26c-1.64,14.39-9.25,40.91-13,49.19-3.36,7.38-9.22,14.24-11.61,18-5.26-5.29,10.42-31.14,18.8-51.72C944.56,145.56,946.45,140.49,947.86,136.26Z"/><path class="cls-9" d="M988.27,142.45a136.66,136.66,0,0,1-24.73,37.31c14.05-23.39,24.54-57.88,24.38-66.21-.21-11.63-4.62-2.54-15.95,0-11.06,2.48-17.17,1.53-20.6,5a23.35,23.35,0,0,0-.59-4.32c-1.41-6.21,20-28.76,28.47-31A47.29,47.29,0,0,1,995,81.83C1001.9,88.58,1003.22,108.61,988.27,142.45Z"/><path class="cls-5" d="M1005.19,87.19a4.61,4.61,0,0,1-.23.54c-.77,1.33-2.32,1-4.74.53-4.39-1-11.62-2.75-22.1,2.77-16.91,8.92-23.68,33.09-33.83,35.07s-6.34-8.67-1.69-17.49c1.13-2.13,3.1-8.45,7.33-15.5,1.48-2.46,5.18-5.88,10-9.28,1.38-1,2.85-1.92,4.39-2.87,8.59-5.23,19.3-9.71,27.86-9.56C1007.73,71.68,1006.88,82.11,1005.19,87.19Z"/><path class="cls-7" d="M1000.22,88.26c-4.39-1-11.62-2.75-22.1,2.77-16.91,8.92-23.68,33.09-33.83,35.07s-6.34-8.67-1.69-17.49c1.13-2.13,3.1-8.45,7.33-15.5,1.48-2.46,5.18-5.88,10-9.28-5.77,6.88-10.32,18.2-6.83,19.25s14.59-15.18,26.11-17.79C987.88,83.33,996,86.42,1000.22,88.26Z"/><path class="cls-6" d="M1005.19,87.19a4.61,4.61,0,0,1-.23.54,11.54,11.54,0,0,1-1.18-1c-2.11-2-10.22-3-10.85-4.52s10.08-3.31,0-5.92c-8.75-2.26-22.1,2.58-28.57,4.63,8.59-5.23,19.3-9.71,27.86-9.56C1007.73,71.68,1006.88,82.11,1005.19,87.19Z"/><path class="cls-13" d="M841.81,41a25.24,25.24,0,0,1-9.67-3.79,19.14,19.14,0,0,1-4-3.53A15.56,15.56,0,0,1,825.35,29a14.57,14.57,0,0,1-.85-5.39,17,17,0,0,1,1-5.27,25.73,25.73,0,0,1,5.55-8.78,42.57,42.57,0,0,0-4,9.26,19.33,19.33,0,0,0-.6,4.81,14.15,14.15,0,0,0,.83,4.65,18.1,18.1,0,0,0,5.78,7.6A39.91,39.91,0,0,0,841.81,41Z"/><path class="cls-13" d="M865.41,37a25.05,25.05,0,0,1-9.68,3.73,19.08,19.08,0,0,1-5.34.11,15.55,15.55,0,0,1-5.21-1.57,14.59,14.59,0,0,1-4.28-3.4,17.37,17.37,0,0,1-2.79-4.59A25.68,25.68,0,0,1,836.27,21a42,42,0,0,0,3.33,9.51,18.91,18.91,0,0,0,2.8,4,13.92,13.92,0,0,0,3.75,2.87,18.12,18.12,0,0,0,9.4,1.71A40.5,40.5,0,0,0,865.41,37Z"/><path class="cls-10" d="M1078.21,53.37c-7-5.6-5.92-.3-36.36.82S1002.94,26,991.66,12.76c-10.3-12.1-26.93-.94-36.4-4.48,26.47-10.46,41.18-.08,47,8.45a16.48,16.48,0,0,0,.38,4.3c2.26,9.4,15,33.45,43.42,26.63C1074.2,40.93,1078.12,53.07,1078.21,53.37Z"/><path class="cls-11" d="M869.52,94.89c-8.84,1.16-18-2.18-23.06-8.2a36.08,36.08,0,0,1-6.35-11.23C847.82,88.4,859.17,93.61,869.52,94.89Z"/><path d="M482.3,300.17l-128.69-.41a20.7,20.7,0,0,1-8.9-1.87c-2.57-1.27-4.17-3.08-4.16-5.08l0-12.65c0-2,1.59-3.77,4.12-5a20.6,20.6,0,0,1,9-1.85l128.69.41a20.78,20.78,0,0,1,8.79,1.82c2.63,1.27,4.28,3.1,4.28,5.13l0,12.65a5,5,0,0,1-2.24,3.86C490.81,299,486.82,300.18,482.3,300.17Z"/><path class="cls-4" d="M478.68,298,350,297.55a20.65,20.65,0,0,1-8.89-1.87c-2.57-1.27-4.18-3.08-4.17-5.08L337,278c0-2,1.59-3.77,4.13-5a20.52,20.52,0,0,1,9-1.85l128.69.41a20.75,20.75,0,0,1,8.79,1.82c2.63,1.27,4.28,3.1,4.28,5.13l0,12.65a5.07,5.07,0,0,1-2.25,3.86C487.18,296.78,483.19,298,478.68,298Z"/><path class="cls-2" d="M407.55,575.07a20.79,20.79,0,0,1-20.81-20.8V387.65a20.81,20.81,0,0,1,20.81-20.81H574.16A20.81,20.81,0,0,1,595,387.65V554.27a20.79,20.79,0,0,1-20.81,20.8Z"/><path class="cls-4" d="M385.13,564.74a20.83,20.83,0,0,1-20.81-20.81V377.31a20.81,20.81,0,0,1,20.81-20.8H551.75a20.79,20.79,0,0,1,20.8,20.8V543.93a20.8,20.8,0,0,1-20.8,20.81Z"/><circle cx="415.76" cy="404.43" r="27.76"/><rect class="cls-3" x="459.29" y="381.98" width="89.59" height="1.95" rx="0.97"/><rect class="cls-3" x="459.29" y="396.91" width="89.59" height="1.95" rx="0.97"/><rect class="cls-3" x="459.29" y="411.84" width="89.59" height="1.95" rx="0.97"/><rect class="cls-3" x="459.29" y="426.77" width="89.59" height="1.95" rx="0.97"/><rect class="cls-3" x="391.46" y="441.71" width="157.42" height="1.95" rx="0.97"/><rect class="cls-3" x="391.46" y="456.64" width="157.42" height="1.95" rx="0.97"/><path class="cls-3" d="M543.58,547.3H396.73a5.4,5.4,0,0,1-3.15-1,5.05,5.05,0,0,1-2.12-4.09V476.05a5,5,0,0,1,1.46-3.51,5.31,5.31,0,0,1,3.81-1.58H543.58a5.29,5.29,0,0,1,4.67,2.74,4.91,4.91,0,0,1,.59,2.35V542.2a5,5,0,0,1-1.54,3.61A5.34,5.34,0,0,1,543.58,547.3Z"/><circle class="cls-14" cx="468.44" cy="575.11" r="5.6"/><path class="cls-14" d="M466.71,613.26h-3.78a.48.48,0,0,1-.48-.48.47.47,0,0,1,.48-.47h3.78a.47.47,0,0,1,.47.47A.48.48,0,0,1,466.71,613.26Zm-7.57,0h-3.79a.48.48,0,0,1-.47-.48.47.47,0,0,1,.47-.47h3.79a.47.47,0,0,1,.47.47A.48.48,0,0,1,459.14,613.26Zm-7.57,0h-3.79a.48.48,0,0,1-.47-.48.47.47,0,0,1,.47-.47h3.79a.47.47,0,0,1,.47.47A.48.48,0,0,1,451.57,613.26Zm-7.57,0h-3.79a.48.48,0,0,1-.47-.48.47.47,0,0,1,.47-.47H444a.47.47,0,0,1,.47.47A.48.48,0,0,1,444,613.26Zm-7.57,0h-3.79a.48.48,0,0,1-.47-.48.47.47,0,0,1,.47-.47h3.79a.47.47,0,0,1,.47.47A.48.48,0,0,1,436.43,613.26Zm-7.58,0h-3.78a.48.48,0,0,1-.47-.48.47.47,0,0,1,.47-.47h3.78a.47.47,0,0,1,.48.47A.48.48,0,0,1,428.85,613.26Zm-7.57,0H417.5a.49.49,0,0,1-.48-.48.48.48,0,0,1,.48-.47h3.78a.48.48,0,0,1,.48.47A.49.49,0,0,1,421.28,613.26Zm-7.57,0h-3.78a.49.49,0,0,1-.48-.48.48.48,0,0,1,.48-.47h3.78a.48.48,0,0,1,.48.47A.49.49,0,0,1,413.71,613.26Zm-7.57,0h-3.78a.48.48,0,0,1-.48-.48.47.47,0,0,1,.48-.47h3.78a.47.47,0,0,1,.47.47A.48.48,0,0,1,406.14,613.26Zm-7.57,0h-3.79a.48.48,0,0,1-.47-.48.47.47,0,0,1,.47-.47h3.79a.47.47,0,0,1,.47.47A.48.48,0,0,1,398.57,613.26Zm-7.57,0h-3.79a.48.48,0,0,1-.47-.48.47.47,0,0,1,.47-.47H391a.47.47,0,0,1,.47.47A.48.48,0,0,1,391,613.26Zm-7.57,0h-3.79a.48.48,0,0,1-.47-.48.47.47,0,0,1,.47-.47h3.79a.47.47,0,0,1,.47.47A.48.48,0,0,1,383.43,613.26Zm-7.57,0h-3.79a.48.48,0,0,1-.47-.48.47.47,0,0,1,.47-.47h3.79a.47.47,0,0,1,.47.47A.48.48,0,0,1,375.86,613.26Zm-7.58,0H364.5a.48.48,0,0,1-.47-.48.47.47,0,0,1,.47-.47h3.78a.47.47,0,0,1,.48.47A.48.48,0,0,1,368.28,613.26Zm-7.57,0h-3.78a.49.49,0,0,1-.48-.48.48.48,0,0,1,.48-.47h3.78a.48.48,0,0,1,.48.47A.49.49,0,0,1,360.71,613.26Zm-7.57,0h-3.78a.48.48,0,0,1-.48-.48.47.47,0,0,1,.48-.47h3.78a.48.48,0,0,1,.48.47A.49.49,0,0,1,353.14,613.26Zm-7.57,0h-3.79a.48.48,0,0,1-.47-.48.47.47,0,0,1,.47-.47h3.79a.47.47,0,0,1,.47.47A.48.48,0,0,1,345.57,613.26Zm-7.57,0h-3.79a.48.48,0,0,1-.47-.48.47.47,0,0,1,.47-.47H338a.47.47,0,0,1,.47.47A.48.48,0,0,1,338,613.26Zm-7.57,0h-3.79a.48.48,0,0,1-.47-.48.47.47,0,0,1,.47-.47h3.79a.47.47,0,0,1,.47.47A.48.48,0,0,1,330.43,613.26Zm-7.57,0h-3.79a.48.48,0,0,1-.47-.48.47.47,0,0,1,.47-.47h3.79a.47.47,0,0,1,.47.47A.48.48,0,0,1,322.86,613.26Zm-7.57,0H311.5a.48.48,0,0,1-.47-.48.47.47,0,0,1,.47-.47h3.79a.47.47,0,0,1,.47.47A.48.48,0,0,1,315.29,613.26Zm-7.58,0h-3.78a.48.48,0,0,1-.47-.48.47.47,0,0,1,.47-.47h3.78a.47.47,0,0,1,.48.47A.48.48,0,0,1,307.71,613.26Zm-7.57,0h-3.78a.49.49,0,0,1-.48-.48.48.48,0,0,1,.48-.47h3.78a.48.48,0,0,1,.48.47A.49.49,0,0,1,300.14,613.26Zm-7.57,0h-3.78a.48.48,0,0,1-.48-.48.47.47,0,0,1,.48-.47h3.78a.47.47,0,0,1,.47.47A.48.48,0,0,1,292.57,613.26Zm-7.57,0h-3.79a.48.48,0,0,1-.47-.48.47.47,0,0,1,.47-.47H285a.47.47,0,0,1,.47.47A.48.48,0,0,1,285,613.26Zm-7.57,0h-3.79a.48.48,0,0,1-.47-.48.47.47,0,0,1,.47-.47h3.79a.47.47,0,0,1,.47.47A.48.48,0,0,1,277.43,613.26Zm-7.57,0h-3.79a.48.48,0,0,1-.47-.48.47.47,0,0,1,.47-.47h3.79a.47.47,0,0,1,.47.47A.48.48,0,0,1,269.86,613.26Zm-7.57,0H258.5a.48.48,0,0,1-.47-.48.47.47,0,0,1,.47-.47h3.79a.47.47,0,0,1,.47.47A.48.48,0,0,1,262.29,613.26Zm-7.58,0h-3.78a.48.48,0,0,1-.47-.48.47.47,0,0,1,.47-.47h3.78a.47.47,0,0,1,.48.47A.48.48,0,0,1,254.71,613.26Zm-7.57,0h-3.78a.49.49,0,0,1-.48-.48.48.48,0,0,1,.48-.47h3.78a.48.48,0,0,1,.48.47A.49.49,0,0,1,247.14,613.26Zm-7.57,0h-3.78a.49.49,0,0,1-.48-.48.48.48,0,0,1,.48-.47h3.78a.48.48,0,0,1,.48.47A.49.49,0,0,1,239.57,613.26Zm-7.57,0h-3.78a.48.48,0,0,1-.48-.48.47.47,0,0,1,.48-.47H232a.47.47,0,0,1,.47.47A.48.48,0,0,1,232,613.26Zm-7.57,0h-3.79a.48.48,0,0,1-.47-.48.47.47,0,0,1,.47-.47h3.79a.47.47,0,0,1,.47.47A.48.48,0,0,1,224.43,613.26Zm-7.57,0h-3.79a.48.48,0,0,1-.47-.48.47.47,0,0,1,.47-.47h3.79a.47.47,0,0,1,.47.47A.48.48,0,0,1,216.86,613.26Zm-7.57,0H205.5a.48.48,0,0,1-.47-.48.47.47,0,0,1,.47-.47h3.79a.47.47,0,0,1,.47.47A.48.48,0,0,1,209.29,613.26Zm-7.57,0h-3.79a.48.48,0,0,1-.47-.48.47.47,0,0,1,.47-.47h3.79a.47.47,0,0,1,.47.47A.48.48,0,0,1,201.72,613.26Zm-7.58,0h-3.78a.48.48,0,0,1-.47-.48.47.47,0,0,1,.47-.47h3.78a.47.47,0,0,1,.48.47A.48.48,0,0,1,194.14,613.26Zm-7.57,0h-3.78a.49.49,0,0,1-.48-.48.48.48,0,0,1,.48-.47h3.78a.48.48,0,0,1,.48.47A.49.49,0,0,1,186.57,613.26Zm281.87-2.06a.47.47,0,0,1-.47-.47v-3.79a.47.47,0,0,1,.94,0v3.79A.47.47,0,0,1,468.44,611.2Zm-286.09-1.3a.47.47,0,0,1-.47-.47v-3.79a.48.48,0,0,1,1,0v3.79A.47.47,0,0,1,182.35,609.9Zm286.09-6.27a.47.47,0,0,1-.47-.48v-3.78a.47.47,0,0,1,.94,0v3.78A.47.47,0,0,1,468.44,603.63Zm-286.09-1.3a.47.47,0,0,1-.47-.47v-3.79a.48.48,0,0,1,1,0v3.79A.47.47,0,0,1,182.35,602.33Zm286.09-6.27a.48.48,0,0,1-.47-.48V591.8a.47.47,0,1,1,.94,0v3.78A.48.48,0,0,1,468.44,596.06Zm-286.09-1.3a.47.47,0,0,1-.47-.47V590.5a.48.48,0,0,1,1,0v3.79A.47.47,0,0,1,182.35,594.76Zm286.09-6.28A.47.47,0,0,1,468,588v-3.78a.47.47,0,1,1,.94,0V588A.47.47,0,0,1,468.44,588.48Zm-286.09-1.29a.47.47,0,0,1-.47-.47v-3.79a.48.48,0,0,1,1,0v3.79A.47.47,0,0,1,182.35,587.19Zm0-7.57a.47.47,0,0,1-.47-.47v-3.79a.48.48,0,0,1,1,0v3.79A.47.47,0,0,1,182.35,579.62Zm0-7.57a.48.48,0,0,1-.47-.48v-3.78a.48.48,0,1,1,1,0v3.78A.48.48,0,0,1,182.35,572.05Zm0-7.57a.48.48,0,0,1-.47-.48v-3.78a.48.48,0,1,1,1,0V564A.48.48,0,0,1,182.35,564.48Zm0-7.58a.47.47,0,0,1-.47-.47v-3.78a.48.48,0,1,1,1,0v3.78A.47.47,0,0,1,182.35,556.9Zm0-7.57a.47.47,0,0,1-.47-.47v-3.79a.48.48,0,0,1,1,0v3.79A.47.47,0,0,1,182.35,549.33Zm0-7.57a.47.47,0,0,1-.47-.47V537.5a.48.48,0,0,1,1,0v3.79A.47.47,0,0,1,182.35,541.76Zm0-7.57a.47.47,0,0,1-.47-.47v-3.79a.48.48,0,0,1,1,0v3.79A.47.47,0,0,1,182.35,534.19Zm0-7.57a.47.47,0,0,1-.47-.47v-3.79a.48.48,0,0,1,1,0v3.79A.47.47,0,0,1,182.35,526.62Zm0-7.57a.47.47,0,0,1-.47-.48v-3.78a.48.48,0,0,1,1,0v3.78A.47.47,0,0,1,182.35,519.05Zm0-7.57a.48.48,0,0,1-.47-.48v-3.78a.48.48,0,1,1,1,0V511A.48.48,0,0,1,182.35,511.48Zm0-7.58a.47.47,0,0,1-.47-.47v-3.78a.48.48,0,1,1,1,0v3.78A.47.47,0,0,1,182.35,503.9Zm0-7.57a.47.47,0,0,1-.47-.47v-3.79a.48.48,0,0,1,1,0v3.79A.47.47,0,0,1,182.35,496.33Zm0-7.57a.47.47,0,0,1-.47-.47V484.5a.48.48,0,0,1,1,0v3.79A.47.47,0,0,1,182.35,488.76Zm0-7.57a.47.47,0,0,1-.47-.47v-3.79a.48.48,0,0,1,1,0v3.79A.47.47,0,0,1,182.35,481.19Zm0-7.57a.47.47,0,0,1-.47-.47v-3.79a.48.48,0,0,1,1,0v3.79A.47.47,0,0,1,182.35,473.62Zm0-7.57a.47.47,0,0,1-.47-.47v-3.79a.48.48,0,0,1,1,0v3.79A.47.47,0,0,1,182.35,466.05Zm0-7.57a.47.47,0,0,1-.47-.48v-3.78a.48.48,0,0,1,1,0V458A.47.47,0,0,1,182.35,458.48Zm0-7.57a.48.48,0,0,1-.47-.48v-3.78a.48.48,0,1,1,1,0v3.78A.48.48,0,0,1,182.35,450.91Zm0-7.58a.47.47,0,0,1-.47-.47v-3.78a.48.48,0,1,1,1,0v3.78A.47.47,0,0,1,182.35,443.33Zm0-7.57a.47.47,0,0,1-.47-.47V431.5a.48.48,0,0,1,1,0v3.79A.47.47,0,0,1,182.35,435.76Zm0-7.57a.47.47,0,0,1-.47-.47v-3.79a.48.48,0,0,1,1,0v3.79A.47.47,0,0,1,182.35,428.19Zm0-7.57a.47.47,0,0,1-.47-.47v-3.79a.48.48,0,0,1,1,0v3.79A.47.47,0,0,1,182.35,420.62Zm0-7.57a.47.47,0,0,1-.47-.47v-3.79a.48.48,0,0,1,1,0v3.79A.47.47,0,0,1,182.35,413.05Z"/><path class="cls-15" d="M977.38,339.68c-12.77-.55-26.41-21.55-26.41-21.55s-12,22.09-13.65,24.55,16.6,20.19,20,21.83S977.38,339.68,977.38,339.68Z"/><path class="cls-4" d="M963,313.59c7,4.77-30.19,115-32.65,118.67S688.52,372.55,686.47,370.5,713.07,250.69,721.25,249,960.25,311.72,963,313.59Z"/><path class="cls-8" d="M887.92,309.65c4.45.87,9-3.8,11.73-8.4,1.73-2.89,2.78-5.76,2.67-7.2-.52-6.9-14-8.35-17.32-5.94-1.2.88-2.1,3.77-2.41,7.17C882,301.24,883.3,308.76,887.92,309.65Z"/><path class="cls-11" d="M887.92,309.65c4.45.87,9-3.8,11.73-8.4-4.9,4.48-10.14,7.78-12.57,5.69s-2.22-11.32-4.49-11.66C882,301.24,883.3,308.76,887.92,309.65Z"/><path class="cls-16" d="M832.55,708.64c2.15-.45,4.47,0,3.24,1.13s-52,1.83-59.2,2-12.13-2.13-7.64-3S832.55,708.64,832.55,708.64Z"/><path class="cls-8" d="M786.07,709.76c17.68.08,43.13-.59,46.48-1.12,4.43-.69,14.25-59.84,17.19-80.49.54-3.79.85-6.29.85-6.88,0-1.65-7.81-1.19-16.73-.13C822,622.55,808.14,625,808.14,625c-1.21,3.49-2.93,11.14-4.74,20.13-1.2,5.93-2.44,12.45-3.61,18.73-2.62,14.17-4.86,27.17-5.37,29.75-.87,4.32-15.65,10.07-22.3,13.23-1.75.83-2.94,1.47-3.16,1.87C768.56,709.43,776.07,709.72,786.07,709.76Z"/><path class="cls-9" d="M786.07,709.76c17.68.08,43.13-.59,46.48-1.12,4.43-.69,14.25-59.84,17.19-80.49a66.73,66.73,0,0,0-15.88-7C822,622.55,808.14,625,808.14,625c-1.21,3.49-2.93,11.14-4.74,20.13,3.48,3.66,20,2.6,23.56,6.38,4.33,4.55-4.4,45.29-10,50.93C813.72,705.67,799.22,708.17,786.07,709.76Z"/><path class="cls-11" d="M772.12,706.87c6.66,1.31,21.45-3.08,24.79-7.23,3.64-4.51,4-20.9,2.88-35.75-2.62,14.17-4.86,27.17-5.37,29.75C793.55,698,778.77,703.71,772.12,706.87Z"/><path class="cls-16" d="M786.05,700.37c-2.23-.63,6.5,8.7,18.41,9.26l-7.36.14s-13.63-4.75-13.41-8.21S786.05,700.37,786.05,700.37Z"/><path class="cls-9" d="M1038.54,634c3.89,4.49,16.44,15.5,28.34,25.68,11.39,9.74,22.17,18.71,24.21,20.51,4.18,3.67-.75,27.7.36,29.6.46.8,5.75-7.86,11.89-18.56,8.53-14.86,18.7-33.68,19.81-36.56,1.92-5-63.32-57.39-66.65-59.31S1038.54,634,1038.54,634Z"/><path class="cls-8" d="M1091.45,709.74c.46.8,5.75-7.86,11.89-18.56,2.35-10.78,5-24.48,2.22-29.09-4-6.74-23.36-5.05-38.68-2.46,11.39,9.74,22.17,18.71,24.21,20.51C1095.27,683.81,1090.34,707.84,1091.45,709.74Z"/><path class="cls-16" d="M1123.15,654.62c.69-2.09,2.21-3.89,2.6-2.25s-24.39,45.93-27.89,52.26-7.91,9.44-6.41,5.11S1123.15,654.62,1123.15,654.62Z"/><path class="cls-16" d="M1092.74,690.75c-1.66,1.61,10.79-1.28,17.23-11.32l-3.56,6.45s-10.93,9.43-13.82,7.51S1092.74,690.75,1092.74,690.75Z"/><path class="cls-5" d="M929.45,519.81c2.93,11.25,6.54,21,9.49,25.87,2.5,4.16,12.46,14.88,24.85,27.32,20.13,20.2,46.67,44.9,58.15,53.34a43,43,0,0,1,6,5.4c13.57,14.61,17.42,36.64,21.27,32.79,4.37-4.36,11.46-24.55,15.28-30s28.69-9.86,28.69-13.68-92.59-79.53-96-82.8c-3-2.93-5.66-39.07-14-72.44-1-3.93-2.05-7.82-3.19-11.62a149.84,149.84,0,0,0-29.51,3.67c-8.95,2.17-17.68,5.63-22.47,11.14a14.56,14.56,0,0,0-3.76,8.65C923.35,490,925.89,506.09,929.45,519.81Z"/><path class="cls-6" d="M927.73,466.94a8.88,8.88,0,0,0,.32,1.85c3.57,13,35.85,40.1,35.85,40.1-2.87,29.87,52.72,90.75,59.63,108.25a79.76,79.76,0,0,1,4.42,14.6c13.57,14.61,17.42,36.64,21.27,32.79,4.37-4.36,11.46-24.55,15.28-30s28.69-9.86,28.69-13.68-92.59-79.53-96-82.8c-3-2.93-5.66-39.07-14-72.44a42,42,0,0,0-15.85-5.85c-6.51-.89-12.1-1.62-16.85-2.1C933.62,456,927.29,457.51,927.73,466.94Z"/><path class="cls-4" d="M1063,635.79a.26.26,0,0,0,.19-.07.28.28,0,0,0,0-.39c-.41-.44-.84-.92-1.29-1.42a.26.26,0,0,0-.38,0,.27.27,0,0,0,0,.38l1.28,1.42A.28.28,0,0,0,1063,635.79Zm-2.57-2.83a.34.34,0,0,0,.19-.07.28.28,0,0,0,0-.39q-.62-.69-1.29-1.41a.27.27,0,1,0-.4.37l1.29,1.41A.27.27,0,0,0,1060.45,633Zm-2.59-2.82a.27.27,0,0,0,.2-.46l-1.3-1.4a.28.28,0,0,0-.39,0,.27.27,0,0,0,0,.38l1.3,1.4A.27.27,0,0,0,1057.86,630.14Zm-2.61-2.8a.26.26,0,0,0,.19-.07.27.27,0,0,0,0-.39l-1.31-1.39a.27.27,0,0,0-.38,0,.27.27,0,0,0,0,.39c.44.47.88.93,1.3,1.39A.32.32,0,0,0,1055.25,627.34Zm-2.62-2.78a.27.27,0,0,0,.2-.46l-1.32-1.38a.27.27,0,0,0-.39,0,.27.27,0,0,0,0,.38l1.32,1.39A.32.32,0,0,0,1052.63,624.56ZM1050,621.8a.29.29,0,0,0,.19-.08.26.26,0,0,0,0-.38c-.43-.46-.88-.92-1.32-1.38a.28.28,0,0,0-.4.38l1.33,1.37A.27.27,0,0,0,1050,621.8Zm-2.66-2.75a.24.24,0,0,0,.19-.08.26.26,0,0,0,0-.38l-1.33-1.37a.27.27,0,0,0-.39,0,.26.26,0,0,0,0,.38l1.33,1.37A.32.32,0,0,0,1047.33,619.05Zm-2.68-2.73a.26.26,0,0,0,.19-.07.27.27,0,0,0,0-.39l-1.34-1.36a.29.29,0,0,0-.39,0,.27.27,0,0,0,0,.39l1.34,1.35A.27.27,0,0,0,1044.65,616.32Zm-2.7-2.7a.28.28,0,0,0,.19-.47l-1.36-1.35a.27.27,0,0,0-.38,0,.26.26,0,0,0,0,.38l1.36,1.35A.27.27,0,0,0,1042,613.62Zm-2.72-2.69a.28.28,0,0,0,.19-.47l-1.37-1.33a.27.27,0,0,0-.38,0,.27.27,0,0,0,0,.39l1.37,1.33A.24.24,0,0,0,1039.23,610.93Zm-2.74-2.66a.27.27,0,0,0,.19-.08.28.28,0,0,0,0-.39l-1.39-1.32a.26.26,0,0,0-.38,0,.27.27,0,0,0,0,.38l1.38,1.32A.27.27,0,0,0,1036.49,608.27Zm-2.77-2.64a.32.32,0,0,0,.2-.08.28.28,0,0,0,0-.39l-1.4-1.31a.27.27,0,1,0-.37.4l1.39,1.31A.28.28,0,0,0,1033.72,605.63Zm-2.8-2.61a.25.25,0,0,0,.2-.09.27.27,0,0,0,0-.38l-1.41-1.3a.28.28,0,0,0-.37.41l1.41,1.29A.26.26,0,0,0,1030.92,603Zm-2.82-2.57a.29.29,0,0,0,.21-.09.28.28,0,0,0,0-.39l-1.43-1.28a.26.26,0,0,0-.38,0,.27.27,0,0,0,0,.38l1.42,1.28A.31.31,0,0,0,1028.1,600.45Zm-2.85-2.55a.27.27,0,0,0,.18-.47c-.48-.43-1-.84-1.45-1.26a.27.27,0,0,0-.35.41l1.44,1.26A.28.28,0,0,0,1025.25,597.9Zm-2.89-2.5a.27.27,0,0,0,.2-.09.27.27,0,0,0,0-.39l-1.46-1.23a.27.27,0,0,0-.38,0,.27.27,0,0,0,0,.39c.49.4,1,.81,1.46,1.23A.28.28,0,0,0,1022.36,595.4Zm-2.94-2.45a.28.28,0,0,0,.22-.1.28.28,0,0,0,0-.38l-1.49-1.21a.27.27,0,0,0-.38,0,.26.26,0,0,0,0,.38l1.48,1.21A.27.27,0,0,0,1019.42,593Zm-3-2.4a.25.25,0,0,0,.21-.1.27.27,0,0,0,0-.38l-1.36-1.07-.15-.11a.27.27,0,1,0-.33.43l.15.12c.45.34.9.7,1.36,1.06A.26.26,0,0,0,1016.45,590.55Zm-3-2.34a.25.25,0,0,0,.21-.1.27.27,0,0,0,0-.38l-1.51-1.18a.27.27,0,0,0-.38.05.28.28,0,0,0,0,.39l1.51,1.17A.26.26,0,0,0,1013.43,588.21Zm-3-2.34a.29.29,0,0,0,.22-.11.27.27,0,0,0,0-.38l-1.51-1.18a.26.26,0,0,0-.38,0,.27.27,0,0,0,.05.38l1.5,1.19A.27.27,0,0,0,1010.4,585.87Zm-3-2.38a.28.28,0,0,0,.22-.1.27.27,0,0,0-.05-.38l-1.49-1.2a.27.27,0,0,0-.38.05.26.26,0,0,0,0,.38l1.49,1.2A.26.26,0,0,0,1007.39,583.49Zm-3-2.39a.28.28,0,0,0,.21-.1.27.27,0,0,0,0-.39l-1.48-1.21a.27.27,0,1,0-.34.42l1.48,1.22A.27.27,0,0,0,1004.41,581.1Zm-2.95-2.44a.26.26,0,0,0,.21-.1.27.27,0,0,0,0-.38l-1.46-1.23a.27.27,0,0,0-.38,0,.27.27,0,0,0,0,.39l1.46,1.23A.3.3,0,0,0,1001.46,578.66Zm-2.92-2.47a.3.3,0,0,0,.21-.1.27.27,0,0,0,0-.38l-1.44-1.26a.27.27,0,0,0-.39,0,.28.28,0,0,0,0,.38l1.44,1.26A.31.31,0,0,0,998.54,576.19Zm-2.87-2.53a.27.27,0,0,0,.2-.09.28.28,0,0,0,0-.39l-1.41-1.28a.28.28,0,0,0-.39,0,.27.27,0,0,0,0,.38c.47.44.94.86,1.42,1.29A.26.26,0,0,0,995.67,573.66Zm-2.82-2.58a.27.27,0,0,0,.19-.47l-1.39-1.32a.27.27,0,0,0-.38,0,.28.28,0,0,0,0,.39l1.39,1.31A.29.29,0,0,0,992.85,571.08Zm-2.76-2.65a.32.32,0,0,0,.2-.08.28.28,0,0,0,0-.39l-1.35-1.34a.27.27,0,0,0-.39,0,.28.28,0,0,0,0,.38c.45.46.9.91,1.36,1.35A.24.24,0,0,0,990.09,568.43Zm-2.69-2.71a.27.27,0,0,0,.19-.08.28.28,0,0,0,0-.39c-.45-.45-.88-.91-1.32-1.38a.27.27,0,0,0-.38,0,.28.28,0,0,0,0,.39l1.32,1.38A.28.28,0,0,0,987.4,565.72Zm-2.62-2.79a.32.32,0,0,0,.19-.07.28.28,0,0,0,0-.39c-.43-.47-.86-.94-1.28-1.42a.27.27,0,0,0-.38,0,.26.26,0,0,0,0,.38c.43.48.85,1,1.28,1.43A.28.28,0,0,0,984.78,562.93Zm-2.52-2.87a.23.23,0,0,0,.17-.07.26.26,0,0,0,0-.38c-.41-.48-.82-1-1.22-1.46a.28.28,0,0,0-.39,0,.29.29,0,0,0,0,.39c.41.49.82,1,1.24,1.46A.25.25,0,0,0,982.26,560.06Zm-2.44-2.95a.27.27,0,0,0,.17-.06.26.26,0,0,0,0-.38l-1.17-1.51a.27.27,0,0,0-.38,0,.27.27,0,0,0-.05.39c.38.5.78,1,1.18,1.51A.28.28,0,0,0,979.82,557.11Zm-2.33-3a.25.25,0,0,0,.16-.06.27.27,0,0,0,.06-.38c-.38-.51-.76-1-1.12-1.55a.27.27,0,0,0-.38-.06.28.28,0,0,0-.07.38c.37.52.75,1,1.13,1.55A.26.26,0,0,0,977.49,554.08ZM975.27,551a.29.29,0,0,0,.16,0,.28.28,0,0,0,.07-.38l-1.06-1.59a.27.27,0,0,0-.38-.08.28.28,0,0,0-.08.38c.35.53.71,1.07,1.07,1.59A.26.26,0,0,0,975.27,551Zm-2.08-3.2a.27.27,0,0,0,.23-.42q-.51-.81-1-1.62a.28.28,0,0,0-.38-.1.28.28,0,0,0-.09.38c.32.54.66,1.09,1,1.63A.29.29,0,0,0,973.19,547.75Zm-2-3.28a.23.23,0,0,0,.14,0,.27.27,0,0,0,.1-.37l-.92-1.66a.27.27,0,0,0-.37-.12.28.28,0,0,0-.11.37c.3.56.61,1.13.93,1.68A.27.27,0,0,0,971.23,544.47Zm-1.81-3.36a.31.31,0,0,0,.13,0,.29.29,0,0,0,.12-.37c-.29-.56-.58-1.14-.85-1.7a.27.27,0,0,0-.37-.13.27.27,0,0,0-.12.36c.27.57.56,1.15.85,1.72A.28.28,0,0,0,969.42,541.11Zm-1.66-3.44.11,0a.29.29,0,0,0,.14-.37c-.26-.57-.52-1.15-.77-1.74a.28.28,0,0,0-.36-.14.28.28,0,0,0-.15.36l.78,1.75A.28.28,0,0,0,967.76,537.67Zm-1.51-3.51a.18.18,0,0,0,.1,0,.26.26,0,0,0,.15-.35c-.23-.59-.47-1.18-.69-1.77a.27.27,0,0,0-.35-.16.27.27,0,0,0-.16.35c.22.59.46,1.19.7,1.78A.26.26,0,0,0,966.25,534.16Zm-1.35-3.57H965a.28.28,0,0,0,.17-.35c-.21-.6-.42-1.2-.62-1.8a.28.28,0,0,0-.34-.18.29.29,0,0,0-.18.35c.2.6.41,1.21.62,1.81A.28.28,0,0,0,964.9,530.59ZM963.71,527l.08,0a.27.27,0,0,0,.18-.34l-.54-1.82a.27.27,0,1,0-.52.14c.17.62.35,1.24.54,1.84A.27.27,0,0,0,963.71,527Zm-1-3.68h.06a.27.27,0,0,0,.2-.33c-.16-.61-.31-1.23-.45-1.85a.27.27,0,0,0-.33-.2.26.26,0,0,0-.2.33c.14.61.29,1.24.45,1.86A.28.28,0,0,0,962.68,523.29Zm-.87-3.72h.05a.28.28,0,0,0,.21-.33c-.13-.61-.25-1.24-.37-1.86a.27.27,0,1,0-.54.1c.12.62.25,1.26.38,1.88A.27.27,0,0,0,961.81,519.57Zm-.72-3.75h0a.27.27,0,0,0,.22-.31l-.3-1.88a.27.27,0,0,0-.31-.23.27.27,0,0,0-.23.31l.3,1.89A.28.28,0,0,0,961.09,515.82Z"/><path class="cls-4" d="M965.52,580.91h0Zm-.31-7.35h0a.28.28,0,0,0,.24-.3c-.07-.64-.15-1.28-.24-1.91a.28.28,0,0,0-.31-.23.27.27,0,0,0-.23.31c.09.62.17,1.26.24,1.89A.26.26,0,0,0,965.21,573.56Zm-.54-3.78h.05a.29.29,0,0,0,.22-.32c-.12-.63-.24-1.27-.38-1.88a.27.27,0,0,0-.53.11c.13.61.26,1.24.37,1.87A.27.27,0,0,0,964.67,569.78Zm-.82-3.73h.07a.27.27,0,0,0,.2-.33c-.17-.62-.34-1.24-.52-1.85a.28.28,0,0,0-.34-.18.28.28,0,0,0-.19.34c.18.6.36,1.21.52,1.83A.27.27,0,0,0,963.85,566.05Zm-1.11-3.65.09,0A.28.28,0,0,0,963,562c-.21-.6-.44-1.21-.67-1.79a.29.29,0,0,0-.36-.16.28.28,0,0,0-.15.36c.23.58.45,1.18.66,1.77A.28.28,0,0,0,962.74,562.4Zm-1.42-3.55a.25.25,0,0,0,.12,0,.28.28,0,0,0,.13-.36c-.26-.59-.54-1.17-.83-1.73a.27.27,0,0,0-.37-.12.27.27,0,0,0-.12.36c.29.56.56,1.13.83,1.71A.26.26,0,0,0,961.32,558.85Zm-1.74-3.39a.33.33,0,0,0,.14,0,.28.28,0,0,0,.1-.37c-.32-.56-.66-1.11-1-1.64a.27.27,0,0,0-.45.29q.51.79,1,1.62A.27.27,0,0,0,959.58,555.46Zm-2.08-3.2a.25.25,0,0,0,.16-.06.27.27,0,0,0,.06-.38c-.38-.52-.78-1-1.18-1.52a.28.28,0,0,0-.39,0,.27.27,0,0,0,0,.38c.39.48.79,1,1.16,1.49A.26.26,0,0,0,957.5,552.26Zm-2.43-2.94a.27.27,0,0,0,.18-.08.26.26,0,0,0,0-.38c-.44-.48-.9-.93-1.36-1.36a.27.27,0,0,0-.39,0,.28.28,0,0,0,0,.39c.45.42.9.87,1.34,1.33A.25.25,0,0,0,955.07,549.32Zm-2.79-2.61a.27.27,0,0,0,.18-.47,15.31,15.31,0,0,1-1.32-1.34.28.28,0,0,0-.39,0,.27.27,0,0,0,0,.38,14.88,14.88,0,0,0,1.36,1.38A.28.28,0,0,0,952.28,546.71Zm-2.56-2.83a.28.28,0,0,0,.22-.44c-.36-.47-.73-1-1.12-1.54a.28.28,0,0,0-.38-.07.28.28,0,0,0-.07.38c.39.56.77,1.09,1.13,1.56A.29.29,0,0,0,949.72,543.88Zm-2.19-3.14a.26.26,0,0,0,.15,0,.28.28,0,0,0,.08-.38l-1-1.61a.27.27,0,0,0-.46.28c.36.59.7,1.12,1,1.63A.28.28,0,0,0,947.53,540.74Zm-2-3.25a.23.23,0,0,0,.14,0,.28.28,0,0,0,.09-.38l-1-1.64a.28.28,0,0,0-.38-.09.26.26,0,0,0-.09.37c.32.55.65,1.1,1,1.65A.28.28,0,0,0,945.52,537.49Zm-1.95-3.29a.23.23,0,0,0,.14,0,.27.27,0,0,0,.1-.37l-1-1.65a.28.28,0,0,0-.38-.1.28.28,0,0,0-.09.38l1,1.64A.27.27,0,0,0,943.57,534.2Zm-2-3.29a.33.33,0,0,0,.14,0,.28.28,0,0,0,.09-.38c-.33-.55-.66-1.09-1-1.63a.26.26,0,0,0-.37-.09.28.28,0,0,0-.09.38c.33.53.67,1.08,1,1.63A.28.28,0,0,0,941.62,530.91Zm-2-3.25a.26.26,0,0,0,.15,0,.27.27,0,0,0,.08-.38c-.37-.56-.73-1.1-1.07-1.59a.28.28,0,0,0-.38-.07.27.27,0,0,0-.07.38c.34.49.7,1,1.07,1.58A.25.25,0,0,0,939.59,527.66Zm-2.19-3.13a.34.34,0,0,0,.17,0,.28.28,0,0,0,0-.39c-.41-.54-.82-1-1.21-1.5a.27.27,0,1,0-.41.36c.38.45.78.94,1.18,1.47A.29.29,0,0,0,937.4,524.53Zm-2.5-2.89a.32.32,0,0,0,.2-.08.28.28,0,0,0,0-.39,16.51,16.51,0,0,0-1.46-1.28.27.27,0,0,0-.38.05.28.28,0,0,0,0,.39,13.92,13.92,0,0,1,1.41,1.23A.27.27,0,0,0,934.9,521.64Zm-3-2.27a.27.27,0,0,0,.24-.15.28.28,0,0,0-.12-.37,7,7,0,0,0-1.88-.62.27.27,0,0,0-.31.23.27.27,0,0,0,.22.31,6.26,6.26,0,0,1,1.73.57Z"/><path class="cls-7" d="M929.45,519.81c2.93,11.25,6.54,21,9.49,25.87,2.5,4.16,12.46,14.88,24.85,27.32-1.23-10.69-5.52-19.8-12.06-25.23-3.13-2.59-6.06-7.58-9.16-12.87C938.48,528,933.87,520.09,929.45,519.81Z"/><path class="cls-5" d="M799.28,640.87c1.64,6.55,12.55-1.09,22.37-1.64,4.74-.26,12,1.5,18.7,3.22,7.19,1.85,13.7,3.63,15.68,2.78,3.81-1.63-9.83-14.73,10.48-64.93s74.09-44.19,104.1-60,45.29-37.64,28.28-83.63c0,0-58.29-44.59-72.48-4.16A54.87,54.87,0,0,1,921,443.67c-10,15.79-27.16,26.34-43.38,37.13-16,10.64-31.05,21.51-37.39,37.85-2.07,5.33-4.44,11.57-7,18.36C818.37,576.75,797.88,635.28,799.28,640.87Z"/><path class="cls-6" d="M840.35,642.45c7.19,1.85,13.7,3.63,15.68,2.78,3.81-1.63-9.83-14.73,10.48-64.93s74.09-44.19,104.1-60,45.29-37.64,28.28-83.63c0,0-58.29-44.59-72.48-4.16A54.87,54.87,0,0,1,921,443.67c21.2,3.75,40.78,24.84,30.2,47.27-11.39,24.16-69.6,24.22-86.47,55.43C852.3,569.33,843.91,618.21,840.35,642.45Z"/><path d="M1003.62,457.26c2.06,15.33-.1,30.46-6.82,40.11s-22.24-9.82-23.33-12.28,7.37-31.51,7.91-33.42S1003.29,454.78,1003.62,457.26Z"/><path class="cls-4" d="M992.16,498.39h0a3.74,3.74,0,0,0,1.43-.32.27.27,0,1,0-.22-.5,3.12,3.12,0,0,1-1.23.27.28.28,0,0,0-.26.29A.28.28,0,0,0,992.16,498.39Zm-1.35-.13a.28.28,0,0,0,.27-.22.27.27,0,0,0-.21-.32,7.46,7.46,0,0,1-1.26-.38.28.28,0,0,0-.36.15.29.29,0,0,0,.16.36,8.5,8.5,0,0,0,1.35.4Zm3.79-.94a.27.27,0,0,0,.19-.08,6.28,6.28,0,0,0,.67-.81c.07-.1.14-.2.2-.3a.26.26,0,0,0-.07-.38.27.27,0,0,0-.38.07l-.2.3a5.74,5.74,0,0,1-.61.73.29.29,0,0,0,0,.39A.32.32,0,0,0,994.6,497.32Zm-6.33,0a.26.26,0,0,0,.24-.15.27.27,0,0,0-.12-.37c-.37-.19-.77-.42-1.16-.66a.28.28,0,0,0-.38.08.28.28,0,0,0,.09.38c.41.25.81.49,1.2.69A.28.28,0,0,0,988.27,497.3ZM986,495.86a.28.28,0,0,0,.22-.11.27.27,0,0,0-.06-.38c-.36-.25-.72-.53-1.09-.82a.27.27,0,0,0-.33.43c.37.3.74.57,1.1.83A.3.3,0,0,0,986,495.86Zm10.23-.76a.28.28,0,0,0,.23-.13c.24-.39.47-.79.69-1.19a.27.27,0,0,0-.48-.26c-.22.39-.44.79-.68,1.16a.29.29,0,0,0,.1.38A.23.23,0,0,0,996.18,495.1Zm-12.38-.92a.28.28,0,0,0,.2-.1.26.26,0,0,0,0-.38l-1-.9a.27.27,0,1,0-.36.4c.34.32.69.62,1,.91A.24.24,0,0,0,983.8,494.18Zm13.7-1.47a.26.26,0,0,0,.24-.15c.2-.4.4-.82.59-1.24a.26.26,0,0,0-.13-.36.27.27,0,0,0-.36.14c-.19.41-.39.82-.59,1.22a.27.27,0,0,0,.13.36Zm-15.73-.37a.28.28,0,0,0,.2-.08.27.27,0,0,0,0-.39q-.5-.48-1-1a.29.29,0,0,0-.39,0,.27.27,0,0,0,0,.39c.32.32.64.64,1,1A.27.27,0,0,0,981.77,492.34Zm-1.91-1.95a.26.26,0,0,0,.18-.07.28.28,0,0,0,0-.39c-.32-.34-.63-.67-.92-1a.28.28,0,0,0-.39,0,.27.27,0,0,0,0,.38c.3.34.61.67.93,1A.28.28,0,0,0,979.86,490.39Zm18.77-.16a.27.27,0,0,0,.25-.17c.17-.41.34-.84.5-1.28a.28.28,0,0,0-.16-.35.27.27,0,0,0-.35.16c-.16.43-.33.85-.49,1.26a.27.27,0,0,0,.14.36ZM978,488.36a.29.29,0,0,0,.18-.07.26.26,0,0,0,0-.38l-.87-1.05a.27.27,0,0,0-.38,0,.26.26,0,0,0,0,.38c.27.34.56.69.88,1.06A.28.28,0,0,0,978,488.36Zm21.55-.68a.28.28,0,0,0,.26-.19c.15-.43.29-.87.42-1.31a.28.28,0,0,0-.18-.34.28.28,0,0,0-.34.18c-.13.44-.27.87-.42,1.3a.28.28,0,0,0,.17.34Zm-23.26-1.45a.27.27,0,0,0,.16-.06.27.27,0,0,0,0-.38c-.31-.42-.58-.8-.78-1.1a.27.27,0,0,0-.46.3c.21.31.48.7.81,1.13A.27.27,0,0,0,976.32,486.23Zm24.06-1.16a.27.27,0,0,0,.26-.2c.12-.44.24-.89.35-1.33a.28.28,0,0,0-.2-.33.26.26,0,0,0-.33.2c-.11.44-.23.88-.34,1.31a.27.27,0,0,0,.19.34Zm-25.06-1.25a.29.29,0,0,0,.28-.25c0-.36.1-.81.19-1.33a.27.27,0,0,0-.23-.31.26.26,0,0,0-.31.22c-.09.53-.16,1-.2,1.37a.29.29,0,0,0,.25.3Zm25.71-1.4a.28.28,0,0,0,.27-.22c.09-.44.19-.89.27-1.34a.27.27,0,0,0-.21-.32.27.27,0,0,0-.32.22c-.09.44-.18.89-.28,1.33a.28.28,0,0,0,.21.32Zm-25.27-1.29a.28.28,0,0,0,.27-.22c.08-.41.17-.86.27-1.34a.28.28,0,0,0-.21-.32.28.28,0,0,0-.33.21c-.1.48-.19.93-.27,1.34a.27.27,0,0,0,.22.32Zm25.79-1.39a.27.27,0,0,0,.27-.23l.21-1.35a.27.27,0,0,0-.54-.08l-.21,1.34a.27.27,0,0,0,.22.32Zm-25.23-1.28a.29.29,0,0,0,.27-.22q.13-.63.3-1.32a.28.28,0,0,0-.21-.33.26.26,0,0,0-.32.2l-.31,1.34a.27.27,0,0,0,.21.32Zm25.62-1.42a.26.26,0,0,0,.27-.24c.06-.45.11-.9.16-1.36a.29.29,0,0,0-.25-.3.28.28,0,0,0-.3.24q-.06.69-.15,1.35a.28.28,0,0,0,.24.31Zm-25-1.24a.27.27,0,0,0,.27-.21l.32-1.32a.28.28,0,0,0-.2-.33.26.26,0,0,0-.33.2l-.32,1.32a.26.26,0,0,0,.2.33Zm25.29-1.47a.27.27,0,0,0,.27-.25c0-.46.07-.91.1-1.37a.27.27,0,0,0-.26-.29.28.28,0,0,0-.28.26c0,.45-.06.9-.1,1.35a.29.29,0,0,0,.25.3Zm-24.64-1.18a.27.27,0,0,0,.26-.21l.34-1.32a.28.28,0,0,0-.2-.33.27.27,0,0,0-.33.2c-.12.45-.23.89-.34,1.32a.28.28,0,0,0,.2.33Zm24.81-1.55a.27.27,0,0,0,.27-.26c0-.45,0-.91.05-1.37a.28.28,0,1,0-.55,0c0,.46,0,.91,0,1.36a.26.26,0,0,0,.26.28Zm-24.14-1.09a.27.27,0,0,0,.26-.21c.12-.43.23-.87.35-1.32a.27.27,0,0,0-.53-.14l-.34,1.33a.27.27,0,0,0,.19.33Zm24.2-1.63a.29.29,0,0,0,.28-.28v-.39c0-.32,0-.65,0-1a.27.27,0,1,0-.54,0v1.36a.28.28,0,0,0,.27.28Zm-23.51-1a.27.27,0,0,0,.26-.21c.12-.43.23-.86.35-1.31a.27.27,0,1,0-.52-.14c-.12.44-.24.88-.35,1.32a.27.27,0,0,0,.19.33Zm23.48-1.72h0a.27.27,0,0,0,.26-.28c0-.46,0-.91-.05-1.37a.28.28,0,0,0-.29-.26.28.28,0,0,0-.26.29l.06,1.35A.27.27,0,0,0,1002.42,466.15Zm-22.78-.92a.27.27,0,0,0,.27-.2c.11-.43.23-.87.35-1.31a.27.27,0,1,0-.52-.15l-.36,1.32a.27.27,0,0,0,.19.33Zm22.65-1.81h0a.27.27,0,0,0,.25-.29c0-.45-.06-.91-.1-1.36a.27.27,0,0,0-.29-.25.26.26,0,0,0-.25.29c0,.46.07.91.1,1.36A.27.27,0,0,0,1002.29,463.42Zm-21.93-.82a.27.27,0,0,0,.26-.2c.12-.43.24-.87.37-1.31a.28.28,0,0,0-.53-.15l-.36,1.32a.27.27,0,0,0,.19.33Zm21.71-1.9h0a.27.27,0,0,0,.25-.29l-.15-1.37a.27.27,0,1,0-.54.07c.05.45.1.9.14,1.35A.28.28,0,0,0,1002.07,460.7Zm-21-.73a.27.27,0,0,0,.26-.2l.37-1.31a.27.27,0,0,0-.19-.34.29.29,0,0,0-.34.19l-.36,1.32a.27.27,0,0,0,.19.33Zm.74-2.62a.27.27,0,0,0,.26-.2l.37-1.31a.27.27,0,0,0-.19-.34.27.27,0,0,0-.33.19l-.38,1.31a.29.29,0,0,0,.19.34Zm.74-2.63a.29.29,0,0,0,.27-.2l.35-1.23a.33.33,0,0,0,0-.13.27.27,0,0,0-.27-.28h0a.29.29,0,0,0-.26.2l-.37,1.29a.27.27,0,0,0,.19.34Z"/><path class="cls-4" d="M864.26,509a.28.28,0,0,1,.38,0,.27.27,0,0,1,0,.39l-1.07.84a.27.27,0,0,1-.17.06.28.28,0,0,1-.21-.1.25.25,0,0,1-.06-.2.32.32,0,0,1,.1-.19Z"/><path class="cls-4" d="M873.42,499.06a.28.28,0,0,1,.38-.09.3.3,0,0,1,.12.17.31.31,0,0,1,0,.21c-.24.38-.5.77-.76,1.15a.27.27,0,0,1-.22.11.24.24,0,0,1-.15,0,.31.31,0,0,1-.12-.18.24.24,0,0,1,0-.2C872.93,499.82,873.18,499.44,873.42,499.06Z"/><path class="cls-4" d="M871.89,501.28a.27.27,0,0,1,.43.33c-.27.37-.56.73-.84,1.09a.28.28,0,0,1-.21.1.27.27,0,0,1-.28-.25.36.36,0,0,1,.06-.2C871.34,502,871.62,501.64,871.89,501.28Z"/><path class="cls-4" d="M866.34,507.21a.31.31,0,0,1,.2-.07.34.34,0,0,1,.19.09.31.31,0,0,1,.07.2.3.3,0,0,1-.1.19c-.35.31-.69.6-1,.89a.28.28,0,0,1-.38,0,.28.28,0,0,1,0-.39C865.65,507.81,866,507.51,866.34,507.21Z"/><path class="cls-4" d="M861.8,510.86l.31-.23a.27.27,0,0,1,.39.05.27.27,0,0,1,0,.38l-.31.24-.77.59a.27.27,0,0,1-.17.06.28.28,0,0,1-.22-.11.29.29,0,0,1-.05-.2.25.25,0,0,1,.1-.18Z"/><path class="cls-4" d="M868.33,505.36a.26.26,0,0,1,.38,0,.27.27,0,0,1,0,.39l-1,.95a.26.26,0,0,1-.18.07.25.25,0,0,1-.2-.09.26.26,0,0,1,0-.38Z"/><path class="cls-4" d="M870.18,503.39a.3.3,0,0,1,.19-.1.31.31,0,0,1,.2.07.28.28,0,0,1,0,.39c-.29.34-.61.68-.92,1a.25.25,0,0,1-.2.09.32.32,0,0,1-.19-.07.28.28,0,0,1,0-.39C869.59,504.06,869.89,503.72,870.18,503.39Z"/><path class="cls-4" d="M878.08,487.86l.3-1.32a.27.27,0,0,1,.32-.21.23.23,0,0,1,.17.12.28.28,0,0,1,0,.2c-.09.45-.2.9-.3,1.34a.28.28,0,0,1-.27.21h-.06A.27.27,0,0,1,878.08,487.86Z"/><path class="cls-4" d="M878.86,485.53a.27.27,0,0,1-.22-.32c.07-.44.15-.89.22-1.34a.29.29,0,0,1,.11-.18.27.27,0,0,1,.43.26c-.07.46-.15.91-.23,1.36a.26.26,0,0,1-.27.22Z"/><path class="cls-4" d="M879.28,482.83a.28.28,0,0,1-.24-.3c.06-.44.11-.89.16-1.35a.26.26,0,0,1,.3-.24.27.27,0,0,1,.24.29l-.15,1.37a.28.28,0,0,1-.27.23Z"/><path class="cls-4" d="M875.94,494.28a.31.31,0,0,1,.15-.15.26.26,0,0,1,.21,0,.26.26,0,0,1,.14.35c-.18.43-.37.85-.56,1.25a.28.28,0,0,1-.25.16l-.12,0a.34.34,0,0,1-.14-.15.3.3,0,0,1,0-.21C875.58,495.11,875.76,494.69,875.94,494.28Z"/><path class="cls-4" d="M874.77,496.72a.28.28,0,0,1,.51,0,.3.3,0,0,1,0,.21c-.21.4-.44.81-.67,1.2a.27.27,0,0,1-.23.14.23.23,0,0,1-.14,0,.26.26,0,0,1-.13-.16.26.26,0,0,1,0-.21C874.35,497.51,874.57,497.11,874.77,496.72Z"/><path class="cls-4" d="M876.46,493c.16-.42.32-.85.47-1.27a.25.25,0,0,1,.14-.16.26.26,0,0,1,.21,0,.27.27,0,0,1,.16.35c-.15.43-.31.86-.47,1.28a.27.27,0,0,1-.26.18l-.1,0A.26.26,0,0,1,876.46,493Z"/><path class="cls-4" d="M877.35,490.47c.14-.43.27-.86.39-1.3a.27.27,0,0,1,.33-.19.31.31,0,0,1,.17.13.3.3,0,0,1,0,.21c-.12.44-.25.88-.38,1.31a.28.28,0,0,1-.26.2l-.09,0A.28.28,0,0,1,877.35,490.47Z"/><path class="cls-4" d="M850.49,522.18a.27.27,0,0,1,.38-.06.27.27,0,0,1,.11.18.29.29,0,0,1-.05.2c-.27.36-.54.73-.8,1.1a.27.27,0,0,1-.22.12.3.3,0,0,1-.16-.05.28.28,0,0,1-.07-.38C850,522.92,850.21,522.55,850.49,522.18Zm-.64,1.38Z"/><path class="cls-4" d="M844,534.12a.25.25,0,0,1,.17-.11.24.24,0,0,1,.2,0,.26.26,0,0,1,.12.17.28.28,0,0,1,0,.2,7.66,7.66,0,0,1-.88,1.11.28.28,0,0,1-.2.08.27.27,0,0,1-.19-.08.27.27,0,0,1,0-.38A7.34,7.34,0,0,0,844,534.12Z"/><path class="cls-4" d="M841.06,536.74a9.61,9.61,0,0,0,1.11-.72.28.28,0,0,1,.33.44,9.94,9.94,0,0,1-1.18.76.28.28,0,0,1-.13,0,.28.28,0,0,1-.13-.52Z"/><path class="cls-4" d="M844.75,532.55c.1-.28.2-.57.31-.85a.29.29,0,0,1,.15-.16.23.23,0,0,1,.2,0,.27.27,0,0,1,.16.35c-.11.28-.21.56-.3.83s-.11.31-.18.46a.27.27,0,0,1-.25.17.19.19,0,0,1-.1,0,.26.26,0,0,1-.15-.35C844.65,532.83,844.7,532.69,844.75,532.55Z"/><path class="cls-4" d="M860,512.31a.23.23,0,0,1,.2-.06.24.24,0,0,1,.18.1.23.23,0,0,1,.06.2.32.32,0,0,1-.1.18l-1,.87a.28.28,0,0,1-.38,0,.31.31,0,0,1-.07-.2.3.3,0,0,1,.1-.19C859.25,512.88,859.61,512.59,860,512.31Z"/><path class="cls-4" d="M833.11,538.74a.25.25,0,0,1,.19-.09c.46,0,.91-.06,1.35-.1a.25.25,0,0,1,.2.06.32.32,0,0,1,.1.19.27.27,0,0,1-.25.29c-.45,0-.91.08-1.38.1h0a.27.27,0,0,1-.27-.26A.26.26,0,0,1,833.11,538.74Z"/><path class="cls-4" d="M845.58,530.42c.19-.41.38-.83.58-1.25a.28.28,0,0,1,.37-.12.27.27,0,0,1,.12.36q-.3.63-.57,1.23a.26.26,0,0,1-.25.16.18.18,0,0,1-.1,0A.28.28,0,0,1,845.58,530.42Z"/><path class="cls-4" d="M836,538.38c.46-.07.9-.15,1.33-.25a.28.28,0,0,1,.2,0,.26.26,0,0,1,.12.18.24.24,0,0,1,0,.2.26.26,0,0,1-.17.12c-.44.1-.9.19-1.36.26h0a.26.26,0,0,1-.27-.23.28.28,0,0,1,.22-.31Z"/><path class="cls-4" d="M838.6,537.78c.44-.13.86-.29,1.26-.45a.27.27,0,0,1,.36.14.28.28,0,0,1-.15.36c-.41.17-.85.33-1.31.47l-.08,0a.28.28,0,0,1-.26-.2A.28.28,0,0,1,838.6,537.78Z"/><path class="cls-4" d="M855.87,516a.29.29,0,0,1,.39,0,.27.27,0,0,1,0,.39c-.32.32-.64.64-1,1a.28.28,0,0,1-.2.08.26.26,0,0,1-.19-.07.28.28,0,0,1,0-.39Z"/><path class="cls-4" d="M854,518a.27.27,0,0,1,.38,0,.25.25,0,0,1,.09.19.24.24,0,0,1-.07.2l-.9,1a.28.28,0,0,1-.21.1.31.31,0,0,1-.18-.07.27.27,0,0,1,0-.38C853.37,518.63,853.67,518.29,854,518Z"/><path class="cls-4" d="M857.87,514.09a.23.23,0,0,1,.19-.07.23.23,0,0,1,.19.09.23.23,0,0,1,.07.19.23.23,0,0,1-.09.19l-1,.92a.25.25,0,0,1-.38,0,.26.26,0,0,1,0-.38C857.19,514.7,857.53,514.39,857.87,514.09Z"/><path class="cls-4" d="M852.18,520a.29.29,0,0,1,.39,0,.28.28,0,0,1,0,.39c-.29.35-.57.7-.85,1.06a.28.28,0,0,1-.21.1.28.28,0,0,1-.22-.44C851.6,520.73,851.89,520.37,852.18,520Z"/><path class="cls-4" d="M847.46,526.75a.28.28,0,0,1,.37-.1.27.27,0,0,1,.1.37c-.23.4-.45.8-.66,1.19a.27.27,0,0,1-.24.14.31.31,0,0,1-.13,0,.26.26,0,0,1-.13-.16.31.31,0,0,1,0-.21C847,527.56,847.23,527.15,847.46,526.75Z"/><path class="cls-4" d="M848.91,524.42a.3.3,0,0,1,.17-.12.31.31,0,0,1,.21,0,.27.27,0,0,1,.11.18.24.24,0,0,1,0,.2c-.25.39-.5.77-.73,1.14a.28.28,0,0,1-.23.13.27.27,0,0,1-.23-.42C848.4,525.2,848.65,524.81,848.91,524.42Z"/><path class="cls-7" d="M833.22,537c4.57-.21,8.81-1.6,10-5,2.73-7.91,9.55-16.09,16.1-21.27,6-4.79,16.49-11.19,18.29-29.94-16,10.64-31.05,21.51-37.39,37.85C838.13,524,835.76,530.22,833.22,537Z"/><path class="cls-4" d="M827.24,639.36a.28.28,0,0,0,.27-.23c.08-.6.17-1.23.27-1.9a.27.27,0,1,0-.54-.08c-.1.67-.19,1.3-.27,1.9a.27.27,0,0,0,.23.31Zm.55-3.79a.27.27,0,0,0,.27-.23c.09-.61.19-1.24.29-1.89a.28.28,0,0,0-.22-.32.29.29,0,0,0-.32.23c-.1.65-.2,1.29-.29,1.89a.29.29,0,0,0,.23.32Zm.59-3.78a.28.28,0,0,0,.27-.23c.1-.62.2-1.25.31-1.89a.29.29,0,0,0-.22-.32.28.28,0,0,0-.32.23c-.11.65-.21,1.28-.31,1.89a.27.27,0,0,0,.23.31ZM829,628a.28.28,0,0,0,.27-.23c.1-.61.21-1.24.32-1.88a.27.27,0,0,0-.54-.1c-.11.65-.22,1.27-.32,1.89a.27.27,0,0,0,.22.32Zm.65-3.77a.27.27,0,0,0,.27-.22c.11-.62.22-1.25.34-1.89a.26.26,0,0,0-.22-.31.27.27,0,0,0-.32.22c-.11.63-.23,1.26-.34,1.88a.28.28,0,0,0,.22.32Zm.69-3.76a.26.26,0,0,0,.26-.23c.12-.61.24-1.24.36-1.87a.28.28,0,0,0-.54-.11c-.12.64-.24,1.27-.35,1.88a.27.27,0,0,0,.22.32Zm.71-3.76a.27.27,0,0,0,.27-.22c.12-.62.25-1.24.37-1.87a.28.28,0,0,0-.21-.33.27.27,0,0,0-.32.22c-.13.63-.25,1.26-.37,1.88a.27.27,0,0,0,.21.32Zm.75-3.75a.28.28,0,0,0,.27-.22c.13-.62.25-1.24.38-1.87a.26.26,0,0,0-.21-.32.27.27,0,0,0-.32.21l-.39,1.87a.27.27,0,0,0,.22.32Zm.78-3.74a.28.28,0,0,0,.27-.22c.13-.62.27-1.24.4-1.87a.27.27,0,1,0-.53-.11c-.14.62-.27,1.25-.4,1.87a.26.26,0,0,0,.21.32Zm.82-3.74a.28.28,0,0,0,.26-.21l.42-1.87a.26.26,0,0,0-.2-.32.27.27,0,0,0-.33.2l-.42,1.87a.27.27,0,0,0,.21.32Zm.84-3.73a.27.27,0,0,0,.27-.21c.14-.62.29-1.24.44-1.86a.29.29,0,0,0-.21-.33.27.27,0,0,0-.32.21c-.15.62-.3,1.24-.44,1.86a.27.27,0,0,0,.2.33Zm.89-3.72a.27.27,0,0,0,.26-.21c.15-.61.3-1.23.46-1.85a.28.28,0,0,0-.2-.33.26.26,0,0,0-.33.2c-.16.62-.31,1.24-.46,1.86a.29.29,0,0,0,.2.33Zm.92-3.71a.27.27,0,0,0,.26-.2c.16-.62.31-1.24.47-1.85a.28.28,0,0,0-.19-.34.27.27,0,0,0-.33.2l-.48,1.85a.26.26,0,0,0,.2.33Zm1-3.7a.29.29,0,0,0,.27-.2c.16-.62.32-1.23.49-1.85a.27.27,0,0,0-.19-.33.28.28,0,0,0-.34.19c-.16.62-.33,1.23-.49,1.85a.27.27,0,0,0,.19.33Zm1-3.69a.27.27,0,0,0,.26-.2c.17-.61.34-1.22.52-1.84a.29.29,0,0,0-.19-.34.28.28,0,0,0-.34.19l-.51,1.85a.27.27,0,0,0,.19.33Zm1-3.68a.27.27,0,0,0,.26-.2l.54-1.83a.28.28,0,1,0-.53-.15c-.18.61-.36,1.22-.53,1.83a.27.27,0,0,0,.18.34Zm1.08-3.66a.27.27,0,0,0,.26-.2c.19-.61.37-1.22.56-1.82a.27.27,0,0,0-.18-.35.28.28,0,0,0-.34.18c-.19.61-.37,1.22-.56,1.83a.27.27,0,0,0,.18.34Zm1.13-3.66a.27.27,0,0,0,.26-.19l.58-1.81a.28.28,0,0,0-.17-.35.26.26,0,0,0-.34.18c-.2.6-.4,1.21-.59,1.82a.28.28,0,0,0,.18.34Zm1.18-3.63a.28.28,0,0,0,.26-.19c.2-.61.4-1.21.61-1.81a.28.28,0,0,0-.52-.18c-.2.61-.41,1.21-.61,1.82a.26.26,0,0,0,.17.34Zm1.23-3.63a.27.27,0,0,0,.26-.18c.21-.6.42-1.2.64-1.8a.28.28,0,0,0-.52-.19l-.63,1.81a.26.26,0,0,0,.16.34A.15.15,0,0,0,843.67,568.68Zm1.29-3.6a.28.28,0,0,0,.26-.18l.66-1.78a.27.27,0,0,0-.16-.35.27.27,0,0,0-.35.16c-.22.59-.45,1.19-.67,1.79a.28.28,0,0,0,.17.35Zm1.34-3.56a.28.28,0,0,0,.26-.18l.69-1.77a.28.28,0,0,0-.15-.36.27.27,0,0,0-.35.15c-.24.6-.47,1.19-.7,1.79a.26.26,0,0,0,.15.35Zm1.41-3.55a.3.3,0,0,0,.26-.17c.24-.59.48-1.18.73-1.77a.26.26,0,0,0-.15-.35.27.27,0,0,0-.36.14l-.73,1.77a.26.26,0,0,0,.15.35A.19.19,0,0,0,847.71,558Zm1.49-3.53a.28.28,0,0,0,.25-.16c.25-.59.51-1.17.76-1.75a.28.28,0,0,0-.13-.36.27.27,0,0,0-.36.14c-.26.58-.52,1.16-.77,1.75a.27.27,0,0,0,.14.36Zm1.55-3.49a.27.27,0,0,0,.25-.16l.81-1.73a.28.28,0,0,0-.5-.23l-.81,1.73a.29.29,0,0,0,.14.37Zm1.64-3.45a.28.28,0,0,0,.25-.16c.28-.57.56-1.14.85-1.7a.29.29,0,0,0-.12-.37.28.28,0,0,0-.37.12c-.29.57-.57,1.14-.85,1.71a.28.28,0,0,0,.12.37Zm1.73-3.41a.26.26,0,0,0,.24-.15l.9-1.68a.27.27,0,0,0-.48-.26l-.9,1.69a.28.28,0,0,0,.11.37A.31.31,0,0,0,854.12,544.09Zm1.82-3.36a.27.27,0,0,0,.24-.14l1-1.65a.26.26,0,0,0-.09-.37.28.28,0,0,0-.38.09l-.95,1.66a.28.28,0,0,0,.1.38A.31.31,0,0,0,855.94,540.73Zm1.94-3.29a.28.28,0,0,0,.23-.13c.34-.55.67-1.09,1-1.62a.28.28,0,0,0-.08-.38.28.28,0,0,0-.38.09c-.34.53-.68,1.07-1,1.62a.28.28,0,0,0,.09.38A.33.33,0,0,0,857.88,537.44Zm2-3.23a.27.27,0,0,0,.23-.12c.35-.53.72-1.06,1.07-1.57a.27.27,0,0,0-.06-.38.26.26,0,0,0-.38.07c-.36.51-.73,1-1.08,1.58a.27.27,0,0,0,.07.38A.28.28,0,0,0,859.93,534.21Zm2.19-3.13a.28.28,0,0,0,.22-.11c.38-.52.76-1,1.14-1.52a.27.27,0,0,0-.05-.39.27.27,0,0,0-.38.05c-.38.5-.77,1-1.15,1.54a.27.27,0,0,0,.06.38A.3.3,0,0,0,862.12,531.08Zm2.33-3a.26.26,0,0,0,.21-.11c.41-.49.82-1,1.23-1.45a.29.29,0,0,0,0-.39.28.28,0,0,0-.39,0q-.62.72-1.23,1.47a.27.27,0,0,0,0,.38A.23.23,0,0,0,864.45,528.06Zm2.5-2.9a.28.28,0,0,0,.2-.09c.43-.47.87-.93,1.31-1.37a.28.28,0,0,0,0-.39.27.27,0,0,0-.38,0c-.44.45-.89.92-1.32,1.4a.26.26,0,0,0,0,.38A.28.28,0,0,0,867,525.16Zm2.67-2.72a.29.29,0,0,0,.19-.08c.46-.44.93-.87,1.4-1.28a.28.28,0,0,0,0-.39.27.27,0,0,0-.38,0c-.48.42-1,.85-1.42,1.3a.27.27,0,0,0,0,.38A.28.28,0,0,0,869.62,522.44Zm2.86-2.53a.3.3,0,0,0,.18-.06c.49-.4,1-.79,1.49-1.16a.26.26,0,0,0,.06-.38.27.27,0,0,0-.38-.06c-.51.38-1,.77-1.52,1.18a.28.28,0,0,0,0,.38A.26.26,0,0,0,872.48,519.91Zm3.07-2.26a.27.27,0,0,0,.15,0c.53-.35,1.07-.69,1.6-1a.27.27,0,0,0,.1-.37.29.29,0,0,0-.38-.1c-.54.33-1.08.67-1.62,1a.27.27,0,0,0-.07.38A.25.25,0,0,0,875.55,517.65Zm3.28-1.95.12,0c.56-.3,1.13-.58,1.7-.83a.29.29,0,0,0,.14-.37.28.28,0,0,0-.36-.13c-.58.26-1.16.54-1.73.84a.28.28,0,0,0-.11.37A.27.27,0,0,0,878.83,515.7Zm3.46-1.57.1,0c.59-.23,1.19-.44,1.78-.62a.27.27,0,0,0,.18-.34A.26.26,0,0,0,884,513c-.6.19-1.21.4-1.81.63a.27.27,0,0,0-.16.35A.28.28,0,0,0,882.29,514.13Zm3.64-1.16H886l1.84-.53a.27.27,0,0,0,.18-.34.27.27,0,0,0-.34-.18l-1.83.53a.27.27,0,0,0,.08.53Zm3.65-1.09h.09l1.81-.58a.28.28,0,0,0,.18-.35.28.28,0,0,0-.35-.17l-1.81.58a.28.28,0,0,0-.18.34A.28.28,0,0,0,889.58,511.88Zm3.62-1.18.09,0,1.8-.63a.28.28,0,0,0,.17-.35.27.27,0,0,0-.35-.16l-1.79.63a.26.26,0,0,0-.17.34A.26.26,0,0,0,893.2,510.7Zm3.59-1.29a.15.15,0,0,0,.09,0l1.78-.68a.27.27,0,0,0,.16-.35.28.28,0,0,0-.35-.16l-1.78.68a.27.27,0,0,0,.1.53Zm3.54-1.38.11,0,1.76-.73a.28.28,0,0,0,.14-.36.28.28,0,0,0-.36-.15l-1.75.73a.28.28,0,0,0-.15.36A.27.27,0,0,0,900.33,508Zm3.51-1.49a.23.23,0,0,0,.11,0l1.74-.78a.29.29,0,0,0,.14-.37.29.29,0,0,0-.37-.13l-1.73.78a.27.27,0,0,0-.14.36A.26.26,0,0,0,903.84,506.54Zm3.47-1.59.12,0,1.72-.84a.28.28,0,0,0,.12-.37.27.27,0,0,0-.36-.12l-1.72.83a.29.29,0,0,0-.13.37A.29.29,0,0,0,907.31,505Zm3.42-1.69a.31.31,0,0,0,.13,0c.57-.29,1.13-.59,1.69-.89a.27.27,0,0,0,.12-.37.28.28,0,0,0-.37-.11l-1.69.88a.27.27,0,0,0-.12.37A.26.26,0,0,0,910.73,503.26Zm3.37-1.8a.35.35,0,0,0,.14,0l1.66-.94a.27.27,0,0,0-.27-.47L914,501a.27.27,0,0,0,.13.51Zm3.32-1.89a.37.37,0,0,0,.14,0l1.63-1a.28.28,0,0,0,.09-.38.26.26,0,0,0-.37-.09l-1.63,1a.27.27,0,0,0-.1.37A.27.27,0,0,0,917.42,499.57Zm3.25-2a.28.28,0,0,0,.15,0c.54-.34,1.07-.69,1.6-1a.28.28,0,0,0,.08-.38.27.27,0,0,0-.38-.08c-.53.35-1.06.7-1.6,1a.28.28,0,0,0-.08.38A.27.27,0,0,0,920.67,497.56Zm3.19-2.1a.3.3,0,0,0,.15,0c.53-.36,1-.73,1.57-1.1a.27.27,0,0,0,.06-.38.27.27,0,0,0-.38-.06c-.51.36-1,.73-1.56,1.09a.27.27,0,0,0-.07.38A.29.29,0,0,0,923.86,495.46Zm3.11-2.22a.25.25,0,0,0,.16-.05c.51-.38,1-.76,1.53-1.15a.27.27,0,0,0-.33-.43l-1.52,1.14a.27.27,0,0,0-.06.38A.27.27,0,0,0,927,493.24Zm3-2.32a.26.26,0,0,0,.17-.05c.5-.4,1-.8,1.49-1.21a.26.26,0,0,0,0-.38.27.27,0,0,0-.38,0l-1.49,1.2a.28.28,0,0,0,0,.38A.25.25,0,0,0,930,490.92Zm3-2.42a.28.28,0,0,0,.18-.06l1.45-1.26a.27.27,0,0,0,0-.38.26.26,0,0,0-.38,0L932.78,488a.26.26,0,0,0,0,.38A.25.25,0,0,0,933,488.5Zm2.87-2.53a.26.26,0,0,0,.18-.07l1.4-1.31a.27.27,0,1,0-.38-.39l-1.39,1.3a.27.27,0,0,0,0,.38A.29.29,0,0,0,935.82,486Zm2.76-2.64a.26.26,0,0,0,.19-.07c.45-.45.91-.91,1.35-1.37a.27.27,0,0,0-.39-.38c-.44.46-.89.91-1.34,1.36a.26.26,0,0,0,0,.38A.24.24,0,0,0,938.58,483.33Zm2.66-2.74a.32.32,0,0,0,.2-.08l1.28-1.41a.26.26,0,0,0,0-.39.27.27,0,0,0-.38,0L941,480.14a.27.27,0,0,0,0,.38A.26.26,0,0,0,941.24,480.59Zm2.54-2.83a.25.25,0,0,0,.2-.1c.42-.48.83-1,1.23-1.46a.27.27,0,0,0,0-.38.27.27,0,0,0-.39,0l-1.22,1.45a.26.26,0,0,0,0,.38A.24.24,0,0,0,943.78,477.76Zm2.42-2.94a.25.25,0,0,0,.21-.1c.4-.5.79-1,1.17-1.51a.27.27,0,0,0-.05-.38.27.27,0,0,0-.39.05c-.37.5-.76,1-1.16,1.5a.28.28,0,0,0,.22.44Zm2.29-3a.27.27,0,0,0,.23-.11c.37-.51.74-1,1.1-1.56a.28.28,0,0,0-.07-.38.28.28,0,0,0-.38.07c-.36.52-.73,1-1.1,1.55a.28.28,0,0,0,.06.38A.25.25,0,0,0,948.49,471.78Zm2.17-3.13a.31.31,0,0,0,.23-.12l1-1.61a.28.28,0,0,0-.09-.38.27.27,0,0,0-.37.09c-.34.53-.68,1.07-1,1.6a.26.26,0,0,0,.08.37A.3.3,0,0,0,950.66,468.65Zm2-3.23a.27.27,0,0,0,.24-.14c.32-.55.65-1.1,1-1.65a.28.28,0,0,0-.11-.37.27.27,0,0,0-.37.1c-.31.54-.63,1.1-.95,1.64a.28.28,0,0,0,.09.38A.37.37,0,0,0,952.68,465.42Zm1.88-3.33a.27.27,0,0,0,.24-.14c.3-.56.6-1.14.88-1.7a.27.27,0,0,0-.12-.37.28.28,0,0,0-.37.12c-.28.56-.57,1.13-.87,1.69a.27.27,0,0,0,.24.4Zm1.72-3.41a.27.27,0,0,0,.25-.15l.8-1.74a.27.27,0,0,0-.14-.36.28.28,0,0,0-.36.13c-.26.58-.52,1.16-.8,1.73a.29.29,0,0,0,.13.37A.25.25,0,0,0,956.28,458.68Zm1.56-3.49a.27.27,0,0,0,.25-.16c.25-.59.49-1.19.72-1.78a.29.29,0,0,0-.16-.36.28.28,0,0,0-.35.16c-.23.59-.47,1.18-.71,1.77a.26.26,0,0,0,.14.35A.22.22,0,0,0,957.84,455.19Zm1.39-3.56a.28.28,0,0,0,.26-.18c.21-.6.43-1.21.63-1.82a.27.27,0,0,0-.17-.34.28.28,0,0,0-.35.17c-.2.6-.41,1.21-.63,1.8a.27.27,0,0,0,.17.35Zm1.22-3.63a.29.29,0,0,0,.26-.2c.19-.6.37-1.22.54-1.83a.27.27,0,0,0-.19-.34.27.27,0,0,0-.33.19l-.54,1.82a.26.26,0,0,0,.18.34Zm1-3.68a.27.27,0,0,0,.26-.2q.24-.93.45-1.86a.27.27,0,0,0-.2-.33.28.28,0,0,0-.33.2c-.14.62-.29,1.24-.45,1.85a.26.26,0,0,0,.2.33Zm.85-3.72a.28.28,0,0,0,.27-.22c.13-.62.25-1.25.36-1.88a.26.26,0,0,0-.22-.31.27.27,0,0,0-.32.22c-.11.62-.23,1.25-.36,1.86a.28.28,0,0,0,.22.33Zm.68-3.75a.28.28,0,0,0,.27-.24c.1-.62.19-1.26.27-1.89a.28.28,0,0,0-.24-.31.28.28,0,0,0-.3.24c-.08.62-.17,1.26-.27,1.88a.27.27,0,0,0,.23.31Zm.49-3.79a.28.28,0,0,0,.28-.24l.18-1.91a.28.28,0,0,0-.55-.05c0,.63-.11,1.27-.18,1.9a.29.29,0,0,0,.25.3Zm.32-3.8a.28.28,0,0,0,.27-.26c0-.63.07-1.28.09-1.91a.28.28,0,0,0-.26-.29.28.28,0,0,0-.28.27c0,.63,0,1.27-.09,1.9a.27.27,0,0,0,.25.29Zm.14-3.82a.27.27,0,0,0,.27-.27c0-.39,0-.78,0-1.17v-.74a.28.28,0,0,0-.55,0c0,.25,0,.5,0,.74s0,.78,0,1.16a.28.28,0,0,0,.27.28Zm0-3.82h0a.27.27,0,0,0,.26-.28c0-.63-.05-1.28-.08-1.91a.28.28,0,0,0-.29-.26.28.28,0,0,0-.26.29c0,.63.06,1.27.08,1.9A.28.28,0,0,0,963.94,421.62Z"/><path class="cls-4" d="M933.68,472.15a.53.53,0,0,0,.42-.21.54.54,0,0,0-.08-.76c-1.76-1.41-6.85-9.8-7.78-24.41a.55.55,0,0,0-.58-.51.55.55,0,0,0-.51.58c.93,14.69,6,23.45,8.18,25.19A.59.59,0,0,0,933.68,472.15Z"/><path class="cls-8" d="M979.2,328.45c7-.21,19.71.79,23.89,1.86.67-9.21,1.64-18.44,3-27.49l-19.5-2s-1.12,6-3.11,13.67c-1,3.75-2.16,7.9-3.54,11.93C979.69,327.09,979.45,327.77,979.2,328.45Z"/><path class="cls-9" d="M979.92,326.4c3.38-1,9.05-3.18,12.06-8.27a60.41,60.41,0,0,0-8.52-3.66C982.49,318.22,981.3,322.37,979.92,326.4Z"/><path class="cls-15" d="M913.86,440.08c3.55.81,36-7.92,61.11-1.64s37.65,17.46,34.11,9c-2.91-6.93-9.4-57-6.46-109.77.14-2.45.29-4.9.47-7.36-4.18-1.07-16.87-2.07-23.89-1.86a77.36,77.36,0,0,1-3.24,7.79l-.1.2c-3.28,6.62-13.45,22.57-23.43,38.66-10.64,17.12-21.06,34.4-22.74,40.7-1.52,5.67-5.77,11.12-9.56,15.41C915.73,436.2,912,439.64,913.86,440.08Z"/><path class="cls-6" d="M988.58,271.83c-9.11-4.68-16.05-14.78-13.37-17.29s7.88-3.46,9.74-6.36,10.8,8.94,8,15.44S988.58,271.83,988.58,271.83Z"/><path class="cls-8" d="M982.81,262.84a25.41,25.41,0,0,0-2,3.19,38.38,38.38,0,0,0-2.71,6.63c-1.81,5.8-9,7.2-11.31,8.75-1.17.78-.7,1.7-.07,3a7.05,7.05,0,0,1,.83,5.07c-.27,1.12-1.24,3.08-2.21,5.47-2.87,7.06-5.79,17.95,9,22.68a49.26,49.26,0,0,0,13.37,2.49h0a31,31,0,0,0,7.46-.59c5.14-1.07,7.49-3.19,7.49-3.19s-.29-10.4-.76-20.48c-.39-8.17-.9-16.12-1.47-18.16l-.17-.63c-1.24-4.85-3.6-18.31-4-20.6,0-.22,0-.34,0-.34h-.1C989.86,255.93,985.64,259,982.81,262.84Z"/><path class="cls-9" d="M982.81,262.84c2.41,5.27,8.19,3.54,10.27,9.5a22,22,0,0,0,7.67,9.9s-.15-2.11-.47-5.18c-1.24-4.86-3.6-18.31-4-20.6l-.15-.34C989.86,255.93,985.65,259,982.81,262.84Z"/><path class="cls-6" d="M979.39,255.27a11.19,11.19,0,0,0,10.21,2.67c1.39-.27,2.23-.55,2.18,0-.1,1.11,1.16,16.16,7.31,25.41a19.77,19.77,0,0,0,3.62,4.16,15.15,15.15,0,0,0,1.6,1.16l0,0a27.85,27.85,0,0,0-3.34,9.72c-.76,5.54-3.85,12.95-1.61,17s25.77,12.71,32.82-5.46c.54-1.38,1-2.68,1.34-3.91,4.31-14.88-4-18.84-6.68-27.64-2.87-9.51,8.08-3.7,2.57-21.05s-25.15-8.88-26.84-10.69-1.07-6.32-4.79-4.81c-.89.36-1.42.31-1.8,0-1.22-1-1-4.56-6.19-5.65C983,234.73,973.1,249.67,979.39,255.27Z"/><path class="cls-10" d="M1004.31,288.63l0,0a27.85,27.85,0,0,0-3.34,9.72c-.76,5.54-3.85,12.95-1.61,17s25.77,12.71,32.82-5.46c.54-1.38,1-2.68,1.34-3.91a49.76,49.76,0,0,1-3.08,4c-2.77,3.05-13.39,3-17.65-5.5s-2.37-8.62-3.54-14.66C1009.28,289.85,1007.17,289.29,1004.31,288.63Z"/><path class="cls-11" d="M966.77,281.41c-1.17.78-.7,1.7-.07,3a7.51,7.51,0,0,1,3.56-1.8c4.2-.9,10.6-5.75,10.6-14.85,0-.62,0-1.19-.07-1.72a38.38,38.38,0,0,0-2.71,6.63C976.27,278.46,969.09,279.86,966.77,281.41Z"/><path class="cls-13" d="M979.39,255.27a11.19,11.19,0,0,0,10.21,2.67c-6.86-2.56-7.84-9.74-3.16-9.95s5.56-.21,4.24-4.09S994,240.66,995,242c.36.48.77.32,1.06-.2-1.22-1-1-4.56-6.19-5.65C983,234.73,973.1,249.67,979.39,255.27Z"/><path class="cls-8" d="M994.49,288.94c7.55-6.92,16-7.32,15.31,2.23s-14,8.9-14,8.9Z"/><path class="cls-9" d="M1001.18,286.08s5.08-1.59,6.33,3.16-3.06,8.28-6.51,9.13c0,0,6.27-1.39,5.42-7.41S1001.18,286.08,1001.18,286.08Z"/><path class="cls-9" d="M1005.08,293.49c-1.13,2.54-4.57,3.92-5.73,2.16a3.12,3.12,0,0,1,0-3.42s-.86,2.76.61,3.35S1003.38,295.31,1005.08,293.49Z"/><path class="cls-9" d="M1002.76,290.5c.84,1.51.42,4-1.08,3.16s-1.37-2.44-1.9-2.47-.9-2,.52-2.12A3.2,3.2,0,0,1,1002.76,290.5Z"/><path class="cls-3" d="M973.09,334.88c0,1.22.41,2,1.63,1.69a7.06,7.06,0,0,1,1.14-.13c4.93-.21,21.34,1.35,26.76,1.23,1.09,0,1.74-.12,1.75-.31.07-1.23.64-6,0-6.55a3.79,3.79,0,0,0-1.28-.5c-3.18-.81-11.3-1.59-18.09-1.82-2.12-.07-4.12-.09-5.8,0-2.7.08-4.57.35-4.77.86A18.21,18.21,0,0,0,973.09,334.88Z"/><path class="cls-17" d="M973.09,334.88c4.43-1.75,13.56-5.55,11.92-6.39h0c-2.12-.07-4.12-.09-5.8,0-2.7.08-4.57.35-4.77.86A18.21,18.21,0,0,0,973.09,334.88Z"/><path class="cls-3" d="M934.52,366.51a45.62,45.62,0,0,1,4.25,3.18c6.34,5.33,11.61,12.49,15.77,19.58,2,3.38,3.72,6.75,5.2,9.89C975.28,388.71,988.9,378,994.49,370a25.85,25.85,0,0,0,2-3.27c7.75-15.56-4.05-32.79-18.87-30.76a19.57,19.57,0,0,0-5.33,1.56C959.18,343.35,949,350.63,934.52,366.51Z"/><path class="cls-8" d="M831.29,411.47c.13,1.24,1.2,3.38,3.46,6.78,5.22,7.89,16.11,13.92,28.69,16.7,13.25,2.94,28.38,2.27,40.78-3.6,13.47-6.38,36-19.07,55.52-32.19-1.48-3.14-3.21-6.51-5.2-9.89-4.16-7.09-9.43-14.25-15.77-19.58a45.62,45.62,0,0,0-4.25-3.18c-3.06,3.35-6.32,7.08-9.83,11.26-20.19,24-53.2,38.66-68.85,37.75C843.49,414.8,830.8,406.83,831.29,411.47Z"/><path class="cls-11" d="M831.29,411.47c4.77,4.72,18.23,5.48,32,5.78,16.92.36,52.74-19.6,66.39-37.64a85.31,85.31,0,0,1,9.08-9.92,45.62,45.62,0,0,0-4.25-3.18c-3.06,3.35-6.32,7.08-9.83,11.26-20.19,24-53.2,38.66-68.85,37.75C843.49,414.8,830.8,406.83,831.29,411.47Z"/><path class="cls-17" d="M934.52,366.51a45.62,45.62,0,0,1,4.25,3.18c16.1-15.42,40.29-31.46,38.8-33.75a19.57,19.57,0,0,0-5.33,1.56C959.18,343.35,949,350.63,934.52,366.51Z"/><path class="cls-9" d="M863.44,435c13.25,2.94,28.38,2.27,40.78-3.6,13.47-6.38,36-19.07,55.52-32.19-1.48-3.14-3.21-6.51-5.2-9.89-11.83,7.8-18.95,14.86-24.51,19C893.2,435.35,886.31,434.48,863.44,435Z"/><path class="cls-15" d="M954.54,389.27c2,3.38,3.72,6.75,5.2,9.89C975.28,388.71,988.9,378,994.49,370a25.85,25.85,0,0,0,2-3.27C989.66,372.22,971.37,381.22,954.54,389.27Z"/><circle class="cls-14" cx="182.35" cy="399.84" r="5.6"/><rect class="cls-2" x="23.02" y="179.03" width="369.85" height="219.68" rx="26.38"/><rect class="cls-6" y="167.18" width="369.85" height="219.68" rx="26.38"/><rect class="cls-4" x="65.07" y="187.87" width="65.64" height="51.59" rx="0.86"/><rect class="cls-1" x="65.07" y="187.87" width="65.64" height="11.26" rx="0.86"/><rect class="cls-4" x="69.8" y="191.71" width="19.09" height="2.02" rx="1.01"/><rect class="cls-4" x="90.78" y="191.71" width="3.55" height="2.02" rx="1.01"/><rect class="cls-6" x="69.8" y="204.25" width="27.92" height="2.02" rx="1.01"/><rect class="cls-4" x="100.5" y="204.25" width="5.19" height="2.02" rx="1.01"/><rect class="cls-6" x="95.36" y="211.33" width="16.4" height="2.02" rx="1.01" transform="translate(207.12 424.69) rotate(-180)"/><rect class="cls-6" x="69.8" y="211.33" width="23.34" height="2.02" rx="1.01" transform="translate(162.95 424.69) rotate(-180)"/><rect class="cls-6" x="69.8" y="218.42" width="16.4" height="2.02" rx="1.01"/><rect class="cls-6" x="88.42" y="218.42" width="23.34" height="2.02" rx="1.01"/><rect class="cls-4" x="175.55" y="192.63" width="65.64" height="51.59" rx="0.86"/><rect class="cls-1" x="175.55" y="192.63" width="65.64" height="11.26" rx="0.86"/><rect class="cls-4" x="180.28" y="196.47" width="19.09" height="2.02" rx="1.01"/><rect class="cls-4" x="201.26" y="196.47" width="3.55" height="2.02" rx="1.01"/><rect class="cls-5" x="180.28" y="209.01" width="27.92" height="2.02" rx="1.01"/><rect class="cls-4" x="210.98" y="209.01" width="5.19" height="2.02" rx="1.01"/><rect class="cls-5" x="205.84" y="216.09" width="16.4" height="2.02" rx="1.01" transform="translate(428.08 434.21) rotate(-180)"/><rect class="cls-5" x="180.28" y="216.09" width="23.34" height="2.02" rx="1.01" transform="translate(383.91 434.21) rotate(180)"/><rect class="cls-5" x="180.28" y="223.18" width="16.4" height="2.02" rx="1.01"/><rect class="cls-4" x="119.28" y="304.79" width="65.64" height="51.59" rx="0.86"/><rect class="cls-15" x="119.28" y="304.79" width="65.64" height="11.26" rx="0.86"/><rect class="cls-4" x="124.01" y="308.63" width="19.09" height="2.02" rx="1.01"/><rect class="cls-4" x="144.99" y="308.63" width="3.55" height="2.02" rx="1.01"/><rect class="cls-15" x="124.01" y="321.17" width="27.92" height="2.02" rx="1.01"/><rect class="cls-15" x="154.71" y="321.17" width="5.19" height="2.02" rx="1.01"/><rect class="cls-15" x="124.01" y="328.26" width="23.34" height="2.02" rx="1.01" transform="translate(271.37 658.54) rotate(180)"/><rect class="cls-15" x="124.01" y="335.34" width="16.4" height="2.02" rx="1.01"/><rect class="cls-15" x="142.63" y="335.34" width="23.34" height="2.02" rx="1.01"/><rect class="cls-4" x="255.13" y="254.27" width="65.64" height="51.59" rx="0.86"/><rect x="255.13" y="254.27" width="65.64" height="11.26" rx="0.86"/><rect class="cls-4" x="259.86" y="258.11" width="19.09" height="2.02" rx="1.01"/><rect class="cls-4" x="280.83" y="258.11" width="3.55" height="2.02" rx="1.01"/><rect x="259.86" y="270.65" width="27.92" height="2.02" rx="1.01"/><rect x="285.41" y="277.74" width="16.4" height="2.02" rx="1.01"/><rect x="259.86" y="277.74" width="23.34" height="2.02" rx="1.01"/><rect x="259.86" y="284.82" width="16.4" height="2.02" rx="1.01"/><path class="cls-14" d="M171.64,225.52h-2.21a.32.32,0,0,1,0-.64h2.21a.32.32,0,0,1,0,.64Zm-4.42,0H165a.32.32,0,0,1,0-.64h2.21a.32.32,0,0,1,0,.64Zm-4.42,0h-2.21a.32.32,0,0,1,0-.64h2.21a.32.32,0,0,1,0,.64Zm-4.41,0h-2.21a.32.32,0,0,1,0-.64h2.21a.32.32,0,0,1,0,.64Zm-4.42,0h-2.21a.32.32,0,0,1,0-.64H154a.32.32,0,0,1,0,.64Zm-4.42,0h-2.21a.32.32,0,0,1,0-.64h2.21a.32.32,0,0,1,0,.64Zm-4.41,0H143a.32.32,0,0,1-.31-.32.33.33,0,0,1,.31-.33h2.19a.32.32,0,0,1,0,.64ZM143,223.28a.31.31,0,0,1-.31-.31v-2.21a.32.32,0,1,1,.63,0V223A.31.31,0,0,1,143,223.28Zm0-4.41a.32.32,0,0,1-.31-.32v-2.21a.32.32,0,0,1,.63,0v2.21A.32.32,0,0,1,143,218.87Zm0-4.42a.31.31,0,0,1-.31-.32v-2.21a.32.32,0,0,1,.63,0v2.21A.32.32,0,0,1,143,214.45Zm0-4.42a.31.31,0,0,1-.31-.31v-2.21a.32.32,0,1,1,.63,0v2.21A.31.31,0,0,1,143,210Zm0-4.41a.32.32,0,0,1-.31-.32v-.74h-.84a.32.32,0,1,1,0-.63H143a.32.32,0,0,1,.32.32v1.05A.32.32,0,0,1,143,205.62Zm-3.36-1.06h-2.21a.32.32,0,1,1,0-.63h2.21a.32.32,0,0,1,0,.63Zm-4.42,0H133a.32.32,0,0,1,0-.63h2.21a.32.32,0,1,1,0,.63Z"/><path class="cls-14" d="M248.22,335.66H248a.32.32,0,0,1-.32-.32.31.31,0,0,1,.21-.29v-1.7a.32.32,0,1,1,.63,0v2A.31.31,0,0,1,248.22,335.66Zm-2.42,0h-2.21a.32.32,0,0,1,0-.63h2.21a.32.32,0,1,1,0,.63Zm-4.42,0h-2.2a.32.32,0,1,1,0-.63h2.2a.32.32,0,1,1,0,.63Zm-4.41,0h-2.21a.32.32,0,1,1,0-.63H237a.32.32,0,0,1,0,.63Zm-4.42,0h-2.21a.32.32,0,0,1,0-.63h2.21a.32.32,0,1,1,0,.63Zm-4.42,0h-2.2a.32.32,0,1,1,0-.63h2.2a.32.32,0,1,1,0,.63Zm-4.41,0h-2.21a.32.32,0,1,1,0-.63h2.21a.32.32,0,0,1,0,.63Zm-4.42,0h-2.21a.32.32,0,0,1,0-.63h2.21a.32.32,0,1,1,0,.63Zm-4.42,0h-2.2a.32.32,0,1,1,0-.63h2.2a.32.32,0,1,1,0,.63Zm-4.41,0h-2.21a.32.32,0,1,1,0-.63h2.21a.32.32,0,0,1,0,.63Zm-4.42,0h-2.21a.32.32,0,0,1,0-.63h2.21a.32.32,0,1,1,0,.63Zm-4.41,0h-2.21a.32.32,0,1,1,0-.63h2.21a.32.32,0,0,1,0,.63Zm-4.42,0H195a.32.32,0,1,1,0-.63h2.21a.32.32,0,0,1,0,.63Zm-4.42,0h-2.21a.32.32,0,0,1,0-.63h2.21a.32.32,0,1,1,0,.63Zm55.42-4.21a.31.31,0,0,1-.32-.31v-2.21a.32.32,0,1,1,.63,0v2.21A.31.31,0,0,1,248.22,331.45Zm0-4.41a.32.32,0,0,1-.32-.32v-2.21a.32.32,0,0,1,.63,0v2.21A.32.32,0,0,1,248.22,327Zm0-4.42a.32.32,0,0,1-.32-.32v-2.2a.32.32,0,1,1,.63,0v2.2A.31.31,0,0,1,248.22,322.62Zm0-4.42a.31.31,0,0,1-.32-.31v-2.21a.32.32,0,1,1,.63,0v2.21A.31.31,0,0,1,248.22,318.2Zm0-4.41a.32.32,0,0,1-.32-.32v-2.21a.32.32,0,0,1,.63,0v2.21A.32.32,0,0,1,248.22,313.79Zm0-4.42a.32.32,0,0,1-.32-.32v-2.2a.32.32,0,1,1,.63,0v2.2A.31.31,0,0,1,248.22,309.37Zm0-4.42a.31.31,0,0,1-.32-.31v-2.21a.32.32,0,1,1,.63,0v2.21A.31.31,0,0,1,248.22,305Zm0-4.41a.32.32,0,0,1-.32-.32V298a.32.32,0,0,1,.63,0v2.21A.32.32,0,0,1,248.22,300.54Zm0-4.42a.32.32,0,0,1-.32-.32v-2.2a.32.32,0,1,1,.63,0v2.2A.31.31,0,0,1,248.22,296.12Zm0-4.42a.31.31,0,0,1-.32-.31v-2.21a.32.32,0,1,1,.63,0v2.21A.31.31,0,0,1,248.22,291.7Zm0-4.41a.32.32,0,0,1-.32-.32v-2.21a.32.32,0,0,1,.63,0V287A.32.32,0,0,1,248.22,287.29Zm0-4.42a.32.32,0,0,1-.32-.32v-2.2a.32.32,0,1,1,.63,0v2.2A.31.31,0,0,1,248.22,282.87Zm0-4.42a.31.31,0,0,1-.32-.31v-2.21a.32.32,0,1,1,.63,0v2.21A.31.31,0,0,1,248.22,278.45Zm0-4.41a.32.32,0,0,1-.32-.32v-2.21a.32.32,0,0,1,.63,0v2.21A.31.31,0,0,1,248.22,274Zm0-4.42a.32.32,0,0,1-.32-.32v-2.2a.32.32,0,1,1,.63,0v2.2A.31.31,0,0,1,248.22,269.62Zm0-4.42a.31.31,0,0,1-.32-.31v-2.21a.32.32,0,1,1,.63,0v2.21A.31.31,0,0,1,248.22,265.2Zm0-4.41a.32.32,0,0,1-.32-.32v-2.21a.32.32,0,0,1,.63,0v2.21A.31.31,0,0,1,248.22,260.79Zm0-4.42a.32.32,0,0,1-.32-.32v-2.2a.32.32,0,1,1,.63,0v2.2A.31.31,0,0,1,248.22,256.37Zm0-4.42a.31.31,0,0,1-.32-.31v-2.21a.32.32,0,1,1,.63,0v2.21A.31.31,0,0,1,248.22,252Zm0-4.41a.32.32,0,0,1-.32-.32V245a.32.32,0,0,1,.63,0v2.21A.31.31,0,0,1,248.22,247.54Zm0-4.42a.32.32,0,0,1-.32-.32v-2.2a.32.32,0,1,1,.63,0v2.2A.31.31,0,0,1,248.22,243.12Zm0-4.42a.31.31,0,0,1-.32-.31v-2.21a.32.32,0,1,1,.63,0v2.21A.31.31,0,0,1,248.22,238.7Zm0-4.41a.32.32,0,0,1-.32-.32v-2.21a.32.32,0,0,1,.63,0V234A.31.31,0,0,1,248.22,234.29Zm0-4.42a.31.31,0,0,1-.32-.31v-2.21a.32.32,0,1,1,.63,0v2.21A.31.31,0,0,1,248.22,229.87Zm0-4.42a.31.31,0,0,1-.32-.31v-2.21a.32.32,0,1,1,.63,0v2.21A.31.31,0,0,1,248.22,225.45Zm0-4.41a.32.32,0,0,1-.32-.32v-2.21a.32.32,0,0,1,.63,0v2.21A.31.31,0,0,1,248.22,221Zm0-4.42a.31.31,0,0,1-.32-.31V215h-.31a.32.32,0,0,1,0-.63h.63a.31.31,0,0,1,.31.31v1.59A.31.31,0,0,1,248.22,216.62ZM245.38,215h-2.21a.32.32,0,0,1,0-.63h2.21a.32.32,0,1,1,0,.63Z"/><path class="cls-14" d="M251.42,287.16h-1.06a.32.32,0,1,1,0-.63h1.06a.32.32,0,0,1,0,.63Zm-3.27,0h-2.21a.32.32,0,0,1,0-.63h2.21a.32.32,0,1,1,0,.63Zm-4.41,0h-2.21a.32.32,0,1,1,0-.63h2.21a.32.32,0,0,1,0,.63Zm-4.42,0h-2.21a.32.32,0,0,1,0-.63h2.21a.32.32,0,0,1,0,.63Zm-4.42,0h-2.21a.32.32,0,0,1,0-.63h2.21a.32.32,0,1,1,0,.63Zm-4.41,0h-2.21a.32.32,0,1,1,0-.63h2.21a.32.32,0,0,1,0,.63Zm-4.42,0h-2.21a.32.32,0,0,1,0-.63h2.21a.32.32,0,0,1,0,.63Zm-4.42,0h-2.21a.32.32,0,0,1,0-.63h2.21a.32.32,0,1,1,0,.63Zm-4.41,0H215a.32.32,0,1,1,0-.63h2.21a.32.32,0,0,1,0,.63Zm-4.42,0h-2.21a.32.32,0,0,1,0-.63h2.21a.32.32,0,0,1,0,.63Zm-4.42,0h-2.21a.32.32,0,0,1,0-.63h2.21a.32.32,0,1,1,0,.63Zm-4.41,0h-2.21a.32.32,0,1,1,0-.63H204a.32.32,0,0,1,0,.63Zm-4.42,0h-2.21a.32.32,0,0,1,0-.63h2.21a.32.32,0,0,1,0,.63Zm-4.42,0h-2.21a.32.32,0,0,1,0-.63h2.21a.32.32,0,1,1,0,.63Zm-4.41,0h-2.21a.32.32,0,1,1,0-.63h2.21a.32.32,0,0,1,0,.63Zm-4.42,0h-2.21a.32.32,0,0,1,0-.63h2.21a.32.32,0,1,1,0,.63Zm-4.42,0h-2.21a.32.32,0,0,1,0-.63h2.21a.32.32,0,1,1,0,.63Zm-4.41,0h-2.21a.32.32,0,1,1,0-.63h2.21a.32.32,0,0,1,0,.63Zm-4.42,0h-2.21a.32.32,0,0,1,0-.63h2.21a.32.32,0,1,1,0,.63Zm-4.42,0h-2.21a.32.32,0,0,1,0-.63h2.21a.32.32,0,1,1,0,.63Zm-4.41,0H162a.32.32,0,1,1,0-.63h2.21a.32.32,0,0,1,0,.63Zm-4.42,0h-.2a.32.32,0,0,1-.32-.32v-2a.32.32,0,1,1,.64,0v1.71a.33.33,0,0,1,.2.29A.32.32,0,0,1,159.82,287.16Zm-.2-4.22a.32.32,0,0,1-.32-.31v-2.21a.32.32,0,1,1,.64,0v2.21A.32.32,0,0,1,159.62,282.94Zm0-4.41a.32.32,0,0,1-.32-.32V276a.32.32,0,0,1,.64,0v2.21A.32.32,0,0,1,159.62,278.53Zm0-4.42a.32.32,0,0,1-.32-.31v-2.21a.32.32,0,1,1,.64,0v2.21A.32.32,0,0,1,159.62,274.11Zm0-4.42a.32.32,0,0,1-.32-.31v-2.21a.32.32,0,1,1,.64,0v2.21A.32.32,0,0,1,159.62,269.69Zm0-4.41a.32.32,0,0,1-.32-.32v-2.21a.32.32,0,0,1,.64,0V265A.32.32,0,0,1,159.62,265.28Zm0-4.42a.32.32,0,0,1-.32-.31v-2.21a.32.32,0,1,1,.64,0v2.21A.32.32,0,0,1,159.62,260.86Zm0-4.42a.32.32,0,0,1-.32-.31v-2.21a.32.32,0,0,1,.64,0v2.21A.32.32,0,0,1,159.62,256.44Zm0-4.41a.32.32,0,0,1-.32-.32V249.5a.32.32,0,0,1,.64,0v2.21A.32.32,0,0,1,159.62,252Zm0-4.42a.32.32,0,0,1-.32-.31v-2.21a.32.32,0,0,1,.64,0v2.21A.32.32,0,0,1,159.62,247.61Zm0-4.42a.32.32,0,0,1-.32-.31v-2.21a.32.32,0,0,1,.64,0v2.21A.32.32,0,0,1,159.62,243.19Zm0-4.41a.32.32,0,0,1-.32-.32v-2.21a.32.32,0,0,1,.64,0v2.21A.32.32,0,0,1,159.62,238.78Zm0-4.42a.32.32,0,0,1-.32-.31v-2.21a.32.32,0,0,1,.64,0v2.21A.32.32,0,0,1,159.62,234.36Zm0-4.42a.32.32,0,0,1-.32-.31v-2.21a.32.32,0,0,1,.64,0v2.21A.32.32,0,0,1,159.62,229.94Zm0-4.41a.32.32,0,0,1-.32-.32V223a.32.32,0,0,1,.64,0v2.21A.32.32,0,0,1,159.62,225.53Zm0-4.42a.32.32,0,0,1-.32-.31v-2.21a.32.32,0,0,1,.64,0v2.21A.32.32,0,0,1,159.62,221.11Zm12.78-2.68h-2.21a.32.32,0,1,1,0-.63h2.21a.32.32,0,0,1,0,.63Zm-4.42,0h-2.21a.32.32,0,0,1,0-.63H168a.32.32,0,1,1,0,.63Zm-4.42,0h-2.2a.32.32,0,1,1,0-.63h2.2a.32.32,0,1,1,0,.63Z"/><path class="cls-14" d="M114,330.9h-2.21a.32.32,0,0,1,0-.63H114a.32.32,0,0,1,0,.63Zm-4.42,0H107.4a.32.32,0,0,1,0-.63h2.21a.32.32,0,1,1,0,.63Zm-4.41,0H103a.32.32,0,1,1,0-.63h2.21a.32.32,0,0,1,0,.63Zm-4.42,0H98.57a.32.32,0,0,1,0-.63h2.21a.32.32,0,1,1,0,.63Zm-4.42,0H94.15a.32.32,0,0,1,0-.63h2.21a.32.32,0,1,1,0,.63Zm-4.41,0H89.74a.32.32,0,1,1,0-.63H92a.32.32,0,0,1,0,.63Zm-4.42,0H85.32a.32.32,0,0,1,0-.63h2.21a.32.32,0,1,1,0,.63Zm-4.42,0h-2.2a.32.32,0,1,1,0-.63h2.2a.32.32,0,1,1,0,.63Zm-4.41,0H76.49a.32.32,0,1,1,0-.63H78.7a.32.32,0,0,1,0,.63Zm-4.42,0H72.07a.32.32,0,0,1,0-.63h2.21a.32.32,0,1,1,0,.63Zm-4.42,0h-2.2a.32.32,0,1,1,0-.63h2.2a.32.32,0,1,1,0,.63Zm-4.41,0H63.24a.32.32,0,1,1,0-.63h2.21a.32.32,0,0,1,0,.63Zm-4.42,0H58.82a.32.32,0,0,1,0-.63H61a.32.32,0,1,1,0,.63Zm-4.42,0h-2.2a.32.32,0,1,1,0-.63h2.2a.32.32,0,1,1,0,.63Zm-2.73-1.69a.31.31,0,0,1-.31-.31v-2.21a.32.32,0,0,1,.63,0v2.21A.31.31,0,0,1,53.88,329.21Zm0-4.41a.31.31,0,0,1-.31-.32v-2.21a.32.32,0,0,1,.63,0v2.21A.32.32,0,0,1,53.88,324.8Zm0-4.42a.31.31,0,0,1-.31-.31v-2.21a.32.32,0,1,1,.63,0v2.21A.31.31,0,0,1,53.88,320.38Zm0-4.42a.31.31,0,0,1-.31-.31v-2.21a.32.32,0,0,1,.63,0v2.21A.31.31,0,0,1,53.88,316Zm0-4.41a.31.31,0,0,1-.31-.32V309a.32.32,0,0,1,.63,0v2.21A.32.32,0,0,1,53.88,311.55Zm0-4.42a.31.31,0,0,1-.31-.31v-2.21a.32.32,0,1,1,.63,0v2.21A.31.31,0,0,1,53.88,307.13Zm0-4.41a.32.32,0,0,1-.31-.32v-2.21a.32.32,0,0,1,.63,0v2.21A.32.32,0,0,1,53.88,302.72Zm0-4.42a.31.31,0,0,1-.31-.32v-2.21a.32.32,0,0,1,.63,0V298A.32.32,0,0,1,53.88,298.3Zm0-4.42a.31.31,0,0,1-.31-.31v-2.21a.32.32,0,1,1,.63,0v2.21A.31.31,0,0,1,53.88,293.88Zm0-4.41a.32.32,0,0,1-.31-.32v-2.21a.32.32,0,0,1,.63,0v2.21A.32.32,0,0,1,53.88,289.47Zm0-4.42a.31.31,0,0,1-.31-.32v-2.21a.32.32,0,0,1,.63,0v2.21A.32.32,0,0,1,53.88,285.05Zm0-4.42a.31.31,0,0,1-.31-.31v-2.21a.32.32,0,1,1,.63,0v2.21A.31.31,0,0,1,53.88,280.63Zm0-4.41a.32.32,0,0,1-.31-.32v-2.21a.32.32,0,0,1,.63,0v2.21A.32.32,0,0,1,53.88,276.22Zm0-4.42a.31.31,0,0,1-.31-.32v-2.2a.32.32,0,1,1,.63,0v2.2A.32.32,0,0,1,53.88,271.8Zm0-4.42a.31.31,0,0,1-.31-.31v-2.21a.32.32,0,1,1,.63,0v2.21A.31.31,0,0,1,53.88,267.38Zm0-4.41a.32.32,0,0,1-.31-.32v-2.21a.32.32,0,0,1,.63,0v2.21A.32.32,0,0,1,53.88,263Zm0-4.42a.31.31,0,0,1-.31-.32V256a.32.32,0,1,1,.63,0v2.2A.32.32,0,0,1,53.88,258.55Zm0-4.42a.31.31,0,0,1-.31-.31v-2.21a.32.32,0,1,1,.63,0v2.21A.31.31,0,0,1,53.88,254.13Zm0-4.41a.32.32,0,0,1-.31-.32v-2.21a.32.32,0,0,1,.63,0v2.21A.32.32,0,0,1,53.88,249.72Zm0-4.42a.31.31,0,0,1-.31-.32v-2.2a.32.32,0,1,1,.63,0V245A.32.32,0,0,1,53.88,245.3Zm0-4.42a.31.31,0,0,1-.31-.31v-2.21a.32.32,0,1,1,.63,0v2.21A.31.31,0,0,1,53.88,240.88Zm0-4.41a.32.32,0,0,1-.31-.32v-2.21a.32.32,0,0,1,.63,0v2.21A.32.32,0,0,1,53.88,236.47Zm0-4.42a.31.31,0,0,1-.31-.32v-2.2a.32.32,0,1,1,.63,0v2.2A.32.32,0,0,1,53.88,232.05Zm0-4.42a.31.31,0,0,1-.31-.31v-2.21a.32.32,0,1,1,.63,0v2.21A.31.31,0,0,1,53.88,227.63Zm0-4.41a.31.31,0,0,1-.31-.32v-2.21a.32.32,0,0,1,.63,0v2.21A.32.32,0,0,1,53.88,223.22Zm7.58-3.47H59.25a.32.32,0,0,1-.32-.32.31.31,0,0,1,.32-.31h2.21a.31.31,0,0,1,.31.31A.32.32,0,0,1,61.46,219.75Zm-4.42,0H54.83a.32.32,0,0,1-.31-.32.31.31,0,0,1,.31-.31H57a.31.31,0,0,1,.31.31A.32.32,0,0,1,57,219.75Z"/><path d="M623.81,206.72H514.94a10.15,10.15,0,0,1-10.15-10.15h0a10.15,10.15,0,0,1,10.15-10.14H623.81A10.14,10.14,0,0,1,634,196.57h0a10.14,10.14,0,0,1-10.14,10.15Z"/><path d="M695.88,227.82H509.31a4.53,4.53,0,0,1-4.52-4.53h0a4.52,4.52,0,0,1,4.52-4.52H695.88a4.52,4.52,0,0,1,4.52,4.52h0a4.52,4.52,0,0,1-4.52,4.53Z"/><path class="cls-4" d="M623,202.93H514.09A10.15,10.15,0,0,1,504,192.79h0a10.15,10.15,0,0,1,10.14-10.15H623a10.14,10.14,0,0,1,10.14,10.15h0A10.12,10.12,0,0,1,623,202.93Z"/><path class="cls-4" d="M695,224H508.47a4.51,4.51,0,0,1-4.52-4.52h0a4.52,4.52,0,0,1,4.52-4.52H695a4.46,4.46,0,0,1,3.19,1.32,4.51,4.51,0,0,1,1.33,3.2h0A4.52,4.52,0,0,1,695,224Z"/><circle class="cls-5" cx="735.14" cy="268.62" r="2.39"/><circle class="cls-5" cx="730.96" cy="283.55" r="2.39"/><circle class="cls-5" cx="726.77" cy="298.47" r="2.39"/><circle class="cls-5" cx="722.58" cy="313.4" r="2.39"/><circle class="cls-5" cx="718.39" cy="328.33" r="2.39"/><circle class="cls-5" cx="714.2" cy="343.25" r="2.39"/><circle class="cls-5" cx="710.01" cy="358.18" r="2.39"/><path d="M755.08,272.86a1.13,1.13,0,0,0,.56-.68,1.19,1.19,0,0,0-.11-.88,1.14,1.14,0,0,0-1.48-.47,16.79,16.79,0,0,0-1.48.84,4.32,4.32,0,0,1-1.28.55,1.09,1.09,0,0,0-.49,2,2.86,2.86,0,0,1,.75,1,11,11,0,0,0,.79,1.36,1.21,1.21,0,0,0,.61.42,1.14,1.14,0,0,0,.88-.12,1.19,1.19,0,0,0,.54-.69,1.12,1.12,0,0,0-.18-.95,10.71,10.71,0,0,1-.54-1l-.28-.49C754.11,273.42,754.68,273.11,755.08,272.86Z"/><path d="M761.6,271.82c-.56-.18-1.05.33-1.82,1.39a19.72,19.72,0,0,1-1.78,2,22,22,0,0,0-1.88,2.16,1,1,0,0,0-.15.31.87.87,0,0,0,.11.75,1,1,0,0,0,.56.42,1,1,0,0,0,1-.33l1.13-1.36,1.3-1.37a15.43,15.43,0,0,0,1.25-1.5l.73-.93,0,0a1.23,1.23,0,0,0,.19-.38.92.92,0,0,0-.11-.74A1,1,0,0,0,761.6,271.82Z"/><path d="M768.27,276.66a9.22,9.22,0,0,1-1.74-2.61,1.16,1.16,0,0,0-.72-.63,1.13,1.13,0,0,0-.86.11,1.08,1.08,0,0,0-.56.68c-.1.36,0,.83.66,2,.21.34.4.63.57.88l-2.08.83a1.1,1.1,0,0,0-.7.74,1.13,1.13,0,0,0,.1.86,1.07,1.07,0,0,0,.69.57,1.18,1.18,0,0,0,.67,0,22.66,22.66,0,0,0,3.73-1.52,1.21,1.21,0,0,0,.63-.73A1.11,1.11,0,0,0,768.27,276.66Z"/><path d="M782.57,299.09,746.72,289a1,1,0,0,1,.55-1.95l35.85,10.06a1,1,0,1,1-.55,1.95Z"/><path class="cls-3" d="M867.25,322.86l-72.12-20.24a1,1,0,0,1,.55-1.95l72.11,20.24a1,1,0,0,1,.7,1.25A1,1,0,0,1,867.25,322.86Z"/><path class="cls-5" d="M770,343.86,734.15,333.8a1,1,0,1,1,.55-1.94l35.85,10.06a1,1,0,1,1-.55,1.94Z"/><path d="M902,380.93l-35.85-10.06a1,1,0,0,1,.55-1.95L902.58,379a1,1,0,0,1,.7,1.25A1,1,0,0,1,902,380.93Z"/><path d="M854.68,367.64l-72.12-20.25a1,1,0,1,1,.55-1.94l72.11,20.24a1,1,0,0,1-.54,1.95Z"/><path class="cls-3" d="M821.7,326.18,742.53,304a1,1,0,1,1,.55-1.94l79.17,22.22a1,1,0,1,1-.55,1.95Z"/><path d="M865.73,338.54,833,329.36a1,1,0,0,1-.7-1.25,1,1,0,0,1,1.24-.7l32.71,9.18a1,1,0,0,1-.55,2Z"/><path class="cls-5" d="M809.13,371,730,348.73a1,1,0,1,1,.55-2L809.68,369a1,1,0,0,1,.7,1.24A1,1,0,0,1,809.13,371Z"/><path class="cls-5" d="M853.16,383.31l-32.7-9.18a1,1,0,0,1,.54-1.95l32.71,9.19a1,1,0,1,1-.55,1.94Z"/><path class="cls-3" d="M907.28,350.2,874.57,341a1,1,0,0,1,.55-1.95l32.7,9.18a1,1,0,0,1-.54,1.95Z"/><path class="cls-3" d="M760.5,325.1l-22.16-6.22a1,1,0,1,1,.55-1.95l22.16,6.22a1,1,0,0,1-.55,2Z"/><path class="cls-3" d="M803.93,337.29l-32.7-9.18a1,1,0,0,1,.54-1.95l32.71,9.18a1,1,0,0,1-.55,2Z"/><path class="cls-3" d="M866.12,354.75l-53.35-15a1,1,0,0,1,.55-1.95l53.34,15a1,1,0,0,1-.54,1.95Z"/><path d="M747.93,369.87l-22.16-6.22a1,1,0,1,1,.55-1.94l22.16,6.22a1,1,0,1,1-.55,1.94Z"/><path class="cls-5" d="M791.36,382.06l-32.7-9.18a1,1,0,0,1,.54-1.94l32.71,9.18a1,1,0,1,1-.55,1.94Z"/><path class="cls-5" d="M853.55,399.52l-53.35-15a1,1,0,0,1,.55-1.95l53.34,15a1,1,0,0,1-.54,1.94Z"/><path class="cls-4" d="M460.25,535c0-1.59,0-3.18,0-4.77l-.92-.55a18.36,18.36,0,0,1,.92-31.72v-5a.92.92,0,0,0-.88.13,25.87,25.87,0,0,0-5.89,3.93,22.58,22.58,0,0,0-5.53,7.73,17.93,17.93,0,0,0-1.72,7.16h-.07v4l.07.1a13.66,13.66,0,0,0,.32,3.12,23,23,0,0,0,7.8,12.68,20.92,20.92,0,0,0,5.77,3.47C460.42,535.37,460.25,535.14,460.25,535Z"/><path class="cls-4" d="M441.41,530.18c-.44-.36-.94-.19-1.42-.15-2.47.19-4.14-.94-4.72-3.07a9.39,9.39,0,0,1-.24-1.05,41.19,41.19,0,0,1-.12-5,10.76,10.76,0,0,0-2-6.3.68.68,0,0,1,0-.95,10.66,10.66,0,0,0,2-6.24c0-1.21,0-2.42,0-3.63a8.66,8.66,0,0,1,.32-2.32c.64-2.38,2.3-3.37,4.83-3.2.46,0,.93.21,1.35-.15v-4.57c0-.12,0-.16-.14-.14h-3.22a.2.2,0,0,1,0,.07h0a7.18,7.18,0,0,0-5.62,2.71c-2.2,2.51-2.69,5.59-2.56,8.8a13.49,13.49,0,0,1-.29,4.06,3.3,3.3,0,0,1-2.86,2.65,1.44,1.44,0,0,0-.88.28v4.31a1.44,1.44,0,0,0,.88.28,3.31,3.31,0,0,1,2.86,2.65,11.15,11.15,0,0,1,.32,3.73,13.17,13.17,0,0,0,1.09,6.88c1.41,2.95,3.63,4.84,7.06,5h0a.2.2,0,0,1,0,.07h3.22c.12,0,.16,0,.14-.14Z"/><path class="cls-4" d="M419.29,530.38a1.3,1.3,0,0,0-1-.26h-3.83c-.74,0-.78-.06-.8-.81,0-.18,0-.36,0-.54V507.37c0-2.78,0-5.56,0-8.34,0-.75.06-.81.8-.81h3.83a1.3,1.3,0,0,0,1-.26c0-1.39,0-2.78,0-4.17,0-.33-.07-.41-.41-.41-3.22,0-6.44,0-9.67,0-.46,0-.55.1-.55.56,0,7.46,0,14.93,0,22.4q0,9.07,0,18.16c0,.22-.15.49.33.49,3.31,0,6.63,0,9.94,0,.29,0,.35-.06.34-.34C419.28,533.2,419.29,531.79,419.29,530.38Z"/></svg>