<svg xmlns="http://www.w3.org/2000/svg" viewBox="0 0 946.52 939.81"><defs><style>.cls-1{fill:#e5e5e5;}.cls-2{fill:#565656;}.cls-3{fill:#c6c6c6;}.cls-4{fill:#9b9898;}.cls-5{fill:#fff929;}.cls-6{fill:#fea996;}.cls-7{fill:#ffc9c0;}.cls-8{fill:#f98f7d;}.cls-9{fill:#08193f;}.cls-10{fill:#0f1e55;}.cls-11{fill:#c49a26;}.cls-12{fill:#f2c32d;}.cls-13{fill:#fff;}.cls-14{fill:#b5b5b5;}.cls-15{fill:#161616;}.cls-16{fill:#ffdd79;}.cls-17{fill:#ffa401;}.cls-18{fill:#f7c121;}.cls-19{fill:none;stroke:#fff;stroke-miterlimit:10;stroke-width:1.58px;}.cls-20{fill:#b7b2b2;}</style></defs><g id="Layer_1" data-name="Layer 1"><ellipse class="cls-1" cx="439.29" cy="862.61" rx="439.29" ry="77.21"/><rect class="cls-2" x="252.44" y="568.47" width="433.91" height="19.86" transform="translate(1047.8 109.01) rotate(90)"/><path class="cls-3" d="M417.73,853.63A8.63,8.63,0,0,1,409.1,845v-.08a60.3,60.3,0,0,1,120.59,0,8.63,8.63,0,0,1-17.26,0,43,43,0,1,0-86.07,0V845A8.63,8.63,0,0,1,417.73,853.63Z"/><rect class="cls-1" x="112.4" y="13.85" width="706.14" height="514.71"/><polygon class="cls-4" points="113.19 15.65 817.2 34.83 817.64 13.85 113.19 15.65"/><rect class="cls-3" x="106.05" width="726.68" height="15.65"/><rect class="cls-3" x="106.05" y="516.39" width="726.68" height="15.65"/><rect class="cls-5" x="180.75" y="492.58" width="85.96" height="56.29" rx="5.03"/><path class="cls-2" d="M230.08,517.78H192.46a2.15,2.15,0,1,1,0-4.29h37.62a2.15,2.15,0,0,1,0,4.29Z"/><path class="cls-2" d="M250.36,517.78H238.65a2.15,2.15,0,0,1,0-4.29h11.71a2.15,2.15,0,0,1,0,4.29Z"/><path class="cls-2" d="M250.36,530.47H238.65a2.15,2.15,0,0,1,0-4.29h11.71a2.15,2.15,0,0,1,0,4.29Z"/><path class="cls-2" d="M230.08,530.47H211a2.15,2.15,0,0,1,0-4.29h19a2.15,2.15,0,0,1,0,4.29Z"/><path class="cls-6" d="M153.85,868c-9.51,0-21-.11-30.87-.34-11.06-.26-20.1-.62-22.12-.94-5.06-.79-5.63-68.23-9-91.78-.62-4.32-1-7.16-1-7.84,0-1.88,8.9-1.36,19.07-.14,8.23,1,17.29,2.41,23.13,3.38,3.77.62,6.19,1.06,6.19,1.06,1.06,3,1.4,20.51,1.58,31.91.05,3.57.09,6.55.13,8.3a345.3,345.3,0,0,0,3.31,38c.93,4.66,16,10.78,24.1,14.47l1.33.62c2,.94,3.35,1.68,3.61,2.14C173.82,867.66,165.25,868,153.85,868Z"/><path class="cls-7" d="M168.43,864.12c-.52.09-1.07.17-1.65.25-10.55,1.53-9.85-3.28-23.09-6.44s-6.49-9.11-7.64-21.92c-.79-8.9,1.87-19.75,4.84-32.66.05,3.57.09,6.55.13,8.3a345.3,345.3,0,0,0,3.31,38C145.26,854.31,160.37,860.43,168.43,864.12Z"/><path class="cls-8" d="M113.76,822.57c.67,19.58,3.94,35.6,9.22,45.13-11.06-.26-20.1-.62-22.12-.94-5.06-.79-5.63-68.23-9-91.78-.62-4.32-1-7.16-1-7.84,0-1.88,8.9-1.36,19.07-.14,8.23,1,17.29,2.41,23.13,3.38C132.41,794.37,112.94,798.8,113.76,822.57Z"/><path class="cls-9" d="M100.86,866.76c-2.45-.51-5.1,0-3.7,1.29s59.26,2.09,67.5,2.25,13.83-2.44,8.71-3.42S100.86,866.76,100.86,866.76Z"/><path class="cls-9" d="M153.88,857.33c2.54-.72-7.42,9.92-21,10.56l8.39.16s15.55-5.41,15.3-9.36S153.88,857.33,153.88,857.33Z"/><path class="cls-6" d="M102.29,868c-9.51,0-21-.11-30.87-.34-11.06-.26-20.1-.62-22.12-.94-5.06-.79-5.63-68.23-9-91.78-.62-4.32-1-7.16-1-7.84,0-1.88,8.91-1.36,19.08-.14,8.23,1,17.29,2.41,23.13,3.38,3.77.62,6.19,1.06,6.19,1.06,1.06,3,1.4,20.51,1.58,31.91,0,3.57.09,6.55.13,8.3a345.3,345.3,0,0,0,3.31,38c.93,4.66,16,10.78,24.1,14.47l1.33.62c2,.94,3.35,1.68,3.61,2.14C122.26,867.66,113.69,868,102.29,868Z"/><path class="cls-7" d="M116.87,864.12c-.52.09-1.07.17-1.65.25-10.55,1.53-9.85-3.28-23.09-6.44s-6.49-9.11-7.64-21.92c-.79-8.9,1.87-19.75,4.84-32.66,0,3.57.09,6.55.13,8.3a345.3,345.3,0,0,0,3.31,38C93.7,854.31,108.81,860.43,116.87,864.12Z"/><path class="cls-8" d="M62.2,822.57c.67,19.58,3.94,35.6,9.22,45.13-11.06-.26-20.1-.62-22.12-.94-5.06-.79-5.63-68.23-9-91.78-.62-4.32-1-7.16-1-7.84,0-1.88,8.91-1.36,19.08-.14,8.23,1,17.29,2.41,23.13,3.38C80.84,794.37,61.38,798.8,62.2,822.57Z"/><path class="cls-10" d="M49.3,866.76c-2.45-.51-5.1,0-3.7,1.29s59.26,2.09,67.5,2.25,13.83-2.44,8.71-3.42S49.3,866.76,49.3,866.76Z"/><path class="cls-10" d="M102.32,857.33c2.54-.72-7.42,9.92-21,10.56l8.39.16s15.55-5.41,15.3-9.36S102.32,857.33,102.32,857.33Z"/><path class="cls-11" d="M157.22,783.62c2.15,2.34,3.41,6.82,3.24,11.44,0,.07,0,.14,0,.22,0,.24,0,.49,0,.73l0,.36-.06.48c0,.16,0,.33-.06.49s-.05.32-.07.48-.07.38-.11.57-.06.34-.1.5c-.08.36-.17.72-.27,1.07l-.14.47c-.12.37-.24.73-.38,1.09-.05.14-.11.27-.16.41l0,.09-.17.39-.2.42c-.06.13-.12.26-.19.39-.22.41-.45.82-.71,1.21l-.22.33a12.37,12.37,0,0,1-1.49,1.81l-.34.33a11.47,11.47,0,0,1-1.85,1.42l-.36.22-.1.06c-.12.07-.24.14-.37.2a11.8,11.8,0,0,1-1.35.61l-.49.17-.39.13c-.4.12-.83.23-1.26.32l-.36.07c-.5.08-1,.15-1.55.19l-.38,0-.44,0h-.6c-6.77,0-12.74-1.07-19.15-2.1-8.93-1.44-18.7-2.82-32.62-1.18,0,0-23.92-12.19-21.57-84.4S82.67,501.36,98.61,486s23.91-6.2,41.73,20.05c10.89,16.06,14.25,48.07,13.27,75.12-.63,17.2-3,32.39-6.31,40.22a31.14,31.14,0,0,0-1.3,3.79c-1.52,5.4-2.17,12.21-2.1,19.73V645c0,.79,0,1.59,0,2.4,0,.52,0,1,.05,1.56,0,.15,0,.31,0,.47s0,.56,0,.84q.09,1.9.24,3.84c.06.73.12,1.45.19,2.18.12,1.36.26,2.72.42,4.1,0,.28.06.56.1.84.17,1.48.37,3,.59,4.48l.18,1.19c.12.79.24,1.58.38,2.37.06.35.11.7.17,1,.28,1.63.58,3.26.91,4.88l.24,1.19c0,.16.06.33.1.49.08.4.16.8.25,1.2l.18.83c.08.33.15.66.23,1s.17.79.26,1.17.18.77.28,1.16.18.77.28,1.15c.33,1.37.68,2.73,1.05,4.07.1.38.2.76.31,1.14.25.9.51,1.79.77,2.67l.33,1.1c.69,2.26,1.42,4.46,2.19,6.58l.27.76.43,1.14c.1.29.21.57.33.85.75,2,1.54,3.84,2.35,5.61l.63,1.33c.89,1.85,1.81,3.59,2.75,5.17,13.1,22,0,23.91-6.07,38.45S151.59,777.53,157.22,783.62Z"/><path class="cls-12" d="M157.22,783.62c2.15,2.34,3.41,6.82,3.24,11.44,0,.07,0,.14,0,.22,0,.24,0,.49,0,.73l0,.36-.06.48c0,.16,0,.33-.06.49s-.05.32-.07.48-.07.38-.11.57-.06.34-.1.5c-.08.36-.17.72-.27,1.07l-.14.47c-.12.37-.24.73-.38,1.09-.05.14-.11.27-.16.41l0,.09-.17.39-.2.42c-.06.13-.12.26-.19.39-.22.41-.45.82-.71,1.21l-.22.33a12.37,12.37,0,0,1-1.49,1.81l-.34.33a11.47,11.47,0,0,1-1.85,1.42l-.36.22-.1.06c-.12.07-.24.14-.37.2a11.8,11.8,0,0,1-1.35.61l-.49.17-.39.13c-.4.12-.83.23-1.26.32l-.36.07c-.5.08-1,.15-1.55.19l-.38,0-.44,0h-.6c-6.77,0-12.74-1.07-19.15-2.1,12.91-28.25-14-86.13-7.63-110,6.89-25.79-4.83-81,1.42-84.71,3.55-2.13,21.26-24.55,32.81-32.41-.63,17.2-3,32.39-6.31,40.22a31.14,31.14,0,0,0-1.3,3.79c-1.52,5.4-2.17,12.21-2.1,19.73V645c0,.79,0,1.59,0,2.4,0,.52,0,1,.05,1.56,0,.15,0,.31,0,.47s0,.56,0,.84q.09,1.9.24,3.84c.06.73.12,1.45.19,2.18.12,1.36.26,2.72.42,4.1,0,.28.06.56.1.84.17,1.48.37,3,.59,4.48l.18,1.19c.12.79.24,1.58.38,2.37.06.35.11.7.17,1,.28,1.63.58,3.26.91,4.88l.24,1.19c0,.16.06.33.1.49.08.4.17.8.25,1.2l.18.83c.08.34.15.66.23,1s.17.78.26,1.17.18.77.28,1.16.18.77.28,1.15c.33,1.37.68,2.73,1.05,4.07.1.38.2.76.31,1.14.25.9.51,1.79.77,2.67l.33,1.1c.69,2.26,1.42,4.46,2.19,6.58l.27.76.43,1.14c.1.29.21.57.33.85.75,2,1.54,3.84,2.35,5.61l.63,1.33c.89,1.85,1.81,3.59,2.75,5.17,13.1,22,0,23.91-6.07,38.45S151.59,777.53,157.22,783.62Z"/><path class="cls-5" d="M157.22,783.62c3.32,3.61,4.52,12.29,1.59,18.79-6.64-2.49-8.39-9.87-11.29-21-3.75-14.37-7.18-31.25-2.18-46.26s-4.69-15-12.51-45.64c-7-27.39,1-32.78,11.07-44.57.22,23.21,7.25,53.13,16.57,68.8,13.1,22,0,23.91-6.07,38.45S151.59,777.53,157.22,783.62Z"/><path class="cls-12" d="M101.25,622.84c-3,14.39-3.6,32.78,2.2,61.38,8.44,41.58-6.87,56.58-4.06,72.21s-.63,16.88-3.75,27.51c-2.15,7.31,5.77,12,10,17.21,1.91,2.38,3.07,4.87,2.19,7.79-1.43,4.77-18,7.2-35.61,7.6-17,.4-35-1.09-41.36-4.16-12.88-6.25,5.7-31.88,0-46s-4.86-30.55,0-69S24.59,629.68,23.18,603s10.55-37.27,15.47-88.54c0,0,16.67-13.06,39.17-17.12s24,1.82,30.3,17.12c5.06,12.29,5.23,52.09,1.7,76.34a74.79,74.79,0,0,1-3.24,14.38A119.93,119.93,0,0,0,101.25,622.84Z"/><path class="cls-11" d="M51.57,579.82c-7.82,19.38-12.51,45.95,0,71.27s16.23,32.82,16.08,56.26S55.94,733.3,56.56,765.81c.4,20.36,11,38.89,15.66,50.73-17,.4-35-1.09-41.36-4.16-12.88-6.25,5.7-31.88,0-46s-4.86-30.55,0-69S24.59,629.68,23.18,603s10.55-37.27,15.47-88.54c0,0,16.67-13.06,39.17-17.12s24,1.82,30.3,17.12c5.06,12.29,5.23,52.09,1.7,76.34C79.81,587.54,58.87,561.71,51.57,579.82Z"/><path class="cls-5" d="M105.64,801.15c-3.36,0-8.64.29-17.11.29-17.35,0-9.85-19.22-3-37.51s6.8-40.09,2.34-48.53-8.67-55.09-2.11-76.66c4.56-15,10.37-12,15.54-15.9-3,14.39-3.6,32.78,2.2,61.38,8.44,41.58-6.87,56.58-4.06,72.21s-.63,16.88-3.75,27.51C93.49,791.25,101.41,795.9,105.64,801.15Z"/><rect class="cls-13" x="48.36" y="306.92" width="15.77" height="9" rx="3.04"/><rect x="91.53" y="362.65" width="23.07" height="9" rx="3.04"/><rect x="68.69" y="394.13" width="72.9" height="9" rx="3.04" transform="translate(210.27 797.26) rotate(180)"/><path class="cls-6" d="M230,290.67c-8.57,7.76-15.14,29.7-23.3,50.58-5.06,12.95-10.73,25.5-17.86,34a32.48,32.48,0,0,1-10.41,8.59c-1,.48-2,.93-3,1.35a143.5,143.5,0,0,1-7.65-24.07,106.52,106.52,0,0,1-2.62-16A38.36,38.36,0,0,0,176.35,338c6.27-5.57,12-13.7,17.55-24.84q4.33-8.75,8-16.28c8.89-18,15.54-30.7,22.9-37.45,3.8-3.5,7.8-5.4,12.4-5.59C253.18,253.18,246.3,276,230,290.67Z"/><path class="cls-8" d="M201.94,296.89c-.6,8.93-2.54,20.56-8,30.05-10.53,18.14-3.55,36.58-9.49,51,0,0-8.17-8.1-16.58-16.79a106.52,106.52,0,0,1-2.62-16A38.36,38.36,0,0,0,176.35,338c6.27-5.57,12-13.7,17.55-24.84Q198.24,304.42,201.94,296.89Z"/><path class="cls-7" d="M230,290.67c-8.57,7.76-15.14,29.7-23.3,50.58.93-8.73,1.51-17.18,4.86-26.15,6.57-17.54,11.26-22.45,13.76-45.47a31.93,31.93,0,0,0-.52-10.19c3.8-3.5,7.8-5.4,12.4-5.59C253.18,253.18,246.3,276,230,290.67Z"/><path class="cls-3" d="M175.48,385.18c-25.76,10.75-57,1.78-57,1.78V340.39c15.58,6,28.32,8.68,39.27,6.8a36.22,36.22,0,0,0,7.49-2.11C166,357,171.07,375.25,175.48,385.18Z"/><path class="cls-3" d="M191.29,386c0,4.07-5.32,10-11.57,5.94a8.77,8.77,0,0,1-2.3-2.9,38.79,38.79,0,0,1-1.94-3.88c-4.41-9.93-9.45-28.19-10.27-40.1-.42-6,.25-10.46,2.63-11.32l3.2-.07,1.8,0c.93,0,2.15,1.63,3.51,4.35,4.07,8.09,9.46,25.67,12.53,37.23A79.7,79.7,0,0,1,191.29,386Z"/><path class="cls-14" d="M175.48,385.18c-25.76,10.75-57,1.78-57,1.78V372.24a10.78,10.78,0,0,1,1.84-1.22c5.85-2.95,32.06-6.45,37.43-23.83a36.22,36.22,0,0,0,7.49-2.11C166,357,171.07,375.25,175.48,385.18Z"/><path class="cls-13" d="M166.12,523.4c-11.61,4.45-24.23,1.87-36.65-2-17.69-5.55-35-13.79-48.37-8.28-3.84,1.57-7.9,3.32-12,5.06-4.84,2.05-9.73,4.07-14.38,5.77-14.84,5.42-27.26,7.47-27.86-3.8-.94-17.82,21.57-80.33,25.79-114.25,3.12-25.15,22.21-47.23,34.55-77.28a46,46,0,0,0,11.2,3.94h0a59,59,0,0,0,15.68,1.13,75.73,75.73,0,0,0,12.7-1.81c2,17.95,6.6,39,14.79,62.93q2.73,8,4.71,14.66c9.61,32.38,7.31,43.48,7.31,43.48Z"/><path class="cls-1" d="M54.73,523.92c-14.84,5.42-31.06,20.6-31.66,9.33-.94-17.82,25.37-93.46,29.59-127.38,3.12-25.15,22.21-47.23,34.55-77.28a46,46,0,0,0,11.2,3.94h0c-5,10.82-9.66,13-7.32,21.92s-.09,65.73,10,81.8,3.35,35.05,14.71,47.26c7.51,8.09,21.46,22.62,13.64,37.86-17.69-5.55-35-13.79-48.37-8.28-3.84,1.57-7.9,3.32-12,5.06"/><path class="cls-6" d="M126.8,331.85a75.88,75.88,0,0,1-12.7,1.81,59,59,0,0,1-15.68-1.13,45.88,45.88,0,0,1-11.21-3.94,138.4,138.4,0,0,0,9.48-34.78h29.59q-.32,2.87-.51,6c-.08,1.32-.15,2.67-.2,4-.13,3.55-.13,7.32,0,11.28C125.72,320.33,126.12,325.92,126.8,331.85Z"/><path class="cls-8" d="M125.77,299.78c-.08,1.32-.15,2.67-.2,4-6.44,12.94-19.38,15.18-22.74,22.34a26.44,26.44,0,0,1-4.41,6.37,45.88,45.88,0,0,1-11.21-3.94,138.4,138.4,0,0,0,9.48-34.78h22.25A41.66,41.66,0,0,1,125.77,299.78Z"/><path class="cls-7" d="M126.8,331.85a75.88,75.88,0,0,1-12.7,1.81c-2.24-7.23,7.82-11.8,11.46-18.56C125.72,320.33,126.12,325.92,126.8,331.85Z"/><path class="cls-6" d="M147.26,290.67s0,0,0,0c-.33.36-.65.69-1,1a38.52,38.52,0,0,1-5.55,4.51,45.88,45.88,0,0,1-4.35,2.61c-9.53,6.18-20.93,7.29-30.3,5.77-6.3-1-11.7-3.27-15-5.95.59-4.91,1.29-9.85,2.16-14.82,0,0-.08-.55-.16-1.52a188.68,188.68,0,0,1-1.14-19.58c0-6.84.61-13.19,2.61-15.35,5-5.29,24.52-17.55,24.52-17.55,5.09-1,8.56.1,11.12,1.9,3.55,2.53,5.4,6.41,7.47,7.9a10.31,10.31,0,0,0,5,1.29c3.37.26,6.81.28,7.07,3.7a14,14,0,0,1-.11,2.87,49.66,49.66,0,0,1-1.19,5.49c-.1.38-.2.74-.28,1.09-.45,2-.75,3.47-.2,4.08a25.26,25.26,0,0,1,2.56,4.23,5.18,5.18,0,0,1,.28.58c.08.15.15.31.23.46a1.62,1.62,0,0,0,.23.5C154,270.33,156.12,281,147.26,290.67Z"/><path class="cls-8" d="M106.28,304.17c-.08.15-.16.3-.26.45-6.3-1-11.7-3.27-15-5.95.59-4.91,1.29-9.85,2.16-14.82,0,0-.08-.55-.16-1.52a38.58,38.58,0,0,1,13.81-9C109.75,278.71,109,298.57,106.28,304.17Z"/><path class="cls-12" d="M129,226.74s4,11.44-8.29,16.31a21.49,21.49,0,0,1-3.14,1s-4.3,9.55-13.8,13.12a20.53,20.53,0,0,1-8.59,1.32c-13.25-.69,1.65,9.14,6.23,12,.79.51,1.27.79,1.27.79s8.89,24.14-1.19,32.32c-4.46,3.6-9.5,2.46-14-.74h0a36.57,36.57,0,0,1-12.16-16c-2.88-8.56-9.44-20.8-1.92-25.66,0,0-6.87-7-6.38-19.18s10.28-10.94,10.28-10.94c-.23-1.54-.38-3.09-.51-4.66v-.07a51.91,51.91,0,0,1,0-8.64c.59-6.89,2.76-12.34,7.4-12.79a6.5,6.5,0,0,1,7.12,4l0,0a10.26,10.26,0,0,1,.84,3.16,41.76,41.76,0,0,1,3.8-9.85c2.4-4.3,6-8.51,11.22-9,7.34-.68,9.65,6,10.33,10.51a23.18,23.18,0,0,1,.33,4s.43-.33,1.22-.84c3.24-2.15,12.41-7.34,18.46-2.58C144.93,210.22,134.85,225.16,129,226.74Z"/><path class="cls-7" d="M149.56,247.51a49.66,49.66,0,0,1-1.19,5.49c-2.48-3.14-1.47-3.6-1.47-5.72,0-1.93-.81-4.08-4.3-6.34,3.37.26,6.81.28,7.07,3.7A14,14,0,0,1,149.56,247.51Z"/><path class="cls-7" d="M147.26,290.67c4.23-8.31,5.77-21.89,3.47-27.69.08.15.15.31.23.46a1.62,1.62,0,0,0,.23.5C154,270.33,156.12,281,147.26,290.67Z"/><path class="cls-5" d="M129,226.74s4,11.44-8.29,16.31a28.86,28.86,0,0,1,3.88-5.8c3.9-4.44-.53-9.83,3.27-11.6s4.53-3.7,6.76-11.73-9.5-9-15.55-7c3.24-2.15,12.41-7.34,18.46-2.58C144.93,210.22,134.85,225.16,129,226.74Z"/><path class="cls-11" d="M109.75,251a26.82,26.82,0,0,0-6,6.15c-3.52,5-4.23,10-2.66,12.61a3.15,3.15,0,0,1,.3.71c1.27,4-3.87,11.58-6.81,22.72a15.61,15.61,0,0,1-7.09,9.65h0a36.57,36.57,0,0,1-12.16-16c-2.88-8.56-9.44-20.8-1.92-25.66,0,0-6.87-7-6.38-19.18s10.28-10.94,10.28-10.94c-.23-1.54-.38-3.09-.51-4.66v-.07c0-4.84,15.28-3.73,21.61-4.84s-9,6.65-5.21,15.51S118.31,244.59,109.75,251Z"/><path class="cls-6" d="M111.26,258.48C100,248.2,87.43,247.59,88.5,261.79S109.36,275,109.36,275Z"/><path class="cls-8" d="M101.32,254.23s-7.54-2.36-9.41,4.7,4.55,12.3,9.67,13.56c0,0-9.31-2.06-8-11S101.32,254.23,101.32,254.23Z"/><path class="cls-8" d="M95.53,265.24c1.68,3.78,6.79,5.83,8.52,3.21a4.62,4.62,0,0,0,0-5.07s1.27,4.09-.9,5S98.05,267.94,95.53,265.24Z"/><path class="cls-8" d="M99,260.79c-1.25,2.25-.62,5.95,1.6,4.7s2-3.62,2.83-3.66,1.34-3-.77-3.16S99,260.79,99,260.79Z"/><path class="cls-6" d="M181.64,539.87c-17.44,3.43-49-1.27-64.12-11.31-24.07-15.94-40.95-52.2-46.59-105.17l3-.65,24.54-5.33,20.61-4.47s-6.86,34.35,10.54,71.54,46.68,18.14,62,40.33a11.41,11.41,0,0,1,2.28,5.67C194.17,535.32,189.24,538.37,181.64,539.87Z"/><path class="cls-7" d="M193.88,530.48c-2.56-2.46-5.21-5.38-7.59-7.23-7.35-5.73-39.08-1.26-50-17.2S109.7,489.8,102.2,465.11s-3.44-30.64-5.51-44.39c0,0,.58-1.26,1.76-3.31l20.61-4.47s-6.86,34.35,10.54,71.54,46.68,18.14,62,40.33A11.41,11.41,0,0,1,193.88,530.48Z"/><path class="cls-8" d="M181.64,539.87c-17.44,3.43-49-1.27-64.12-11.31-24.07-15.94-40.95-52.2-46.59-105.17l3-.65c4.78,1.57,7.19,2.18,7.19,2.18-2.74,39.47,18.68,83.71,43.76,95C148,530.25,180,535.45,181.64,539.87Z"/><path class="cls-3" d="M112.34,349.49c-.71-.22-1.44-.4-2.19-.56a32.31,32.31,0,0,0-13.46,0c-14.48,3.11-28.14,16.33-26.2,43.13a341.45,341.45,0,0,0,4.71,36.43,70.62,70.62,0,0,1,12.33-6.72,124.79,124.79,0,0,1,20.12-6.56c4.57-1.1,8.55-1.85,11.41-2.31C121.44,385.26,129,354.44,112.34,349.49Z"/><path class="cls-14" d="M87,419.11c.17.75.37,1.65.59,2.69-4.35,1.89-12,4.12-15.74,6.72-2.26-12.28-3.27-24.9-4.14-36.64-1.94-26.8,14.56-39.81,29-42.92C81.69,372.85,84.43,407.93,87,419.11Z"/><path class="cls-3" d="M119.06,412.94c-2.86.46-6.84,1.21-11.41,2.31-.29-18.15,1.24-48.54,2.5-66.32.74.16,1.48.34,2.19.56C129,354.44,121.44,385.26,119.06,412.94Z"/><path class="cls-3" d="M126.06,406.45c-2-1-7.51-.62-14.47.53a262.74,262.74,0,0,0-30.51,7.33c-7.44,2.25-13.51,4.51-16,6.09-2.61,1.71-1.56,8,0,11.37.92,2,5.7-.61,13.7-3.8a110.14,110.14,0,0,1,14.8-4.83c2.23-.56,4.59-1.05,7.06-1.45,21-3.4,26.17,2.35,26.72-2.46S132.78,409.83,126.06,406.45Z"/><path class="cls-3" d="M146.3,409.44c-8.32,12.25-12.91-4.22-16.16-10.41-3.64-6.91.58-30.59-1.41-39.38s-10.9-6.81-14.63-26a75.73,75.73,0,0,0,12.7-1.81c2,17.95,6.6,39,14.79,62.93Q144.32,402.75,146.3,409.44Z"/><path d="M495.72,98.65c0-1.86,0-3.72,0-5.58-.36-.21-.72-.42-1.07-.64a21.47,21.47,0,0,1,1.07-37.09V49.53a1.08,1.08,0,0,0-1,.15,30.59,30.59,0,0,0-6.88,4.59,26.3,26.3,0,0,0-6.47,9,21,21,0,0,0-2,8.37h-.08v4.72l.08.11a15.37,15.37,0,0,0,.38,3.64A26.71,26.71,0,0,0,488.84,95,24.17,24.17,0,0,0,495.57,99C495.92,99,495.72,98.77,495.72,98.65Z"/><path d="M473.69,93c-.51-.41-1.09-.22-1.66-.17-2.88.23-4.83-1.09-5.52-3.59a10.22,10.22,0,0,1-.27-1.22,49,49,0,0,1-.15-5.81,12.52,12.52,0,0,0-2.32-7.37.8.8,0,0,1,0-1.11,12.47,12.47,0,0,0,2.31-7.3c0-1.41,0-2.83,0-4.24a10.82,10.82,0,0,1,.38-2.72c.74-2.77,2.69-3.93,5.64-3.74.54,0,1.09.25,1.58-.16V50.18c0-.14,0-.19-.16-.16h-3.77a.11.11,0,0,1,0,.08h0a8.4,8.4,0,0,0-6.57,3.16c-2.57,2.94-3.15,6.54-3,10.29a15.76,15.76,0,0,1-.34,4.75,3.87,3.87,0,0,1-3.35,3.1,1.69,1.69,0,0,0-1,.33v5a1.69,1.69,0,0,0,1,.33,3.87,3.87,0,0,1,3.35,3.1,13.07,13.07,0,0,1,.37,4.36,15.51,15.51,0,0,0,1.28,8c1.65,3.44,4.25,5.65,8.25,5.79h0a.11.11,0,0,1,0,.08h3.77c.14,0,.19,0,.16-.16Z"/><path class="cls-15" d="M447.84,93.2a1.53,1.53,0,0,0-1.18-.3h-4.48c-.87,0-.92-.08-.94-1,0-.21,0-.42,0-.63v-25c0-3.25,0-6.5,0-9.75,0-.87.07-.94.94-.95h4.48a1.53,1.53,0,0,0,1.18-.3c0-1.62,0-3.25,0-4.87,0-.4-.09-.49-.48-.49-3.77,0-7.54,0-11.31,0-.53,0-.64.1-.64.64q0,13.09,0,26.19V98c0,.25-.17.57.39.56,3.87,0,7.74,0,11.62,0,.33,0,.4-.07.4-.41C447.83,96.5,447.84,94.85,447.84,93.2Z"/><rect class="cls-16" x="742.14" y="280.48" width="204.38" height="52.04"/><rect class="cls-17" x="742.14" y="330.63" width="204.38" height="1.89"/><path class="cls-17" d="M746.22,72.32H942.44a4.08,4.08,0,0,1,4.08,4.08v48a0,0,0,0,1,0,0H742.14a0,0,0,0,1,0,0v-48a4.08,4.08,0,0,1,4.08-4.08Z"/><rect class="cls-13" x="742.14" y="124.36" width="204.38" height="52.04"/><rect class="cls-16" x="742.14" y="124.36" width="204.38" height="52.04"/><rect class="cls-17" x="742.14" y="174.51" width="204.38" height="1.89"/><rect class="cls-16" x="742.14" y="176.4" width="204.38" height="52.04"/><rect class="cls-17" x="742.14" y="226.55" width="204.38" height="1.89"/><rect class="cls-18" x="742.14" y="228.44" width="204.38" height="52.04"/><rect class="cls-17" x="742.14" y="278.59" width="204.38" height="1.89"/><polygon class="cls-13" points="903.51 249.6 909.1 266.14 913.54 261.7 919.24 267.4 921.31 265.33 915.61 259.63 920.05 255.19 903.51 249.6"/><rect class="cls-13" x="758.2" y="94.91" width="67.24" height="6.86" rx="2.93"/><rect class="cls-13" x="758.2" y="146.95" width="67.24" height="6.86" rx="2.93"/><rect class="cls-13" x="758.2" y="198.99" width="67.24" height="6.86" rx="2.93"/><rect class="cls-13" x="758.2" y="251.03" width="67.24" height="6.86" rx="2.93"/><rect class="cls-13" x="758.2" y="303.07" width="67.24" height="6.86" rx="2.93"/><rect class="cls-11" x="320.71" y="305.49" width="62.42" height="62.42" rx="26.7" transform="translate(-61.56 79.3) rotate(-11.83)"/><path class="cls-13" d="M367.6,344.37l-5.77-3.77a12.41,12.41,0,1,0-23.63-2.17A12.44,12.44,0,0,0,352.9,348a12.28,12.28,0,0,0,6.81-4.08l5.72,3.74Zm-15.52-.22a8.44,8.44,0,1,1,6.54-10A8.44,8.44,0,0,1,352.08,344.15Z"/><rect class="cls-12" x="380.09" y="179.47" width="56.29" height="56.29" rx="5.03"/><path class="cls-13" d="M406,220.4a3.22,3.22,0,0,1-2.35-1l-12.6-13.5a3.22,3.22,0,0,1,4.71-4.39l10.17,10.9,16.51-18.78a3.22,3.22,0,1,1,4.83,4.25L408.42,219.3a3.22,3.22,0,0,1-2.37,1.1Z"/><rect class="cls-5" x="590.74" y="279.89" width="85.96" height="56.29" rx="5.03"/><path class="cls-2" d="M640.06,305.09H602.45a2.15,2.15,0,1,1,0-4.29h37.61a2.15,2.15,0,1,1,0,4.29Z"/><path class="cls-2" d="M660.35,305.09H648.64a2.15,2.15,0,0,1,0-4.29h11.71a2.15,2.15,0,0,1,0,4.29Z"/><path class="cls-2" d="M660.35,317.78H648.64a2.15,2.15,0,0,1,0-4.29h11.71a2.15,2.15,0,0,1,0,4.29Z"/><path class="cls-2" d="M640.06,317.78H621a2.15,2.15,0,0,1,0-4.29h19a2.15,2.15,0,1,1,0,4.29Z"/><rect class="cls-5" x="486.16" y="196.38" width="85.96" height="56.29" rx="5.03"/><path class="cls-2" d="M535.49,221.58H497.87a2.15,2.15,0,1,1,0-4.29h37.62a2.15,2.15,0,0,1,0,4.29Z"/><path class="cls-2" d="M555.77,221.58H544.06a2.15,2.15,0,0,1,0-4.29h11.71a2.15,2.15,0,0,1,0,4.29Z"/><path class="cls-2" d="M555.77,234.26H544.06a2.15,2.15,0,0,1,0-4.29h11.71a2.15,2.15,0,0,1,0,4.29Z"/><path class="cls-2" d="M535.49,234.26h-19a2.15,2.15,0,0,1,0-4.29h19a2.15,2.15,0,0,1,0,4.29Z"/><rect class="cls-5" x="255.09" y="108.82" width="85.96" height="56.29" rx="5.03"/><path class="cls-2" d="M304.41,134H266.79a2.15,2.15,0,0,1,0-4.29h37.62a2.15,2.15,0,0,1,0,4.29Z"/><path class="cls-2" d="M324.69,134H313a2.15,2.15,0,1,1,0-4.29h11.7a2.15,2.15,0,1,1,0,4.29Z"/><path class="cls-2" d="M324.69,146.71H313a2.15,2.15,0,1,1,0-4.29h11.7a2.15,2.15,0,1,1,0,4.29Z"/><path class="cls-2" d="M304.41,146.71h-19a2.15,2.15,0,1,1,0-4.29h19a2.15,2.15,0,0,1,0,4.29Z"/><rect class="cls-5" x="255.09" y="677.32" width="85.96" height="56.29" rx="5.03"/><path class="cls-2" d="M304.41,702.52H266.79a2.15,2.15,0,0,1,0-4.29h37.62a2.15,2.15,0,0,1,0,4.29Z"/><path class="cls-2" d="M324.69,702.52H313a2.15,2.15,0,1,1,0-4.29h11.7a2.15,2.15,0,1,1,0,4.29Z"/><path class="cls-2" d="M324.69,715.21H313a2.15,2.15,0,1,1,0-4.29h11.7a2.15,2.15,0,1,1,0,4.29Z"/><path class="cls-2" d="M304.41,715.21h-19a2.15,2.15,0,1,1,0-4.29h19a2.15,2.15,0,0,1,0,4.29Z"/><rect class="cls-5" x="347.21" y="716.05" width="85.96" height="56.29" rx="5.03"/><path class="cls-2" d="M396.53,741.25H358.91a2.15,2.15,0,0,1,0-4.29h37.62a2.15,2.15,0,1,1,0,4.29Z"/><path class="cls-2" d="M416.81,741.25h-11.7a2.15,2.15,0,0,1,0-4.29h11.7a2.15,2.15,0,1,1,0,4.29Z"/><path class="cls-2" d="M416.81,753.93h-11.7a2.15,2.15,0,0,1,0-4.29h11.7a2.15,2.15,0,1,1,0,4.29Z"/><path class="cls-2" d="M396.53,753.93h-19a2.15,2.15,0,0,1,0-4.29h19a2.15,2.15,0,1,1,0,4.29Z"/><path class="cls-11" d="M429,379.59l-10.58-4.89,4.35-5.22a1.4,1.4,0,0,0-1-2.28l-28.24-.77a1.38,1.38,0,0,0-1.29.81,1.36,1.36,0,0,0,.22,1.5l18.88,21a1.36,1.36,0,0,0,1.41.41,1.41,1.41,0,0,0,1-1.1l1.15-6.69,10.59,4.89a1.37,1.37,0,0,0,1.84-.67l2.39-5.17a1.39,1.39,0,0,0-.68-1.84Zm0,0"/><rect class="cls-18" x="327.87" y="744.19" width="62.22" height="62.22" rx="22.24"/><path class="cls-13" d="M345.27,777.81l6.7,7.44,6.86,7.61a.21.21,0,0,0,.31,0l6.86-7.61,6.69-7.44a.21.21,0,0,0-.15-.35h-6.49V766.31H351.92v11.15h-6.49A.21.21,0,0,0,345.27,777.81Z"/><rect class="cls-13" x="351.92" y="761.99" width="14.13" height="2.28"/><rect class="cls-13" x="351.92" y="757.69" width="14.13" height="2.28"/><rect class="cls-11" x="225.88" y="739.03" width="62.42" height="62.42" rx="26.7"/><path class="cls-13" d="M275.12,757v26.53H239.07V757h36.05m1.5-1.5H237.57V785h39.05V755.48Z"/><path class="cls-13" d="M273,757l-15.89,15.78L241.2,757H273m3.64-1.5H237.57l19.52,19.4,19.53-19.4Z"/><rect class="cls-15" x="227.95" y="209.74" width="62.42" height="62.42" rx="26.7" transform="translate(29.1 -27.93) rotate(6.53)"/><path class="cls-13" d="M249.06,239.7a12.29,12.29,0,0,1,1-11.67,11.46,11.46,0,0,1,9.69-5.32h.56c.29,0,.59,0,.9.07l.89.13a11.45,11.45,0,0,1,8.68,7.22A12.26,12.26,0,0,1,269.27,242l-12.11,16.34Zm10.84-14.5a9.2,9.2,0,0,0-1,18.35,9.42,9.42,0,0,0,1.06.06,9.21,9.21,0,0,0,0-18.41Z"/><path class="cls-13" d="M259.78,223.46h.52a8.12,8.12,0,0,1,.85.07q.44,0,.84.12a10.68,10.68,0,0,1,8.12,6.76,11.54,11.54,0,0,1-1.44,11.15l-4.59,6.19-6.75,9.1-4.51-10.39-3.07-7.07a11.54,11.54,0,0,1,1-11,10.69,10.69,0,0,1,9.06-5m.14,20.9A10,10,0,0,0,261,224.52a8.83,8.83,0,0,0-1.14-.07,10,10,0,0,0-1.13,19.84,8.88,8.88,0,0,0,1.15.07m-.14-22.4c-9,0-15,9.64-11.4,18l3.07,7.07L257,259.84l8.29-11.19,4.59-6.19c5.57-7.52,1.6-18.58-7.6-20.27-.32-.06-.63-.11-.95-.14s-.63-.07-.95-.08Zm.14,20.9a8.18,8.18,0,0,1-1-.06,8.45,8.45,0,0,1,1-16.85,8,8,0,0,1,1,.06,8.45,8.45,0,0,1-.95,16.85Z"/><rect class="cls-2" x="481.65" y="326.98" width="62.42" height="62.42" rx="26.7" transform="translate(44.21 -56.17) rotate(6.55)"/><path class="cls-13" d="M498.05,340.89l33.15,3.81-2.54,22.16-11.6-1.33-.86-.1-.52.69-4.42,6-2.95-6.81-.34-.8-.86-.1-11.6-1.33,2.54-22.16m-1.32-1.66-2.88,25.14,13.08,1.5,4,9.2,6-8.05,13.09,1.5,2.88-25.14-36.13-4.15Z"/><line class="cls-19" x1="503.11" y1="349.61" x2="524.3" y2="352.04"/><line class="cls-19" x1="502.37" y1="356.05" x2="523.56" y2="358.49"/><rect class="cls-2" x="284.91" y="731.69" width="62.05" height="62.05" rx="26.54" transform="translate(534.47 -33.4) rotate(37.85)"/><rect class="cls-13" x="304.73" y="749.8" width="38.62" height="4.99" transform="translate(529.78 -40.56) rotate(37.85)"/><rect class="cls-13" x="296.63" y="760.22" width="38.62" height="4.99" transform="translate(534.47 -33.4) rotate(37.85)"/><rect class="cls-13" x="288.53" y="770.65" width="38.62" height="4.99" transform="translate(539.17 -26.23) rotate(37.85)"/><path class="cls-8" d="M686.25,614.14c38,14.83,64,20,64,20l-10.37,29.9s-47,0-68.2-25.18S686.25,614.14,686.25,614.14Z"/><rect class="cls-5" x="598.36" y="577.11" width="85.96" height="56.29" rx="5.03"/><path class="cls-2" d="M647.68,602.31H610.06a2.15,2.15,0,0,1,0-4.29h37.62a2.15,2.15,0,0,1,0,4.29Z"/><path class="cls-2" d="M668,602.31h-11.7a2.15,2.15,0,1,1,0-4.29H668a2.15,2.15,0,1,1,0,4.29Z"/><path class="cls-2" d="M668,615h-11.7a2.14,2.14,0,1,1,0-4.28H668a2.14,2.14,0,1,1,0,4.28Z"/><path class="cls-2" d="M647.68,615h-19a2.14,2.14,0,1,1,0-4.28h19a2.14,2.14,0,1,1,0,4.28Z"/><path class="cls-11" d="M739.25,627.12c20,2.22,40.6-13.8,46.15-21.86,0,0,11,8.64,8.07,25.44s-24.69,37.31-32.6,37.56-26.41-5.44-26.41-5.44Z"/><path class="cls-18" d="M732.33,620.44c1.64-2.94,10.62-2.59,11,9.64s-4,28.54-7.05,34-9.84,7.94-10.62,5.19,4.2-24.59,4.82-31.63S731.09,622.67,732.33,620.44Z"/><path class="cls-17" d="M876.11,790c11.95,2.41,24.83,8.15,25.94,15.75s-23.35,8.82-32.06,3.3S876.11,790,876.11,790Z"/><path class="cls-2" d="M780.94,763s-20.19,61.66-36.87,60.17c-13.65-1.22-17.37-13.1-13.81-24.89h0a35.4,35.4,0,0,1,3.43-7.72c4.76-8,12.17-11.72,22.12-16C762.91,771.59,771.3,768.31,780.94,763Z"/><path class="cls-2" d="M755.81,774.61c-8.32,6.91-11.45,13.29-13.13,15.59-2,2.78-10.64,5.35-12.42,8.09a35.4,35.4,0,0,1,3.43-7.72C738.45,782.56,745.86,778.85,755.81,774.61Z"/><path class="cls-2" d="M874.9,812.26l-.14.21a103.64,103.64,0,0,0-9.11,15.71c-4.73,10.45-3.5,14.85-3.5,14.85-57.94,25.67-115.28,21.71-138.43,5.73a34.91,34.91,0,0,1-3.91-3.11c-5.69-5.27-8-11.54-6.14-18.33,8.6-30.58,45.22-24.89,67.27-64.31,0,0,3.14-1.3,8.32-3.3,21.8-8.41,79.83-29.19,92.66-17.45a7.47,7.47,0,0,1,2.33,4C889.49,770.22,890.1,790.2,874.9,812.26Z"/><path class="cls-3" d="M784.1,806c8.64,11.86-36.58,8.09-42,19.21-4.14,8.47-14.59,21.12-22.28,20.49-5.69-5.27-8-11.54-6.14-18.33,8.6-30.58,45.22-24.89,67.27-64.31,0,0,3.14-1.3,8.32-3.3a13.81,13.81,0,0,1,3.61,5.72C782.36,775.49,775.44,794.09,784.1,806Z"/><path class="cls-15" d="M862.15,843c-57.94,25.67-115.28,21.71-138.43,5.73,15.68-2.13,19.89-22,29.23-24.84,10.39-3.15,15.21,16.68,42.63,18.35,26.53,1.61,60.34-6.83,70.07-14.09C866.78,839.09,862.15,843,862.15,843Z"/><path class="cls-15" d="M874.9,812.26l-.14.21c-4.62,1.9-10,3.72-16.31,6.09-22.56,8.54-52.86-1.31-52.86-1.31s-22.79-9.82,1.11-10.38,19.46-26.5,31.37-44.76c0,0,9.77-6.94,13.11-10.83,2.63-3.07,16.85-7.28,30.74-9a7.47,7.47,0,0,1,2.33,4C889.49,770.22,890.1,790.2,874.9,812.26Z"/><path class="cls-13" d="M915.3,858.39c-11.33.82-22.46-7.8-32.54-13.12a46.1,46.1,0,0,0-6.54-2.92c2.32-3.31,6.67-10.84-.21-12.74-7.27-2-12.55-6.52-13.44-13.08,2-1.11,3.82-2.23,5.38-3.26,3.3-2.16,5.63-3.89,7.32-4.17,6.67-1.11,12.23,23,35.21,25.94S930.87,857.28,915.3,858.39Z"/><path class="cls-6" d="M876.22,842.35a21.87,21.87,0,0,0-4.28-1c-2.24-.26-5.55.41-9.79,1.69.28-3.45.61-8.51.51-12.23,0-.65,0-1.26-.09-1.81-.36-4.5-4-7.07-4.12-10.43.73-.32,1.43-.65,2.1-1s1.38-.7,2-1.05c.89,6.56,6.17,11.06,13.44,13.08C882.89,831.51,878.54,839,876.22,842.35Z"/><path class="cls-8" d="M876.22,842.35a21.87,21.87,0,0,0-4.28-1c-2.24-.26-5.55.41-9.79,1.69.28-3.45.61-8.51.51-12.23,3-.49,10-.48,7.48-1.93-3.88-2.21-9.19-7.48-9.59-11.29.7-.35,1.38-.7,2-1.05.89,6.56,6.17,11.06,13.44,13.08C882.89,831.51,878.54,839,876.22,842.35Z"/><path class="cls-17" d="M915.3,858.39c-11.33.82-22.46-7.8-32.54-13.12,2,0,4.67.24,7.71.15,7-.2,5.19-9.45-2.86-14.64-7.2-4.64-19.46-10.17-19.66-17.51,3.3-2.16,5.63-3.89,7.32-4.17,6.67-1.11,12.23,23,35.21,25.94S930.87,857.28,915.3,858.39Z"/><path class="cls-6" d="M809.51,585.94a73.66,73.66,0,0,1-5.09,6.2,55,55,0,0,1-11.3,9.51,35,35,0,0,1-7.72,3.61,53.57,53.57,0,0,0-.83-20.2,90.43,90.43,0,0,0-2.81-9.91q-.76-2.26-1.61-4.49c-.88-2.35-1.8-4.65-2.73-6.92l15.78-9.06,4.24-2.43S798.26,567,809.51,585.94Z"/><path class="cls-8" d="M809.51,585.94a73.66,73.66,0,0,1-5.09,6.2,19.72,19.72,0,0,0-3.46-4.31c-6-5.77-11.25-9.48-19.2-12.68q-.76-2.26-1.61-4.49a78.37,78.37,0,0,1,13.05-16l4.24-2.43S798.26,567,809.51,585.94Z"/><path class="cls-7" d="M785.4,605.26a53.57,53.57,0,0,0-.83-20.2c3.73,5.4,7.33,6.66,8.33,12.87a27.85,27.85,0,0,1,.22,3.72A35,35,0,0,1,785.4,605.26Z"/><path class="cls-15" d="M864.71,639.9a43.35,43.35,0,0,1-2.92,11.65c-4,9.38-11.21,12.56-20.06,8-11.86-6.12-32-50.38-33-63.57s11.12-48.19,17.79-61.25,11.68-41-6.48-33.82l-11.31-11.3c.31-.52.63-1,1-1.56,8.33-12.5,28.73-25,43.31-8.63,15.2,17.05,6.3,54.17,3,69.15S866.93,621.93,864.71,639.9Z"/><path class="cls-6" d="M799.48,557.53s-2.3,2.67-5.84,6.26c-4.34,4.41-10.53,10.2-16.6,14.12h0c-4.62,3-9.17,4.89-12.76,4.26-8.11-1.42-9.4-6.69-9.41-11.43,0-2.37.3-4.61.23-6.18-.09-2.3-1.77-3.44-3.44-4.37s-3.51-1.7-3.41-3.32c.18-3.15,6.85-5.19,8.15-9.17a7.9,7.9,0,0,0,.27-2.3c.06-5.11-1.76-15.2,1.12-23.79.09-.24.17-.49.26-.72a21.77,21.77,0,0,1,1.13-2.57s.27-.13.78-.34c3.25-1.36,16.28-6.17,31.19-2.81C808.37,519.08,799.48,557.53,799.48,557.53Z"/><path class="cls-12" d="M884.25,746.29c-10.73,6-28,12-46.18,15.82-15.51,3.23-31.73,4.82-45.2,3.32A62.78,62.78,0,0,1,780.94,763c8-12.71,10.24-26.06,8.71-36.56a31,31,0,0,0-1.2-5.24A23.35,23.35,0,0,0,786,716a18.08,18.08,0,0,0-1.35-1.91c-7-8.8-19.62-9.23-30.62-5.38-13.48,4.71-33.39,6.37-36.89,6.63l-.54,0-.51-7.74-.36-5.44-1.23-18.62-.87-13a52,52,0,0,0,7.37-2.39,103.41,103.41,0,0,0,10.54-4.85,158.68,158.68,0,0,0,34.35-25c12.18-11.41,17.75-22.43,19.47-33a35,35,0,0,0,7.72-3.61,55,55,0,0,0,11.3-9.51,75.66,75.66,0,0,0,5.09-6.2,109.18,109.18,0,0,0,6.46,9.67c17.42,23.35,44.48,59.67,60.78,118.61A292.91,292.91,0,0,1,884.25,746.29Z"/><path class="cls-8" d="M799.48,557.53s-2.3,2.67-5.84,6.26c-3.5-4.47-11-11.48-9.77-15.63,1.5-5.21-7.35-16.2-9.41-17.57s-1-2.24-2.35-4.41-9.5.69-14.33-4.56l-.12-.14.38-.58c.36-.55,1-1.49,1.91-2.91,3.25-1.36,16.28-6.17,31.19-2.81C808.37,519.08,799.48,557.53,799.48,557.53Z"/><path class="cls-2" d="M810.78,552.12c-7.66,5.44-10.13,24.1-12.11,16.93s-10.38-15.57-13.09-20.51c-1.9-3.44-1.06-4.29-.44-6.56a13.52,13.52,0,0,0,.44-4.09c-.19-6.12-4.17-3.25-9.27-4.45a3.63,3.63,0,0,1-2.46-1.62c-1.29-2.19.4-5.7,0-6.81-.46-1.49-3.9-.79-11.3-1.77-5.9-.77-13.59-2.5-15.82-22.51a25.3,25.3,0,0,1-.11-5.28c1.28-11.57,15.12.83,24.82.83,8.67,0,28-10,40.74-2a21.63,21.63,0,0,1,8.19,10.15C830.8,528.4,818.44,546.69,810.78,552.12Z"/><path class="cls-11" d="M838.07,762.11c7-10,13-27.48,8.89-57.59-8.31-60.1-36.8-99.15-42.54-112.38a75.66,75.66,0,0,0,5.09-6.2,109.18,109.18,0,0,0,6.46,9.67c17.42,23.35,44.48,59.67,60.78,118.61a292.91,292.91,0,0,1,7.5,32.07C873.52,752.27,856.27,758.32,838.07,762.11Z"/><path class="cls-16" d="M797.07,759.56a21.75,21.75,0,0,1-4.2,5.87A62.78,62.78,0,0,1,780.94,763c8-12.71,10.24-26.06,8.71-36.56a31,31,0,0,0-1.2-5.24C798.49,728.74,801.18,751.11,797.07,759.56Z"/><path class="cls-7" d="M754.44,553.27c-3.9,3.05-4.05,4.25-2.79,6.93-1.75-1-3.51-1.7-3.41-3.32.18-3.15,6.85-5.19,8.15-9.17a7.9,7.9,0,0,0,.27-2.3C756.88,548.6,756.44,551.7,754.44,553.27Z"/><path class="cls-7" d="M777,577.92c-4.62,3-9.17,4.89-12.76,4.26-8.11-1.42-9.4-6.69-9.41-11.43C758.64,577.94,768,581.5,777,577.92Z"/><path class="cls-20" d="M775,526.58c-.44,1.9-.86,3.85-1.15,5.24-1.29-2.19.4-5.7,0-6.81-.46-1.49-3.9-.79-11.3-1.77-5.9-.77-13.59-2.5-15.82-22.51a25.3,25.3,0,0,1-.11-5.28c1.51,8.56,8.42,13.94,13.24,16.12,5.93,2.69,16.81-1.14,13.08,2.44s-7.06,6-3.63,7.2S775.82,523.06,775,526.58Z"/><path class="cls-15" d="M810.78,552.12c-7.66,5.44-10.13,24.1-12.11,16.93s-10.38-15.57-13.09-20.51c-1.9-3.44-1.06-4.29-.44-6.56a8.21,8.21,0,0,0,2.58-3.9c2.09-7.31,14.54,6.57,21.79-4.55,5.62-8.62,10.64-26.47,2.72-39.24a21.63,21.63,0,0,1,8.19,10.15C830.8,528.4,818.44,546.69,810.78,552.12Z"/><path class="cls-11" d="M784.69,714c-7-8.8-19.62-9.23-30.62-5.38-13.48,4.71-33.39,6.37-36.89,6.63l-.54,0-.51-7.74-.36-5.44-1.23-18.62-.87-13a52,52,0,0,0,7.37-2.39c2.85,12.89,4.32,24.68,13.42,29.08,10,4.81,34.25-12.23,45.37-7C787.16,693.55,786.2,706,784.69,714Z"/><path class="cls-2" d="M864.71,639.9a43.35,43.35,0,0,1-2.92,11.65c.23-2.57.55-5.63.69-8.93.56-12.66-32.06-30.33-35.76-56.68s9.17-50.46,7.32-56.12-.46-14.64.28-19,7.87-19,1.48-23c-5.86-3.69-18.58-1.74-26.08.25,8.33-12.5,28.73-25,43.31-8.63,15.2,17.05,6.3,54.17,3,69.15S866.93,621.93,864.71,639.9Z"/><path class="cls-16" d="M793.12,601.65c-1.61,24-32.16,60.36-49.77,62.41-5.3.61-9.09.15-11.77-.82a158.68,158.68,0,0,0,34.35-25c12.18-11.41,17.75-22.43,19.47-33A35,35,0,0,0,793.12,601.65Z"/><path class="cls-6" d="M713.25,676V711.5c-26.45.4-69.89-16.54-92.41-38.73a63.06,63.06,0,0,1-8.7-10.47,41.34,41.34,0,0,1-3.23-5.9c-13.1-29.65,4.1-42.51,15.81-28.91,29.84,34.65,54.6,45.49,70.28,48.44C706.62,678.12,713.25,676,713.25,676Z"/><path class="cls-7" d="M695,675.93c-17.56,2.36-47.2-3.58-65.09-23.49-19.77-22-20.33-22.21-22.73-15.68-2.1,5.69,9.22,21.83,5,25.54a41.34,41.34,0,0,1-3.23-5.9c-13.1-29.65,4.1-42.51,15.81-28.91C654.56,662.14,679.32,673,695,675.93Z"/><path class="cls-8" d="M713.25,680.52v31c-26.45.4-69.89-16.54-92.41-38.73-1.29-12.58,3.84-18.92,14.07-6,11.86,15,44.24,30.26,54.74,24.66s20.94-15.48,22.91-11.7A3.21,3.21,0,0,0,713.25,680.52Z"/><path class="cls-18" d="M721.92,717c-.17,4.17-7.32,7-11.11,5.48a3.92,3.92,0,0,1-1.12-.67c-3.24-2.78-4.91-13.71-5.1-25.11a144.25,144.25,0,0,1,.67-15.67c.66-6.81,1.76-12.92,3.13-15.92a8.56,8.56,0,0,1,6.76-4.68c2.44-.32,4.78.36,5.75,2,2,3.52-.41,5.69-1.15,9.63a57.18,57.18,0,0,0-.44,11.43C719.76,696.44,722.06,713.59,721.92,717Z"/><path class="cls-16" d="M708.58,702.36c1.87,5.18,4.29,17.65,2.23,20.12a3.92,3.92,0,0,1-1.12-.67c-3.24-2.78-4.91-13.71-5.1-25.11a144.25,144.25,0,0,1,.67-15.67c.66-6.81,1.76-12.92,3.13-15.92a8.56,8.56,0,0,1,6.76-4.68c1.47,2.78-3.36,7.14-4.9,14.22C708.49,682.71,706.54,696.7,708.58,702.36Z"/><path class="cls-18" d="M822.09,506.29c-.28.2-.53.37-.77.52-2.82,1.76-3.26-.18-4.89-3.86-1.76-4-8.43-7.13-11.58-9.54-2-1.54-1-4,.95-5.09a3.77,3.77,0,0,1,3.78,0C818.94,493.69,825.61,503.69,822.09,506.29Z"/><path class="cls-17" d="M822.09,506.29c-.28.2-.53.37-.77.52-.16-1.39-.4-2.85-1.43-3.49-2.5-1.54-3.15-2.56-3-4.29s-.77-2.9-7.21-4.74c-6-1.72-5.17-3.54-3.92-6a3.77,3.77,0,0,1,3.78,0C818.94,493.69,825.61,503.69,822.09,506.29Z"/><path class="cls-6" d="M773,536.09c7-9.79,16.65-12.32,18.14-1.17s-14,13.65-14,13.65Z"/><path class="cls-8" d="M780,531.17s5.45-3.06,8,2.1-1.5,10.26-5.26,12.07c0,0,6.86-3.12,4.43-9.83S780,531.17,780,531.17Z"/><path class="cls-8" d="M786.27,538.74c-.68,3.2-4.3,5.62-6.06,3.88a3.64,3.64,0,0,1-.8-3.93s-.31,3.37,1.51,3.69S784.76,541.24,786.27,538.74Z"/><path class="cls-8" d="M782.88,535.87c1.33,1.53,1.45,4.49-.47,3.89s-2.17-2.47-2.79-2.37-1.53-2.1.08-2.57S782.88,535.87,782.88,535.87Z"/><path class="cls-2" d="M579.26,889.23c.61,0,104.12-9.48,104.76-9.69s0-3.66,0-3.66S583,878.42,579.43,880,579.26,889.23,579.26,889.23Z"/><path class="cls-13" d="M579.65,886.85c7.7-1.16,104.27-9.35,104.37-11s-56.15-56.76-58.59-57-61.56,6.59-61.56,6.59Z"/><path class="cls-3" d="M615.92,838.23c-1.26,1.13,16.22,23.13,18.34,23.32s21.94-5.62,21.94-6S639.06,835.38,638,834.91,616.75,837.49,615.92,838.23Z"/><path class="cls-3" d="M584.7,882.92c.86,0,56.28-3.87,56.48-5.16s-45.74-51.11-46.81-51.32-41.24,2.15-42.1,7.09S584.7,882.92,584.7,882.92Z"/><path class="cls-3" d="M571.46,806.23c-1.15-2.86-86.25-72.11-86.33-71.22l-3.58.71,4.35,7.13c2.53,24,10.4,94.67,10.4,96.17s58.61,37.43,77.33,47.57l2,3.36,3.58-.72C581.62,888.59,572.6,809.1,571.46,806.23Z"/><path class="cls-13" d="M481.55,735.72c-.11,1.22,11.17,102.23,11.17,104s80.6,50.86,83,50.22-6.65-80.14-7.8-83S481.63,734.83,481.55,735.72Z"/><ellipse class="cls-3" cx="528.81" cy="818.28" rx="6.62" ry="8.76" transform="translate(-55.15 38.4) rotate(-3.95)"/><path class="cls-12" d="M723,416.09h50.65a6.28,6.28,0,0,1,6.27,6.28v25.77a6.27,6.27,0,0,1-6.27,6.27H740.61l-6,10.41a2.62,2.62,0,0,1-4.54,0l-6-10.41h-1a6.27,6.27,0,0,1-6.27-6.27V422.37A6.28,6.28,0,0,1,723,416.09Z"/><circle class="cls-13" cx="766.36" cy="435" r="3.5"/><circle class="cls-13" cx="747.44" cy="435" r="3.5"/><circle class="cls-13" cx="729.85" cy="435" r="3.5"/><path class="cls-12" d="M78.79,132.43h50.64a6.27,6.27,0,0,1,6.27,6.27v25.77a6.27,6.27,0,0,1-6.27,6.28H96.36l-6,10.41a2.62,2.62,0,0,1-4.54,0l-6-10.41h-1a6.28,6.28,0,0,1-6.28-6.28V138.7A6.28,6.28,0,0,1,78.79,132.43Z"/><circle class="cls-13" cx="122.1" cy="151.34" r="3.5"/><circle class="cls-13" cx="103.19" cy="151.34" r="3.5"/><circle class="cls-13" cx="85.59" cy="151.34" r="3.5"/></g></svg>