<svg id="Layer_1" data-name="Layer 1" xmlns="http://www.w3.org/2000/svg" viewBox="0 0 1025.57 893.83"><defs><style>.cls-1{fill:#565656;}.cls-2{fill:#fff;}.cls-3{fill:#ccc8c8;}.cls-4{fill:#9b9898;}.cls-5{fill:#e5e5e5;}.cls-6{fill:#c6c6c6;}.cls-7{fill:#f2c32d;}.cls-8{fill:#ffa401;}.cls-9{fill:#fff929;}.cls-10{fill:#fea996;}.cls-11{fill:#ffc9c0;}.cls-12{fill:#f98f7d;}.cls-13{fill:#08193f;}.cls-14{fill:#0f1e55;}.cls-15{fill:#c49a26;}.cls-16{fill:#b5b5b5;}.cls-17{fill:#001d87;}.cls-18{fill:#fcd45b;}.cls-19{fill:#fead00;}.cls-20{fill:#f7c121;}.cls-21{fill:#cccaca;}.cls-22{fill:#e0dede;}.cls-23{fill:#6d6c6c;}.cls-24{fill:#161616;}</style></defs><rect class="cls-1" x="36.54" y="299.6" width="277.74" height="218.28" rx="3.66"/><rect x="36.54" y="299.6" width="277.74" height="47.65" rx="3.66"/><rect class="cls-2" x="56.55" y="315.85" width="80.76" height="8.57" rx="3.04"/><rect class="cls-2" x="145.32" y="315.85" width="15.02" height="8.57" rx="3.04"/><rect x="56.55" y="368.92" width="118.16" height="8.57" rx="3.04"/><rect x="186.43" y="368.92" width="21.97" height="8.57" rx="3.04"/><rect x="164.68" y="398.9" width="69.41" height="8.57" rx="3.04" transform="translate(398.77 806.36) rotate(180)"/><rect x="56.55" y="398.9" width="98.78" height="8.57" rx="3.04" transform="translate(211.89 806.36) rotate(180)"/><rect x="56.55" y="428.88" width="69.41" height="8.57" rx="3.04"/><rect x="135.31" y="428.88" width="98.78" height="8.57" rx="3.04"/><path class="cls-3" d="M950.41,17.94v326.5c0,.25,0,.49,0,.74a18.1,18.1,0,0,1-18.22,17.2H465.75a18.09,18.09,0,0,1-18.24-17.94V17.94A18.09,18.09,0,0,1,465.75,0H932.17A18.09,18.09,0,0,1,950.41,17.94Z"/><path class="cls-4" d="M950.39,20.31V345.18a18.1,18.1,0,0,1-18.22,17.2H923.1V20.31Z"/><path class="cls-1" d="M950.41,17.94V38.12H447.51V17.94A18.09,18.09,0,0,1,465.75,0H932.17A18.09,18.09,0,0,1,950.41,17.94Z"/><circle class="cls-2" cx="488.81" cy="20.31" r="5.96"/><circle class="cls-2" cx="513.1" cy="20.31" r="5.96"/><circle class="cls-2" cx="537.39" cy="20.31" r="5.96"/><rect class="cls-2" x="930.01" y="86.37" width="16.11" height="76.19" rx="5.28"/><rect class="cls-2" x="466.27" y="59.39" width="425.88" height="121.8" rx="41.46"/><rect class="cls-1" x="466.27" y="207.72" width="425.88" height="121.8" rx="41.46"/><ellipse class="cls-5" cx="512.78" cy="829.17" rx="512.78" ry="64.66"/><rect class="cls-1" x="367.69" y="584.81" width="371.15" height="16.99" transform="translate(1146.57 40.04) rotate(90)"/><path class="cls-6" d="M509.08,828.73a7.37,7.37,0,0,1-7.38-7.38v-.07a51.57,51.57,0,0,1,103.14,0,7.38,7.38,0,0,1-14.76,0,36.81,36.81,0,0,0-73.62,0v.07A7.37,7.37,0,0,1,509.08,828.73Z"/><rect class="cls-5" x="247.9" y="110.4" width="604.02" height="440.27"/><polygon class="cls-4" points="248.58 111.94 850.78 128.35 851.15 110.4 248.58 111.94"/><rect class="cls-6" x="242.47" y="98.55" width="621.59" height="13.39"/><rect class="cls-6" x="242.47" y="540.26" width="621.59" height="13.39"/><rect class="cls-2" x="421.22" y="430.91" width="13.9" height="56.72" rx="6.95"/><rect class="cls-2" x="462.96" y="402.94" width="13.9" height="84.68" rx="6.95"/><rect class="cls-2" x="504.7" y="447.23" width="13.9" height="40.39" rx="6.95"/><rect class="cls-2" x="546.44" y="409.25" width="13.9" height="78.37" rx="6.95"/><rect class="cls-2" x="588.18" y="389.8" width="13.9" height="97.82" rx="6.95"/><rect class="cls-2" x="629.91" y="370.62" width="13.9" height="117" rx="6.95"/><circle class="cls-2" cx="636.87" cy="361.86" r="3.12"/><path class="cls-2" d="M637.08,362.31l-.43-.89-39,19.31a3.11,3.11,0,0,0-5.65,1.8,2.94,2.94,0,0,0,.12.84L556,400a3.12,3.12,0,0,0-5.2,3.45l-37.19,34a3.09,3.09,0,0,0-1.94-.68,3.06,3.06,0,0,0-1.59.44l-37.8-45.36a3.17,3.17,0,0,0,.77-2.05,3.12,3.12,0,1,0-5.91,1.39l-36.74,26.39a3.09,3.09,0,0,0-2.21-.93,3.12,3.12,0,1,0,3.12,3.12,3,3,0,0,0-.34-1.39L467.7,392a3.09,3.09,0,0,0,2.21.93,3.19,3.19,0,0,0,1.59-.44l37.8,45.36a3.12,3.12,0,1,0,5.47,2.05,3.06,3.06,0,0,0-.52-1.72l37.2-34a3.05,3.05,0,0,0,1.94.68,3.11,3.11,0,0,0,3.11-3.11,3.28,3.28,0,0,0-.11-.84l36.15-16.62a3.11,3.11,0,0,0,5.56-2.66Z"/><rect class="cls-2" x="361.87" y="140.79" width="365.95" height="181.3" rx="36.5"/><path class="cls-7" d="M576.71,187.57l-20.3-19.12a27.91,27.91,0,0,0,.32,38.57Z"/><path class="cls-8" d="M576.71,237.27l-20.3-19.11a27.9,27.9,0,0,0,.32,38.56Z"/><rect class="cls-7" x="587.43" y="185.05" width="91.99" height="5.04" rx="2.52"/><rect class="cls-8" x="587.43" y="234.75" width="91.99" height="5.04" rx="2.52"/><path class="cls-9" d="M576.71,284.51l-20.3-19.11a27.9,27.9,0,0,0,.32,38.56Z"/><rect class="cls-9" x="587.43" y="281.99" width="91.99" height="5.04" rx="2.52"/><path class="cls-7" d="M438.29,237.27l.19-54.48h-.19a54.48,54.48,0,0,0-.17,109Z"/><path class="cls-8" d="M444.28,237.27v54.48a54.49,54.49,0,0,0,53.33-65.58Z"/><path class="cls-9" d="M445.86,227l42.82-11.76,0-.14a44.51,44.51,0,0,0-39-32.34Z"/><path class="cls-2" d="M695.78,497.05H405a1.23,1.23,0,0,1-1.23-1.23V360.34a1.23,1.23,0,1,1,2.46,0V494.59H695.78a1.23,1.23,0,0,1,0,2.46Z"/><path class="cls-9" d="M329.3,269.06a1.46,1.46,0,0,1-.91-.3,1.55,1.55,0,0,1-.35-2.18L374.92,202a1.56,1.56,0,0,1,2.53,1.84l-46.88,64.59A1.56,1.56,0,0,1,329.3,269.06Z"/><path class="cls-10" d="M245.77,850.16c-9.05,0-20-.11-29.4-.33-10.52-.24-19.14-.59-21.06-.89-4.81-.75-5.35-65-8.54-87.39-.59-4.12-.93-6.83-.93-7.47,0-1.79,8.48-1.29,18.17-.14,7.84.94,16.46,2.3,22,3.22,3.58.6,5.89,1,5.89,1,1,2.88,1.33,19.54,1.5,30.39,0,3.4.09,6.24.12,7.9a327.75,327.75,0,0,0,3.16,36.19c.88,4.43,15.27,10.26,23,13.78.45.2.87.4,1.26.59,1.9.89,3.19,1.6,3.44,2C264.78,849.8,256.63,850.11,245.77,850.16Z"/><path class="cls-11" d="M259.66,846.43l-1.58.24c-10,1.45-9.37-3.13-22-6.14s-6.17-8.67-7.26-20.87c-.76-8.47,1.77-18.8,4.6-31.1,0,3.4.09,6.24.12,7.9a327.75,327.75,0,0,0,3.16,36.19C237.59,837.08,252,842.91,259.66,846.43Z"/><path class="cls-12" d="M207.6,806.86c.64,18.64,3.75,33.9,8.77,43-10.52-.24-19.14-.59-21.06-.89-4.81-.75-5.35-65-8.54-87.39-.59-4.12-.93-6.83-.93-7.47,0-1.79,8.48-1.29,18.17-.14,7.84.94,16.46,2.3,22,3.22C225.35,780,206.82,784.23,207.6,806.86Z"/><path class="cls-13" d="M195.31,848.94c-2.33-.48-4.85,0-3.52,1.22s56.43,2,64.28,2.15,13.17-2.32,8.29-3.26S195.31,848.94,195.31,848.94Z"/><path class="cls-13" d="M245.8,840c2.42-.7-7.07,9.44-20,10l8,.14s14.8-5.15,14.56-8.9S245.8,840,245.8,840Z"/><path class="cls-10" d="M196.67,850.16c-9,0-20-.11-29.39-.33-10.53-.24-19.14-.59-21.06-.89-4.82-.75-5.36-65-8.55-87.39-.59-4.12-.92-6.83-.92-7.47,0-1.79,8.48-1.29,18.16-.14,7.84.94,16.47,2.3,22,3.22,3.58.6,5.89,1,5.89,1,1,2.88,1.34,19.54,1.5,30.39.06,3.4.09,6.24.13,7.9a331.16,331.16,0,0,0,3.15,36.19c.89,4.43,15.28,10.26,22.95,13.78l1.27.59c1.89.89,3.18,1.6,3.43,2C215.69,849.8,207.54,850.11,196.67,850.16Z"/><path class="cls-11" d="M210.56,846.43l-1.57.24c-10.05,1.45-9.38-3.13-22-6.14s-6.18-8.67-7.27-20.87c-.76-8.47,1.78-18.8,4.6-31.1.06,3.4.09,6.24.13,7.9a331.16,331.16,0,0,0,3.15,36.19C188.5,837.08,202.89,842.91,210.56,846.43Z"/><path class="cls-12" d="M158.5,806.86c.64,18.64,3.75,33.9,8.78,43-10.53-.24-19.14-.59-21.06-.89-4.82-.75-5.36-65-8.55-87.39-.59-4.12-.92-6.83-.92-7.47,0-1.79,8.48-1.29,18.16-.14,7.84.94,16.47,2.3,22,3.22C176.26,780,157.72,784.23,158.5,806.86Z"/><path class="cls-14" d="M146.22,848.94c-2.34-.48-4.86,0-3.52,1.22s56.42,2,64.27,2.15,13.17-2.32,8.29-3.26S146.22,848.94,146.22,848.94Z"/><path class="cls-14" d="M196.7,840c2.42-.7-7.06,9.44-20,10l8,.14s14.8-5.15,14.56-8.9S196.7,840,196.7,840Z"/><path class="cls-15" d="M249,769.78c2.05,2.22,3.25,6.48,3.08,10.89a1.34,1.34,0,0,1,0,.2c0,.24,0,.47,0,.7l0,.34c0,.15,0,.3,0,.46l-.06.47c0,.15-.05.3-.07.45s-.07.37-.1.54-.07.33-.1.49c-.08.34-.16.68-.26,1,0,.15-.09.3-.13.45-.11.35-.23.7-.36,1,0,.13-.1.26-.16.39l0,.09c-.06.12-.11.25-.16.37s-.13.26-.19.39-.12.25-.19.38c-.21.39-.43.77-.67,1.15l-.21.32a13,13,0,0,1-1.42,1.72l-.32.31a11.93,11.93,0,0,1-1.76,1.36l-.35.21-.09,0-.35.19a11.53,11.53,0,0,1-1.29.58l-.46.17-.38.11a11.08,11.08,0,0,1-1.2.31l-.34.06a13.9,13.9,0,0,1-1.48.19l-.36,0-.42,0h-.57c-6.44,0-12.14-1-18.24-2-8.5-1.38-17.8-2.69-31.06-1.13,0,0-22.77-11.61-20.54-80.37S178,501,193.17,486.37s22.77-5.91,39.73,19.1c10.38,15.28,13.57,45.76,12.64,71.53-.59,16.37-2.86,30.84-6,38.3a31.08,31.08,0,0,0-1.24,3.61,69.25,69.25,0,0,0-2,18.78v0c0,.75,0,1.52,0,2.29,0,.49,0,1,.06,1.48,0,.14,0,.29,0,.44s0,.54,0,.81c.06,1.21.14,2.42.23,3.66.06.68.11,1.38.18,2.07.11,1.29.25,2.59.4,3.9l.09.8c.17,1.41.36,2.84.57,4.27.05.37.11.75.17,1.13.11.75.23,1.51.36,2.26.05.33.11.67.16,1q.4,2.32.87,4.65c.07.37.15.75.22,1.12,0,.16.07.32.1.48l.24,1.14c.06.26.11.53.17.79s.15.63.22.94.16.75.25,1.11.17.74.26,1.11.17.73.27,1.1c.32,1.3.65,2.59,1,3.87l.3,1.08c.23.86.48,1.71.73,2.55.1.35.21.7.32,1,.65,2.16,1.35,4.26,2.08,6.27.08.25.17.49.26.73s.27.72.41,1.08.2.54.31.81q1.08,2.81,2.24,5.34.3.65.6,1.26c.85,1.77,1.72,3.42,2.62,4.93,12.47,21,0,22.77-5.78,36.61S243.62,764,249,769.78Z"/><path class="cls-7" d="M249,769.78c2.05,2.22,3.25,6.48,3.08,10.89a1.34,1.34,0,0,1,0,.2c0,.24,0,.47,0,.7l0,.34c0,.15,0,.3,0,.46l-.06.47c0,.15-.05.3-.07.45s-.07.37-.1.54-.07.33-.1.49c-.08.34-.16.68-.26,1,0,.15-.09.3-.13.45-.11.35-.23.7-.36,1,0,.13-.1.26-.16.39l0,.09c-.06.12-.11.25-.16.37s-.13.26-.19.39-.12.25-.19.38c-.21.39-.43.77-.67,1.15l-.21.32a13,13,0,0,1-1.42,1.72l-.32.31a11.93,11.93,0,0,1-1.76,1.36l-.35.21-.09,0-.35.19a11.53,11.53,0,0,1-1.29.58l-.46.17-.38.11a11.08,11.08,0,0,1-1.2.31l-.34.06a13.9,13.9,0,0,1-1.48.19l-.36,0-.42,0h-.57c-6.44,0-12.14-1-18.24-2,12.3-26.91-13.33-82-7.26-104.71,6.56-24.56-4.6-77.09,1.35-80.66,3.38-2,20.25-23.38,31.24-30.86-.59,16.37-2.86,30.84-6,38.3a31.08,31.08,0,0,0-1.24,3.61,69.25,69.25,0,0,0-2,18.78v0c0,.75,0,1.52,0,2.29,0,.49,0,1,.06,1.48,0,.14,0,.29,0,.44s0,.54,0,.81c.06,1.21.14,2.42.23,3.66.06.68.11,1.38.18,2.07.11,1.29.25,2.59.4,3.9l.09.8c.17,1.41.36,2.84.57,4.27.05.38.11.75.17,1.13.11.75.23,1.51.36,2.26.05.34.11.67.16,1q.4,2.32.87,4.65c.07.37.15.75.22,1.12,0,.16.07.32.1.48l.24,1.14c.06.26.11.53.17.79s.15.63.22.94.16.74.25,1.11.17.74.26,1.11l.27,1.1c.32,1.3.65,2.59,1,3.87l.3,1.08c.23.86.48,1.71.73,2.55.11.35.21.7.32,1,.65,2.16,1.35,4.26,2.08,6.27.08.24.17.49.26.73s.27.72.41,1.08.2.54.31.81q1.08,2.81,2.24,5.34.3.65.6,1.26c.85,1.77,1.72,3.42,2.62,4.93,12.47,21,0,22.77-5.78,36.61S243.62,764,249,769.78Z"/><path class="cls-9" d="M249,769.78c3.17,3.43,4.31,11.7,1.52,17.89-6.33-2.38-8-9.4-10.75-20-3.57-13.69-6.85-29.76-2.08-44.05s-4.47-14.28-11.91-43.46c-6.66-26.08,1-31.22,10.54-42.44.21,22.1,6.9,50.59,15.78,65.51,12.47,21,0,22.77-5.78,36.61S243.62,764,249,769.78Z"/><path class="cls-7" d="M195.69,616.67c-2.91,13.71-3.44,31.22,2.09,58.45,8,39.59-6.54,53.88-3.87,68.76s-.59,16.07-3.57,26.19c-2.05,7,5.5,11.4,9.53,16.39,1.81,2.27,2.92,4.64,2.08,7.42-1.36,4.55-17.13,6.86-33.9,7.24-16.21.38-33.36-1-39.39-4-12.27-5.95,5.43-30.36,0-43.76s-4.63-29.09,0-65.69-6-64.52-7.31-90,10-35.49,14.73-84.31c0,0,15.87-12.43,37.3-16.3s22.86,1.74,28.85,16.3c4.82,11.7,5,49.6,1.61,72.7a70.5,70.5,0,0,1-3.08,13.69A113.86,113.86,0,0,0,195.69,616.67Z"/><path class="cls-15" d="M148.37,575.71c-7.44,18.46-11.9,43.75,0,67.86s15.46,31.26,15.32,53.58-11.15,24.71-10.56,55.66c.38,19.39,10.45,37,14.92,48.31-16.21.38-33.36-1-39.39-4-12.27-5.95,5.43-30.36,0-43.76s-4.63-29.09,0-65.69-6-64.52-7.31-90,10-35.49,14.73-84.31c0,0,15.87-12.43,37.3-16.3s22.86,1.74,28.85,16.3c4.82,11.7,5,49.6,1.61,72.7C175.27,583.06,155.33,558.47,148.37,575.71Z"/><path class="cls-9" d="M199.87,786.46c-3.2,0-8.23.28-16.3.28-16.52,0-9.38-18.3-2.9-35.72s6.47-38.17,2.23-46.21-8.26-52.46-2-73c4.34-14.28,9.88-11.41,14.8-15.15-2.91,13.71-3.44,31.22,2.09,58.45,8,39.59-6.54,53.88-3.87,68.76s-.59,16.07-3.57,26.19C188.29,777,195.84,781.47,199.87,786.46Z"/><path class="cls-10" d="M318.33,300.37c-8.17,7.39-14.43,28.29-22.2,48.17-4.81,12.33-10.21,24.28-17,32.36a31,31,0,0,1-9.91,8.19c-1,.46-1.89.88-2.85,1.28a137.29,137.29,0,0,1-7.29-22.92,101.69,101.69,0,0,1-2.49-15.27,36.76,36.76,0,0,0,10.61-6.72c6-5.31,11.43-13,16.7-23.66,2.76-5.55,5.3-10.72,7.67-15.5,8.46-17.12,14.8-29.24,21.8-35.67,3.62-3.33,7.43-5.13,11.81-5.32C340.36,264.67,333.81,286.36,318.33,300.37Z"/><path class="cls-12" d="M291.57,306.3c-.58,8.5-2.42,19.58-7.67,28.62-10,17.26-3.37,34.82-9,48.51,0,0-7.78-7.71-15.79-16a101.69,101.69,0,0,1-2.49-15.27,36.76,36.76,0,0,0,10.61-6.72c6-5.31,11.43-13,16.7-23.66C286.66,316.25,289.2,311.08,291.57,306.3Z"/><path class="cls-11" d="M318.33,300.37c-8.17,7.39-14.43,28.29-22.2,48.17.89-8.31,1.44-16.36,4.64-24.9,6.25-16.7,10.71-21.38,13.09-43.3a30.17,30.17,0,0,0-.49-9.71c3.62-3.33,7.43-5.13,11.81-5.32C340.36,264.67,333.81,286.36,318.33,300.37Z"/><path class="cls-6" d="M266.37,390.37c-24.53,10.24-54.3,1.69-54.3,1.69V347.72c14.82,5.67,27,8.26,37.39,6.48a34.63,34.63,0,0,0,7.13-2C257.37,363.53,262.17,380.91,266.37,390.37Z"/><path class="cls-6" d="M281.42,391.17c0,3.87-5.06,9.52-11,5.66a8.55,8.55,0,0,1-2.19-2.76,36.3,36.3,0,0,1-1.85-3.7c-4.2-9.46-9-26.84-9.78-38.19-.4-5.75.24-9.95,2.51-10.78l3-.06,1.72,0c.88,0,2,1.55,3.34,4.15,3.87,7.7,9,24.43,11.93,35.44A75.61,75.61,0,0,1,281.42,391.17Z"/><path class="cls-16" d="M266.37,390.37c-24.53,10.24-54.3,1.69-54.3,1.69V378a11.21,11.21,0,0,1,1.75-1.16c5.57-2.8,30.52-6.13,35.64-22.68a34.63,34.63,0,0,0,7.13-2C257.37,363.53,262.17,380.91,266.37,390.37Z"/><path class="cls-2" d="M257.46,522c-11,4.24-23.07,1.79-34.9-1.93-16.85-5.28-33.31-13.13-46.06-7.89-3.66,1.5-7.52,3.17-11.42,4.83-4.61,2-9.26,3.88-13.7,5.49-14.12,5.16-25.95,7.12-26.52-3.62-.89-17,20.54-76.49,24.55-108.79,3-23.95,21.16-45,32.91-73.58A43.53,43.53,0,0,0,193,340.23h0a56.69,56.69,0,0,0,14.93,1.07A72.48,72.48,0,0,0,220,339.59c2,17.09,6.29,37.17,14.09,59.92,1.73,5.06,3.22,9.7,4.48,14,9.16,30.83,7,41.4,7,41.4S284.25,511.71,257.46,522Z"/><path class="cls-5" d="M151.38,522.48c-14.12,5.16-29.57,19.62-30.14,8.88-.89-17,24.16-89,28.17-121.29,3-23.95,21.16-45,32.91-73.58A43.53,43.53,0,0,0,193,340.23h0c-4.73,10.3-9.2,12.39-7,20.87s-.09,62.59,9.54,77.89,3.18,33.37,14,45c7.15,7.7,20.43,21.54,13,36-16.85-5.28-33.31-13.13-46.06-7.89-3.66,1.5-7.52,3.17-11.42,4.83"/><path class="cls-1" d="M254.25,593.86l-75.12-48.59a6,6,0,0,1-1.79-8.35l67.27-104a6,6,0,0,1,8.35-1.78l75.11,48.59a6,6,0,0,1,2.75,4.7,6,6,0,0,1-1,3.64l-67.27,104a6,6,0,0,1-8.34,1.79Z"/><rect class="cls-2" x="208.07" y="453.29" width="89.86" height="120.29" transform="translate(319.45 -55.08) rotate(32.9)"/><path class="cls-17" d="M301.6,477.46a3.76,3.76,0,0,0,5.2-1.11l4.68-7.22a3.76,3.76,0,0,0-1.12-5.2l-9.5-6.15a9.94,9.94,0,0,0-16.2-10.48l-10-6.48a3.76,3.76,0,0,0-5.2,1.11l-4.67,7.23a3.75,3.75,0,0,0,1.11,5.19m22.95,4.25a4.82,4.82,0,1,1,6.67-1.43A4.84,4.84,0,0,1,288.83,458.6Z"/><path class="cls-2" d="M311.17,462.68l-9.51-6.15a9.94,9.94,0,0,0-16.2-10.48l-10-6.48a3.74,3.74,0,0,0-5.19,1.12l-4.68,7.22a3.76,3.76,0,0,0,1.12,5.2l35.72,23.11a3.76,3.76,0,0,0,5.2-1.11l4.67-7.23A3.76,3.76,0,0,0,311.17,462.68Zm-21.53-5.33a4.82,4.82,0,1,1,6.67-1.43A4.81,4.81,0,0,1,289.64,457.35Z"/><rect class="cls-5" x="222.98" y="558.66" width="30.95" height="2.41" transform="translate(342.34 -39.73) rotate(32.9)"/><rect x="242.74" y="461.18" width="17.15" height="17.15" rx="4.81" transform="translate(295.45 -61.17) rotate(32.9)"/><rect class="cls-5" x="260.02" y="487.47" width="50.85" height="2.94" transform="translate(311.35 -76.63) rotate(32.9)"/><rect class="cls-5" x="259.16" y="485.51" width="24.5" height="1.72" transform="matrix(0.84, 0.54, -0.54, 0.84, 307.7, -69.42)"/><rect class="cls-5" x="212.5" y="517.98" width="73.3" height="2.94" transform="translate(322.1 -52.02) rotate(32.9)"/><rect class="cls-5" x="234.79" y="508.15" width="41.53" height="2.79" transform="translate(317.75 -57.09) rotate(32.9)"/><rect class="cls-5" x="232.54" y="498.14" width="56.19" height="7.13" transform="translate(314.3 -61.11) rotate(32.9)"/><rect class="cls-5" x="207.72" y="525.36" width="73.3" height="2.94" transform="translate(325.34 -48.25) rotate(32.9)"/><rect class="cls-5" x="202.88" y="532.84" width="73.3" height="2.94" transform="translate(328.63 -44.42) rotate(32.9)"/><rect class="cls-5" x="202.19" y="540.77" width="64.44" height="2.94" transform="matrix(0.84, 0.54, -0.54, 0.84, 332.11, -40.36)"/><path class="cls-10" d="M220,339.59a72.48,72.48,0,0,1-12.09,1.72A56.69,56.69,0,0,1,193,340.24a44,44,0,0,1-10.67-3.75,132.19,132.19,0,0,0,9-33.13h28.17q-.3,2.73-.49,5.69c-.07,1.25-.14,2.54-.18,3.85-.13,3.38-.13,7,0,10.74C219,328.62,219.37,333.94,220,339.59Z"/><path class="cls-12" d="M219,309.05c-.07,1.25-.14,2.54-.18,3.85-6.13,12.32-18.46,14.45-21.66,21.27a25,25,0,0,1-4.2,6.07,44,44,0,0,1-10.67-3.75,132.19,132.19,0,0,0,9-33.13h21.18A39,39,0,0,1,219,309.05Z"/><path class="cls-11" d="M220,339.59a72.48,72.48,0,0,1-12.09,1.72c-2.13-6.88,7.45-11.23,10.91-17.67C219,328.62,219.37,333.94,220,339.59Z"/><path class="cls-10" d="M239.5,300.37a0,0,0,0,1,0,0c-.31.33-.62.65-1,1a37,37,0,0,1-5.28,4.3,44.18,44.18,0,0,1-4.15,2.48c-9.07,5.89-19.93,6.95-28.85,5.5-6-1-11.14-3.11-14.3-5.67q.82-7,2-14.11s-.07-.53-.15-1.44a177.68,177.68,0,0,1-1.08-18.65c0-6.51.58-12.56,2.48-14.61,4.78-5,23.35-16.72,23.35-16.72,4.85-1,8.15.1,10.59,1.81,3.37,2.41,5.14,6.1,7.11,7.53a9.94,9.94,0,0,0,4.78,1.23c3.21.24,6.49.26,6.73,3.52a13.14,13.14,0,0,1-.1,2.72,47.43,47.43,0,0,1-1.13,5.24c-.1.36-.2.7-.27,1-.43,1.86-.72,3.31-.19,3.89a24.85,24.85,0,0,1,2.44,4,4.79,4.79,0,0,1,.26.56l.22.43a2.13,2.13,0,0,0,.21.49C245.86,281,247.94,291.13,239.5,300.37Z"/><path class="cls-12" d="M200.47,313.23a3.09,3.09,0,0,1-.24.43c-6-1-11.14-3.11-14.3-5.67q.82-7,2-14.11s-.07-.53-.15-1.44A36.78,36.78,0,0,1,201,283.87C203.78,289,203.08,307.9,200.47,313.23Z"/><path class="cls-7" d="M222.06,239.5s3.83,10.9-7.89,15.53a20.23,20.23,0,0,1-3,1s-4.1,9.1-13.14,12.5a19.63,19.63,0,0,1-8.18,1.25c-12.61-.65,1.57,8.71,5.93,11.43.75.49,1.21.75,1.21.75s8.46,23-1.13,30.78c-4.25,3.42-9.05,2.34-13.32-.7h0A34.77,34.77,0,0,1,171,296.75c-2.75-8.15-9-19.8-1.83-24.43A25.91,25.91,0,0,1,163,254.06c.43-11.55,9.79-10.42,9.79-10.42-.22-1.47-.36-2.94-.48-4.43v-.08a49,49,0,0,1,0-8.22c.55-6.56,2.63-11.75,7-12.18a6.17,6.17,0,0,1,6.78,3.79l0,0a9.93,9.93,0,0,1,.8,3,39.76,39.76,0,0,1,3.62-9.38c2.29-4.1,5.76-8.1,10.68-8.56,7-.65,9.19,5.69,9.84,10a22.64,22.64,0,0,1,.32,3.83s.41-.31,1.15-.79c3.09-2,11.82-7,17.59-2.46C237.28,223.77,227.68,238,222.06,239.5Z"/><path class="cls-11" d="M241.69,259.27a47.43,47.43,0,0,1-1.13,5.24c-2.37-3-1.4-3.43-1.4-5.45,0-1.84-.77-3.89-4.1-6,3.21.24,6.49.26,6.73,3.52A13.14,13.14,0,0,1,241.69,259.27Z"/><path class="cls-11" d="M239.5,300.37c4-7.91,5.5-20.84,3.3-26.36l.22.43a2.13,2.13,0,0,0,.21.49C245.86,281,247.94,291.13,239.5,300.37Z"/><path class="cls-9" d="M222.06,239.5s3.83,10.9-7.89,15.53a28,28,0,0,1,3.69-5.53c3.72-4.22-.5-9.35,3.11-11s4.32-3.52,6.44-11.17-9-8.54-14.81-6.63c3.09-2,11.82-7,17.59-2.46C237.28,223.77,227.68,238,222.06,239.5Z"/><path class="cls-15" d="M203.78,262.63a25.29,25.29,0,0,0-5.74,5.86c-3.36,4.72-4,9.48-2.54,12a3.08,3.08,0,0,1,.29.67c1.21,3.81-3.69,11-6.49,21.64a14.86,14.86,0,0,1-6.75,9.19h0A34.77,34.77,0,0,1,171,296.75c-2.75-8.15-9-19.8-1.83-24.43A25.91,25.91,0,0,1,163,254.06c.43-11.55,9.79-10.42,9.79-10.42-.22-1.47-.36-2.94-.48-4.43v-.08c0-4.6,14.54-3.54,20.57-4.6s-8.58,6.33-5,14.77S211.93,256.5,203.78,262.63Z"/><path class="cls-10" d="M205.22,269.72c-10.69-9.79-22.69-10.36-21.67,3.16s19.86,12.59,19.86,12.59Z"/><path class="cls-12" d="M195.76,265.67s-7.19-2.24-9,4.48,4.33,11.72,9.21,12.91c0,0-8.86-2-7.67-10.47S195.76,265.67,195.76,265.67Z"/><path class="cls-12" d="M190.24,276.16c1.6,3.6,6.47,5.55,8.11,3.06a4.41,4.41,0,0,0,0-4.84s1.22,3.9-.86,4.74S192.64,278.73,190.24,276.16Z"/><path class="cls-12" d="M193.52,271.93c-1.19,2.14-.59,5.66,1.52,4.47s1.94-3.45,2.7-3.49,1.27-2.85-.74-3S193.52,271.93,193.52,271.93Z"/><path class="cls-10" d="M272.23,537.67c-16.6,3.27-46.62-1.21-61.06-10.77-22.91-15.18-39-49.71-44.36-100.15l2.84-.62L193,421.06l19.63-4.26s-6.53,32.71,10,68.13,44.45,17.26,59,38.4a10.82,10.82,0,0,1,2.17,5.4C284.17,533.34,279.48,536.24,272.23,537.67Z"/><path class="cls-11" d="M283.89,528.73c-2.44-2.34-5-5.12-7.23-6.89-7-5.46-37.21-1.19-47.63-16.37s-25.29-15.48-32.44-39-3.27-29.18-5.24-42.27c0,0,.54-1.2,1.67-3.15l19.63-4.26s-6.53,32.71,10,68.13,44.45,17.26,59,38.4A10.82,10.82,0,0,1,283.89,528.73Z"/><path class="cls-12" d="M272.23,537.67c-16.6,3.27-46.62-1.21-61.06-10.77-22.91-15.18-39-49.71-44.36-100.15l2.84-.62c4.56,1.5,6.85,2.08,6.85,2.08-2.61,37.58,17.78,79.71,41.67,90.43C240.18,528.51,270.71,533.46,272.23,537.67Z"/><path class="cls-6" d="M206.25,356.39c-.68-.21-1.38-.39-2.09-.54a30.78,30.78,0,0,0-12.82,0c-13.79,3-26.8,15.55-25,41.07a325.35,325.35,0,0,0,4.49,34.68,68,68,0,0,1,11.75-6.39A119.36,119.36,0,0,1,201.78,419c4.35-1.06,8.14-1.77,10.87-2.21C214.91,390.44,222.08,361.1,206.25,356.39Z"/><path class="cls-16" d="M182.07,422.68c.16.71.35,1.57.56,2.56-4.14,1.8-11.42,3.92-15,6.4-2.16-11.7-3.12-23.71-4-34.89-1.85-25.52,13.86-37.9,27.65-40.87C177.06,378.63,179.67,412,182.07,422.68Z"/><path class="cls-6" d="M212.65,416.8c-2.73.44-6.52,1.15-10.87,2.21-.28-17.29,1.18-46.23,2.38-63.16.71.15,1.41.33,2.09.54C222.08,361.1,214.91,390.44,212.65,416.8Z"/><path class="cls-6" d="M219.31,410.63c-1.9-1-7.15-.6-13.78.5a246.89,246.89,0,0,0-29.05,7c-7.08,2.14-12.86,4.29-15.19,5.8-2.49,1.62-1.49,7.59,0,10.83.87,1.88,5.42-.59,13-3.62a106.76,106.76,0,0,1,14.1-4.61c2.13-.52,4.37-1,6.72-1.37,20-3.24,24.92,2.23,25.45-2.35S225.71,413.84,219.31,410.63Z"/><path class="cls-6" d="M238.58,413.47c-7.92,11.66-12.29-4-15.39-9.91-3.46-6.58.56-29.13-1.34-37.5s-10.38-6.48-13.93-24.75A72.48,72.48,0,0,0,220,339.59c2,17.09,6.29,37.17,14.09,59.92C235.83,404.57,237.32,409.21,238.58,413.47Z"/><path class="cls-10" d="M664.68,766s-25.53,52.84-29.26,57.22-21.83,1.57-27.74-.72a15.78,15.78,0,0,1-1.73-.8c-5.16-2.75-9.23-8.4-5.88-11.92a1.8,1.8,0,0,0,.18-.2c2.63-3.08,7.07-14.79,13.41-29.83,1-2.35,2-4.79,3.12-7.29q1.94-4.45,4.07-9.13,1.06-2.34,2.19-4.72l14.68,2.61Z"/><path class="cls-12" d="M664.68,766s-25.53,52.84-29.26,57.22-21.83,1.57-27.74-.72a15.78,15.78,0,0,1-1.73-.8c5.7-3.68,16.47-7.46,21.2-19.47,5.41-13.73-6.54-14.55-10.37-29.77a39.27,39.27,0,0,1-1.12-8.46l5.19-.67c4-.52,10.08-1.29,16.87-2.11Z"/><path class="cls-11" d="M616.22,802c-3.2,3.29-10.07,5.58-16,7.58,2.63-3.08,7.07-14.79,13.41-29.83C615.76,792,621.78,796.24,616.22,802Z"/><path d="M627.1,822.84c-1.73,1.38-11.4.87-15.32-4-1.25-1.57-2.15-2.84-2.9-3.85-1.38-1.83-2.22-2.79-3.68-2.9a4.37,4.37,0,0,0-.81,0c-2.9.29,2.79-2.28.26-4.48s-2.87-4.68-5.87,0-13.44,10.55-14.64,10.52A36,36,0,0,0,569.2,823C564,822.5,556.55,820,555,818.51s-4.31-3.39-6.14-2.33c-1.43.86-3.68,13.89,16.34,21.09a83.9,83.9,0,0,0,21.63,4.22c5.8.46,10.86.83,15.29,1.09,28.37,1.72,30.58-.18,30.58-.18s.35-16.18.61-20.12C633.4,820.42,628.81,821.44,627.1,822.84Z"/><path d="M598.78,807.62c-3,4.66-13.44,10.55-14.64,10.52A36,36,0,0,0,569.2,823C564,822.5,556.55,820,555,818.51s-4.31-3.39-6.14-2.33c-1.43.86-3.68,13.89,16.34,21.09,9.89,2.1,17.21,1.12,20.85-3.35,6.09-7.47,12.49-18.43,18.64-21.49.19-.09.37-.21.54-.3a4.37,4.37,0,0,0-.81,0c-2.9.29,2.79-2.28.26-4.48S601.78,803,598.78,807.62Z"/><path d="M628.08,821c-1.73,1.38-12.38,2.73-16.3-2.1-1.25-1.57-2.15-2.84-2.9-3.85-3.92.94-7.84,2.61-10,6.32-3.85,6.58,6.82,13.32,9.46,14.84,1.39.81-2.85,3.39-6.24,6.39,28.37,1.72,30.58-.18,30.58-.18s4.37-10.78,5.71-20.19C639.52,814.22,629.8,819.58,628.08,821Z"/><path class="cls-8" d="M632.28,830c-.09,1.13.38,2.09,1.06,2.15l4.5.38c.68.06,1.31-.82,1.41-2h0c.09-1.13-.38-2.1-1.07-2.15l-4.49-.38c-.68-.06-1.31.81-1.41,2Z"/><path d="M633.66,838.93c-2.42,2.94-12.7,3.13-20.17,1.64-2.1-.42-4.73-.83-7.44-1.21a148.33,148.33,0,0,0-14.76-1.53,53.39,53.39,0,0,1-9.78-.73,133.76,133.76,0,0,1-15.86-3.17c-27.12-7.91-9.13-19.55-16.13-18.24-6.49,1.21-8,6.85-.52,16.44.58.76,1.22,1.54,1.93,2.34,9.58,11,39.92,12.79,39.92,12.79s2.58.48,7.56,1.17c5.51.77,14,1.82,25,2.78C644.42,853,633.66,838.93,633.66,838.93Z"/><path class="cls-8" d="M633.66,838.93c-2.42,2.94-12.7,3.13-20.17,1.64-2.1-.42-4.73-.83-7.44-1.21-3.14,2.53-8,6-7.64,9.07,5.51.77,14,1.82,25,2.78C644.42,853,633.66,838.93,633.66,838.93Z"/><path class="cls-2" d="M549.52,815.69c-6.49,1.21-8,6.85-.52,16.44,14.24,5.77,25.66,7.68,32.51,5a133.76,133.76,0,0,1-15.86-3.17C538.53,826,556.52,814.38,549.52,815.69Z"/><path class="cls-18" d="M627.15,821.44s-4.81-1.4-8.19-.79-6.3-1.49-9.36-5.78l-.39-.56c-1.23-1.8-2.34-2.53-3.25-2.74a2.52,2.52,0,0,0-2.34.59,131.37,131.37,0,0,1-12.81,9.09c-5.41,3.41-7,6.8-2.24,9.37,2.27,1.25,6,2.31,11.51,3.1a21.73,21.73,0,0,0,4.79.19C618.75,833.18,627.15,821.44,627.15,821.44Z"/><path class="cls-8" d="M627.15,821.44s-4.81-1.4-8.19-.79-6.3-1.49-9.36-5.78c-4.14.89-8.43,2.53-10.73,6.48-2.8,4.8,2.1,9.67,6,12.56C618.75,833.18,627.15,821.44,627.15,821.44Z"/><path class="cls-10" d="M828.19,723.71s18.75,55.61,19.16,61.35S832.86,801.45,827,804a17.41,17.41,0,0,1-1.8.64c-5.61,1.65-12.47.46-12.54-4.39,0-.09,0-.18,0-.28-.27-4-5.3-15.51-11.3-30.69-.94-2.37-1.9-4.84-2.88-7.38-1.15-3-2.33-6.16-3.49-9.38q-.87-2.41-1.73-4.89l12.3-8.42Z"/><path class="cls-12" d="M828.19,723.71s18.75,55.61,19.16,61.35S832.86,801.45,827,804a17.41,17.41,0,0,1-1.8.64c1.5-6.62,6.55-16.86,1.52-28.75-5.76-13.59-14.86-5.81-28.26-14a39,39,0,0,1-6.71-5.26s1.2-1.55,3.22-4.12c2.52-3.19,6.3-8,10.57-13.31Z"/><path class="cls-11" d="M818.78,783.34c0,4.59-3.28,11-6.1,16.59-.27-4-5.3-15.51-11.3-30.69C811.45,776.51,818.75,775.36,818.78,783.34Z"/><path d="M841.16,790.63c-.27,2.2-7.52,8.61-13.71,7.9-2-.25-3.51-.52-4.76-.71-2.27-.35-3.54-.45-4.66.5a3.73,3.73,0,0,0-.57.56c-1.88,2.24.39-3.57-3-3.38s-5.33-1.33-4.21,4.09-2.22,16.94-3.1,17.76A36,36,0,0,0,800,831.29c-4.08,3.28-11.17,6.68-13.32,6.75s-5.45.59-6,2.63c-.43,1.62,7.09,12.49,26.43,3.62a83.65,83.65,0,0,0,18.4-12.13c4.46-3.73,8.34-7,11.68-9.93,21.47-18.63,21.71-21.53,21.71-21.53s-11.07-11.8-13.65-14.79C844,784.49,841.42,788.43,841.16,790.63Z"/><path d="M810.3,799.59c1.12,5.42-2.22,16.94-3.1,17.76A36,36,0,0,0,800,831.29c-4.08,3.28-11.17,6.68-13.32,6.75s-5.45.59-6,2.63c-.43,1.62,7.09,12.49,26.43,3.62,8.53-5.43,13.08-11.25,12.54-17-.88-9.59-4-21.9-1.74-28.39.08-.2.12-.41.18-.59a3.73,3.73,0,0,0-.57.56c-1.88,2.24.39-3.57-3-3.38S809.18,794.17,810.3,799.59Z"/><path d="M840.57,788.62c-.27,2.19-6.93,10.62-13.12,9.91-2-.25-3.51-.52-4.76-.71-2.14,3.4-3.77,7.35-2.72,11.51,1.86,7.39,14.2,4.74,17.14,4,1.56-.4.34,4.41,0,8.92,21.47-18.63,21.71-21.53,21.71-21.53s-4.43-10.75-10.06-18.41C844,775.78,840.82,786.42,840.57,788.62Z"/><path class="cls-8" d="M849.87,792.1c.72.88,1.74,1.23,2.26.8l3.48-2.88c.53-.44.36-1.5-.36-2.38h0c-.73-.87-1.74-1.23-2.27-.79l-3.47,2.87c-.53.44-.37,1.5.36,2.38Z"/><path d="M857.12,797.53c.33,3.79-6.88,11.13-13.26,15.29-1.79,1.17-4,2.71-6.15,4.35a147.52,147.52,0,0,0-11.62,9.24,53.17,53.17,0,0,1-7.49,6.32,134.26,134.26,0,0,1-13.55,8.84c-24.9,13.34-20.2-7.57-24.28-1.73-3.79,5.41-.89,10.47,11.13,12.1,1,.13,2,.25,3,.32,14.55,1.17,37.46-18.81,37.46-18.81s2.18-1.47,6.22-4.47c4.47-3.3,11.24-8.46,19.81-15.52C874.65,800,857.12,797.53,857.12,797.53Z"/><path class="cls-8" d="M857.12,797.53c.33,3.79-6.88,11.13-13.26,15.29-1.79,1.17-4,2.71-6.15,4.35-.48,4-1.5,9.92.89,11.81,4.47-3.3,11.24-8.46,19.81-15.52C874.65,800,857.12,797.53,857.12,797.53Z"/><path class="cls-2" d="M780.77,839.84c-3.79,5.41-.89,10.47,11.13,12.1,14.22-5.84,23.71-12.48,26.7-19.21a134.26,134.26,0,0,1-13.55,8.84C780.15,854.91,784.85,834,780.77,839.84Z"/><path class="cls-18" d="M840.23,789.6s-4.43,2.37-6.41,5.16-5.54,3.36-10.72,2.43l-.67-.13c-2.14-.41-3.45-.16-4.25.33a2.51,2.51,0,0,0-1.25,2.06,130.52,130.52,0,0,1-2.79,15.45c-1.47,6.23-.24,9.76,5,8.26,2.5-.69,5.92-2.56,10.39-5.85a21.78,21.78,0,0,0,3.56-3.21C842.44,803.86,840.23,789.6,840.23,789.6Z"/><path class="cls-8" d="M840.23,789.6s-4.43,2.37-6.41,5.16-5.54,3.36-10.72,2.43c-2.34,3.53-4.25,7.71-3.13,12.14,1.36,5.39,8.27,5.44,13.08,4.77C842.44,803.86,840.23,789.6,840.23,789.6Z"/><path class="cls-7" d="M797.68,335.64S797,368,792.94,396.83c-2.07,14.68-5,28.47-9.17,36.64-6.07,11.92-20.18,23.16-33.93,30.61-2.34,1.28-4.67,2.44-7,3.48-1.73-4.32-4.11-12.94-7.5-16.19a79,79,0,0,0,5.45-6.23L741,445l.8-1C758.75,421.68,790.62,360.39,797.68,335.64Z"/><path class="cls-19" d="M797.68,335.64S797,368,792.94,396.83c-7.28,14.24-14.44,26.94-18.07,33.52-6.2,11.23-17.47,14.16-33.12,13.62,1.69-2.23,3.54-4.84,5.5-7.77,8.68-13,19.52-32.23,29-51C786.07,365.84,794.46,346.93,797.68,335.64Z"/><path class="cls-18" d="M772.87,407.32c-4.22,10.83-15.63,24.23-25.62,28.88,8.68-13,19.52-32.23,29-51C783.2,389.13,778,394.2,772.87,407.32Z"/><path class="cls-10" d="M742.89,467.56c-11.57,5.24-21.78,7.26-25.21,4l0,0-.74-.74c-4.63-5,2-5.43,12.43-13.89a69.42,69.42,0,0,0,5.73-5.2l.34-.34C738.78,454.62,741.16,463.24,742.89,467.56Z"/><path class="cls-12" d="M742.89,467.56c-11.57,5.24-21.78,7.26-25.21,4l0,0c8.45,0,17.32-6.28,18.89-11.11.77-2.35-.22-5.76-1.47-8.72l.34-.34C738.78,454.62,741.16,463.24,742.89,467.56Z"/><path class="cls-11" d="M724.77,465.26c-3.54.7-5.81,4.13-7.88,5.54-4.63-5,2-5.43,12.43-13.89A6,6,0,0,1,724.77,465.26Z"/><path class="cls-20" d="M750.06,466.76c-.8,4.2-3.65,3.72-5.62,3.33-.45-.09-1-1.06-1.55-2.53-.31-.77-.64-1.68-1-2.66a85.94,85.94,0,0,0-3.7-9.38,15.4,15.4,0,0,0-2.81-4.15,4.78,4.78,0,0,0-1.6-1.07c-.58-.22,1.09-3.73,3.11-5.43a3,3,0,0,1,2.31-.9,1.62,1.62,0,0,1,.64.24,4.72,4.72,0,0,1,1,.93c2.81,3.31,7.81,13.45,9,18.94A7.24,7.24,0,0,1,750.06,466.76Z"/><path class="cls-8" d="M750.06,466.76c-.8,4.2-3.65,3.72-5.62,3.33-.45-.09-1-1.06-1.55-2.53-.31-.77-.64-1.68-1-2.66a7.29,7.29,0,0,0,1.86-1c.48-.72-1.74-3.7-.87-7.5.81-3.59-1.36-9-3.68-12.38a1.62,1.62,0,0,1,.64.24,4.72,4.72,0,0,1,1,.93c2.81,3.31,7.81,13.45,9,18.94A7.24,7.24,0,0,1,750.06,466.76Z"/><path class="cls-18" d="M740.11,453.12a4.49,4.49,0,0,1-1.91,2.4,15.4,15.4,0,0,0-2.81-4.15,4.78,4.78,0,0,0-1.6-1.07c-.58-.22,1.09-3.73,3.11-5.43C738.62,448.26,741,450.28,740.11,453.12Z"/><path d="M745.73,499.33l-5.17-.71c1-7-.27-17.46-5.23-23.93a12.06,12.06,0,0,0-8.16-5c-7.47-.94-17.95,5.44-22.87,26.55l-5.09-1.18c2.71-11.62,7.16-20.15,13.24-25.35,4.61-4,10.21-5.86,15.37-5.21a17.33,17.33,0,0,1,11.65,7C745.35,479.17,746.84,491.3,745.73,499.33Z"/><path d="M778.29,596.36H648a11.72,11.72,0,0,1-11.71-11.71V501.38A11.71,11.71,0,0,1,648,489.67H778.29A11.7,11.7,0,0,1,790,501.38v83.27a11.71,11.71,0,0,1-11.71,11.71Z"/><path class="cls-10" d="M833.5,314.31c-3.82,1.39-10,3.5-16.56,5.16A89.11,89.11,0,0,1,805,321.72a42.2,42.2,0,0,1-5.83.26c.79-4.58,1.42-8.87,1.84-12.75.35-3.24.56-6.19.6-8.81a33.48,33.48,0,0,0-.69-8.34L829.6,277.2C829.14,287.18,830.85,299.83,833.5,314.31Z"/><path class="cls-12" d="M833.5,314.31c-3.82,1.39-10,3.5-16.56,5.16-.91-2.09-1.89-4.27-2.85-6.33-2.89-6.18-8.23-8-12.45-12.72a33.48,33.48,0,0,0-.69-8.34L829.6,277.2C829.14,287.18,830.85,299.83,833.5,314.31Z"/><path class="cls-11" d="M805,321.72a42.2,42.2,0,0,1-5.83.26c.79-4.58,1.42-8.87,1.84-12.75A122.08,122.08,0,0,1,805,321.72Z"/><path class="cls-20" d="M849.55,479c-.79,4.36-1.68,8.53-2.64,12.54-26.18-8-52.67-9.62-74-8.91-9.2.3-17.45,1-24.32,1.86.73-2.09,1.45-4.17,2.19-6.22,7.84-22.05,15.82-41.91,20.77-55.46,2.32-6.38,4.85-13.83,7.41-21.9.47-1.49,1-3,1.42-4.52,1.89-6.07,3.79-12.43,5.63-18.89,3.25-11.43,6.33-23.19,8.88-34.28,1.21-5.26,2.3-10.37,3.24-15.23l.24-1.27q.31-1.63.6-3.24l.27-1.53a43.8,43.8,0,0,0,7.39-.45c8.37-1.12,17.86-4.06,24.08-6.21l2.83-1,0,.11q.6,3.29,1.27,6.69c1.05,5.41,2.2,11,3.4,16.85h0C846.93,380.32,858,432.35,849.55,479Z"/><path class="cls-8" d="M849.55,479c-.79,4.36-1.68,8.53-2.64,12.54-26.18-8-52.67-9.62-74-8.91,30.6-19.06,44.4-53,53.41-86.24,9.81-36.27,16-44.66,7.91-54.63S817.65,327.17,808.38,327c-6.31-.11,11.85-4.23,26.42-5.9,1.05,5.41,2.2,11,3.4,16.85h0C846.93,380.32,858,432.35,849.55,479Z"/><path class="cls-7" d="M838.2,338c-5.57-3.35-5.31-9.11-7.21-10.54s-25.38,1.46-32.66-.67q.31-1.63.6-3.24c1.51-.46,4.27-1.15,7.66-2,7.14-1.75,17.09-4.13,24.08-6.21,1-.31,2-.61,2.86-.9C834.89,321.83,836.5,329.71,838.2,338Z"/><path class="cls-7" d="M818.36,370.08c-.37.39-20.14,21.15-39.44,31.52,1.89-6.07,3.79-12.43,5.63-18.89C795.72,377.22,818,370.21,818.36,370.08Z"/><path class="cls-20" d="M838.62,315.61c.16,2.32-7.44,7.89-21.92,10.35a76.81,76.81,0,0,1-12.82,1.23c-5.65,0-8.31-1.08-8.31-2.18v0c0-1.76.64-5.59,2.11-5.5a115,115,0,0,0,14.19-1.05c1.86-.26,3.69-.56,5.36-.93.59-.14,1.2-.32,1.81-.53,7-2.47,14.62-9.82,16.65-10.47C837.91,305.77,838.47,313.29,838.62,315.61Z"/><path class="cls-18" d="M811.87,318.42c-.08,4.14-12,5.39-16.3,6.55,0-1.76.64-5.59,2.11-5.5A115,115,0,0,0,811.87,318.42Z"/><path class="cls-8" d="M838.62,315.61c.16,2.32-7.44,7.89-21.92,10.35a76.81,76.81,0,0,1-12.82,1.23c1.31-1.33,9.73-1.74,15.51-3.37s3.06-4.61-.35-6.86c7-2.47,14.62-9.82,16.65-10.47C837.91,305.77,838.47,313.29,838.62,315.61Z"/><path class="cls-18" d="M801,339.41a44.88,44.88,0,0,0-6.1,3.84c1.21-5.26,2.3-10.37,3.24-15.23C803,331,804,338,801,339.41Z"/><path class="cls-18" d="M778.92,400.94c-.13,14-.45,41.85-8.36,55.14-5.15,8.65-14,16.9-19.82,22.22,7.84-22.05,15.82-41.91,20.77-55.46C773.83,416.46,776.36,409,778.92,400.94Z"/><path class="cls-21" d="M757.46,610.9c-35.62,42.74-87.66,155.91-90,159.71-1.26,2-17.16,2.43-32.19,1.78a177.53,177.53,0,0,1-21.89-2c-3-.56-5-1.2-5.29-1.9-1.5-3.19,70-139.42,113.52-227.35,3.48-7,6.78-13.75,9.86-20.07,7.18-14.76,13.1-27.33,17.11-36.54C748.55,484.52,793.07,568.16,757.46,610.9Z"/><path class="cls-22" d="M703.44,616.27C692,637.17,657.69,679,651,698.43S629.67,739.75,624,752.09a142.3,142.3,0,0,1-10.62,18.29c-3-.56-5-1.2-5.29-1.9-1.5-3.19,70-139.42,113.52-227.35C723.79,568.37,713.61,597.62,703.44,616.27Z"/><path class="cls-23" d="M757.46,610.9c-35.62,42.74-87.66,155.91-90,159.71-1.26,2-17.16,2.43-32.19,1.78,7.35-15.71,35.07-44.89,41.92-68.26,8.07-27.55,43.22-67,45.48-86,2-16.73,3.73-72.06,8.8-97.11,7.18-14.76,13.1-27.33,17.11-36.54C748.55,484.52,793.07,568.16,757.46,610.9Z"/><path class="cls-10" d="M780.59,303.19c-2.16,0-6,0-9.1,0l-3.29,0c1-8.74-1.93-14.53-4.78-19-2.3-3.64-1.33-6.59,1.33-7,3-.42,8.11,2.43,13.07,11.24C780,292.34,780.7,297.53,780.59,303.19Z"/><path class="cls-12" d="M780.59,303.19c-2.16,0-6,0-9.1,0,.66-3.12,3.64-13.65-.47-16s-7-6.32-6.27-10c3-.42,8.11,2.43,13.07,11.24C780,292.34,780.7,297.53,780.59,303.19Z"/><path class="cls-20" d="M747.56,397.83c-1.74.16-3.25.25-4.5.27-.38,0-.74,0-1.09,0-17.21-1.4-5.55-40.92,12.47-69a93.49,93.49,0,0,0,9.18-17.81c.55-1.5,1-2.95,1.42-4.35l.15-.54c.09-.33.17-.67.25-1a41.41,41.41,0,0,0,1-5.27c3.5,0,11.18-.08,14.84,0,0,.17,0,.35,0,.53-.07,2.41-.25,4.89-.52,7.4-2.24,20.6-10.34,42.56-5.05,39.85l1-.53c9.13-4.91,18.06-8.57,26.1-10.36,16.38-3.64,29.06.5,32.07,17.72C839.07,378.92,771.81,395.56,747.56,397.83Z"/><path class="cls-7" d="M780.72,308c-2.24,20.6-10.34,42.56-5.05,39.85l1-.53c-1.79,1.94-3.65,2.93-5.29,1.76-5.25-3.8,3.13-13.27,3-26.07-.13-11.6-6.89-12.86-9.3-16.09a4.15,4.15,0,0,1-.59-1.07l1-.47c2.71-1.25,10.41-4.58,15.8-4.78C781.17,303,781,305.49,780.72,308Z"/><path class="cls-18" d="M758.23,341.78c-9.29,15.55-19.72,33.56-19.34,42.85.24,6.07,2.84,10.44,3.08,13.43-17.21-1.4-5.55-40.92,12.47-69a93.49,93.49,0,0,0,9.18-17.81C765.81,317.22,766,328.77,758.23,341.78Z"/><path class="cls-8" d="M747.56,397.83c4.23-7.2,0-23.67,11.58-30.07,13.68-7.59,55-18.48,50.94-25.69a11.9,11.9,0,0,0-7.33-5.11c16.38-3.64,29.06.5,32.07,17.72C839.07,378.92,771.81,395.56,747.56,397.83Z"/><path class="cls-20" d="M783.19,308.24a4.4,4.4,0,0,1-1.61.22,83.08,83.08,0,0,1-10.22-.57,56.42,56.42,0,0,1-6.11-1l-1-.25c-1.7-.48-2.77-1-2.71-1.68.39-4.45,1-5.32,2.14-5.32h1.94l6,0c3.63,0,7.68,0,10.23,0h.34c1.08,0,1.85,0,2.12.05C785.89,299.82,784.23,307.44,783.19,308.24Z"/><path class="cls-8" d="M783.19,308.24a4.4,4.4,0,0,1-1.61.22,83.08,83.08,0,0,1-10.22-.57c7.34-1.06,9.74-2.43,10.16-4.61a35.6,35.6,0,0,0,.32-3.67h.34c1.08,0,1.85,0,2.12.05C785.89,299.82,784.23,307.44,783.19,308.24Z"/><path class="cls-18" d="M765.25,306.91l-1-.25c-1.7-.48-2.77-1-2.71-1.68.39-4.45,1-5.32,2.14-5.32h1.94l6,0c-.67,2.09-4.34,4-6.67,3.94C762.86,303.54,764.32,305.91,765.25,306.91Z"/><path class="cls-23" d="M804,631c9,58.88,36.56,114.52,37,122.59.24,4-9.67,12.65-19.91,18.82s-20.93,9.93-21.88,4c-.66-4.14-8.61-22-19-45.54-19.41-44-47.33-107.83-52-138.47-3.32-21.89,2.88-52.06,11.83-81.82,2.64-8.79,5.52-17.54,8.47-26,5.74-.69,12.43-1.32,19.85-1.68,22.07-1.09,50.47.13,78.51,8.73C831.53,555.08,795.47,575.6,804,631Z"/><path class="cls-1" d="M804,631c9,58.88,36.56,114.52,37,122.59.24,4-9.67,12.65-19.91,18.82A108,108,0,0,0,813,743.23c-13.62-31-37.36-98.46-40.11-120.31S787,579.86,775,550.11c-10.89-26.93-18.66-44.27-6.59-67.27,22.07-1.09,50.47.13,78.51,8.73C831.53,555.08,795.47,575.6,804,631Z"/><path class="cls-21" d="M780.22,730.85c-19.41-44-47.33-107.83-52-138.47-3.32-21.89,2.88-52.06,11.83-81.82-1,30.61,10.13,46.65,8.47,69.62-1.74,24.06,2.06,59.21,10,79.47C766.1,679.05,787.32,708.9,780.22,730.85Z"/><path class="cls-10" d="M835.12,281.53q-.11.32-.24.63c-3.37,7.8-20.53,17.27-35.8,17.44a31.49,31.49,0,0,1-8.13-.92c-14.59-3.76-7.39-16.2-5-22a7.79,7.79,0,0,0,.69-2.27c.1-2.56-.72-2.37-2.41-2.64a8.58,8.58,0,0,1-2.8-.93c-2.32-1.25-.58-7.09,2.63-15.79,1.44-3.91,3.18-8.41,5-13.32.34-.94.69-1.89,1-2.86a167.2,167.2,0,0,1,31.56,1.24C836.91,242.43,838.28,272.2,835.12,281.53Z"/><path class="cls-12" d="M835.12,281.53q-.11.32-.24.63c-1,1.44-1.69,2.25-1.69,2.25s-9.59,1.1-7.93-5.9-3.64-21.56-5.71-22.22-19.15,5.29-30.46-14.57c.34-.94.69-1.89,1-2.86a167.2,167.2,0,0,1,31.56,1.24C836.91,242.43,838.28,272.2,835.12,281.53Z"/><path class="cls-7" d="M852.68,259.62c-11.52,7.51-9,7.87-15.18,22.32s-11.89.18-10.06-8.41c1-4.58-.44-7.86-2.25-10.81h0c-1.59-2.59-3.48-4.92-4.34-7.66-1-3.22-2.9-.4-7.79.13-4,.43-10-.66-19.1-7.81-17.08-13.4-10.77-35.68-3.06-44.79a13.42,13.42,0,0,1,4.34-3.6c7.46-3.38,9,6,12.65,13.09a14.87,14.87,0,0,0,4.55,5.67c7.87,5.3,37.13-2.38,43.72,7.13s-2.93,17,2.38,18.69S864.21,252.13,852.68,259.62Z"/><path class="cls-9" d="M813.06,255.18c-4,.43-10-.66-19.1-7.81-17.08-13.4-10.77-35.68-3.06-44.79,5.35-2.22,10.28.58,8.41,8.43-2.46,10.43-9.74,25.8-1.09,33.48C806.43,251.79,814.22,251.78,813.06,255.18Z"/><path class="cls-15" d="M852.68,259.62c-11.52,7.51-9,7.87-15.18,22.32s-11.89.18-10.06-8.41c1-4.58-.44-7.86-2.25-10.81h0c1.31-3.76,2.85-7.06,3.49-9.78,1.33-5.68,14.86-2.72,14.67-9.73s-9.69-6.26-23.8-8.36c-11.13-1.66-11.07-14.46-11.66-22.77a14.87,14.87,0,0,0,4.55,5.67c7.87,5.3,37.13-2.38,43.72,7.13s-2.93,17,2.38,18.69S864.21,252.13,852.68,259.62Z"/><path class="cls-10" d="M819.55,260.68c5.17-11,14.28-15.21,17.77-4.42S824.56,272,824.56,272Z"/><path class="cls-12" d="M825.59,254.55s4.85-4,8.36.63.36,10.44-3,12.91c0,0,6.24-4.33,2.62-10.54S825.59,254.55,825.59,254.55Z"/><path class="cls-12" d="M833.19,260.92c-.1,3.29-3.25,6.35-5.31,4.94a3.69,3.69,0,0,1-1.5-3.76s.29,3.4,2.16,3.39S832.14,263.67,833.19,260.92Z"/><path class="cls-12" d="M829.31,258.68c1.59,1.28,2.25,4.2.23,3.94s-2.59-2.05-3.19-1.84-1.89-1.81-.38-2.56S829.31,258.68,829.31,258.68Z"/><path class="cls-11" d="M784.28,271.76a8.58,8.58,0,0,1-2.8-.93c-2.32-1.25-.58-7.09,2.63-15.79C783.09,262,782.85,269,784.28,271.76Z"/><path class="cls-11" d="M799.08,299.6a31.49,31.49,0,0,1-8.13-.92c-14.59-3.76-7.39-16.2-5-22-.1,5.2-1.31,13.95,5.7,17.83C796.18,297,798.21,298.59,799.08,299.6Z"/><rect class="cls-15" x="442.37" y="714.7" width="12.89" height="192.53" transform="translate(-419.03 1136.49) rotate(-81.6)"/><path class="cls-7" d="M537.6,836.2,415,818.09a5.07,5.07,0,0,1-3.92-6L413,799c.43-2.92,2.88-5,5.48-4.59L541.1,812.49c2.59.38,4.35,3.06,3.92,6l-1.94,13.13C542.64,834.52,540.19,836.58,537.6,836.2Z"/><path class="cls-7" d="M311.27,834.88a52.9,52.9,0,1,1,60.06-44.6A53,53,0,0,1,311.27,834.88Zm13.07-88.52a36.58,36.58,0,1,0,30.84,41.53A36.63,36.63,0,0,0,324.34,746.36Z"/><path class="cls-1" d="M207.43,190.65h30.2a9.47,9.47,0,0,0,9.48-9.48V142.25a9.48,9.48,0,0,0-9.48-9.48H161.14a9.49,9.49,0,0,0-9.48,9.48v38.92a9.48,9.48,0,0,0,9.48,9.48h31.48l6.77,13.65a1.54,1.54,0,0,0,1.24.87,1.57,1.57,0,0,0,1.66-1Z"/><polygon class="cls-7" points="179.26 169.1 178.91 168.47 195.96 159.11 213.03 148.39 225.29 145.03 225.48 145.74 213.33 149.07 196.32 159.74 179.26 169.1"/><path class="cls-9" d="M229.63,144.22a22.19,22.19,0,0,0-5.09,5l.29-3.68-2.13-3A22.22,22.22,0,0,0,229.63,144.22Z"/><rect class="cls-2" x="192.9" y="162.71" width="6.47" height="22.92" transform="translate(392.26 348.34) rotate(180)"/><rect class="cls-2" x="209.94" y="151.94" width="6.47" height="33.69" transform="translate(426.35 337.57) rotate(180)"/><rect class="cls-2" x="175.85" y="172.46" width="6.47" height="13.17" transform="translate(358.17 358.09) rotate(180)"/><circle class="cls-9" cx="179.08" cy="168.79" r="1.59"/><circle class="cls-9" cx="196.13" cy="159.43" r="1.59"/><circle class="cls-9" cx="213.18" cy="148.73" r="1.59"/><path class="cls-2" d="M234.37,186H168.5a.36.36,0,0,1-.37-.36V136.81a.37.37,0,1,1,.73,0v48.46h65.51a.36.36,0,1,1,0,.72Z"/><circle class="cls-5" cx="319.07" cy="781.5" r="38.5"/><path class="cls-2" d="M288.63,772.67S297.57,809,342.57,799C342.57,799,299.69,835.34,288.63,772.67Z"/><path d="M329.84,183.38c0-1.59,0-3.18,0-4.77l-.92-.55a18.36,18.36,0,0,1,.92-31.72v-5a1,1,0,0,0-.88.14,25.83,25.83,0,0,0-5.89,3.92,22.53,22.53,0,0,0-5.53,7.74,17.85,17.85,0,0,0-1.72,7.15h-.07v4l.07.09a13.66,13.66,0,0,0,.32,3.12,22.94,22.94,0,0,0,7.8,12.68,20.92,20.92,0,0,0,5.77,3.47C330,183.71,329.84,183.49,329.84,183.38Z"/><path d="M311,178.52c-.44-.36-.94-.19-1.42-.15-2.47.19-4.14-.93-4.72-3.07a8.91,8.91,0,0,1-.24-1.05,41.08,41.08,0,0,1-.12-5,10.79,10.79,0,0,0-2-6.31.68.68,0,0,1,0-.95,10.63,10.63,0,0,0,2-6.24c0-1.21,0-2.42,0-3.63a8.66,8.66,0,0,1,.32-2.32c.64-2.37,2.3-3.36,4.83-3.2.46,0,.93.21,1.35-.14v-4.58c0-.11,0-.16-.14-.13h-3.22a.13.13,0,0,1,0,.06h0a7.17,7.17,0,0,0-5.62,2.7c-2.2,2.51-2.69,5.59-2.56,8.8a13.46,13.46,0,0,1-.29,4.06,3.33,3.33,0,0,1-2.86,2.66,1.33,1.33,0,0,0-.88.28v4.3a1.44,1.44,0,0,0,.88.28,3.31,3.31,0,0,1,2.86,2.66,10.88,10.88,0,0,1,.32,3.73,13.2,13.2,0,0,0,1.09,6.88c1.41,2.94,3.63,4.83,7.06,4.95h0a.17.17,0,0,1,0,.07h3.22c.12,0,.16,0,.14-.14Z"/><path class="cls-24" d="M288.88,178.72a1.34,1.34,0,0,0-1-.26c-1.27,0-2.55,0-3.82,0-.75,0-.79-.07-.81-.82,0-.18,0-.36,0-.53v-21.4c0-2.78,0-5.56,0-8.34,0-.75.06-.8.81-.81h3.82a1.34,1.34,0,0,0,1-.25c0-1.39,0-2.78,0-4.17,0-.34-.07-.42-.41-.42q-4.83,0-9.67,0c-.46,0-.55.09-.55.55q0,11.2,0,22.4,0,9.09,0,18.16c0,.22-.15.49.33.49,3.31,0,6.63,0,9.94,0,.29,0,.35-.05.34-.34C288.87,181.55,288.88,180.13,288.88,178.72Z"/></svg>