<svg id="Layer_1" data-name="Layer 1" xmlns="http://www.w3.org/2000/svg" xmlns:xlink="http://www.w3.org/1999/xlink" viewBox="0 0 1187.06 716.42"><defs><style>.cls-1{fill:#d8d6d6;}.cls-2{fill:#6d6c6c;}.cls-3{fill:#fba390;}.cls-4{fill:#c4c2c2;}.cls-5{fill:#fff929;}.cls-6{fill:#f4d454;}.cls-7{fill:#f7c221;}.cls-8{fill:#f7c121;}.cls-9{fill:#e5e5e5;}.cls-10{fill:#ef928e;}.cls-11{clip-path:url(#clip-path);}.cls-12{clip-path:url(#clip-path-2);}.cls-13{fill:#af9d0c;}.cls-14{clip-path:url(#clip-path-3);}.cls-15{fill:#f2c83d;}.cls-16{clip-path:url(#clip-path-4);}.cls-17{clip-path:url(#clip-path-5);}.cls-18{opacity:0.31;}.cls-19{fill:#507199;}.cls-20{clip-path:url(#clip-path-6);}.cls-21{clip-path:url(#clip-path-7);}.cls-22{clip-path:url(#clip-path-8);}.cls-23{fill:#d8ba71;}.cls-24{clip-path:url(#clip-path-9);}.cls-25{opacity:0.64;}.cls-26{fill:#fff;}.cls-27{clip-path:url(#clip-path-10);}.cls-28{fill:#e8e6e6;}.cls-29{fill:#fea996;}.cls-30{clip-path:url(#clip-path-11);}.cls-31{fill:#ffc9c0;}.cls-32{clip-path:url(#clip-path-12);}.cls-33{fill:#565656;}.cls-34{fill:#707070;}.cls-35{fill:#f98f7d;}.cls-36{fill:#012610;}.cls-37{fill:#0f1e55;}.cls-38{fill:#f2c32d;}.cls-39{fill:#c49a26;}.cls-40{fill:#e5b52c;}.cls-41{clip-path:url(#clip-path-13);}.cls-42{fill:#fcd45b;}</style><clipPath id="clip-path"><path class="cls-1" d="M433.66,106.12V112a27.6,27.6,0,0,0,27.6,27.6H466v70H396v-4.7a27.6,27.6,0,0,0-27.6-27.6H362.5a27.6,27.6,0,0,0-27.6,27.6v4.7h-70V83.44A74.89,74.89,0,0,1,339.82,8.55H466v70h-4.71A27.6,27.6,0,0,0,433.66,106.12Z"/></clipPath><clipPath id="clip-path-2"><path class="cls-2" d="M433.66,316.8v5.89a27.6,27.6,0,0,0,27.6,27.6H466v70H339.82a74.89,74.89,0,0,1-74.89-74.89V219.22h70v-4.7a27.6,27.6,0,0,1,27.6-27.6h5.89a27.6,27.6,0,0,1,27.6,27.6v4.7h70v70h-4.7A27.6,27.6,0,0,0,433.66,316.8Z"/></clipPath><clipPath id="clip-path-3"><path class="cls-6" d="M677.46,219.22V345.38a74.89,74.89,0,0,1-74.89,74.89H476.42v-70h-4.7a27.6,27.6,0,0,1-27.6-27.59v-5.91a27.6,27.6,0,0,1,27.6-27.59h4.7v-70h70v4.71A27.6,27.6,0,0,0,574,251.53h5.9a27.6,27.6,0,0,0,27.6-27.6v-4.71Z"/></clipPath><clipPath id="clip-path-4"><path class="cls-2" d="M77.94,594.2S53,603.07,48.68,602.69s-22.42,3-26.22,7.09,3.8,30.91,6.46,45.1,23.69,27.61,32.81,25.46,14.06-15.58,8.61-22.8-6.84-14.44-7.72-22.42,7.6-11.53,19.12-15.21Z"/></clipPath><clipPath id="clip-path-5"><path class="cls-2" d="M118,136.28c0-.28-3-13.87-9.6-15S90,122,87.45,137.8s18.71,14,18.71,14Z"/></clipPath><clipPath id="clip-path-6"><path class="cls-2" d="M175.36,168.17s10.64.26,13.94-19.51-15.08-23.31-19.51-21.53c0,0-16-8.53-38.51-.4s-35.47,22.44-35.85,42.58-21.16,16.34-27.49,33.57,8.23,29.39-3.17,44.21a108.34,108.34,0,0,1-23.31,22.68s7,24.2,35.34,30.15,57.9-5.83,57.9-5.83-.89-25.61.25-42.19,11.78-36.35,11.78-36.35Z"/></clipPath><clipPath id="clip-path-7"><path class="cls-2" d="M315.22,579.38c0,.38,1.26,23.69,0,24.32s-4.44,4.18-5.45,16-2.53,19.76,8.87,20.65,69,.76,72.71-2.66,4.31-17.23-11.4-20.4-34.84-13-37.37-16.08-1.39-21.79-1.39-21.79Z"/></clipPath><clipPath id="clip-path-8"><path class="cls-7" d="M143.06,383l-2.22,1.14s-14.24,27.27-10.11,61.19,50,110.88,50,110.88L73.29,590.43s5.41,38.48,18.81,61.85c0,0,50.45-18,97.77-34.2S258,598.7,252.29,571.62,229.2,484.4,229.2,484.4s54.44-22.52,68.69-14.54.48,111.16.48,111.16,42,10.36,64.51-1.9c0,0-2.28-78.47-5.13-114.1s2-46.46-51.59-54.73S229.11,398.41,217,385.68Z"/></clipPath><clipPath id="clip-path-9"><path class="cls-8" d="M253.57,391c-1.57.76-55.91,23.76-24.37,93.4s58.08,26.08,58.08,26.08l-33.71,99.6,72.16,17.69L431,579.38l-7.6-120.73-49.78-63.47Z"/></clipPath><clipPath id="clip-path-10"><path class="cls-1" d="M165.23,226.7s9.24-3.67,15.07,4.81,18.5,22.93,28,30.79,17.48,19.63,9.12,46.23-.38,77.15-.38,77.15-7.6,14.44-35.91,15.39-40.29-16.91-40.29-16.91,5.32-14.44,1.9-34.2-15.58-41.81-16.15-70.12,9.85-52.44,14.95-54.53S165.23,226.7,165.23,226.7Z"/></clipPath><clipPath id="clip-path-11"><path class="cls-3" d="M205.45,303.78s24.89,18.44,33.63,22.24,84.37-35.35,94.06-46.56,12.73-28.69,33.44-31.73,22.24,16.53,12.55,24.51-29.46,21.47-35,25.08-64.6,51.5-99,59.1c-12,3-55.47-27.55-55.47-27.55Z"/></clipPath><clipPath id="clip-path-12"><path class="cls-4" d="M136.34,251.9c12-10.75,33.19,6,49.79,22.43s24.57,25,24.57,25-2,17.1-13.93,28.12a38.61,38.61,0,0,1-25.46,10.51s-21.94-30.78-29.39-42.18S124.18,262.78,136.34,251.9Z"/></clipPath><clipPath id="clip-path-13"><path class="cls-5" d="M834.6,86.68,710,61l-14.24,69.15-4.65-1a27.84,27.84,0,0,0-32.88,21.65l-1.2,5.83a27.84,27.84,0,0,0,21.66,32.88l4.65,1-14.24,69.15,69.15,14.23-1,4.65a27.85,27.85,0,0,0,21.65,32.89l5.83,1.2A27.86,27.86,0,0,0,797.61,291l.95-4.65,69.15,14.23,25.66-124.65A75.57,75.57,0,0,0,834.6,86.68Z"/></clipPath></defs><ellipse class="cls-9" cx="249.17" cy="659.79" rx="249.17" ry="56.63"/><path class="cls-10" d="M217.34,274.9s24.89,18.43,33.63,22.23,84.37-35.34,94.06-46.56,12.73-28.69,33.45-31.73,22.23,16.53,12.54,24.51-29.45,21.48-35,25.09-64.6,51.49-99,59.09c-12,3-55.47-27.55-55.47-27.55Z"/><path class="cls-2" d="M640.21,434.8V547.2c0,38-3.61,49,4.37,50.16S662.07,516,665.11,484.87,667.39,437,667.39,437Z"/><rect class="cls-9" x="264.93" y="421.4" width="431.35" height="26.79" rx="11.05"/><path d="M439.22,111.25v5.9a27.6,27.6,0,0,0,27.6,27.6h4.71v70h-70V210a27.6,27.6,0,0,0-27.6-27.6h-5.89a27.6,27.6,0,0,0-27.6,27.6v4.7h-70V88.57a74.89,74.89,0,0,1,74.9-74.89H471.53v70h-4.71A27.6,27.6,0,0,0,439.22,111.25Z"/><path class="cls-1" d="M433.66,106.12V112a27.6,27.6,0,0,0,27.6,27.6H466v70H396v-4.7a27.6,27.6,0,0,0-27.6-27.6H362.5a27.6,27.6,0,0,0-27.6,27.6v4.7h-70V83.44A74.89,74.89,0,0,1,339.82,8.55H466v70h-4.71A27.6,27.6,0,0,0,433.66,106.12Z"/><g class="cls-11"><path class="cls-2" d="M466,0S442.4,92.35,375.52,130.73,237.94,144.8,237.94,144.8l4.94,77.14,195.34-4.79,68-18.39,8.91-91.68Z"/></g><path d="M440,312.26v5.9a27.61,27.61,0,0,0,27.61,27.6h4.7v70H346.15a74.89,74.89,0,0,1-74.89-74.89V214.69h70V210a27.6,27.6,0,0,1,27.6-27.6h5.89a27.59,27.59,0,0,1,27.6,27.6v4.7h70v70h-4.7A27.61,27.61,0,0,0,440,312.26Z"/><path class="cls-2" d="M433.66,316.8v5.89a27.6,27.6,0,0,0,27.6,27.6H466v70H339.82a74.89,74.89,0,0,1-74.89-74.89V219.22h70v-4.7a27.6,27.6,0,0,1,27.6-27.6h5.89a27.6,27.6,0,0,1,27.6,27.6v4.7h70v70h-4.7A27.6,27.6,0,0,0,433.66,316.8Z"/><g class="cls-12"><path d="M446.39,205.51s-.84,43.64-61.51,100.5-149.6,45.4-149.6,45.4L249.09,410l171.65,57.76s44.59-26.42,51.56-33,23.19,10.17,28.76-56.72-7.56-180.9-10.5-177.86S446.39,205.51,446.39,205.51Z"/></g><path class="cls-13" d="M672,214.72V340.87a74.9,74.9,0,0,1-74.9,74.9H471v-70h-4.71a27.6,27.6,0,0,1-27.6-27.6v-5.9a27.6,27.6,0,0,1,27.6-27.59H471v-70h70v4.71a27.6,27.6,0,0,0,27.6,27.6h5.9A27.6,27.6,0,0,0,602,219.43v-4.71Z"/><path class="cls-6" d="M677.46,219.22V345.38a74.89,74.89,0,0,1-74.89,74.89H476.42v-70h-4.7a27.6,27.6,0,0,1-27.6-27.59v-5.91a27.6,27.6,0,0,1,27.6-27.59h4.7v-70h70v4.71A27.6,27.6,0,0,0,574,251.53h5.9a27.6,27.6,0,0,0,27.6-27.6v-4.71Z"/><g class="cls-14"><path class="cls-15" d="M641.73,202.65c0,3.65,3.16,80-60,129.45S466.16,383,466.16,383l-4.37,51.78s119.52,6,122.18,6.37,122-11.4,122-11.4l38-130.71s-.76-73.75-13.31-87.06S641.73,202.65,641.73,202.65Z"/></g><path class="cls-2" d="M77.94,594.2S53,603.07,48.68,602.69s-22.42,3-26.22,7.09,3.8,30.91,6.46,45.1,23.69,27.61,32.81,25.46,14.06-15.58,8.61-22.8-6.84-14.44-7.72-22.42,7.6-11.53,19.12-15.21Z"/><g class="cls-16"><path class="cls-3" d="M48.3,596.42s-4.07,10,5.32,22.42,12.92,14.63,12.92,14.63L93,630.24,94.22,602,81.74,581Z"/><path d="M24.26,603s1.14,22.14,5.61,40.19,8.45,23.94,18.24,29.36a56.15,56.15,0,0,0,20.62,6.17l-1.43,4.18-26.88-.66-15.21-19L15,619.69s-7.69-10.26-2.75-12.06S24.26,603,24.26,603Z"/></g><path class="cls-2" d="M118,136.28c0-.28-3-13.87-9.6-15S90,122,87.45,137.8s18.71,14,18.71,14Z"/><g class="cls-17"><g class="cls-18"><path class="cls-19" d="M107.33,117s2.54,7.6-6.84,17.49-17.23,3.16-17.23,3.16l.64,16.22,18.73,10.51s32.7,3.42,31.43-8.61-9.12-25.08-10.76-27.24S107.33,117,107.33,117Z"/></g><path d="M93.15,151.83s6.08-22.8,27.23-26.73l6.21,16.72-17,16.09Z"/></g><path class="cls-2" d="M175.36,168.17s10.64.26,13.94-19.51-15.08-23.31-19.51-21.53c0,0-16-8.53-38.51-.4s-35.47,22.44-35.85,42.58-21.16,16.34-27.49,33.57,8.23,29.39-3.17,44.21a108.34,108.34,0,0,1-23.31,22.68s7,24.2,35.34,30.15,57.9-5.83,57.9-5.83-.89-25.61.25-42.19,11.78-36.35,11.78-36.35Z"/><g class="cls-20"><path d="M63,303.59s38.13-14.15,41.58-33.82-3.1-28.41,4.31-45.13,15.26-19.22,16.66-36.2S130.9,157,140.9,155.63s32.76-4.81,38.87-13.17,5-14.82,5-14.82,7.22,6.46,7.6,7,3.51,17.23,3.51,17.23L173.44,193.4l-18.09,77.89L134.44,309s-52.95.38-53.58.25S63,303.59,63,303.59Z"/></g><path class="cls-2" d="M177.61,230.91s4.28-2.56,9.88,1.62,47.79,49.4,47.79,49.4-2.66,29.17-20.81,34.21Z"/><path class="cls-2" d="M315.22,579.38c0,.38,1.26,23.69,0,24.32s-4.44,4.18-5.45,16-2.53,19.76,8.87,20.65,69,.76,72.71-2.66,4.31-17.23-11.4-20.4-34.84-13-37.37-16.08-1.39-21.79-1.39-21.79Z"/><g class="cls-21"><path class="cls-3" d="M309.08,598.32l6.14,5.38s1.77,2.5,12.32,3.45,23.87-6.65,23.76-7.12,2.08-28.22,2.08-28.22L325.45,571s-14.91-1.94-15.4.95S309.08,598.32,309.08,598.32Z"/><path d="M308.57,636c.19,0,26.22.64,43.19.32s43.64-2.6,43.64-2.6l-1.88,7L304,643.37Z"/></g><path class="cls-7" d="M143.06,383l-2.22,1.14s-14.24,27.27-10.11,61.19,50,110.88,50,110.88L73.29,590.43s5.41,38.48,18.81,61.85c0,0,50.45-18,97.77-34.2S258,598.7,252.29,571.62,229.2,484.4,229.2,484.4s54.44-22.52,68.69-14.54.48,111.16.48,111.16,42,10.36,64.51-1.9c0,0-2.28-78.47-5.13-114.1s2-46.46-51.59-54.73S229.11,398.41,217,385.68Z"/><g class="cls-22"><path class="cls-23" d="M81.74,640.78s31.66-10,69.23-22.13,81.65-24.71,80.13-45.23-17.64-102.23-5.21-121.61,39,124.72,39,124.72l-9.51,31.1s-5.32,16.72-48.26,23.94-75.63,15.2-84.37,16.34-39.53,7.22-39.53,7.22Z"/><path class="cls-8" d="M253.57,391c-1.57.76-55.91,23.76-24.37,93.4s58.08,26.08,58.08,26.08l-33.71,99.6,72.16,17.69L431,579.38l-7.6-120.73-49.78-63.47Z"/><g class="cls-24"><path class="cls-23" d="M220.93,401.11c1.81-1,102.9,14.22,112.78,28.66s13.68,161.89,13.68,161.89L395.28,581l-1.76-121.61L389.2,410s-47.89-18.25-55.49-18.63-77.15-6.46-77.15-6.46l-35.63,17.86"/></g><g class="cls-25"><path class="cls-26" d="M60.46,617.73a2.5,2.5,0,0,1-.91-4.83l138.73-54.55c-6.8-16.08-44.05-104.89-47.93-128.17-4.3-25.8,6.42-41.48,6.88-42.13a2.5,2.5,0,0,1,4.09,2.86h0a40.82,40.82,0,0,0-4.52,10.26,62.05,62.05,0,0,0-1.52,28.19c4.08,24.5,48.16,128.36,48.6,129.4a2.49,2.49,0,0,1,0,2,2.54,2.54,0,0,1-1.39,1.36L61.38,617.55A2.47,2.47,0,0,1,60.46,617.73Z"/></g></g><path class="cls-1" d="M165.23,226.7s9.24-3.67,15.07,4.81,18.5,22.93,28,30.79,17.48,19.63,9.12,46.23-.38,77.15-.38,77.15-7.6,14.44-35.91,15.39-40.29-16.91-40.29-16.91,5.32-14.44,1.9-34.2-15.58-41.81-16.15-70.12,9.85-52.44,14.95-54.53S165.23,226.7,165.23,226.7Z"/><g class="cls-27"><path class="cls-28" d="M214.31,310.08h-.53c-16.57-.6-26,18.69-16,31.9a31.81,31.81,0,0,1,3.78,5.9c1.86,4.4,2.45,13.9,2.47,23.91a19.82,19.82,0,0,0,30.59,16.62c3.32-2.16,5.62-4.07,6-5.38,1-3.89,1.3-32,1.39-48.27a19.82,19.82,0,0,0-9.83-17.23L224,312.77A19.3,19.3,0,0,0,214.31,310.08Z"/></g><path class="cls-29" d="M182.46,156.52s4.68,25.65,4.08,38.57c-.56,12-3.83,22.11-20.55,22.23v15.33s-20.26,5.23-24.45-7.34c-.38-1.14,0-28.38,0-28.38s-9.5-4.43-8-16.85,11.27-5.45,11.27-5.45l2.28-9.37S169.66,165.26,182.46,156.52Z"/><path class="cls-3" d="M205.45,303.78s24.89,18.44,33.63,22.24,84.37-35.35,94.06-46.56,12.73-28.69,33.44-31.73,22.24,16.53,12.55,24.51-29.46,21.47-35,25.08-64.6,51.5-99,59.1c-12,3-55.47-27.55-55.47-27.55Z"/><g class="cls-30"><path class="cls-31" d="M191.83,323.28c.76,1,40.28,25.29,49.78,26.43S347.9,295.3,347.9,295.3L333.71,326s-99.06,39.9-100.2,40-54.35-39.65-54.35-39.65Z"/></g><path class="cls-4" d="M136.34,251.9c12-10.75,33.19,6,49.79,22.43s24.57,25,24.57,25-2,17.1-13.93,28.12a38.61,38.61,0,0,1-25.46,10.51s-21.94-30.78-29.39-42.18S124.18,262.78,136.34,251.9Z"/><g class="cls-32"><path class="cls-2" d="M129.09,253.52s3,18.1,22.48,38.57,43.77,40.63,43.77,40.63-.15,8.12-2.05,8.88S143.5,346,143.5,346s-15.77-18.62-20.9-40.29-8.36-41.23-8.36-41.23Z"/></g><ellipse class="cls-9" cx="937.89" cy="644.03" rx="249.17" ry="56.63"/><path class="cls-33" d="M918.5,207.43a44.24,44.24,0,0,0,4.17-3.11c6.21-5.23,11.39-12.26,15.46-19.2,2-3.32,3.66-6.63,5.1-9.7,15.24,10.25,28.6,20.76,34.08,28.62a24.77,24.77,0,0,1,1.91,3.2c7.6,15.26-4,32.15-18.5,30.16a18.9,18.9,0,0,1-5.22-1.52C942.68,230.14,932.73,223,918.5,207.43Z"/><path class="cls-29" d="M817.29,163.35c.13-1.22,1.17-3.31,3.39-6.65,5.12-7.73,15.79-13.64,28.13-16.38,13-2.87,27.83-2.22,40,3.54,13.2,6.26,35.3,18.7,54.43,31.56-1.44,3.07-3.14,6.38-5.1,9.7-4.07,6.94-9.25,14-15.46,19.2a44.24,44.24,0,0,1-4.17,3.11c-3-3.28-6.19-6.94-9.63-11-19.8-23.54-52.17-37.9-67.51-37C829.25,160.08,816.81,167.9,817.29,163.35Z"/><path class="cls-31" d="M817.29,163.35c4.67-4.62,17.87-5.38,31.39-5.67,16.58-.36,51.71,19.22,65.09,36.91a83.74,83.74,0,0,0,8.9,9.73,44.24,44.24,0,0,1-4.17,3.11c-3-3.28-6.19-6.94-9.63-11-19.8-23.54-52.17-37.9-67.51-37C829.25,160.08,816.81,167.9,817.29,163.35Z"/><path class="cls-34" d="M918.5,207.43a44.24,44.24,0,0,0,4.17-3.11c15.79,15.11,39.51,30.84,38.05,33.08a18.9,18.9,0,0,1-5.22-1.52C942.68,230.14,932.73,223,918.5,207.43Z"/><path class="cls-35" d="M848.81,140.32c13-2.87,27.83-2.22,40,3.54,13.2,6.26,35.3,18.7,54.43,31.56-1.44,3.07-3.14,6.38-5.1,9.7-11.6-7.65-18.57-14.57-24-18.59C878,139.93,871.23,140.79,848.81,140.32Z"/><path class="cls-36" d="M938.13,185.12c2-3.32,3.66-6.63,5.1-9.7,15.24,10.25,28.6,20.76,34.08,28.62a24.77,24.77,0,0,1,1.91,3.2C972.57,201.84,954.64,193,938.13,185.12Z"/><path class="cls-36" d="M975.18,201.42c-15.48-.66-32-26.13-32-26.13s-14.56,26.79-16.54,29.77,20.12,24.48,24.28,26.46S975.18,201.42,975.18,201.42Z"/><path class="cls-37" d="M799.57,648.8c2.61-.54,5.42,0,3.93,1.37s-63,2.23-71.78,2.39S717,650,722.46,648.93,799.57,648.8,799.57,648.8Z"/><path class="cls-29" d="M743.22,650.16c21.43.1,52.29-.72,56.35-1.36,5.38-.83,17.28-72.56,20.85-97.6.65-4.6,1-7.62,1-8.34,0-2-9.46-1.44-20.28-.15-14.4,1.71-31.18,4.72-31.18,4.72-1.47,4.22-3.56,13.5-5.76,24.4-1.45,7.19-3,15.09-4.36,22.72-3.18,17.17-5.9,32.93-6.52,36.06-1.05,5.24-19,12.22-27,16-2.12,1-3.56,1.79-3.84,2.28C722,649.76,731.09,650.11,743.22,650.16Z"/><path class="cls-35" d="M743.22,650.16c21.43.1,52.29-.72,56.35-1.36,5.38-.83,17.28-72.56,20.85-97.6a81.12,81.12,0,0,0-19.26-8.49c-14.4,1.71-31.18,4.72-31.18,4.72-1.47,4.22-3.56,13.5-5.76,24.4,4.23,4.44,24.22,3.15,28.58,7.73,5.24,5.52-5.34,54.92-12.18,61.75C776.74,645.19,759.15,648.23,743.22,650.16Z"/><path class="cls-31" d="M726.3,646.65c8.08,1.59,26-3.73,30.06-8.76,4.41-5.47,4.82-25.35,3.5-43.34-3.18,17.17-5.9,32.93-6.52,36.06C752.29,635.85,734.36,642.83,726.3,646.65Z"/><path class="cls-37" d="M743.19,638.78c-2.71-.77,7.89,10.55,22.33,11.23l-8.93.16s-16.53-5.75-16.26-9.95S743.19,638.78,743.19,638.78Z"/><path class="cls-35" d="M1049.35,558.24c4.71,5.44,19.93,18.8,34.36,31.14,13.8,11.8,26.88,22.68,29.36,24.86,5.07,4.45-.92,33.59.43,35.89.56,1,7-9.52,14.42-22.49,10.34-18,22.67-40.85,24-44.35,2.32-6-76.78-69.58-80.81-71.91S1049.35,558.24,1049.35,558.24Z"/><path class="cls-29" d="M1113.5,650.13c.56,1,7-9.52,14.42-22.49,2.85-13.08,6-29.69,2.69-35.28-4.9-8.18-28.33-6.13-46.9-3,13.8,11.8,26.88,22.68,29.36,24.86C1118.14,618.69,1112.15,647.83,1113.5,650.13Z"/><path class="cls-37" d="M1151.94,583.29c.84-2.53,2.68-4.71,3.15-2.72s-29.58,55.69-33.82,63.37-9.59,11.44-7.78,6.19S1151.94,583.29,1151.94,583.29Z"/><path class="cls-37" d="M1115.07,627.11c-2,2,13.08-1.56,20.89-13.72l-4.32,7.81s-13.25,11.44-16.75,9.11S1115.07,627.11,1115.07,627.11Z"/><path class="cls-29" d="M977.4,187.81c8.51-.26,23.89,1,29,2.25.81-11.16,2-22.36,3.62-33.33l-23.65-2.45s-1.35,7.3-3.77,16.57c-1.18,4.55-2.62,9.58-4.29,14.46C978,186.15,977.7,187,977.4,187.81Z"/><path class="cls-35" d="M978.27,185.31c4.1-1.17,11-3.85,14.62-10a73.4,73.4,0,0,0-10.33-4.44C981.38,175.4,979.94,180.43,978.27,185.31Z"/><path class="cls-38" d="M988.77,119.15c-11-5.67-19.46-17.92-16.22-21s9.56-4.2,11.81-7.72,13.1,10.84,9.69,18.73S988.77,119.15,988.77,119.15Z"/><path class="cls-29" d="M981.76,108.25a30.83,30.83,0,0,0-2.44,3.87,46.28,46.28,0,0,0-3.29,8c-2.2,7-10.9,8.73-13.71,10.61-1.42,1-.84,2.07-.09,3.63a8.53,8.53,0,0,1,1,6.15c-.32,1.36-1.5,3.73-2.68,6.64-3.48,8.56-7,21.75,11,27.49a60.14,60.14,0,0,0,16.21,3h0a37.74,37.74,0,0,0,9-.72c6.23-1.3,9.08-3.88,9.08-3.88s-.35-12.61-.92-24.83c-.47-9.9-1.09-19.54-1.78-22-.07-.23-.14-.48-.21-.76-1.5-5.89-4.36-22.2-4.84-25-.05-.26-.07-.4-.07-.4h-.12C990.32,99.87,985.21,103.63,981.76,108.25Z"/><path class="cls-35" d="M981.76,108.25c2.93,6.39,9.94,4.3,12.47,11.52,2.64,7.55,9.29,12,9.29,12s-.18-2.56-.57-6.29c-1.5-5.89-4.36-22.2-4.84-25-.06-.14-.13-.28-.19-.41C990.32,99.87,985.21,103.63,981.76,108.25Z"/><path class="cls-38" d="M977.62,99.07A13.55,13.55,0,0,0,990,102.3c1.69-.32,2.71-.67,2.65,0-.13,1.34,1.4,19.59,8.85,30.81a23.93,23.93,0,0,0,4.4,5,16.53,16.53,0,0,0,1.94,1.41l0,0a33.7,33.7,0,0,0-4,11.78c-.92,6.71-4.68,15.71-2,20.6s31.25,15.41,39.8-6.62c.66-1.68,1.19-3.25,1.62-4.74,5.23-18-4.89-22.85-8.1-33.51-3.47-11.53,9.8-4.49,3.13-25.53s-30.5-10.77-32.55-13-1.31-7.66-5.82-5.83c-1.07.44-1.71.37-2.18,0-1.48-1.19-1.16-5.53-7.5-6.85C981.94,74.16,970,92.28,977.62,99.07Z"/><path class="cls-39" d="M1007.84,139.52l0,0a33.7,33.7,0,0,0-4,11.78c-.92,6.71-4.68,15.71-2,20.6s31.25,15.41,39.8-6.62c.66-1.68,1.19-3.25,1.62-4.74a60.58,60.58,0,0,1-3.73,4.88c-3.36,3.69-16.24,3.68-21.4-6.67s-2.87-10.46-4.3-17.78C1013.86,141,1011.3,140.32,1007.84,139.52Z"/><path class="cls-31" d="M962.32,130.76c-1.42,1-.84,2.07-.09,3.63a9,9,0,0,1,4.33-2.18c5.08-1.09,12.85-7,12.85-18,0-.76,0-1.46-.09-2.09a46.28,46.28,0,0,0-3.29,8C973.83,127.19,965.13,128.88,962.32,130.76Z"/><path class="cls-5" d="M977.62,99.07A13.55,13.55,0,0,0,990,102.3c-8.31-3.09-9.51-11.81-3.82-12.06,5.84-.25,6.73-.25,5.13-5s4-3.93,5.18-2.31c.44.59.94.4,1.28-.23-1.48-1.19-1.16-5.53-7.5-6.85C981.94,74.16,970,92.28,977.62,99.07Z"/><path class="cls-29" d="M995.93,139.9c9.16-8.39,19.45-8.88,18.57,2.7s-17,10.79-17,10.79Z"/><path class="cls-35" d="M1004,136.43s6.16-1.92,7.68,3.83-3.71,10-7.89,11.07c0,0,7.6-1.68,6.57-9S1004,136.43,1004,136.43Z"/><path class="cls-35" d="M1008.77,145.41c-1.37,3.08-5.54,4.76-6.95,2.62a3.76,3.76,0,0,1,0-4.14s-1,3.34.74,4.05S1006.71,147.62,1008.77,145.41Z"/><path class="cls-35" d="M1006,141.79c1,1.83.51,4.84-1.3,3.82s-1.67-3-2.32-3-1.09-2.45.63-2.58S1006,141.79,1006,141.79Z"/><path class="cls-33" d="M970,195.6c0,1.48.49,2.46,2,2.05a7.15,7.15,0,0,1,1.39-.16c6-.26,25.87,1.63,32.44,1.49,1.33,0,2.11-.14,2.12-.37.08-1.49.78-7.25,0-7.94a4.41,4.41,0,0,0-1.55-.61c-3.86-1-13.7-1.92-21.93-2.21-2.58-.08-5-.11-7,0-3.29.1-5.55.42-5.79,1A22.14,22.14,0,0,0,970,195.6Z"/><path class="cls-34" d="M970,195.6c5.37-2.13,16.44-6.73,14.44-7.74h0c-2.58-.08-5-.11-7,0-3.29.1-5.55.42-5.79,1A22.14,22.14,0,0,0,970,195.6Z"/><path class="cls-40" d="M824.3,87.21,699.65,61.55l-14.24,69.14-4.65-.95a27.84,27.84,0,0,0-32.88,21.65l-1.2,5.83a27.84,27.84,0,0,0,21.65,32.88l4.65,1-14.23,69.15,69.14,14.23-.95,4.65A27.84,27.84,0,0,0,748.59,312l5.83,1.2a27.84,27.84,0,0,0,32.88-21.66l1-4.65L857.4,301.1l25.67-124.65A75.57,75.57,0,0,0,824.3,87.21Z"/><path class="cls-5" d="M834.6,86.68,710,61l-14.24,69.15-4.65-1a27.84,27.84,0,0,0-32.88,21.65l-1.2,5.83a27.84,27.84,0,0,0,21.66,32.88l4.65,1-14.24,69.15,69.15,14.23-1,4.65a27.85,27.85,0,0,0,21.65,32.89l5.83,1.2A27.86,27.86,0,0,0,797.61,291l.95-4.65,69.15,14.23,25.66-124.65A75.57,75.57,0,0,0,834.6,86.68Z"/><g class="cls-41"><path class="cls-15" d="M820.8,70.24S803.16,168.18,741,208.82s-138.58,29.6-138.58,29.6l-9.66,49.75L839.83,342l60.49-16.24,32.39-176.91L887.38,111Z"/></g><path class="cls-8" d="M917.07,419.83c3.55,13.65,7.93,25.41,11.51,31.37,3,5.05,15.1,18.05,30.13,33.14,24.4,24.48,56.58,54.43,70.5,64.67a52.26,52.26,0,0,1,7.29,6.54c16.46,17.72,21.13,44.44,25.79,39.77,5.3-5.3,13.9-29.77,18.53-36.39s34.79-12,34.79-16.59-112.27-96.43-116.36-100.4c-3.66-3.55-6.87-47.38-17-87.84-1.19-4.76-2.47-9.48-3.87-14.08a180.93,180.93,0,0,0-35.78,4.44c-10.85,2.64-21.43,6.83-27.24,13.51a17.73,17.73,0,0,0-4.56,10.5C909.67,383.73,912.75,403.19,917.07,419.83Z"/><path class="cls-38" d="M915,355.72a10.09,10.09,0,0,0,.38,2.25c4.33,15.78,43.47,48.63,43.47,48.63-3.48,36.21,63.93,110,72.31,131.25a97.87,97.87,0,0,1,5.35,17.7c16.46,17.72,21.13,44.44,25.79,39.77,5.3-5.3,13.9-29.77,18.53-36.39s34.79-12,34.79-16.59-112.27-96.43-116.36-100.4c-3.66-3.55-6.87-47.38-17-87.84A51.12,51.12,0,0,0,963.05,347c-7.9-1.08-14.67-2-20.44-2.55C922.12,342.4,914.45,344.29,915,355.72Z"/><path class="cls-26" d="M1079,560.47a.31.31,0,0,0,.22-.09.33.33,0,0,0,0-.47l-1.56-1.72a.33.33,0,1,0-.49.45l1.56,1.72A.32.32,0,0,0,1079,560.47Zm-3.12-3.44a.4.4,0,0,0,.23-.08.34.34,0,0,0,0-.47l-1.57-1.71a.32.32,0,0,0-.47,0,.34.34,0,0,0,0,.47l1.57,1.7A.29.29,0,0,0,1075.91,557Zm-3.14-3.41a.35.35,0,0,0,.23-.09.33.33,0,0,0,0-.47l-1.57-1.7a.33.33,0,0,0-.47,0,.32.32,0,0,0,0,.46l1.58,1.7A.32.32,0,0,0,1072.77,553.62Zm-3.16-3.39a.35.35,0,0,0,.23-.09.33.33,0,0,0,0-.47l-1.59-1.69a.33.33,0,0,0-.48.45l1.59,1.69A.32.32,0,0,0,1069.61,550.23Zm-3.18-3.38a.35.35,0,0,0,.23-.09.34.34,0,0,0,0-.47l-1.6-1.67a.33.33,0,1,0-.48.45l1.6,1.68A.31.31,0,0,0,1066.43,546.85Zm-3.2-3.35a.31.31,0,0,0,.22-.09.32.32,0,0,0,0-.47c-.53-.55-1.06-1.11-1.61-1.67a.32.32,0,0,0-.46,0,.31.31,0,0,0,0,.46l1.61,1.67A.31.31,0,0,0,1063.23,543.5Zm-3.23-3.33a.33.33,0,0,0,.23-.09.34.34,0,0,0,0-.47l-1.63-1.66a.32.32,0,0,0-.46,0,.33.33,0,0,0,0,.47q.83.83,1.62,1.65A.33.33,0,0,0,1060,540.17Zm-3.25-3.31a.32.32,0,0,0,.23-.09.33.33,0,0,0,0-.47l-1.64-1.64a.32.32,0,0,0-.46,0,.33.33,0,0,0,0,.46l1.64,1.65A.33.33,0,0,0,1056.75,536.86Zm-3.27-3.28a.3.3,0,0,0,.23-.1.32.32,0,0,0,0-.46l-1.64-1.64a.34.34,0,0,0-.47,0,.32.32,0,0,0,0,.46l1.65,1.64A.33.33,0,0,0,1053.48,533.58Zm-3.3-3.25a.37.37,0,0,0,.24-.1.33.33,0,0,0,0-.47l-1.66-1.62a.32.32,0,0,0-.47,0,.33.33,0,0,0,0,.46l1.66,1.62A.34.34,0,0,0,1050.18,530.33Zm-3.32-3.23a.34.34,0,0,0,.23-.1.32.32,0,0,0,0-.47l-1.67-1.61a.33.33,0,0,0-.46.48l1.68,1.6A.29.29,0,0,0,1046.86,527.1Zm-3.36-3.2a.35.35,0,0,0,.24-.1.33.33,0,0,0,0-.47l-1.7-1.59a.33.33,0,0,0-.47,0,.34.34,0,0,0,0,.47l1.69,1.59A.35.35,0,0,0,1043.5,523.9Zm-3.39-3.17a.31.31,0,0,0,.24-.1.33.33,0,0,0,0-.47l-1.71-1.57a.33.33,0,0,0-.46,0,.32.32,0,0,0,0,.47l1.7,1.56A.35.35,0,0,0,1040.11,520.73Zm-3.42-3.12a.32.32,0,0,0,.24-.11.32.32,0,0,0,0-.47l-1.73-1.54a.32.32,0,0,0-.46,0,.33.33,0,0,0,0,.47l1.73,1.55A.35.35,0,0,0,1036.69,517.61Zm-3.46-3.08a.36.36,0,0,0,.25-.11.34.34,0,0,0,0-.47l-1.75-1.52a.33.33,0,0,0-.47,0,.34.34,0,0,0,0,.47l1.75,1.52A.35.35,0,0,0,1033.23,514.53Zm-3.51-3a.32.32,0,0,0,.25-.12.34.34,0,0,0,0-.47l-1.78-1.49a.32.32,0,0,0-.46,0,.33.33,0,0,0,0,.47l1.77,1.49A.34.34,0,0,0,1029.72,511.5Zm-3.55-3a.32.32,0,0,0,.25-.12.32.32,0,0,0,0-.46l-1.8-1.47a.33.33,0,0,0-.42.52l1.8,1.46A.31.31,0,0,0,1026.17,508.52Zm-3.62-2.9a.33.33,0,0,0,.26-.13.32.32,0,0,0,0-.46c-.55-.44-1.11-.87-1.65-1.29l-.18-.14a.34.34,0,0,0-.41.53l.18.13,1.65,1.29A.37.37,0,0,0,1022.55,505.62Zm-3.66-2.84a.3.3,0,0,0,.26-.13.32.32,0,0,0-.06-.46l-1.83-1.42a.32.32,0,0,0-.46.06.32.32,0,0,0,.06.46l1.83,1.42A.31.31,0,0,0,1018.89,502.78Zm-3.66-2.85a.33.33,0,0,0,.2-.59l-1.83-1.43a.32.32,0,0,0-.46,0,.34.34,0,0,0,.05.47l1.83,1.43A.33.33,0,0,0,1015.23,499.93Zm-3.65-2.87a.35.35,0,0,0,.26-.13.33.33,0,0,0-.05-.46L1010,495a.33.33,0,0,0-.41.51l1.81,1.45A.34.34,0,0,0,1011.58,497.06Zm-3.62-2.91a.34.34,0,0,0,.26-.12.34.34,0,0,0-.05-.47l-1.79-1.47a.34.34,0,0,0-.47.05.32.32,0,0,0,0,.46q.9.75,1.8,1.47A.34.34,0,0,0,1008,494.15Zm-3.58-2.95a.32.32,0,0,0,.25-.12.33.33,0,0,0,0-.47l-1.77-1.49a.33.33,0,0,0-.47,0,.33.33,0,0,0,0,.46c.59.51,1.18,1,1.78,1.5A.34.34,0,0,0,1004.38,491.2Zm-3.54-3a.34.34,0,0,0,.26-.12.34.34,0,0,0,0-.47l-1.74-1.52a.34.34,0,0,0-.47,0,.33.33,0,0,0,0,.47c.58.51,1.16,1,1.75,1.52A.3.3,0,0,0,1000.84,488.2Zm-3.48-3.07a.36.36,0,0,0,.25-.11.33.33,0,0,0,0-.47L995.87,483a.33.33,0,0,0-.45.49l1.72,1.56A.37.37,0,0,0,997.36,485.13ZM993.94,482a.39.39,0,0,0,.25-.1.34.34,0,0,0,0-.47l-1.68-1.59a.32.32,0,0,0-.47,0,.33.33,0,0,0,0,.46l1.69,1.6A.31.31,0,0,0,993.94,482Zm-3.34-3.21a.3.3,0,0,0,.23-.1.32.32,0,0,0,0-.46c-.55-.55-1.1-1.09-1.64-1.64a.33.33,0,0,0-.47.47l1.65,1.64A.32.32,0,0,0,990.6,478.79Zm-3.27-3.29a.32.32,0,0,0,.23-.09.32.32,0,0,0,0-.47q-.8-.82-1.59-1.68a.33.33,0,0,0-.48.46l1.6,1.68A.3.3,0,0,0,987.33,475.5Zm-3.17-3.38a.35.35,0,0,0,.23-.09.33.33,0,0,0,0-.46c-.52-.57-1-1.15-1.55-1.73a.33.33,0,1,0-.49.44c.51.58,1,1.16,1.55,1.73A.32.32,0,0,0,984.16,472.12Zm-3.06-3.48a.29.29,0,0,0,.21-.08.32.32,0,0,0,0-.46c-.5-.59-1-1.18-1.49-1.78a.33.33,0,0,0-.51.43c.49.59,1,1.19,1.5,1.78A.33.33,0,0,0,981.1,468.64Zm-3-3.58a.31.31,0,0,0,.21-.07.32.32,0,0,0,0-.46c-.48-.6-.95-1.21-1.42-1.82a.34.34,0,0,0-.47-.07.34.34,0,0,0-.06.47c.48.61.95,1.22,1.44,1.83A.32.32,0,0,0,978.14,465.06Zm-2.82-3.68a.36.36,0,0,0,.2-.06.34.34,0,0,0,.07-.46c-.46-.62-.92-1.25-1.36-1.88a.33.33,0,1,0-.54.39c.44.62.9,1.26,1.36,1.88A.34.34,0,0,0,975.32,461.38Zm-2.69-3.78a.33.33,0,0,0,.19-.06.34.34,0,0,0,.09-.46c-.44-.63-.87-1.28-1.29-1.93a.33.33,0,1,0-.55.37c.42.64.85,1.3,1.29,1.93A.32.32,0,0,0,972.63,457.6Zm-2.53-3.89a.26.26,0,0,0,.17,0,.32.32,0,0,0,.11-.45c-.41-.65-.81-1.32-1.2-2a.33.33,0,0,0-.45-.12.34.34,0,0,0-.12.46c.39.65.8,1.32,1.21,2A.32.32,0,0,0,970.1,453.71Zm-2.37-4a.37.37,0,0,0,.17-.05.34.34,0,0,0,.12-.45c-.38-.66-.75-1.34-1.12-2a.32.32,0,0,0-.44-.13.32.32,0,0,0-.14.45l1.12,2A.35.35,0,0,0,967.73,449.74Zm-2.19-4.08a.28.28,0,0,0,.15,0,.33.33,0,0,0,.14-.44c-.35-.68-.69-1.38-1-2.07a.33.33,0,1,0-.59.29c.33.69.68,1.39,1,2.08A.35.35,0,0,0,965.54,445.66Zm-2-4.17a.35.35,0,0,0,.14,0,.33.33,0,0,0,.16-.44c-.32-.69-.63-1.4-.93-2.1a.34.34,0,0,0-.44-.18.33.33,0,0,0-.17.44c.3.71.62,1.42.94,2.12A.34.34,0,0,0,963.52,441.49Zm-1.83-4.25.12,0a.33.33,0,0,0,.19-.43c-.29-.71-.57-1.44-.84-2.15a.33.33,0,0,0-.43-.19.32.32,0,0,0-.19.42c.27.72.56,1.45.84,2.16A.35.35,0,0,0,961.69,437.24Zm-1.64-4.33a.2.2,0,0,0,.11,0,.33.33,0,0,0,.2-.42c-.25-.72-.5-1.46-.74-2.18a.33.33,0,0,0-.63.2c.24.74.49,1.48.75,2.2A.33.33,0,0,0,960.05,432.91Zm-1.44-4.4h.09a.32.32,0,0,0,.22-.41c-.22-.73-.44-1.48-.64-2.22a.34.34,0,0,0-.41-.23.33.33,0,0,0-.23.41c.21.74.43,1.49.65,2.23A.33.33,0,0,0,958.61,428.51Zm-1.25-4.45h.08a.34.34,0,0,0,.24-.41c-.19-.74-.38-1.49-.55-2.24a.32.32,0,0,0-.4-.24.33.33,0,0,0-.25.39c.18.75.36,1.51.56,2.26A.33.33,0,0,0,957.36,424.06Zm-1.06-4.51h.07a.34.34,0,0,0,.26-.39c-.16-.75-.32-1.51-.46-2.26a.33.33,0,0,0-.65.12c.14.76.3,1.52.46,2.28A.33.33,0,0,0,956.3,419.55Zm-.86-4.55h0a.33.33,0,0,0,.27-.38c-.12-.75-.25-1.52-.36-2.28a.33.33,0,0,0-.37-.28.32.32,0,0,0-.28.37c.11.77.23,1.54.36,2.3A.33.33,0,0,0,955.44,415Z"/><path class="cls-26" d="M960.8,493.93Zm-.38-8.92h0a.33.33,0,0,0,.29-.36c-.08-.78-.18-1.55-.28-2.31a.34.34,0,0,0-.38-.28.33.33,0,0,0-.28.37c.11.75.2,1.52.29,2.29A.32.32,0,0,0,960.42,485Zm-.65-4.58h.06a.33.33,0,0,0,.27-.38c-.14-.77-.29-1.54-.46-2.28a.33.33,0,0,0-.39-.26.33.33,0,0,0-.25.4c.16.74.31,1.5.45,2.26A.31.31,0,0,0,959.77,480.43Zm-1-4.52h.08a.33.33,0,0,0,.24-.41c-.19-.75-.41-1.5-.63-2.24a.33.33,0,0,0-.41-.22.32.32,0,0,0-.22.41c.22.73.43,1.47.62,2.22A.33.33,0,0,0,958.78,475.91Zm-1.34-4.43.11,0a.33.33,0,0,0,.2-.42c-.26-.74-.53-1.47-.82-2.19a.33.33,0,1,0-.61.25c.28.7.55,1.43.8,2.15A.34.34,0,0,0,957.44,471.48Zm-1.72-4.3a.31.31,0,0,0,.13,0,.34.34,0,0,0,.17-.44c-.32-.71-.67-1.42-1-2.1a.33.33,0,0,0-.45-.14.32.32,0,0,0-.14.44c.34.67.68,1.37,1,2.07A.31.31,0,0,0,955.72,467.18Zm-2.11-4.12a.33.33,0,0,0,.16-.05.33.33,0,0,0,.12-.45c-.39-.67-.8-1.34-1.22-2a.32.32,0,0,0-.45-.09.32.32,0,0,0-.1.45c.41.64.81,1.3,1.2,2A.32.32,0,0,0,953.61,463.06Zm-2.53-3.88a.31.31,0,0,0,.2-.07.33.33,0,0,0,.07-.46c-.46-.63-1-1.25-1.44-1.84a.32.32,0,0,0-.46,0,.33.33,0,0,0-.05.46c.49.58,1,1.19,1.41,1.81A.35.35,0,0,0,951.08,459.18Zm-3-3.57a.35.35,0,0,0,.23-.09.33.33,0,0,0,0-.46c-.54-.58-1.1-1.13-1.66-1.65a.31.31,0,0,0-.46,0,.32.32,0,0,0,0,.46c.55.51,1.1,1.06,1.63,1.62A.31.31,0,0,0,948.13,455.61Zm-3.39-3.15a.33.33,0,0,0,.25-.11.34.34,0,0,0,0-.47,18.94,18.94,0,0,1-1.6-1.62.33.33,0,1,0-.5.44,20.14,20.14,0,0,0,1.65,1.67A.35.35,0,0,0,944.74,452.46ZM941.65,449a.31.31,0,0,0,.2-.07.33.33,0,0,0,.06-.46c-.43-.57-.89-1.19-1.35-1.87a.33.33,0,0,0-.55.38c.48.68.94,1.32,1.38,1.89A.33.33,0,0,0,941.65,449ZM939,445.21a.31.31,0,0,0,.18,0,.33.33,0,0,0,.09-.46c-.39-.6-.79-1.24-1.23-1.95a.33.33,0,1,0-.56.35c.44.71.84,1.35,1.24,2A.32.32,0,0,0,939,445.21Zm-2.45-3.94a.26.26,0,0,0,.17,0,.33.33,0,0,0,.12-.45l-1.19-2a.33.33,0,0,0-.45-.12.34.34,0,0,0-.12.46l1.19,2A.33.33,0,0,0,936.55,441.27Zm-2.36-4a.33.33,0,0,0,.17,0,.34.34,0,0,0,.12-.46l-1.18-2a.33.33,0,0,0-.57.34l1.18,2A.33.33,0,0,0,934.19,437.28Zm-2.36-4a.28.28,0,0,0,.17-.05.33.33,0,0,0,.11-.45c-.4-.67-.81-1.33-1.21-2a.33.33,0,1,0-.57.35c.41.65.81,1.31,1.21,2A.34.34,0,0,0,931.83,433.29Zm-2.46-3.93a.41.41,0,0,0,.18-.05.34.34,0,0,0,.09-.46c-.44-.68-.88-1.33-1.3-1.93a.34.34,0,0,0-.46-.09.35.35,0,0,0-.08.47c.41.59.85,1.23,1.29,1.91A.32.32,0,0,0,929.37,429.36Zm-2.66-3.8a.31.31,0,0,0,.2-.07A.33.33,0,0,0,927,425c-.5-.65-1-1.27-1.46-1.82a.33.33,0,0,0-.47,0,.34.34,0,0,0,0,.47c.47.54,1,1.15,1.45,1.79A.3.3,0,0,0,926.71,425.56Zm-3-3.5a.37.37,0,0,0,.24-.1.34.34,0,0,0,0-.47,17.36,17.36,0,0,0-1.77-1.55.32.32,0,0,0-.46.06.33.33,0,0,0,.06.46,18.73,18.73,0,0,1,1.71,1.5A.3.3,0,0,0,923.68,422.06ZM920,419.3a.33.33,0,0,0,.14-.63,8.14,8.14,0,0,0-2.27-.74.33.33,0,0,0-.11.65,7.22,7.22,0,0,1,2.09.69A.4.4,0,0,0,920,419.3Z"/><path class="cls-42" d="M917.07,419.83c3.55,13.65,7.93,25.41,11.51,31.37,3,5.05,15.1,18.05,30.13,33.14-1.5-13-6.7-24-14.62-30.6-3.8-3.14-7.35-9.2-11.12-15.6C928,429.71,922.42,420.18,917.07,419.83Z"/><path class="cls-8" d="M759.23,566.63c2,7.93,15.22-1.33,27.13-2,5.74-.32,14.56,1.82,22.67,3.9,8.71,2.24,16.61,4.41,19,3.38,4.63-2-11.91-17.87,12.72-78.73S930.59,439.6,967,420.41s54.92-45.65,34.3-101.41c0,0-70.68-54.07-87.89-5.05a66.11,66.11,0,0,1-6.6,13.57c-12.1,19.14-32.92,31.93-52.6,45-19.38,12.9-37.64,26.07-45.33,45.89-2.51,6.47-5.39,14-8.46,22.27C782.38,488.88,757.54,559.84,759.23,566.63Z"/><path class="cls-38" d="M809,568.54c8.71,2.24,16.61,4.41,19,3.38,4.63-2-11.91-17.87,12.72-78.73S930.59,439.6,967,420.41s54.92-45.65,34.3-101.41c0,0-70.68-54.07-87.89-5.05a66.11,66.11,0,0,1-6.6,13.57c25.71,4.54,49.46,30.11,36.63,57.31C929.59,414.13,859,414.2,838.56,452,823.52,479.88,813.35,539.15,809,568.54Z"/><path d="M1007,344c2.5,18.58-.12,36.93-8.27,48.62s-27-11.91-28.28-14.88,8.93-38.21,9.59-40.53S1006.6,341,1007,344Z"/><path class="cls-26" d="M993.11,393.86h0a4.66,4.66,0,0,0,1.73-.38.33.33,0,0,0-.27-.61,4,4,0,0,1-1.48.33.34.34,0,0,0-.32.35A.33.33,0,0,0,993.11,393.86Zm-1.64-.15a.33.33,0,0,0,.07-.66,10.46,10.46,0,0,1-1.53-.46.33.33,0,0,0-.43.19.33.33,0,0,0,.19.42,11.06,11.06,0,0,0,1.63.5Zm4.59-1.15a.29.29,0,0,0,.23-.1,6.12,6.12,0,0,0,.81-1l.26-.37a.33.33,0,0,0-.55-.37l-.25.36a6.09,6.09,0,0,1-.73.89.32.32,0,0,0,0,.46A.3.3,0,0,0,996.06,392.56Zm-7.67,0a.32.32,0,0,0,.29-.18.33.33,0,0,0-.14-.44q-.69-.36-1.41-.81a.34.34,0,0,0-.46.1.33.33,0,0,0,.11.46c.49.31,1,.59,1.45.83A.29.29,0,0,0,988.39,392.54Zm-2.82-1.74a.32.32,0,0,0,.27-.14.33.33,0,0,0-.07-.46q-.64-.46-1.32-1a.33.33,0,0,0-.41.52c.46.36.91.7,1.34,1A.35.35,0,0,0,985.57,390.8Zm12.41-.93a.32.32,0,0,0,.28-.15c.29-.47.57-1,.84-1.45a.33.33,0,0,0-.13-.45.34.34,0,0,0-.45.13c-.27.48-.54,1-.82,1.42a.32.32,0,0,0,.28.5Zm-15-1.11a.33.33,0,0,0,.21-.59c-.41-.34-.82-.71-1.24-1.09a.32.32,0,0,0-.46,0,.31.31,0,0,0,0,.46c.42.38.84.76,1.25,1.11A.35.35,0,0,0,983,388.76ZM999.58,387a.35.35,0,0,0,.3-.18c.24-.49.48-1,.71-1.51a.31.31,0,0,0-.16-.43.32.32,0,0,0-.44.16c-.23.5-.46,1-.71,1.48a.34.34,0,0,0,.15.45A.4.4,0,0,0,999.58,387Zm-19.07-.45a.35.35,0,0,0,.24-.1.32.32,0,0,0,0-.47c-.4-.39-.79-.77-1.17-1.16a.33.33,0,0,0-.47,0,.32.32,0,0,0,0,.46c.39.39.78.79,1.18,1.17A.32.32,0,0,0,980.51,386.53Zm-2.32-2.36a.31.31,0,0,0,.22-.09.33.33,0,0,0,0-.47c-.39-.41-.76-.82-1.11-1.22a.34.34,0,0,0-.47,0,.32.32,0,0,0,0,.46c.36.41.74.82,1.13,1.23A.32.32,0,0,0,978.19,384.17ZM1001,384a.33.33,0,0,0,.3-.2c.21-.51.42-1,.61-1.55a.33.33,0,0,0-.19-.43.34.34,0,0,0-.43.19c-.19.52-.39,1-.6,1.53a.34.34,0,0,0,.18.44Zm-25-2.27a.34.34,0,0,0,.21-.08.33.33,0,0,0,0-.47c-.38-.44-.73-.86-1.05-1.27a.33.33,0,0,0-.52.42c.33.41.69.84,1.07,1.28A.3.3,0,0,0,976,381.7Zm26.13-.83a.33.33,0,0,0,.31-.22q.27-.78.51-1.59a.33.33,0,0,0-.22-.41.33.33,0,0,0-.41.22c-.16.53-.33,1.05-.51,1.57a.32.32,0,0,0,.21.41A.22.22,0,0,0,1002.11,380.87Zm-28.21-1.75a.31.31,0,0,0,.2-.07.33.33,0,0,0,.06-.46c-.38-.51-.71-1-.95-1.33a.33.33,0,0,0-.46-.1.33.33,0,0,0-.09.46c.24.37.58.85,1,1.37A.37.37,0,0,0,973.9,379.12Zm29.17-1.41a.33.33,0,0,0,.32-.24c.15-.53.29-1.08.42-1.61a.33.33,0,0,0-.24-.4.32.32,0,0,0-.4.24c-.13.53-.27,1.07-.42,1.59a.34.34,0,0,0,.24.41Zm-30.38-1.52a.33.33,0,0,0,.33-.29c.05-.44.13-1,.23-1.62a.33.33,0,0,0-.65-.11c-.11.65-.19,1.2-.24,1.66a.33.33,0,0,0,.3.36Zm31.17-1.69a.34.34,0,0,0,.33-.26c.11-.54.23-1.08.33-1.63a.33.33,0,0,0-.26-.39.34.34,0,0,0-.39.26c-.1.55-.21,1.08-.33,1.62a.33.33,0,0,0,.25.39Zm-30.64-1.57a.33.33,0,0,0,.33-.27c.09-.49.2-1,.32-1.61a.33.33,0,0,0-.64-.14c-.13.59-.24,1.13-.33,1.63a.33.33,0,0,0,.26.39Zm31.27-1.68a.33.33,0,0,0,.33-.28c.09-.54.17-1.09.26-1.64a.33.33,0,0,0-.66-.09c-.08.54-.16,1.09-.26,1.62a.34.34,0,0,0,.28.38ZM973.9,369.7a.33.33,0,0,0,.32-.26c.12-.51.24-1.05.37-1.61a.33.33,0,0,0-.65-.15c-.13.56-.25,1.1-.36,1.61a.33.33,0,0,0,.25.4ZM1005,368a.34.34,0,0,0,.33-.29c.06-.55.13-1.1.18-1.65a.33.33,0,0,0-.29-.37.32.32,0,0,0-.36.3c-.06.55-.12,1.09-.19,1.63a.33.33,0,0,0,.29.37Zm-30.33-1.51a.32.32,0,0,0,.32-.25c.13-.52.26-1.05.39-1.61a.33.33,0,0,0-.24-.4.33.33,0,0,0-.4.25c-.14.55-.27,1.09-.39,1.61a.33.33,0,0,0,.25.39Zm30.67-1.78a.34.34,0,0,0,.33-.31c0-.55.08-1.1.11-1.66a.33.33,0,0,0-.31-.35.34.34,0,0,0-.35.31c0,.56-.07,1.1-.11,1.65a.32.32,0,0,0,.3.35Zm-29.88-1.43a.33.33,0,0,0,.32-.25l.4-1.6a.33.33,0,0,0-.24-.41.34.34,0,0,0-.4.24c-.14.55-.27,1.09-.4,1.61a.32.32,0,0,0,.24.4Zm30.08-1.88a.33.33,0,0,0,.33-.31l.06-1.66a.33.33,0,0,0-.33-.34.34.34,0,0,0-.34.32c0,.55,0,1.1-.05,1.65a.32.32,0,0,0,.32.34Zm-29.27-1.33a.32.32,0,0,0,.32-.24c.14-.52.27-1.06.42-1.6a.34.34,0,0,0-.24-.41.33.33,0,0,0-.4.24c-.15.55-.28,1.08-.42,1.6a.33.33,0,0,0,.24.4Zm29.35-2a.33.33,0,0,0,.33-.33v-.48c0-.39,0-.79,0-1.18a.33.33,0,0,0-.33-.33.34.34,0,0,0-.33.34c0,.39,0,.78,0,1.17v.47a.33.33,0,0,0,.33.34Zm-28.51-1.23a.33.33,0,0,0,.32-.24c.13-.52.28-1.06.42-1.6a.32.32,0,0,0-.23-.4.33.33,0,0,0-.41.23c-.14.54-.28,1.08-.42,1.6a.32.32,0,0,0,.23.4Zm28.47-2.08h0a.34.34,0,0,0,.32-.34c0-.55,0-1.1-.07-1.66a.32.32,0,0,0-.34-.31.32.32,0,0,0-.32.34c0,.55.05,1.1.07,1.65A.32.32,0,0,0,1005.55,354.77Zm-27.62-1.11a.33.33,0,0,0,.32-.25c.14-.52.29-1.05.43-1.59a.33.33,0,0,0-.23-.41.33.33,0,0,0-.4.24c-.15.54-.3,1.07-.44,1.59a.33.33,0,0,0,.24.41Zm27.46-2.19h0a.33.33,0,0,0,.31-.35l-.12-1.65a.33.33,0,0,0-.36-.3.32.32,0,0,0-.3.35l.12,1.65A.34.34,0,0,0,1005.39,351.47Zm-26.59-1a.33.33,0,0,0,.32-.25c.14-.52.29-1.05.44-1.59a.33.33,0,0,0-.23-.41.34.34,0,0,0-.41.23c-.15.54-.29,1.08-.44,1.6a.34.34,0,0,0,.23.41Zm26.32-2.3h0a.33.33,0,0,0,.3-.36l-.18-1.65a.33.33,0,0,0-.66.07c.07.55.13,1.1.18,1.64A.33.33,0,0,0,1005.12,348.17Zm-25.44-.89A.33.33,0,0,0,980,347l.45-1.59a.33.33,0,0,0-.64-.18l-.44,1.59a.33.33,0,0,0,.23.41Zm.9-3.18a.34.34,0,0,0,.32-.24l.45-1.6a.32.32,0,0,0-.23-.4.33.33,0,0,0-.41.22l-.45,1.6a.32.32,0,0,0,.23.4Zm.9-3.19a.32.32,0,0,0,.32-.24l.43-1.49a.25.25,0,0,0,0-.17.31.31,0,0,0-.31-.32h0a.32.32,0,0,0-.32.23l-.44,1.57a.32.32,0,0,0,.22.41Z"/><path class="cls-26" d="M838,406.67a.33.33,0,1,1,.42.52l-1.31,1a.27.27,0,0,1-.2.07.32.32,0,0,1-.26-.12.37.37,0,0,1-.07-.25.34.34,0,0,1,.13-.22Z"/><path class="cls-26" d="M849.13,394.67a.34.34,0,0,1,.46-.1.34.34,0,0,1,.14.21.32.32,0,0,1,0,.25c-.3.46-.6.93-.92,1.39a.32.32,0,0,1-.27.14.33.33,0,0,1-.19-.06.34.34,0,0,1-.14-.21.36.36,0,0,1,.06-.25C848.54,395.59,848.84,395.13,849.13,394.67Z"/><path class="cls-26" d="M847.27,397.37a.33.33,0,0,1,.46-.06.32.32,0,0,1,.07.46c-.33.44-.68.89-1,1.31a.31.31,0,0,1-.25.13.32.32,0,0,1-.21-.08.3.3,0,0,1-.12-.22.34.34,0,0,1,.07-.24C846.6,398.25,846.94,397.81,847.27,397.37Z"/><path class="cls-26" d="M840.55,404.56a.36.36,0,0,1,.24-.09.35.35,0,0,1,.23.12.33.33,0,0,1,0,.46c-.43.38-.85.74-1.27,1.08a.32.32,0,0,1-.21.08.3.3,0,0,1-.25-.12.32.32,0,0,1,0-.46C839.71,405.28,840.13,404.93,840.55,404.56Z"/><path class="cls-26" d="M835,409l.38-.29a.33.33,0,0,1,.4.53l-.37.28-.94.72a.32.32,0,0,1-.46-.06.3.3,0,0,1-.07-.24.32.32,0,0,1,.13-.22Z"/><path class="cls-26" d="M843,402.31a.34.34,0,0,1,.47,0,.32.32,0,0,1,0,.46c-.38.39-.79.77-1.2,1.16a.36.36,0,0,1-.23.09.32.32,0,0,1-.24-.11.34.34,0,0,1,0-.47C842.17,403.08,842.57,402.69,843,402.31Z"/><path class="cls-26" d="M845.2,399.92a.38.38,0,0,1,.23-.11.31.31,0,0,1,.24.08.33.33,0,0,1,0,.47c-.36.41-.74.83-1.12,1.23a.32.32,0,0,1-.24.11.41.41,0,0,1-.23-.09.34.34,0,0,1,0-.47C844.48,400.73,844.85,400.33,845.2,399.92Z"/><path class="cls-26" d="M854.78,381.1c.12-.53.25-1.07.36-1.61a.33.33,0,0,1,.39-.25.34.34,0,0,1,.21.14.37.37,0,0,1,0,.25c-.12.54-.24,1.09-.37,1.62a.33.33,0,0,1-.32.25H855A.33.33,0,0,1,854.78,381.1Z"/><path class="cls-26" d="M855.72,378.27a.34.34,0,0,1-.27-.39c.1-.53.19-1.08.27-1.62a.36.36,0,0,1,.13-.22.37.37,0,0,1,.25-.06.34.34,0,0,1,.28.38c-.09.55-.18,1.1-.28,1.64a.31.31,0,0,1-.32.27Z"/><path class="cls-26" d="M856.24,375a.34.34,0,0,1-.29-.37c.07-.54.13-1.08.18-1.63a.34.34,0,0,1,.37-.3.33.33,0,0,1,.29.36c0,.56-.12,1.11-.18,1.65a.33.33,0,0,1-.33.29Z"/><path class="cls-26" d="M852.19,388.88a.35.35,0,0,1,.18-.18.39.39,0,0,1,.26,0,.35.35,0,0,1,.17.44c-.22.51-.46,1-.69,1.51a.34.34,0,0,1-.3.19l-.15,0a.34.34,0,0,1-.16-.19.31.31,0,0,1,0-.25C851.74,389.88,852,389.38,852.19,388.88Z"/><path class="cls-26" d="M850.77,391.83a.33.33,0,0,1,.45-.13.3.3,0,0,1,.16.19.31.31,0,0,1,0,.25c-.26.49-.53,1-.81,1.46a.34.34,0,0,1-.28.17.34.34,0,0,1-.17,0,.28.28,0,0,1-.15-.2.32.32,0,0,1,0-.25C850.25,392.8,850.52,392.32,850.77,391.83Z"/><path class="cls-26" d="M852.81,387.36c.2-.51.39-1,.57-1.54a.35.35,0,0,1,.17-.19.34.34,0,0,1,.46.41c-.18.52-.38,1-.58,1.56a.33.33,0,0,1-.31.21l-.12,0A.34.34,0,0,1,852.81,387.36Z"/><path class="cls-26" d="M853.9,384.26c.16-.52.32-1.05.46-1.57a.33.33,0,0,1,.41-.23.28.28,0,0,1,.2.15.37.37,0,0,1,0,.25c-.15.54-.3,1.07-.47,1.6a.32.32,0,0,1-.31.23h-.1A.34.34,0,0,1,853.9,384.26Z"/><path class="cls-26" d="M821.32,422.71a.34.34,0,0,1,.47-.07.36.36,0,0,1,.13.22.31.31,0,0,1-.07.24c-.32.44-.65.89-1,1.34a.35.35,0,0,1-.27.14.32.32,0,0,1-.19-.07.32.32,0,0,1-.08-.46C820.67,423.6,821,423.15,821.32,422.71Zm-.77,1.68Z"/><path class="cls-26" d="M813.43,437.19a.34.34,0,0,1,.21-.14.3.3,0,0,1,.24.05.32.32,0,0,1,.15.21.38.38,0,0,1,0,.25,9.59,9.59,0,0,1-1.07,1.33.31.31,0,0,1-.24.1.32.32,0,0,1-.23-.09.34.34,0,0,1,0-.47A8.48,8.48,0,0,0,813.43,437.19Z"/><path class="cls-26" d="M809.89,440.37a11.61,11.61,0,0,0,1.35-.88.33.33,0,1,1,.39.53,12.44,12.44,0,0,1-1.42.93.29.29,0,0,1-.16,0,.32.32,0,0,1-.29-.17A.33.33,0,0,1,809.89,440.37Z"/><path class="cls-26" d="M814.37,435.28c.11-.34.24-.68.37-1a.37.37,0,0,1,.18-.19.36.36,0,0,1,.25,0,.33.33,0,0,1,.19.43c-.13.33-.25.67-.37,1-.06.18-.13.37-.21.55a.33.33,0,0,1-.3.2.28.28,0,0,1-.13,0,.33.33,0,0,1-.18-.43C814.24,435.62,814.31,435.45,814.37,435.28Z"/><path class="cls-26" d="M832.8,410.74a.32.32,0,0,1,.25-.07.35.35,0,0,1,.22.12.34.34,0,0,1,.07.24.3.3,0,0,1-.12.22L832,412.3a.33.33,0,0,1-.46,0,.32.32,0,0,1-.08-.24.34.34,0,0,1,.11-.23C832,411.43,832.38,411.08,832.8,410.74Z"/><path class="cls-26" d="M800.25,442.79a.3.3,0,0,1,.23-.11c.56,0,1.11-.07,1.63-.12a.37.37,0,0,1,.25.07.35.35,0,0,1,.12.23.34.34,0,0,1-.3.36c-.54,0-1.1.09-1.67.12h0a.33.33,0,0,1-.33-.32A.29.29,0,0,1,800.25,442.79Z"/><path class="cls-26" d="M815.38,432.7c.22-.49.45-1,.7-1.51a.33.33,0,0,1,.44-.15.32.32,0,0,1,.15.44c-.24.5-.47,1-.69,1.49a.33.33,0,0,1-.3.2.31.31,0,0,1-.13,0A.33.33,0,0,1,815.38,432.7Z"/><path class="cls-26" d="M803.74,442.36c.55-.09,1.09-.19,1.6-.31a.36.36,0,0,1,.25,0,.31.31,0,0,1,.14.21.32.32,0,0,1,0,.25.34.34,0,0,1-.2.15c-.53.12-1.09.22-1.65.31h-.05a.32.32,0,0,1-.33-.28.35.35,0,0,1,.06-.24A.32.32,0,0,1,803.74,442.36Z"/><path class="cls-26" d="M806.91,441.63c.53-.17,1-.35,1.53-.55a.33.33,0,0,1,.43.17.34.34,0,0,1-.18.44c-.5.21-1,.4-1.58.57l-.1,0a.34.34,0,0,1-.32-.24A.33.33,0,0,1,806.91,441.63Z"/><path class="cls-26" d="M827.85,415.18a.34.34,0,0,1,.47,0,.33.33,0,0,1,0,.47c-.39.39-.77.78-1.15,1.18a.37.37,0,0,1-.24.1.32.32,0,0,1-.23-.09.33.33,0,0,1,0-.47C827.07,416,827.46,415.57,827.85,415.18Z"/><path class="cls-26" d="M825.56,417.58a.33.33,0,0,1,.46,0,.3.3,0,0,1,.11.23.36.36,0,0,1-.09.24L825,419.26a.33.33,0,0,1-.25.11.35.35,0,0,1-.22-.08.33.33,0,0,1,0-.46C824.81,418.41,825.18,418,825.56,417.58Z"/><path class="cls-26" d="M830.27,412.9a.36.36,0,0,1,.24-.09.38.38,0,0,1,.23.11.31.31,0,0,1,.08.24.3.3,0,0,1-.11.23l-1.21,1.12a.36.36,0,0,1-.22.09.33.33,0,0,1-.23-.57C829.45,413.64,829.86,413.27,830.27,412.9Z"/><path class="cls-26" d="M823.38,420.09a.32.32,0,0,1,.46,0,.33.33,0,0,1,0,.46l-1,1.29a.31.31,0,0,1-.26.12.31.31,0,0,1-.2-.07.33.33,0,0,1-.06-.46C822.67,421,823,420.52,823.38,420.09Z"/><path class="cls-26" d="M817.65,428.25a.33.33,0,1,1,.57.34c-.27.47-.54,1-.8,1.43a.31.31,0,0,1-.29.17.45.45,0,0,1-.16,0,.45.45,0,0,1-.16-.2.37.37,0,0,1,0-.25C817.1,429.23,817.37,428.74,817.65,428.25Z"/><path class="cls-26" d="M819.41,425.43a.28.28,0,0,1,.21-.14.37.37,0,0,1,.25,0,.38.38,0,0,1,.14.21.31.31,0,0,1,0,.25c-.31.47-.61.93-.89,1.39a.35.35,0,0,1-.28.15.41.41,0,0,1-.18-.05.32.32,0,0,1-.1-.45C818.79,426.37,819.1,425.9,819.41,425.43Z"/><path class="cls-42" d="M800.39,440.7c5.54-.27,10.68-1.94,12.1-6.06,3.31-9.6,11.58-19.52,19.52-25.81,7.32-5.8,20-13.56,22.17-36.29-19.38,12.9-37.64,26.07-45.33,45.89C806.34,424.9,803.46,432.46,800.39,440.7Z"/><path class="cls-26" d="M793.13,564.8a.34.34,0,0,0,.33-.29c.1-.72.21-1.49.33-2.3a.33.33,0,0,0-.28-.37.34.34,0,0,0-.38.28c-.12.81-.23,1.58-.33,2.3a.33.33,0,0,0,.28.37Zm.67-4.6a.33.33,0,0,0,.33-.28c.11-.74.23-1.5.35-2.3a.31.31,0,0,0-.27-.37.33.33,0,0,0-.38.27c-.12.79-.24,1.56-.35,2.3a.33.33,0,0,0,.27.38Zm.72-4.59a.33.33,0,0,0,.33-.28c.12-.74.24-1.5.37-2.29a.33.33,0,1,0-.65-.1c-.13.78-.26,1.54-.38,2.29a.34.34,0,0,0,.28.38Zm.76-4.58a.33.33,0,0,0,.32-.27c.13-.75.26-1.51.39-2.29a.32.32,0,0,0-.27-.38.33.33,0,0,0-.38.27c-.13.78-.26,1.54-.39,2.29a.33.33,0,0,0,.27.38Zm.79-4.57a.33.33,0,0,0,.33-.27c.13-.75.27-1.51.41-2.28a.34.34,0,0,0-.27-.39.33.33,0,0,0-.38.27c-.15.77-.28,1.53-.42,2.28a.34.34,0,0,0,.27.39Zm.83-4.56a.33.33,0,0,0,.33-.27c.14-.75.28-1.51.43-2.28a.33.33,0,0,0-.27-.38.32.32,0,0,0-.38.26c-.15.77-.29,1.53-.43,2.28a.32.32,0,0,0,.26.38Zm.87-4.56a.34.34,0,0,0,.33-.26c.14-.75.29-1.51.44-2.28a.33.33,0,0,0-.26-.39.34.34,0,0,0-.38.26q-.24,1.16-.45,2.28a.33.33,0,0,0,.26.39Zm.91-4.54a.33.33,0,0,0,.32-.27c.15-.75.31-1.5.47-2.27a.33.33,0,0,0-.26-.39.33.33,0,0,0-.39.26c-.16.76-.31,1.52-.47,2.27a.34.34,0,0,0,.26.39Zm.94-4.54A.34.34,0,0,0,800,528c.16-.75.32-1.51.49-2.27a.34.34,0,0,0-.26-.39.33.33,0,0,0-.39.25c-.17.76-.33,1.52-.49,2.27a.33.33,0,0,0,.26.39Zm1-4.53a.33.33,0,0,0,.32-.26l.51-2.26a.33.33,0,0,0-.25-.4.33.33,0,0,0-.39.25l-.51,2.27a.33.33,0,0,0,.25.39Zm1-4.52A.33.33,0,0,0,802,519c.17-.75.35-1.5.53-2.25a.33.33,0,1,0-.64-.16c-.18.76-.36,1.51-.53,2.26a.33.33,0,0,0,.24.4Zm1.07-4.51a.33.33,0,0,0,.32-.26c.18-.74.37-1.49.55-2.25a.33.33,0,0,0-.24-.4.33.33,0,0,0-.4.25c-.19.75-.37,1.5-.55,2.25a.33.33,0,0,0,.24.4Zm1.11-4.5a.32.32,0,0,0,.32-.25c.19-.75.38-1.5.58-2.25a.34.34,0,0,0-.24-.4.33.33,0,0,0-.4.24c-.2.75-.39,1.5-.58,2.25a.35.35,0,0,0,.24.4Zm1.17-4.49a.32.32,0,0,0,.31-.25l.6-2.23a.33.33,0,0,0-.23-.41.34.34,0,0,0-.41.23c-.2.75-.4,1.5-.59,2.24a.33.33,0,0,0,.23.41Zm1.2-4.47a.33.33,0,0,0,.32-.25l.63-2.23a.34.34,0,0,0-.23-.41.34.34,0,0,0-.41.23c-.21.75-.42,1.49-.62,2.24a.32.32,0,0,0,.23.4Zm1.26-4.47a.32.32,0,0,0,.32-.23c.22-.74.43-1.49.65-2.23a.33.33,0,0,0-.22-.41.33.33,0,0,0-.41.23c-.22.74-.44,1.48-.65,2.22a.32.32,0,0,0,.22.41Zm1.32-4.44a.32.32,0,0,0,.31-.24c.23-.73.45-1.47.68-2.21a.33.33,0,0,0-.22-.41.32.32,0,0,0-.41.21c-.23.74-.46,1.48-.68,2.22a.35.35,0,0,0,.22.42Zm1.37-4.43a.32.32,0,0,0,.31-.23c.23-.73.47-1.47.71-2.2a.34.34,0,0,0-.21-.42.33.33,0,0,0-.42.21c-.24.74-.48,1.47-.71,2.21a.34.34,0,0,0,.22.42Zm1.43-4.41a.34.34,0,0,0,.31-.22c.24-.74.49-1.47.74-2.21a.33.33,0,0,0-.21-.42.34.34,0,0,0-.42.21l-.74,2.21a.34.34,0,0,0,.21.42Zm1.49-4.4a.31.31,0,0,0,.31-.22c.26-.73.52-1.46.77-2.18a.33.33,0,0,0-.62-.22c-.26.72-.52,1.45-.77,2.18a.34.34,0,0,0,.2.43Zm1.56-4.36a.32.32,0,0,0,.31-.22l.81-2.16a.35.35,0,0,0-.2-.43.33.33,0,0,0-.42.2l-.81,2.17a.33.33,0,0,0,.2.42Zm1.63-4.32a.34.34,0,0,0,.31-.21l.84-2.16a.33.33,0,0,0-.18-.43.34.34,0,0,0-.43.19c-.29.72-.57,1.44-.85,2.16a.33.33,0,0,0,.19.43ZM818,466.1a.35.35,0,0,0,.31-.2c.29-.72.58-1.43.88-2.14a.35.35,0,0,0-.17-.44.34.34,0,0,0-.44.18c-.3.71-.59,1.43-.89,2.15a.34.34,0,0,0,.19.43Zm1.8-4.27a.34.34,0,0,0,.3-.2l.93-2.12a.34.34,0,0,0-.17-.44.33.33,0,0,0-.43.17c-.32.71-.63,1.41-.94,2.13a.33.33,0,0,0,.18.43A.28.28,0,0,0,819.76,461.83Zm1.88-4.23a.33.33,0,0,0,.3-.2c.33-.7.65-1.4,1-2.09a.33.33,0,0,0-.59-.29c-.34.7-.66,1.4-1,2.11a.34.34,0,0,0,.17.44A.31.31,0,0,0,821.64,457.6Zm2-4.19a.34.34,0,0,0,.3-.19c.34-.69.68-1.38,1-2.07a.32.32,0,0,0-.15-.44.33.33,0,0,0-.44.14c-.35.69-.69,1.39-1,2.08a.34.34,0,0,0,.15.45Zm2.1-4.13a.35.35,0,0,0,.29-.18c.36-.69.72-1.37,1.09-2a.33.33,0,0,0-.58-.32c-.37.68-.74,1.36-1.1,2.05a.34.34,0,0,0,.14.45A.42.42,0,0,0,825.73,449.28Zm2.21-4.07a.34.34,0,0,0,.29-.17c.38-.68.76-1.35,1.15-2a.33.33,0,0,0-.57-.33c-.39.66-.78,1.33-1.16,2a.35.35,0,0,0,.29.5Zm2.35-4a.33.33,0,0,0,.28-.16c.4-.66.81-1.31,1.22-2a.34.34,0,0,0-.1-.46.35.35,0,0,0-.46.1q-.62,1-1.23,2a.34.34,0,0,0,.11.45A.41.41,0,0,0,830.29,441.21Zm2.49-3.91a.32.32,0,0,0,.27-.15c.43-.64.87-1.28,1.3-1.9a.33.33,0,0,0-.54-.38c-.44.62-.88,1.27-1.31,1.92a.34.34,0,0,0,.09.46A.41.41,0,0,0,832.78,437.3Zm2.65-3.8a.3.3,0,0,0,.26-.13c.46-.63.93-1.25,1.39-1.85a.33.33,0,1,0-.52-.4c-.47.6-.94,1.23-1.4,1.86a.33.33,0,0,0,.07.46A.36.36,0,0,0,835.43,433.5Zm2.83-3.67a.32.32,0,0,0,.25-.12c.49-.6,1-1.19,1.48-1.77a.32.32,0,0,0,0-.46.33.33,0,0,0-.47,0c-.5.58-1,1.18-1.49,1.78a.33.33,0,0,0,0,.47A.31.31,0,0,0,838.26,429.83Zm3-3.5a.36.36,0,0,0,.25-.11c.52-.57,1.05-1.13,1.58-1.67a.32.32,0,0,0,0-.47.32.32,0,0,0-.46,0c-.54.55-1.07,1.12-1.6,1.69a.32.32,0,0,0,0,.47A.31.31,0,0,0,841.28,426.33Zm3.24-3.31a.33.33,0,0,0,.23-.09c.56-.53,1.13-1.06,1.7-1.55a.34.34,0,0,0,0-.47.33.33,0,0,0-.47,0c-.57.5-1.15,1-1.72,1.57a.34.34,0,0,0,0,.47A.33.33,0,0,0,844.52,423ZM848,420a.31.31,0,0,0,.2-.07c.6-.49,1.21-1,1.82-1.41a.33.33,0,1,0-.39-.53c-.62.45-1.24.93-1.84,1.43a.31.31,0,0,0,0,.46A.32.32,0,0,0,848,420Zm3.72-2.74a.32.32,0,0,0,.18-.06c.64-.43,1.29-.84,1.94-1.23a.33.33,0,1,0-.34-.56c-.66.39-1.32.81-2,1.24a.34.34,0,0,0-.09.46A.35.35,0,0,0,851.72,417.22Zm4-2.37a.28.28,0,0,0,.15,0c.68-.35,1.37-.69,2.06-1a.34.34,0,0,0-.28-.61c-.69.32-1.4.66-2.09,1a.33.33,0,0,0,.16.62Zm4.2-1.91a.25.25,0,0,0,.12,0c.71-.27,1.44-.52,2.16-.75a.33.33,0,1,0-.2-.63c-.73.23-1.47.49-2.2.76a.34.34,0,0,0-.19.43A.34.34,0,0,0,859.89,412.94Zm4.4-1.39h.09l2.23-.65a.32.32,0,0,0,.22-.41.33.33,0,0,0-.41-.23l-2.22.65a.33.33,0,0,0,.09.65Zm4.44-1.32.1,0,2.2-.71a.33.33,0,0,0-.2-.62l-2.2.7a.33.33,0,0,0-.22.41A.34.34,0,0,0,868.73,410.23Zm4.39-1.44.11,0,2.18-.77a.33.33,0,0,0,.2-.42.34.34,0,0,0-.43-.2l-2.17.76a.33.33,0,0,0-.2.42A.32.32,0,0,0,873.12,408.79Zm4.34-1.56.12,0,2.16-.83a.33.33,0,0,0-.24-.62l-2.15.83a.33.33,0,0,0,.11.64Zm4.3-1.68a.31.31,0,0,0,.13,0l2.13-.88a.34.34,0,0,0,.18-.44.34.34,0,0,0-.44-.17l-2.12.88a.33.33,0,0,0-.18.43A.32.32,0,0,0,881.76,405.55Zm4.25-1.8a.28.28,0,0,0,.13,0l2.12-1a.33.33,0,0,0-.27-.6l-2.11.95a.33.33,0,0,0,.13.63Zm4.21-1.93a.32.32,0,0,0,.14,0l2.09-1a.34.34,0,0,0,.15-.45.33.33,0,0,0-.44-.15l-2.08,1a.33.33,0,0,0-.16.44A.34.34,0,0,0,890.22,401.82Zm4.15-2.05a.26.26,0,0,0,.15,0l2.06-1.07a.33.33,0,1,0-.31-.59c-.68.36-1.36.72-2,1.07a.34.34,0,0,0-.14.45A.33.33,0,0,0,894.37,399.77Zm4.09-2.18a.32.32,0,0,0,.16,0c.68-.37,1.35-.75,2-1.14a.33.33,0,0,0,.13-.45.34.34,0,0,0-.46-.12c-.66.38-1.33.76-2,1.13a.33.33,0,0,0-.13.45A.32.32,0,0,0,898.46,397.59Zm4-2.3a.37.37,0,0,0,.17-.05c.66-.39,1.33-.79,2-1.2a.33.33,0,0,0-.34-.56l-2,1.19a.34.34,0,0,0-.12.46A.36.36,0,0,0,902.48,395.29Zm3.94-2.43a.41.41,0,0,0,.18-.05l1.95-1.27a.32.32,0,0,0,.09-.45.33.33,0,0,0-.46-.1c-.64.43-1.29.85-1.94,1.26a.35.35,0,0,0-.1.46A.33.33,0,0,0,906.42,392.86Zm3.86-2.55a.33.33,0,0,0,.19-.06l1.9-1.33a.33.33,0,0,0-.38-.54l-1.89,1.32a.34.34,0,0,0-.09.46A.33.33,0,0,0,910.28,390.31Zm3.78-2.69a.36.36,0,0,0,.2-.06l1.85-1.39a.33.33,0,0,0,.06-.47.33.33,0,0,0-.46-.06c-.61.47-1.23.93-1.85,1.39a.33.33,0,0,0-.07.46A.34.34,0,0,0,914.06,387.62Zm3.68-2.81a.31.31,0,0,0,.2-.07c.61-.48,1.21-1,1.81-1.46a.33.33,0,0,0,0-.46.34.34,0,0,0-.47-.05c-.59.49-1.19,1-1.8,1.45a.34.34,0,0,0,0,.47A.34.34,0,0,0,917.74,384.81Zm3.58-2.94a.29.29,0,0,0,.21-.08l1.76-1.52a.33.33,0,0,0-.44-.49l-1.75,1.51a.33.33,0,0,0,0,.47A.33.33,0,0,0,921.32,381.87Zm3.47-3.07a.3.3,0,0,0,.22-.08l1.7-1.59a.33.33,0,0,0-.46-.48c-.56.53-1.12,1.06-1.69,1.58a.34.34,0,0,0,0,.47A.35.35,0,0,0,924.79,378.8Zm3.35-3.19a.3.3,0,0,0,.23-.1c.55-.54,1.1-1.1,1.63-1.65a.33.33,0,0,0,0-.47.34.34,0,0,0-.47,0c-.53.55-1.08,1.1-1.63,1.64a.33.33,0,0,0,0,.47A.33.33,0,0,0,928.14,375.61Zm3.22-3.32a.32.32,0,0,0,.24-.11c.53-.56,1-1.14,1.56-1.71a.31.31,0,0,0,0-.46.33.33,0,0,0-.47,0c-.51.57-1,1.14-1.55,1.7a.33.33,0,0,0,0,.47A.31.31,0,0,0,931.36,372.29Zm3.08-3.44a.32.32,0,0,0,.25-.12c.5-.58,1-1.18,1.49-1.77a.32.32,0,0,0,0-.46.33.33,0,0,0-.47,0c-.48.59-1,1.18-1.48,1.76a.34.34,0,0,0,0,.47A.37.37,0,0,0,934.44,368.85Zm2.94-3.56a.36.36,0,0,0,.26-.13q.72-.92,1.41-1.83a.33.33,0,0,0-.53-.4c-.45.61-.93,1.22-1.4,1.82a.33.33,0,0,0,0,.47A.38.38,0,0,0,937.38,365.29Zm2.78-3.69a.34.34,0,0,0,.27-.13c.45-.63.9-1.26,1.34-1.9a.33.33,0,1,0-.55-.37c-.43.63-.88,1.26-1.33,1.88a.33.33,0,0,0,.08.46A.33.33,0,0,0,940.16,361.6Zm2.62-3.8a.32.32,0,0,0,.28-.15c.43-.64.85-1.3,1.25-1.95a.33.33,0,1,0-.56-.35c-.4.64-.82,1.3-1.24,1.94a.34.34,0,0,0,.09.46A.41.41,0,0,0,942.78,357.8Zm2.46-3.92a.33.33,0,0,0,.28-.16q.6-1,1.17-2a.33.33,0,0,0-.58-.32c-.37.66-.76,1.33-1.16,2a.34.34,0,0,0,.12.46A.33.33,0,0,0,945.24,353.88Zm2.27-4a.31.31,0,0,0,.29-.17c.37-.69.73-1.38,1.08-2.06a.34.34,0,0,0-.15-.45.33.33,0,0,0-.44.15l-1.07,2.05a.33.33,0,0,0,.14.44A.28.28,0,0,0,947.51,349.85Zm2.09-4.13a.34.34,0,0,0,.3-.19c.33-.7.66-1.41,1-2.11a.33.33,0,1,0-.6-.27c-.31.69-.64,1.4-1,2.1a.33.33,0,0,0,.16.44A.32.32,0,0,0,949.6,345.72Zm1.89-4.23a.35.35,0,0,0,.31-.21c.29-.71.59-1.43.87-2.15a.34.34,0,0,0-.19-.43.32.32,0,0,0-.43.19c-.28.71-.57,1.43-.86,2.14a.32.32,0,0,0,.17.43A.31.31,0,0,0,951.49,341.49Zm1.69-4.33a.34.34,0,0,0,.31-.21c.26-.73.52-1.47.77-2.2a.34.34,0,0,0-.21-.42.32.32,0,0,0-.42.21c-.25.73-.5,1.46-.76,2.18a.32.32,0,0,0,.19.42A.25.25,0,0,0,953.18,337.16Zm1.47-4.4a.32.32,0,0,0,.32-.23c.23-.74.45-1.49.66-2.23a.33.33,0,1,0-.64-.18c-.21.74-.43,1.48-.65,2.21a.33.33,0,0,0,.22.42Zm1.26-4.45a.33.33,0,0,0,.32-.25c.19-.75.38-1.51.55-2.26a.33.33,0,0,0-.25-.4.32.32,0,0,0-.39.25c-.18.75-.36,1.5-.55,2.24a.33.33,0,0,0,.24.4Zm1-4.52a.33.33,0,0,0,.33-.26c.15-.76.3-1.52.43-2.28a.33.33,0,0,0-.26-.39.34.34,0,0,0-.39.27c-.13.75-.28,1.52-.43,2.27a.33.33,0,0,0,.26.39Zm.82-4.55a.34.34,0,0,0,.33-.28c.12-.76.23-1.54.33-2.3a.34.34,0,0,0-.29-.37.33.33,0,0,0-.37.28c-.1.76-.21,1.53-.33,2.29a.33.33,0,0,0,.28.37Zm.6-4.59a.33.33,0,0,0,.33-.3c.08-.77.16-1.54.22-2.31a.33.33,0,0,0-.3-.36.34.34,0,0,0-.36.31c-.06.76-.13,1.53-.22,2.29a.34.34,0,0,0,.3.37Zm.39-4.61a.34.34,0,0,0,.33-.32c0-.76.08-1.54.11-2.32a.34.34,0,0,0-.32-.34.33.33,0,0,0-.34.32c0,.77-.07,1.54-.11,2.31a.33.33,0,0,0,.31.35Zm.17-4.63a.34.34,0,0,0,.33-.33c0-.47,0-.94,0-1.41,0-.3,0-.61,0-.91a.33.33,0,1,0-.66,0v.9c0,.47,0,.94,0,1.4a.34.34,0,0,0,.33.34Zm0-4.63h0a.34.34,0,0,0,.32-.34c0-.77-.06-1.55-.1-2.32a.34.34,0,0,0-.35-.32.33.33,0,0,0-.31.35c0,.77.07,1.55.09,2.31A.34.34,0,0,0,958.89,300.78Z"/><path class="cls-26" d="M922.19,362.05a.66.66,0,0,0,.42-1.18c-2.13-1.7-8.31-11.88-9.44-29.59a.65.65,0,0,0-.7-.62.67.67,0,0,0-.62.7c1.13,17.81,7.29,28.43,9.93,30.54A.65.65,0,0,0,922.19,362.05Z"/><path class="cls-36" d="M898.17,323.16c4.3,1,43.66-9.6,74.1-2s45.65,21.17,41.35,10.92c-3.53-8.41-11.39-69.13-7.83-133.11.17-3,.35-5.94.57-8.92-5.07-1.29-20.45-2.51-29-2.25a96.42,96.42,0,0,1-3.94,9.44l-.11.24c-4,8-16.31,27.37-28.42,46.87-12.9,20.77-25.54,41.72-27.58,49.35-1.83,6.89-7,13.49-11.58,18.69C900.43,318.45,895.86,322.62,898.17,323.16Z"/><path class="cls-33" d="M923.21,234a54.11,54.11,0,0,1,5.16,3.86c7.68,6.46,14.08,15.15,19.12,23.74,2.41,4.11,4.52,8.19,6.3,12,18.85-12.67,35.37-25.67,42.15-35.39a30.72,30.72,0,0,0,2.35-4c9.41-18.87-4.91-39.76-22.87-37.3a23.57,23.57,0,0,0-6.46,1.88C953.11,205.88,940.8,214.7,923.21,234Z"/><path class="cls-29" d="M798.05,288.47c.16,1.51,1.45,4.09,4.19,8.22,6.33,9.56,19.53,16.88,34.79,20.25,16.06,3.56,34.41,2.76,49.45-4.37,16.33-7.73,43.65-23.12,67.31-39-1.78-3.8-3.89-7.88-6.3-12-5-8.59-11.44-17.28-19.12-23.74a54.11,54.11,0,0,0-5.16-3.86c-3.71,4.06-7.65,8.59-11.92,13.66-24.48,29.11-64.51,46.87-83.47,45.77C812.84,292.51,797.45,282.84,798.05,288.47Z"/><path class="cls-31" d="M798.05,288.47c5.78,5.72,22.09,6.65,38.81,7,20.51.44,63.95-23.76,80.49-45.65a105.3,105.3,0,0,1,11-12,54.11,54.11,0,0,0-5.16-3.86c-3.71,4.06-7.65,8.59-11.92,13.66-24.48,29.11-64.51,46.87-83.47,45.77C812.84,292.51,797.45,282.84,798.05,288.47Z"/><path class="cls-34" d="M923.21,234a54.11,54.11,0,0,1,5.16,3.86c19.52-18.7,48.85-38.15,47-40.92a23.57,23.57,0,0,0-6.46,1.88C953.11,205.88,940.8,214.7,923.21,234Z"/><path class="cls-35" d="M837,316.94c16.06,3.56,34.41,2.76,49.45-4.37,16.33-7.73,43.65-23.12,67.31-39-1.78-3.8-3.89-7.88-6.3-12-14.35,9.45-23,18-29.72,23C873.11,317.43,864.76,316.37,837,316.94Z"/><path class="cls-36" d="M947.49,261.55c2.41,4.11,4.52,8.19,6.3,12,18.85-12.67,35.37-25.67,42.15-35.39a30.72,30.72,0,0,0,2.35-4C990.08,240.87,967.9,251.79,947.49,261.55Z"/><path class="cls-29" d="M151.9,180.09c-9.16-8.38-19.44-8.88-18.57,2.71s17,10.79,17,10.79Z"/><path class="cls-35" d="M143.79,176.62s-6.16-1.92-7.68,3.84,3.71,10,7.89,11.06c0,0-7.59-1.68-6.57-9S143.79,176.62,143.79,176.62Z"/><path class="cls-35" d="M139.06,185.61c1.37,3.08,5.55,4.75,6.95,2.62a3.76,3.76,0,0,0,0-4.14s1,3.34-.73,4S141.12,187.81,139.06,185.61Z"/><path class="cls-35" d="M141.87,182c-1,1.84-.5,4.85,1.31,3.83s1.66-2.95,2.31-3,1.09-2.44-.63-2.57S141.87,182,141.87,182Z"/><path class="cls-35" d="M178.92,180.57s0,7.28,3.64,8.49c0,0,2.42,1.21,0,2.43a5.86,5.86,0,0,1-4.85,0s3.64,0,2.42-1.22S177.71,181.79,178.92,180.57Z"/><path class="cls-35" d="M155.88,212.1s11.93,7.84,23.55,1.49C179.43,213.59,164.37,223,155.88,212.1Z"/><path class="cls-2" d="M844,272.92c.4-2,.78-4,1.16-6.05-.35-.3-.7-.6-1-.91a23.67,23.67,0,0,1,8.74-40l1.19-6.31a1.23,1.23,0,0,0-1.15,0,33.46,33.46,0,0,0-8.4,3.57,28.91,28.91,0,0,0-8.86,8.48,23,23,0,0,0-3.88,8.66h-.09l-.2,1-.51,2.72-.26,1.36.07.14a16.52,16.52,0,0,0-.34,4,29.52,29.52,0,0,0,6.85,17.93,27.08,27.08,0,0,0,6.48,5.78C844.14,273.37,844,273.05,844,272.92Z"/><path class="cls-2" d="M821.29,262.25c-.47-.56-1.14-.46-1.76-.53-3.18-.34-5-2.17-5.25-5a10.7,10.7,0,0,1,0-1.39,54,54,0,0,1,1-6.32,13.93,13.93,0,0,0-1-8.47.87.87,0,0,1,.23-1.2,13.66,13.66,0,0,0,4-7.43c.33-1.53.59-3.07.87-4.6a11.17,11.17,0,0,1,1-2.87c1.37-2.85,3.72-3.71,6.87-2.9.58.15,1.14.49,1.75.14l1.1-5.79c.06-.14,0-.21-.14-.21l-.17,0-.17,0-.17,0-2.56-.49-1-.19a.28.28,0,0,1,0,.09h0a9.25,9.25,0,0,0-7.77,2.09c-3.39,2.66-4.75,6.44-5.34,10.53a18,18,0,0,1-1.34,5.08,4.26,4.26,0,0,1-4.27,2.68,1.85,1.85,0,0,0-1.18.15l-1,5.45c.25.37.67.43,1,.57a4.3,4.3,0,0,1,3,4.05,14.16,14.16,0,0,1-.5,4.8,17.22,17.22,0,0,0-.26,9c1.09,4.07,3.45,7,7.77,8l0,0a.16.16,0,0,1,0,.08l1,.19,2.55.48.17,0,.17,0,.17,0c.14.06.21,0,.21-.14Z"/><path class="cls-2" d="M793.22,257.22a1.74,1.74,0,0,0-1.22-.57c-1.62-.31-3.24-.6-4.85-.92-.94-.19-1-.27-.83-1.22,0-.23.08-.46.13-.69q2.55-13.55,5.11-27.1,1-5.28,2-10.57c.18-1,.27-1,1.21-.84,1.62.29,3.23.61,4.85.91a1.71,1.71,0,0,0,1.35-.09c.33-1.76.65-3.52,1-5.28.08-.43,0-.54-.43-.62-4.09-.75-8.17-1.51-12.25-2.32-.58-.11-.72,0-.83.57q-2.64,14.21-5.34,28.39-2.16,11.5-4.33,23c0,.27-.3.58.3.69,4.21.76,8.4,1.56,12.6,2.37.36.07.45,0,.52-.36C792.53,260.8,792.88,259,793.22,257.22Z"/></svg>